<?xml version="1.0" encoding="UTF-8" standalone="no"?>
<!DOCTYPE svg PUBLIC "-//W3C//DTD SVG 1.1//EN"
 "http://www.w3.org/Graphics/SVG/1.1/DTD/svg11.dtd">
<!-- Generated by graphviz version 8.0.5 (20230430.1635)
 -->
<!-- Pages: 1 -->
<svg width="1116pt" height="720pt"
 viewBox="0.00 0.00 1116.28 720.25" xmlns="http://www.w3.org/2000/svg" xmlns:xlink="http://www.w3.org/1999/xlink">
<g id="graph0" class="graph" transform="scale(1 1) rotate(0) translate(4 716.25)">
<polygon fill="white" stroke="none" points="-4,4 -4,-716.25 1112.28,-716.25 1112.28,4 -4,4"/>
<text text-anchor="start" x="488.14" y="-692.15" font-family="Times New Roman,serif" text-decoration="underline" font-size="18.00">Module Hierarchy</text>
<!-- blake256 -->
<g id="node1" class="node">
<title>blake256</title>
<path fill="cornflowerblue" stroke="black" d="M396.65,-684C396.65,-684 316.25,-684 316.25,-684 310.25,-684 304.25,-678 304.25,-672 304.25,-672 304.25,-660 304.25,-660 304.25,-654 310.25,-648 316.25,-648 316.25,-648 396.65,-648 396.65,-648 402.65,-648 408.65,-654 408.65,-660 408.65,-660 408.65,-672 408.65,-672 408.65,-678 402.65,-684 396.65,-684"/>
<text text-anchor="middle" x="356.45" y="-660.58" font-family="Times New Roman,serif" font-size="14.00">crypto/blake256</text>
</g>
<!-- chainhash -->
<g id="node5" class="node">
<title>chainhash</title>
<path fill="aquamarine" stroke="black" d="M590.53,-684C590.53,-684 494.38,-684 494.38,-684 488.38,-684 482.38,-678 482.38,-672 482.38,-672 482.38,-660 482.38,-660 482.38,-654 488.38,-648 494.38,-648 494.38,-648 590.53,-648 590.53,-648 596.53,-648 602.53,-654 602.53,-660 602.53,-660 602.53,-672 602.53,-672 602.53,-678 596.53,-684 590.53,-684"/>
<text text-anchor="middle" x="542.45" y="-660.58" font-family="Times New Roman,serif" font-size="14.00">chaincfg/chainhash</text>
</g>
<!-- blake256&#45;&gt;chainhash -->
<g id="edge1" class="edge">
<title>blake256&#45;&gt;chainhash</title>
<path fill="none" stroke="cornflowerblue" d="M419.76,-666C419.76,-666 482,-666 482,-666"/>
<polygon fill="cornflowerblue" stroke="cornflowerblue" points="419.76,-662.5 409.76,-666 419.76,-669.5 419.76,-662.5"/>
</g>
<!-- secp256k1 -->
<g id="node12" class="node">
<title>secp256k1</title>
<path fill="mediumvioletred" stroke="black" d="M237.9,-540C237.9,-540 135,-540 135,-540 129,-540 123,-534 123,-528 123,-528 123,-516 123,-516 123,-510 129,-504 135,-504 135,-504 237.9,-504 237.9,-504 243.9,-504 249.9,-510 249.9,-516 249.9,-516 249.9,-528 249.9,-528 249.9,-534 243.9,-540 237.9,-540"/>
<text text-anchor="middle" x="186.45" y="-516.58" font-family="Times New Roman,serif" font-size="14.00">dcrec/secp256k1/v4</text>
</g>
<!-- blake256&#45;&gt;secp256k1 -->
<g id="edge2" class="edge">
<title>blake256&#45;&gt;secp256k1</title>
<path fill="none" stroke="cornflowerblue" d="M293.06,-666C293.06,-666 186.45,-666 186.45,-666 186.45,-666 186.45,-578.99 186.45,-540.24"/>
<polygon fill="cornflowerblue" stroke="cornflowerblue" points="293.06,-669.5 303.06,-666 293.06,-662.5 293.06,-669.5"/>
</g>
<!-- ripemd160 -->
<g id="node2" class="node">
<title>ripemd160</title>
<path fill="darkturquoise" stroke="black" d="M502.52,-540C502.52,-540 412.38,-540 412.38,-540 406.38,-540 400.38,-534 400.38,-528 400.38,-528 400.38,-516 400.38,-516 400.38,-510 406.38,-504 412.38,-504 412.38,-504 502.52,-504 502.52,-504 508.52,-504 514.52,-510 514.52,-516 514.52,-516 514.52,-528 514.52,-528 514.52,-534 508.52,-540 502.52,-540"/>
<text text-anchor="middle" x="457.45" y="-516.58" font-family="Times New Roman,serif" font-size="14.00">crypto/ripemd160</text>
</g>
<!-- txscript -->
<g id="node16" class="node">
<title>txscript</title>
<path fill="mediumspringgreen" stroke="black" d="M329.27,-468C329.27,-468 279.62,-468 279.62,-468 273.62,-468 267.62,-462 267.62,-456 267.62,-456 267.62,-444 267.62,-444 267.62,-438 273.62,-432 279.62,-432 279.62,-432 329.27,-432 329.27,-432 335.27,-432 341.27,-438 341.27,-444 341.27,-444 341.27,-456 341.27,-456 341.27,-462 335.27,-468 329.27,-468"/>
<text text-anchor="middle" x="304.45" y="-444.57" font-family="Times New Roman,serif" font-size="14.00">txscript/v4</text>
</g>
<!-- ripemd160&#45;&gt;txscript -->
<g id="edge10" class="edge">
<title>ripemd160&#45;&gt;txscript</title>
<path fill="none" stroke="darkturquoise" d="M439.38,-492.83C439.38,-492.83 439.38,-450 439.38,-450 439.38,-450 381.61,-450 341.68,-450"/>
<polygon fill="darkturquoise" stroke="darkturquoise" points="435.88,-492.83 439.38,-502.83 442.88,-492.83 435.88,-492.83"/>
</g>
<!-- certgen -->
<g id="node3" class="node">
<title>certgen</title>
<path fill="darkkhaki" stroke="black" d="M42.9,-108C42.9,-108 12,-108 12,-108 6,-108 0,-102 0,-96 0,-96 0,-84 0,-84 0,-78 6,-72 12,-72 12,-72 42.9,-72 42.9,-72 48.9,-72 54.9,-78 54.9,-84 54.9,-84 54.9,-96 54.9,-96 54.9,-102 48.9,-108 42.9,-108"/>
<text text-anchor="middle" x="27.45" y="-84.58" font-family="Times New Roman,serif" font-size="14.00">certgen</text>
</g>
<!-- dcrd -->
<g id="node28" class="node">
<title>dcrd</title>
<path fill="chocolate" stroke="black" d="M497.45,-36C497.45,-36 467.45,-36 467.45,-36 461.45,-36 455.45,-30 455.45,-24 455.45,-24 455.45,-12 455.45,-12 455.45,-6 461.45,0 467.45,0 467.45,0 497.45,0 497.45,0 503.45,0 509.45,-6 509.45,-12 509.45,-12 509.45,-24 509.45,-24 509.45,-30 503.45,-36 497.45,-36"/>
<text text-anchor="middle" x="482.45" y="-12.57" font-family="Times New Roman,serif" font-size="14.00">dcrd</text>
</g>
<!-- certgen&#45;&gt;dcrd -->
<g id="edge27" class="edge">
<title>certgen&#45;&gt;dcrd</title>
<path fill="none" stroke="darkkhaki" d="M27.45,-60.56C27.45,-60.56 27.45,-5 27.45,-5 27.45,-5 356.64,-5 455.01,-5"/>
<polygon fill="darkkhaki" stroke="darkkhaki" points="23.95,-60.56 27.45,-70.56 30.95,-60.56 23.95,-60.56"/>
</g>
<!-- bech32 -->
<g id="node4" class="node">
<title>bech32</title>
<path fill="#cdc0b0" stroke="black" d="M115.9,-108C115.9,-108 85,-108 85,-108 79,-108 73,-102 73,-96 73,-96 73,-84 73,-84 73,-78 79,-72 85,-72 85,-72 115.9,-72 115.9,-72 121.9,-72 127.9,-78 127.9,-84 127.9,-84 127.9,-96 127.9,-96 127.9,-102 121.9,-108 115.9,-108"/>
<text text-anchor="middle" x="100.45" y="-84.58" font-family="Times New Roman,serif" font-size="14.00">bech32</text>
</g>
<!-- bech32&#45;&gt;dcrd -->
<g id="edge28" class="edge">
<title>bech32&#45;&gt;dcrd</title>
<path fill="none" stroke="#cdc0b0" d="M100.45,-60.52C100.45,-60.52 100.45,-12 100.45,-12 100.45,-12 367.39,-12 454.98,-12"/>
<polygon fill="#cdc0b0" stroke="#cdc0b0" points="96.95,-60.52 100.45,-70.52 103.95,-60.52 96.95,-60.52"/>
</g>
<!-- dcrjson -->
<g id="node6" class="node">
<title>dcrjson</title>
<path fill="indianred" stroke="black" d="M567.28,-612C567.28,-612 517.62,-612 517.62,-612 511.63,-612 505.63,-606 505.63,-600 505.63,-600 505.63,-588 505.63,-588 505.63,-582 511.63,-576 517.62,-576 517.62,-576 567.28,-576 567.28,-576 573.28,-576 579.28,-582 579.28,-588 579.28,-588 579.28,-600 579.28,-600 579.28,-606 573.28,-612 567.28,-612"/>
<text text-anchor="middle" x="542.45" y="-588.58" font-family="Times New Roman,serif" font-size="14.00">dcrjson/v4</text>
</g>
<!-- chainhash&#45;&gt;dcrjson -->
<g id="edge4" class="edge">
<title>chainhash&#45;&gt;dcrjson</title>
<path fill="none" stroke="aquamarine" d="M542.45,-636.83C542.45,-636.83 542.45,-612.41 542.45,-612.41"/>
<polygon fill="aquamarine" stroke="aquamarine" points="538.95,-636.83 542.45,-646.83 545.95,-636.83 538.95,-636.83"/>
</g>
<!-- wire -->
<g id="node8" class="node">
<title>wire</title>
<path fill="coral" stroke="black" d="M691.45,-612C691.45,-612 661.45,-612 661.45,-612 655.45,-612 649.45,-606 649.45,-600 649.45,-600 649.45,-588 649.45,-588 649.45,-582 655.45,-576 661.45,-576 661.45,-576 691.45,-576 691.45,-576 697.45,-576 703.45,-582 703.45,-588 703.45,-588 703.45,-600 703.45,-600 703.45,-606 697.45,-612 691.45,-612"/>
<text text-anchor="middle" x="676.45" y="-588.58" font-family="Times New Roman,serif" font-size="14.00">wire</text>
</g>
<!-- chainhash&#45;&gt;wire -->
<g id="edge5" class="edge">
<title>chainhash&#45;&gt;wire</title>
<path fill="none" stroke="aquamarine" d="M590.9,-636.83C590.9,-636.83 590.9,-594 590.9,-594 590.9,-594 624.32,-594 649.38,-594"/>
<polygon fill="aquamarine" stroke="aquamarine" points="587.4,-636.83 590.9,-646.83 594.4,-636.83 587.4,-636.83"/>
</g>
<!-- types -->
<g id="node7" class="node">
<title>types</title>
<path fill="tomato" stroke="black" d="M595.4,-468C595.4,-468 489.5,-468 489.5,-468 483.5,-468 477.5,-462 477.5,-456 477.5,-456 477.5,-444 477.5,-444 477.5,-438 483.5,-432 489.5,-432 489.5,-432 595.4,-432 595.4,-432 601.4,-432 607.4,-438 607.4,-444 607.4,-444 607.4,-456 607.4,-456 607.4,-462 601.4,-468 595.4,-468"/>
<text text-anchor="middle" x="542.45" y="-444.57" font-family="Times New Roman,serif" font-size="14.00">rpc/jsonrpc/types/v4</text>
</g>
<!-- dcrjson&#45;&gt;types -->
<g id="edge23" class="edge">
<title>dcrjson&#45;&gt;types</title>
<path fill="none" stroke="indianred" d="M542.26,-564.76C542.26,-564.76 542.26,-468.09 542.26,-468.09"/>
<polygon fill="indianred" stroke="indianred" points="538.76,-564.76 542.26,-574.76 545.76,-564.76 538.76,-564.76"/>
</g>
<!-- rpcclient -->
<g id="node22" class="node">
<title>rpcclient</title>
<path fill="mediumseagreen" stroke="black" d="M510.27,-108C510.27,-108 454.62,-108 454.62,-108 448.62,-108 442.62,-102 442.62,-96 442.62,-96 442.62,-84 442.62,-84 442.62,-78 448.62,-72 454.62,-72 454.62,-72 510.27,-72 510.27,-72 516.27,-72 522.27,-78 522.27,-84 522.27,-84 522.27,-96 522.27,-96 522.27,-102 516.27,-108 510.27,-108"/>
<text text-anchor="middle" x="482.45" y="-84.58" font-family="Times New Roman,serif" font-size="14.00">rpcclient/v8</text>
</g>
<!-- types&#45;&gt;rpcclient -->
<g id="edge24" class="edge">
<title>types&#45;&gt;rpcclient</title>
<path fill="none" stroke="tomato" d="M518.52,-420.65C518.52,-420.65 518.52,-108.31 518.52,-108.31"/>
<polygon fill="tomato" stroke="tomato" points="515.03,-420.65 518.52,-430.65 522.03,-420.65 515.03,-420.65"/>
</g>
<!-- chaincfg -->
<g id="node9" class="node">
<title>chaincfg</title>
<path fill="cadetblue" stroke="black" d="M636.9,-540C636.9,-540 582,-540 582,-540 576,-540 570,-534 570,-528 570,-528 570,-516 570,-516 570,-510 576,-504 582,-504 582,-504 636.9,-504 636.9,-504 642.9,-504 648.9,-510 648.9,-516 648.9,-516 648.9,-528 648.9,-528 648.9,-534 642.9,-540 636.9,-540"/>
<text text-anchor="middle" x="609.45" y="-516.58" font-family="Times New Roman,serif" font-size="14.00">chaincfg/v3</text>
</g>
<!-- wire&#45;&gt;chaincfg -->
<g id="edge7" class="edge">
<title>wire&#45;&gt;chaincfg</title>
<path fill="none" stroke="coral" d="M665.02,-564.83C665.02,-564.83 665.02,-522 665.02,-522 665.02,-522 658.15,-522 649.24,-522"/>
<polygon fill="coral" stroke="coral" points="661.52,-564.83 665.02,-574.83 668.52,-564.83 661.52,-564.83"/>
</g>
<!-- standalone -->
<g id="node19" class="node">
<title>standalone</title>
<path fill="#8b1a1a" stroke="black" d="M684.15,-108C684.15,-108 552.75,-108 552.75,-108 546.75,-108 540.75,-102 540.75,-96 540.75,-96 540.75,-84 540.75,-84 540.75,-78 546.75,-72 552.75,-72 552.75,-72 684.15,-72 684.15,-72 690.15,-72 696.15,-78 696.15,-84 696.15,-84 696.15,-96 696.15,-96 696.15,-102 690.15,-108 684.15,-108"/>
<text text-anchor="middle" x="618.45" y="-84.58" font-family="Times New Roman,serif" font-size="14.00">blockchain/standalone/v2</text>
</g>
<!-- wire&#45;&gt;standalone -->
<g id="edge9" class="edge">
<title>wire&#45;&gt;standalone</title>
<path fill="none" stroke="coral" d="M680.58,-564.76C680.58,-564.76 680.58,-108.48 680.58,-108.48"/>
<polygon fill="coral" stroke="coral" points="677.08,-564.76 680.58,-574.76 684.08,-564.76 677.08,-564.76"/>
</g>
<!-- addrmgr -->
<g id="node23" class="node">
<title>addrmgr</title>
<path fill="lightsalmon" stroke="black" d="M780.9,-108C780.9,-108 726,-108 726,-108 720,-108 714,-102 714,-96 714,-96 714,-84 714,-84 714,-78 720,-72 726,-72 726,-72 780.9,-72 780.9,-72 786.9,-72 792.9,-78 792.9,-84 792.9,-84 792.9,-96 792.9,-96 792.9,-102 786.9,-108 780.9,-108"/>
<text text-anchor="middle" x="753.45" y="-84.58" font-family="Times New Roman,serif" font-size="14.00">addrmgr/v2</text>
</g>
<!-- wire&#45;&gt;addrmgr -->
<g id="edge6" class="edge">
<title>wire&#45;&gt;addrmgr</title>
<path fill="none" stroke="coral" d="M699.8,-564.76C699.8,-564.76 699.8,-90 699.8,-90 699.8,-90 705.71,-90 713.62,-90"/>
<polygon fill="coral" stroke="coral" points="696.3,-564.76 699.8,-574.76 703.3,-564.76 696.3,-564.76"/>
</g>
<!-- connmgr -->
<g id="node24" class="node">
<title>connmgr</title>
<path fill="mistyrose" stroke="black" d="M880.03,-108C880.03,-108 822.88,-108 822.88,-108 816.88,-108 810.88,-102 810.88,-96 810.88,-96 810.88,-84 810.88,-84 810.88,-78 816.88,-72 822.88,-72 822.88,-72 880.03,-72 880.03,-72 886.03,-72 892.03,-78 892.03,-84 892.03,-84 892.03,-96 892.03,-96 892.03,-102 886.03,-108 880.03,-108"/>
<text text-anchor="middle" x="851.45" y="-84.58" font-family="Times New Roman,serif" font-size="14.00">connmgr/v3</text>
</g>
<!-- wire&#45;&gt;connmgr -->
<g id="edge8" class="edge">
<title>wire&#45;&gt;connmgr</title>
<path fill="none" stroke="coral" d="M714.79,-594C714.79,-594 851.45,-594 851.45,-594 851.45,-594 851.45,-198.59 851.45,-108.24"/>
<polygon fill="coral" stroke="coral" points="714.79,-590.5 704.79,-594 714.79,-597.5 714.79,-590.5"/>
</g>
<!-- chaincfg&#45;&gt;txscript -->
<g id="edge3" class="edge">
<title>chaincfg&#45;&gt;txscript</title>
<path fill="none" stroke="cadetblue" d="M588.7,-492.58C588.7,-492.58 588.7,-486 588.7,-486 588.7,-486 316.98,-486 316.98,-486 316.98,-486 316.98,-477.28 316.98,-468.42"/>
<polygon fill="cadetblue" stroke="cadetblue" points="585.2,-492.58 588.7,-502.58 592.2,-492.58 585.2,-492.58"/>
</g>
<!-- dcrec -->
<g id="node10" class="node">
<title>dcrec</title>
<path fill="mediumpurple" stroke="black" d="M93.45,-540C93.45,-540 63.45,-540 63.45,-540 57.45,-540 51.45,-534 51.45,-528 51.45,-528 51.45,-516 51.45,-516 51.45,-510 57.45,-504 63.45,-504 63.45,-504 93.45,-504 93.45,-504 99.45,-504 105.45,-510 105.45,-516 105.45,-516 105.45,-528 105.45,-528 105.45,-534 99.45,-540 93.45,-540"/>
<text text-anchor="middle" x="78.45" y="-516.58" font-family="Times New Roman,serif" font-size="14.00">dcrec</text>
</g>
<!-- dcrec&#45;&gt;txscript -->
<g id="edge11" class="edge">
<title>dcrec&#45;&gt;txscript</title>
<path fill="none" stroke="mediumpurple" d="M89.22,-492.52C89.22,-492.52 89.22,-444 89.22,-444 89.22,-444 205.92,-444 267.45,-444"/>
<polygon fill="mediumpurple" stroke="mediumpurple" points="85.73,-492.52 89.22,-502.52 92.73,-492.52 85.73,-492.52"/>
</g>
<!-- edwards -->
<g id="node11" class="node">
<title>edwards</title>
<path fill="lightseagreen" stroke="black" d="M370.52,-540C370.52,-540 280.38,-540 280.38,-540 274.38,-540 268.38,-534 268.38,-528 268.38,-528 268.38,-516 268.38,-516 268.38,-510 274.38,-504 280.38,-504 280.38,-504 370.52,-504 370.52,-504 376.52,-504 382.52,-510 382.52,-516 382.52,-516 382.52,-528 382.52,-528 382.52,-534 376.52,-540 370.52,-540"/>
<text text-anchor="middle" x="325.45" y="-516.58" font-family="Times New Roman,serif" font-size="14.00">dcrec/edwards/v2</text>
</g>
<!-- edwards&#45;&gt;txscript -->
<g id="edge12" class="edge">
<title>edwards&#45;&gt;txscript</title>
<path fill="none" stroke="lightseagreen" d="M292.67,-492.83C292.67,-492.83 292.67,-468.41 292.67,-468.41"/>
<polygon fill="lightseagreen" stroke="lightseagreen" points="289.18,-492.83 292.67,-502.83 296.18,-492.83 289.18,-492.83"/>
</g>
<!-- secp256k1&#45;&gt;txscript -->
<g id="edge13" class="edge">
<title>secp256k1&#45;&gt;txscript</title>
<path fill="none" stroke="mediumvioletred" d="M234.51,-492.62C234.51,-492.62 234.51,-456 234.51,-456 234.51,-456 250.66,-456 267.43,-456"/>
<polygon fill="mediumvioletred" stroke="mediumvioletred" points="231.01,-492.62 234.51,-502.62 238.01,-492.62 231.01,-492.62"/>
</g>
<!-- dcrutil -->
<g id="node13" class="node">
<title>dcrutil</title>
<path fill="burlywood" stroke="black" d="M383.9,-396C383.9,-396 341,-396 341,-396 335,-396 329,-390 329,-384 329,-384 329,-372 329,-372 329,-366 335,-360 341,-360 341,-360 383.9,-360 383.9,-360 389.9,-360 395.9,-366 395.9,-372 395.9,-372 395.9,-384 395.9,-384 395.9,-390 389.9,-396 383.9,-396"/>
<text text-anchor="middle" x="362.45" y="-372.57" font-family="Times New Roman,serif" font-size="14.00">dcrutil/v4</text>
</g>
<!-- database -->
<g id="node14" class="node">
<title>database</title>
<path fill="dodgerblue" stroke="black" d="M469.65,-324C469.65,-324 413.25,-324 413.25,-324 407.25,-324 401.25,-318 401.25,-312 401.25,-312 401.25,-300 401.25,-300 401.25,-294 407.25,-288 413.25,-288 413.25,-288 469.65,-288 469.65,-288 475.65,-288 481.65,-294 481.65,-300 481.65,-300 481.65,-312 481.65,-312 481.65,-318 475.65,-324 469.65,-324"/>
<text text-anchor="middle" x="441.45" y="-300.57" font-family="Times New Roman,serif" font-size="14.00">database/v3</text>
</g>
<!-- dcrutil&#45;&gt;database -->
<g id="edge18" class="edge">
<title>dcrutil&#45;&gt;database</title>
<path fill="none" stroke="burlywood" d="M370.83,-348.83C370.83,-348.83 370.83,-306 370.83,-306 370.83,-306 385.08,-306 400.78,-306"/>
<polygon fill="burlywood" stroke="burlywood" points="367.33,-348.83 370.83,-358.83 374.33,-348.83 367.33,-348.83"/>
</g>
<!-- blockchain -->
<g id="node25" class="node">
<title>blockchain</title>
<path fill="orchid" stroke="black" d="M412.65,-108C412.65,-108 344.25,-108 344.25,-108 338.25,-108 332.25,-102 332.25,-96 332.25,-96 332.25,-84 332.25,-84 332.25,-78 338.25,-72 344.25,-72 344.25,-72 412.65,-72 412.65,-72 418.65,-72 424.65,-78 424.65,-84 424.65,-84 424.65,-96 424.65,-96 424.65,-102 418.65,-108 412.65,-108"/>
<text text-anchor="middle" x="378.45" y="-84.58" font-family="Times New Roman,serif" font-size="14.00">blockchain/v5</text>
</g>
<!-- dcrutil&#45;&gt;blockchain -->
<g id="edge17" class="edge">
<title>dcrutil&#45;&gt;blockchain</title>
<path fill="none" stroke="burlywood" d="M351.54,-348.55C351.54,-348.55 351.54,-108.3 351.54,-108.3"/>
<polygon fill="burlywood" stroke="burlywood" points="348.04,-348.55 351.54,-358.55 355.04,-348.55 348.04,-348.55"/>
</g>
<!-- stake -->
<g id="node17" class="node">
<title>stake</title>
<path fill="bisque" stroke="black" d="M502.77,-252C502.77,-252 402.12,-252 402.12,-252 396.12,-252 390.12,-246 390.12,-240 390.12,-240 390.12,-228 390.12,-228 390.12,-222 396.12,-216 402.12,-216 402.12,-216 502.77,-216 502.77,-216 508.77,-216 514.77,-222 514.77,-228 514.77,-228 514.77,-240 514.77,-240 514.77,-246 508.77,-252 502.77,-252"/>
<text text-anchor="middle" x="452.45" y="-228.57" font-family="Times New Roman,serif" font-size="14.00">blockchain/stake/v5</text>
</g>
<!-- database&#45;&gt;stake -->
<g id="edge19" class="edge">
<title>database&#45;&gt;stake</title>
<path fill="none" stroke="dodgerblue" d="M441.45,-276.83C441.45,-276.83 441.45,-252.41 441.45,-252.41"/>
<polygon fill="dodgerblue" stroke="dodgerblue" points="437.95,-276.83 441.45,-286.83 444.95,-276.83 437.95,-276.83"/>
</g>
<!-- hdkeychain -->
<g id="node15" class="node">
<title>hdkeychain</title>
<path fill="deepskyblue" stroke="black" d="M301.77,-108C301.77,-108 231.12,-108 231.12,-108 225.12,-108 219.12,-102 219.12,-96 219.12,-96 219.12,-84 219.12,-84 219.12,-78 225.12,-72 231.12,-72 231.12,-72 301.77,-72 301.77,-72 307.77,-72 313.77,-78 313.77,-84 313.77,-84 313.77,-96 313.77,-96 313.77,-102 307.77,-108 301.77,-108"/>
<text text-anchor="middle" x="266.45" y="-84.58" font-family="Times New Roman,serif" font-size="14.00">hdkeychain/v3</text>
</g>
<!-- hdkeychain&#45;&gt;dcrd -->
<g id="edge30" class="edge">
<title>hdkeychain&#45;&gt;dcrd</title>
<path fill="none" stroke="deepskyblue" d="M266.45,-60.62C266.45,-60.62 266.45,-24 266.45,-24 266.45,-24 396.97,-24 455.09,-24"/>
<polygon fill="deepskyblue" stroke="deepskyblue" points="262.95,-60.62 266.45,-70.62 269.95,-60.62 262.95,-60.62"/>
</g>
<!-- txscript&#45;&gt;dcrutil -->
<g id="edge14" class="edge">
<title>txscript&#45;&gt;dcrutil</title>
<path fill="none" stroke="mediumspringgreen" d="M335.14,-420.83C335.14,-420.83 335.14,-396.41 335.14,-396.41"/>
<polygon fill="mediumspringgreen" stroke="mediumspringgreen" points="331.64,-420.83 335.14,-430.83 338.64,-420.83 331.64,-420.83"/>
</g>
<!-- txscript&#45;&gt;hdkeychain -->
<g id="edge15" class="edge">
<title>txscript&#45;&gt;hdkeychain</title>
<path fill="none" stroke="mediumspringgreen" d="M298.39,-420.65C298.39,-420.65 298.39,-108.31 298.39,-108.31"/>
<polygon fill="mediumspringgreen" stroke="mediumspringgreen" points="294.89,-420.65 298.39,-430.65 301.89,-420.65 294.89,-420.65"/>
</g>
<!-- peer -->
<g id="node21" class="node">
<title>peer</title>
<path fill="khaki" stroke="black" d="M189.27,-108C189.27,-108 157.62,-108 157.62,-108 151.62,-108 145.62,-102 145.62,-96 145.62,-96 145.62,-84 145.62,-84 145.62,-78 151.62,-72 157.62,-72 157.62,-72 189.27,-72 189.27,-72 195.27,-72 201.27,-78 201.27,-84 201.27,-84 201.27,-96 201.27,-96 201.27,-102 195.27,-108 189.27,-108"/>
<text text-anchor="middle" x="173.45" y="-84.58" font-family="Times New Roman,serif" font-size="14.00">peer/v3</text>
</g>
<!-- txscript&#45;&gt;peer -->
<g id="edge16" class="edge">
<title>txscript&#45;&gt;peer</title>
<path fill="none" stroke="mediumspringgreen" d="M283.01,-420.65C283.01,-420.65 283.01,-126 283.01,-126 283.01,-126 182.72,-126 182.72,-126 182.72,-126 182.72,-117.28 182.72,-108.42"/>
<polygon fill="mediumspringgreen" stroke="mediumspringgreen" points="279.51,-420.65 283.01,-430.65 286.51,-420.65 279.51,-420.65"/>
</g>
<!-- gcs -->
<g id="node18" class="node">
<title>gcs</title>
<path fill="gold" stroke="black" d="M485.45,-180C485.45,-180 455.45,-180 455.45,-180 449.45,-180 443.45,-174 443.45,-168 443.45,-168 443.45,-156 443.45,-156 443.45,-150 449.45,-144 455.45,-144 455.45,-144 485.45,-144 485.45,-144 491.45,-144 497.45,-150 497.45,-156 497.45,-156 497.45,-168 497.45,-168 497.45,-174 491.45,-180 485.45,-180"/>
<text text-anchor="middle" x="470.45" y="-156.57" font-family="Times New Roman,serif" font-size="14.00">gcs/v4</text>
</g>
<!-- stake&#45;&gt;gcs -->
<g id="edge20" class="edge">
<title>stake&#45;&gt;gcs</title>
<path fill="none" stroke="bisque" d="M470.45,-204.83C470.45,-204.83 470.45,-180.41 470.45,-180.41"/>
<polygon fill="bisque" stroke="bisque" points="466.95,-204.83 470.45,-214.83 473.95,-204.83 466.95,-204.83"/>
</g>
<!-- gcs&#45;&gt;rpcclient -->
<g id="edge21" class="edge">
<title>gcs&#45;&gt;rpcclient</title>
<path fill="none" stroke="gold" d="M470.45,-132.83C470.45,-132.83 470.45,-108.41 470.45,-108.41"/>
<polygon fill="gold" stroke="gold" points="466.95,-132.83 470.45,-142.83 473.95,-132.83 466.95,-132.83"/>
</g>
<!-- standalone&#45;&gt;dcrd -->
<g id="edge26" class="edge">
<title>standalone&#45;&gt;dcrd</title>
<path fill="none" stroke="firebrick" d="M618.45,-60.67C618.45,-60.67 618.45,-30 618.45,-30 618.45,-30 549.33,-30 509.64,-30"/>
<polygon fill="firebrick" stroke="firebrick" points="614.95,-60.67 618.45,-70.67 621.95,-60.67 614.95,-60.67"/>
</g>
<!-- lru -->
<g id="node20" class="node">
<title>lru</title>
<path fill="#3a5fcd" stroke="black" d="M203.15,-180C203.15,-180 143.75,-180 143.75,-180 137.75,-180 131.75,-174 131.75,-168 131.75,-168 131.75,-156 131.75,-156 131.75,-150 137.75,-144 143.75,-144 143.75,-144 203.15,-144 203.15,-144 209.15,-144 215.15,-150 215.15,-156 215.15,-156 215.15,-168 215.15,-168 215.15,-174 209.15,-180 203.15,-180"/>
<text text-anchor="middle" x="173.45" y="-156.57" font-family="Times New Roman,serif" font-size="14.00">container/lru</text>
</g>
<!-- lru&#45;&gt;peer -->
<g id="edge22" class="edge">
<title>lru&#45;&gt;peer</title>
<path fill="none" stroke="#3a5fcd" d="M164.17,-132.83C164.17,-132.83 164.17,-108.41 164.17,-108.41"/>
<polygon fill="#3a5fcd" stroke="#3a5fcd" points="160.68,-132.83 164.17,-142.83 167.68,-132.83 160.68,-132.83"/>
</g>
<!-- peer&#45;&gt;dcrd -->
<g id="edge33" class="edge">
<title>peer&#45;&gt;dcrd</title>
<path fill="none" stroke="khaki" d="M173.45,-60.83C173.45,-60.83 173.45,-18 173.45,-18 173.45,-18 379.4,-18 455.03,-18"/>
<polygon fill="khaki" stroke="khaki" points="169.95,-60.83 173.45,-70.83 176.95,-60.83 169.95,-60.83"/>
</g>
<!-- rpcclient&#45;&gt;dcrd -->
<g id="edge32" class="edge">
<title>rpcclient&#45;&gt;dcrd</title>
<path fill="none" stroke="mediumseagreen" d="M482.45,-60.83C482.45,-60.83 482.45,-36.41 482.45,-36.41"/>
<polygon fill="mediumseagreen" stroke="mediumseagreen" points="478.95,-60.83 482.45,-70.83 485.95,-60.83 478.95,-60.83"/>
</g>
<!-- addrmgr&#45;&gt;dcrd -->
<g id="edge29" class="edge">
<title>addrmgr&#45;&gt;dcrd</title>
<path fill="none" stroke="lightsalmon" d="M753.45,-60.62C753.45,-60.62 753.45,-24 753.45,-24 753.45,-24 578.82,-24 509.93,-24"/>
<polygon fill="lightsalmon" stroke="lightsalmon" points="749.95,-60.62 753.45,-70.62 756.95,-60.62 749.95,-60.62"/>
</g>
<!-- connmgr&#45;&gt;dcrd -->
<g id="edge31" class="edge">
<title>connmgr&#45;&gt;dcrd</title>
<path fill="none" stroke="mistyrose" d="M851.45,-60.83C851.45,-60.83 851.45,-18 851.45,-18 851.45,-18 595.4,-18 509.88,-18"/>
<polygon fill="mistyrose" stroke="mistyrose" points="847.95,-60.83 851.45,-70.83 854.95,-60.83 847.95,-60.83"/>
</g>
<!-- blockchain&#45;&gt;dcrd -->
<g id="edge25" class="edge">
<title>blockchain&#45;&gt;dcrd</title>
<path fill="none" stroke="orchid" d="M378.45,-60.67C378.45,-60.67 378.45,-30 378.45,-30 378.45,-30 424.31,-30 455.13,-30"/>
<polygon fill="orchid" stroke="orchid" points="374.95,-60.67 378.45,-70.67 381.95,-60.67 374.95,-60.67"/>
</g>
<!-- apbf -->
<g id="node26" class="node">
<title>apbf</title>
<path fill="goldenrod" stroke="black" d="M992.78,-108C992.78,-108 922.12,-108 922.12,-108 916.12,-108 910.12,-102 910.12,-96 910.12,-96 910.12,-84 910.12,-84 910.12,-78 916.12,-72 922.12,-72 922.12,-72 992.78,-72 992.78,-72 998.78,-72 1004.78,-78 1004.78,-84 1004.78,-84 1004.78,-96 1004.78,-96 1004.78,-102 998.78,-108 992.78,-108"/>
<text text-anchor="middle" x="957.45" y="-84.58" font-family="Times New Roman,serif" font-size="14.00">container/apbf</text>
</g>
<!-- apbf&#45;&gt;dcrd -->
<g id="edge34" class="edge">
<title>apbf&#45;&gt;dcrd</title>
<path fill="none" stroke="goldenrod" d="M957.45,-60.52C957.45,-60.52 957.45,-12 957.45,-12 957.45,-12 610.63,-12 509.69,-12"/>
<polygon fill="goldenrod" stroke="goldenrod" points="953.95,-60.52 957.45,-70.52 960.95,-60.52 953.95,-60.52"/>
</g>
<!-- uint256 -->
<g id="node27" class="node">
<title>uint256</title>
<path fill="lightgreen" stroke="black" d="M1096.28,-108C1096.28,-108 1034.62,-108 1034.62,-108 1028.62,-108 1022.62,-102 1022.62,-96 1022.62,-96 1022.62,-84 1022.62,-84 1022.62,-78 1028.62,-72 1034.62,-72 1034.62,-72 1096.28,-72 1096.28,-72 1102.28,-72 1108.28,-78 1108.28,-84 1108.28,-84 1108.28,-96 1108.28,-96 1108.28,-102 1102.28,-108 1096.28,-108"/>
<text text-anchor="middle" x="1065.45" y="-84.58" font-family="Times New Roman,serif" font-size="14.00">math/uint256</text>
</g>
<!-- uint256&#45;&gt;dcrd -->
<g id="edge35" class="edge">
<title>uint256&#45;&gt;dcrd</title>
<path fill="none" stroke="lightgreen" d="M1065.45,-60.56C1065.45,-60.56 1065.45,-5 1065.45,-5 1065.45,-5 625.05,-5 509.79,-5"/>
<polygon fill="lightgreen" stroke="lightgreen" points="1061.95,-60.56 1065.45,-70.56 1068.95,-60.56 1061.95,-60.56"/>
</g>
</g>
</svg>
