<?xml version="1.0" encoding="UTF-8" standalone="no"?>
<!DOCTYPE svg PUBLIC "-//W3C//DTD SVG 1.1//EN"
 "http://www.w3.org/Graphics/SVG/1.1/DTD/svg11.dtd">
<!-- Generated by graphviz version 8.0.5 (20230430.1635)
 -->
<!-- Pages: 1 -->
<svg width="1186pt" height="720pt"
 viewBox="0.00 0.00 1185.65 720.25" xmlns="http://www.w3.org/2000/svg" xmlns:xlink="http://www.w3.org/1999/xlink">
<g id="graph0" class="graph" transform="scale(1 1) rotate(0) translate(4 716.25)">
<polygon fill="white" stroke="none" points="-4,4 -4,-716.25 1181.65,-716.25 1181.65,4 -4,4"/>
<text text-anchor="start" x="522.83" y="-692.15" font-family="Times New Roman,serif" text-decoration="underline" font-size="18.00">Module Hierarchy</text>
<!-- blake256 -->
<g id="node1" class="node">
<title>blake256</title>
<path fill="cornflowerblue" stroke="black" d="M517.02,-684C517.02,-684 436.62,-684 436.62,-684 430.62,-684 424.62,-678 424.62,-672 424.62,-672 424.62,-660 424.62,-660 424.62,-654 430.62,-648 436.62,-648 436.62,-648 517.02,-648 517.02,-648 523.02,-648 529.02,-654 529.02,-660 529.02,-660 529.02,-672 529.02,-672 529.02,-678 523.02,-684 517.02,-684"/>
<text text-anchor="middle" x="476.82" y="-660.58" font-family="Times New Roman,serif" font-size="14.00">crypto/blake256</text>
</g>
<!-- chainhash -->
<g id="node6" class="node">
<title>chainhash</title>
<path fill="aquamarine" stroke="black" d="M695.9,-684C695.9,-684 599.75,-684 599.75,-684 593.75,-684 587.75,-678 587.75,-672 587.75,-672 587.75,-660 587.75,-660 587.75,-654 593.75,-648 599.75,-648 599.75,-648 695.9,-648 695.9,-648 701.9,-648 707.9,-654 707.9,-660 707.9,-660 707.9,-672 707.9,-672 707.9,-678 701.9,-684 695.9,-684"/>
<text text-anchor="middle" x="647.83" y="-660.58" font-family="Times New Roman,serif" font-size="14.00">chaincfg/chainhash</text>
</g>
<!-- blake256&#45;&gt;chainhash -->
<g id="edge1" class="edge">
<title>blake256&#45;&gt;chainhash</title>
<path fill="none" stroke="cornflowerblue" d="M540.06,-666C540.06,-666 587.52,-666 587.52,-666"/>
<polygon fill="cornflowerblue" stroke="cornflowerblue" points="540.06,-662.5 530.06,-666 540.06,-669.5 540.06,-662.5"/>
</g>
<!-- secp256k1 -->
<g id="node13" class="node">
<title>secp256k1</title>
<path fill="mediumvioletred" stroke="black" d="M404.27,-540C404.27,-540 301.38,-540 301.38,-540 295.38,-540 289.38,-534 289.38,-528 289.38,-528 289.38,-516 289.38,-516 289.38,-510 295.38,-504 301.38,-504 301.38,-504 404.27,-504 404.27,-504 410.27,-504 416.27,-510 416.27,-516 416.27,-516 416.27,-528 416.27,-528 416.27,-534 410.27,-540 404.27,-540"/>
<text text-anchor="middle" x="352.82" y="-516.58" font-family="Times New Roman,serif" font-size="14.00">dcrec/secp256k1/v4</text>
</g>
<!-- blake256&#45;&gt;secp256k1 -->
<g id="edge2" class="edge">
<title>blake256&#45;&gt;secp256k1</title>
<path fill="none" stroke="cornflowerblue" d="M429.23,-636.76C429.23,-636.76 429.23,-522 429.23,-522 429.23,-522 424.15,-522 416.61,-522"/>
<polygon fill="cornflowerblue" stroke="cornflowerblue" points="425.73,-636.76 429.23,-646.76 432.73,-636.76 425.73,-636.76"/>
</g>
<!-- ripemd160 -->
<g id="node2" class="node">
<title>ripemd160</title>
<path fill="darkturquoise" stroke="black" d="M258.9,-540C258.9,-540 168.75,-540 168.75,-540 162.75,-540 156.75,-534 156.75,-528 156.75,-528 156.75,-516 156.75,-516 156.75,-510 162.75,-504 168.75,-504 168.75,-504 258.9,-504 258.9,-504 264.9,-504 270.9,-510 270.9,-516 270.9,-516 270.9,-528 270.9,-528 270.9,-534 264.9,-540 258.9,-540"/>
<text text-anchor="middle" x="213.82" y="-516.58" font-family="Times New Roman,serif" font-size="14.00">crypto/ripemd160</text>
</g>
<!-- txscript -->
<g id="node18" class="node">
<title>txscript</title>
<path fill="mediumspringgreen" stroke="black" d="M481.65,-468C481.65,-468 432,-468 432,-468 426,-468 420,-462 420,-456 420,-456 420,-444 420,-444 420,-438 426,-432 432,-432 432,-432 481.65,-432 481.65,-432 487.65,-432 493.65,-438 493.65,-444 493.65,-444 493.65,-456 493.65,-456 493.65,-462 487.65,-468 481.65,-468"/>
<text text-anchor="middle" x="456.82" y="-444.57" font-family="Times New Roman,serif" font-size="14.00">txscript/v4</text>
</g>
<!-- ripemd160&#45;&gt;txscript -->
<g id="edge9" class="edge">
<title>ripemd160&#45;&gt;txscript</title>
<path fill="none" stroke="darkturquoise" d="M256.95,-492.83C256.95,-492.83 256.95,-450 256.95,-450 256.95,-450 361.9,-450 419.7,-450"/>
<polygon fill="darkturquoise" stroke="darkturquoise" points="253.45,-492.83 256.95,-502.83 260.45,-492.83 253.45,-492.83"/>
</g>
<!-- rand -->
<g id="node3" class="node">
<title>rand</title>
<path fill="lavender" stroke="black" d="M67.65,-108C67.65,-108 12,-108 12,-108 6,-108 0,-102 0,-96 0,-96 0,-84 0,-84 0,-78 6,-72 12,-72 12,-72 67.65,-72 67.65,-72 73.65,-72 79.65,-78 79.65,-84 79.65,-84 79.65,-96 79.65,-96 79.65,-102 73.65,-108 67.65,-108"/>
<text text-anchor="middle" x="39.82" y="-84.58" font-family="Times New Roman,serif" font-size="14.00">crypto/rand</text>
</g>
<!-- dcrd -->
<g id="node29" class="node">
<title>dcrd</title>
<path fill="chocolate" stroke="black" d="M505.83,-36C505.83,-36 475.82,-36 475.82,-36 469.82,-36 463.82,-30 463.82,-24 463.82,-24 463.82,-12 463.82,-12 463.82,-6 469.82,0 475.82,0 475.82,0 505.83,0 505.83,0 511.83,0 517.83,-6 517.83,-12 517.83,-12 517.83,-24 517.83,-24 517.83,-30 511.83,-36 505.83,-36"/>
<text text-anchor="middle" x="490.82" y="-12.57" font-family="Times New Roman,serif" font-size="14.00">dcrd</text>
</g>
<!-- rand&#45;&gt;dcrd -->
<g id="edge25" class="edge">
<title>rand&#45;&gt;dcrd</title>
<path fill="none" stroke="lavender" d="M39.82,-60.56C39.82,-60.56 39.82,-5 39.82,-5 39.82,-5 366.12,-5 463.63,-5"/>
<polygon fill="lavender" stroke="lavender" points="36.33,-60.56 39.82,-70.56 43.33,-60.56 36.33,-60.56"/>
</g>
<!-- certgen -->
<g id="node4" class="node">
<title>certgen</title>
<path fill="darkkhaki" stroke="black" d="M140.27,-108C140.27,-108 109.37,-108 109.37,-108 103.37,-108 97.37,-102 97.37,-96 97.37,-96 97.37,-84 97.37,-84 97.37,-78 103.37,-72 109.37,-72 109.37,-72 140.27,-72 140.27,-72 146.27,-72 152.27,-78 152.27,-84 152.27,-84 152.27,-96 152.27,-96 152.27,-102 146.27,-108 140.27,-108"/>
<text text-anchor="middle" x="124.82" y="-84.58" font-family="Times New Roman,serif" font-size="14.00">certgen</text>
</g>
<!-- certgen&#45;&gt;dcrd -->
<g id="edge29" class="edge">
<title>certgen&#45;&gt;dcrd</title>
<path fill="none" stroke="darkkhaki" d="M124.82,-60.52C124.82,-60.52 124.82,-12 124.82,-12 124.82,-12 378.79,-12 463.61,-12"/>
<polygon fill="darkkhaki" stroke="darkkhaki" points="121.33,-60.52 124.82,-70.52 128.33,-60.52 121.33,-60.52"/>
</g>
<!-- bech32 -->
<g id="node5" class="node">
<title>bech32</title>
<path fill="#cdc0b0" stroke="black" d="M213.27,-108C213.27,-108 182.38,-108 182.38,-108 176.38,-108 170.38,-102 170.38,-96 170.38,-96 170.38,-84 170.38,-84 170.38,-78 176.38,-72 182.38,-72 182.38,-72 213.27,-72 213.27,-72 219.27,-72 225.27,-78 225.27,-84 225.27,-84 225.27,-96 225.27,-96 225.27,-102 219.27,-108 213.27,-108"/>
<text text-anchor="middle" x="197.82" y="-84.58" font-family="Times New Roman,serif" font-size="14.00">bech32</text>
</g>
<!-- bech32&#45;&gt;dcrd -->
<g id="edge30" class="edge">
<title>bech32&#45;&gt;dcrd</title>
<path fill="none" stroke="#cdc0b0" d="M197.82,-60.83C197.82,-60.83 197.82,-18 197.82,-18 197.82,-18 390.79,-18 463.52,-18"/>
<polygon fill="#cdc0b0" stroke="#cdc0b0" points="194.33,-60.83 197.82,-70.83 201.33,-60.83 194.33,-60.83"/>
</g>
<!-- dcrjson -->
<g id="node7" class="node">
<title>dcrjson</title>
<path fill="indianred" stroke="black" d="M672.65,-612C672.65,-612 623,-612 623,-612 617,-612 611,-606 611,-600 611,-600 611,-588 611,-588 611,-582 617,-576 623,-576 623,-576 672.65,-576 672.65,-576 678.65,-576 684.65,-582 684.65,-588 684.65,-588 684.65,-600 684.65,-600 684.65,-606 678.65,-612 672.65,-612"/>
<text text-anchor="middle" x="647.83" y="-588.58" font-family="Times New Roman,serif" font-size="14.00">dcrjson/v4</text>
</g>
<!-- chainhash&#45;&gt;dcrjson -->
<g id="edge4" class="edge">
<title>chainhash&#45;&gt;dcrjson</title>
<path fill="none" stroke="aquamarine" d="M647.83,-636.83C647.83,-636.83 647.83,-612.41 647.83,-612.41"/>
<polygon fill="aquamarine" stroke="aquamarine" points="644.33,-636.83 647.83,-646.83 651.33,-636.83 644.33,-636.83"/>
</g>
<!-- wire -->
<g id="node9" class="node">
<title>wire</title>
<path fill="coral" stroke="black" d="M770.83,-612C770.83,-612 740.83,-612 740.83,-612 734.83,-612 728.83,-606 728.83,-600 728.83,-600 728.83,-588 728.83,-588 728.83,-582 734.83,-576 740.83,-576 740.83,-576 770.83,-576 770.83,-576 776.83,-576 782.83,-582 782.83,-588 782.83,-588 782.83,-600 782.83,-600 782.83,-606 776.83,-612 770.83,-612"/>
<text text-anchor="middle" x="755.83" y="-588.58" font-family="Times New Roman,serif" font-size="14.00">wire</text>
</g>
<!-- chainhash&#45;&gt;wire -->
<g id="edge5" class="edge">
<title>chainhash&#45;&gt;wire</title>
<path fill="none" stroke="aquamarine" d="M696.27,-636.83C696.27,-636.83 696.27,-594 696.27,-594 696.27,-594 712.84,-594 728.49,-594"/>
<polygon fill="aquamarine" stroke="aquamarine" points="692.78,-636.83 696.27,-646.83 699.78,-636.83 692.78,-636.83"/>
</g>
<!-- types -->
<g id="node8" class="node">
<title>types</title>
<path fill="tomato" stroke="black" d="M702.78,-468C702.78,-468 596.88,-468 596.88,-468 590.88,-468 584.88,-462 584.88,-456 584.88,-456 584.88,-444 584.88,-444 584.88,-438 590.88,-432 596.88,-432 596.88,-432 702.78,-432 702.78,-432 708.78,-432 714.78,-438 714.78,-444 714.78,-444 714.78,-456 714.78,-456 714.78,-462 708.78,-468 702.78,-468"/>
<text text-anchor="middle" x="649.83" y="-444.57" font-family="Times New Roman,serif" font-size="14.00">rpc/jsonrpc/types/v4</text>
</g>
<!-- dcrjson&#45;&gt;types -->
<g id="edge23" class="edge">
<title>dcrjson&#45;&gt;types</title>
<path fill="none" stroke="indianred" d="M647.64,-564.76C647.64,-564.76 647.64,-468.09 647.64,-468.09"/>
<polygon fill="indianred" stroke="indianred" points="644.14,-564.76 647.64,-574.76 651.14,-564.76 644.14,-564.76"/>
</g>
<!-- rpcclient -->
<g id="node24" class="node">
<title>rpcclient</title>
<path fill="mediumseagreen" stroke="black" d="M679.65,-108C679.65,-108 624,-108 624,-108 618,-108 612,-102 612,-96 612,-96 612,-84 612,-84 612,-78 618,-72 624,-72 624,-72 679.65,-72 679.65,-72 685.65,-72 691.65,-78 691.65,-84 691.65,-84 691.65,-96 691.65,-96 691.65,-102 685.65,-108 679.65,-108"/>
<text text-anchor="middle" x="651.83" y="-84.58" font-family="Times New Roman,serif" font-size="14.00">rpcclient/v8</text>
</g>
<!-- types&#45;&gt;rpcclient -->
<g id="edge24" class="edge">
<title>types&#45;&gt;rpcclient</title>
<path fill="none" stroke="tomato" d="M665.1,-420.65C665.1,-420.65 665.1,-108.31 665.1,-108.31"/>
<polygon fill="tomato" stroke="tomato" points="661.6,-420.65 665.1,-430.65 668.6,-420.65 661.6,-420.65"/>
</g>
<!-- chaincfg -->
<g id="node10" class="node">
<title>chaincfg</title>
<path fill="cadetblue" stroke="black" d="M742.28,-540C742.28,-540 687.38,-540 687.38,-540 681.38,-540 675.38,-534 675.38,-528 675.38,-528 675.38,-516 675.38,-516 675.38,-510 681.38,-504 687.38,-504 687.38,-504 742.28,-504 742.28,-504 748.28,-504 754.28,-510 754.28,-516 754.28,-516 754.28,-528 754.28,-528 754.28,-534 748.28,-540 742.28,-540"/>
<text text-anchor="middle" x="714.83" y="-516.58" font-family="Times New Roman,serif" font-size="14.00">chaincfg/v3</text>
</g>
<!-- wire&#45;&gt;chaincfg -->
<g id="edge7" class="edge">
<title>wire&#45;&gt;chaincfg</title>
<path fill="none" stroke="coral" d="M741.55,-564.83C741.55,-564.83 741.55,-540.41 741.55,-540.41"/>
<polygon fill="coral" stroke="coral" points="738.05,-564.83 741.55,-574.83 745.05,-564.83 738.05,-564.83"/>
</g>
<!-- standalone -->
<g id="node21" class="node">
<title>standalone</title>
<path fill="#8b1a1a" stroke="black" d="M949.53,-108C949.53,-108 818.12,-108 818.12,-108 812.12,-108 806.12,-102 806.12,-96 806.12,-96 806.12,-84 806.12,-84 806.12,-78 812.12,-72 818.12,-72 818.12,-72 949.53,-72 949.53,-72 955.53,-72 961.53,-78 961.53,-84 961.53,-84 961.53,-96 961.53,-96 961.53,-102 955.53,-108 949.53,-108"/>
<text text-anchor="middle" x="883.83" y="-84.58" font-family="Times New Roman,serif" font-size="14.00">blockchain/standalone/v2</text>
</g>
<!-- wire&#45;&gt;standalone -->
<g id="edge8" class="edge">
<title>wire&#45;&gt;standalone</title>
<path fill="none" stroke="coral" d="M794.28,-594C794.28,-594 883.83,-594 883.83,-594 883.83,-594 883.83,-198.59 883.83,-108.24"/>
<polygon fill="coral" stroke="coral" points="794.28,-590.5 784.28,-594 794.28,-597.5 794.28,-590.5"/>
</g>
<!-- addrmgr -->
<g id="node25" class="node">
<title>addrmgr</title>
<path fill="lightsalmon" stroke="black" d="M776.28,-108C776.28,-108 721.38,-108 721.38,-108 715.38,-108 709.38,-102 709.38,-96 709.38,-96 709.38,-84 709.38,-84 709.38,-78 715.38,-72 721.38,-72 721.38,-72 776.28,-72 776.28,-72 782.28,-72 788.28,-78 788.28,-84 788.28,-84 788.28,-96 788.28,-96 788.28,-102 782.28,-108 776.28,-108"/>
<text text-anchor="middle" x="748.83" y="-84.58" font-family="Times New Roman,serif" font-size="14.00">addrmgr/v3</text>
</g>
<!-- wire&#45;&gt;addrmgr -->
<g id="edge6" class="edge">
<title>wire&#45;&gt;addrmgr</title>
<path fill="none" stroke="coral" d="M768.55,-564.76C768.55,-564.76 768.55,-108.48 768.55,-108.48"/>
<polygon fill="coral" stroke="coral" points="765.05,-564.76 768.55,-574.76 772.05,-564.76 765.05,-564.76"/>
</g>
<!-- chaincfg&#45;&gt;txscript -->
<g id="edge3" class="edge">
<title>chaincfg&#45;&gt;txscript</title>
<path fill="none" stroke="cadetblue" d="M695.08,-492.58C695.08,-492.58 695.08,-486 695.08,-486 695.08,-486 469.82,-486 469.82,-486 469.82,-486 469.82,-477.28 469.82,-468.42"/>
<polygon fill="cadetblue" stroke="cadetblue" points="691.58,-492.58 695.08,-502.58 698.58,-492.58 691.58,-492.58"/>
</g>
<!-- dcrec -->
<g id="node11" class="node">
<title>dcrec</title>
<path fill="mediumpurple" stroke="black" d="M475.82,-540C475.82,-540 445.82,-540 445.82,-540 439.82,-540 433.82,-534 433.82,-528 433.82,-528 433.82,-516 433.82,-516 433.82,-510 439.82,-504 445.82,-504 445.82,-504 475.82,-504 475.82,-504 481.82,-504 487.82,-510 487.82,-516 487.82,-516 487.82,-528 487.82,-528 487.82,-534 481.82,-540 475.82,-540"/>
<text text-anchor="middle" x="460.82" y="-516.58" font-family="Times New Roman,serif" font-size="14.00">dcrec</text>
</g>
<!-- dcrec&#45;&gt;txscript -->
<g id="edge10" class="edge">
<title>dcrec&#45;&gt;txscript</title>
<path fill="none" stroke="mediumpurple" d="M451.82,-492.83C451.82,-492.83 451.82,-468.41 451.82,-468.41"/>
<polygon fill="mediumpurple" stroke="mediumpurple" points="448.33,-492.83 451.82,-502.83 455.33,-492.83 448.33,-492.83"/>
</g>
<!-- edwards -->
<g id="node12" class="node">
<title>edwards</title>
<path fill="lightseagreen" stroke="black" d="M607.9,-540C607.9,-540 517.75,-540 517.75,-540 511.75,-540 505.75,-534 505.75,-528 505.75,-528 505.75,-516 505.75,-516 505.75,-510 511.75,-504 517.75,-504 517.75,-504 607.9,-504 607.9,-504 613.9,-504 619.9,-510 619.9,-516 619.9,-516 619.9,-528 619.9,-528 619.9,-534 613.9,-540 607.9,-540"/>
<text text-anchor="middle" x="562.83" y="-516.58" font-family="Times New Roman,serif" font-size="14.00">dcrec/edwards/v2</text>
</g>
<!-- edwards&#45;&gt;txscript -->
<g id="edge11" class="edge">
<title>edwards&#45;&gt;txscript</title>
<path fill="none" stroke="lightseagreen" d="M529.39,-492.83C529.39,-492.83 529.39,-450 529.39,-450 529.39,-450 511.81,-450 493.96,-450"/>
<polygon fill="lightseagreen" stroke="lightseagreen" points="525.89,-492.83 529.39,-502.83 532.89,-492.83 525.89,-492.83"/>
</g>
<!-- secp256k1&#45;&gt;txscript -->
<g id="edge12" class="edge">
<title>secp256k1&#45;&gt;txscript</title>
<path fill="none" stroke="mediumvioletred" d="M412.32,-492.78C412.32,-492.78 412.32,-459 412.32,-459 412.32,-459 415.28,-459 419.67,-459"/>
<polygon fill="mediumvioletred" stroke="mediumvioletred" points="408.83,-492.78 412.32,-502.78 415.83,-492.78 408.83,-492.78"/>
</g>
<!-- dcrutil -->
<g id="node14" class="node">
<title>dcrutil</title>
<path fill="burlywood" stroke="black" d="M463.27,-396C463.27,-396 420.38,-396 420.38,-396 414.38,-396 408.38,-390 408.38,-384 408.38,-384 408.38,-372 408.38,-372 408.38,-366 414.38,-360 420.38,-360 420.38,-360 463.27,-360 463.27,-360 469.27,-360 475.27,-366 475.27,-372 475.27,-372 475.27,-384 475.27,-384 475.27,-390 469.27,-396 463.27,-396"/>
<text text-anchor="middle" x="441.82" y="-372.57" font-family="Times New Roman,serif" font-size="14.00">dcrutil/v4</text>
</g>
<!-- mixing -->
<g id="node15" class="node">
<title>mixing</title>
<path fill="lawngreen" stroke="black" d="M358.82,-108C358.82,-108 328.82,-108 328.82,-108 322.82,-108 316.82,-102 316.82,-96 316.82,-96 316.82,-84 316.82,-84 316.82,-78 322.82,-72 328.82,-72 328.82,-72 358.82,-72 358.82,-72 364.82,-72 370.82,-78 370.82,-84 370.82,-84 370.82,-96 370.82,-96 370.82,-102 364.82,-108 358.82,-108"/>
<text text-anchor="middle" x="343.82" y="-84.58" font-family="Times New Roman,serif" font-size="14.00">mixing</text>
</g>
<!-- dcrutil&#45;&gt;mixing -->
<g id="edge18" class="edge">
<title>dcrutil&#45;&gt;mixing</title>
<path fill="none" stroke="burlywood" d="M397.23,-378C397.23,-378 379.73,-378 379.73,-378 379.73,-378 379.73,-90 379.73,-90 379.73,-90 376.04,-90 371.03,-90"/>
<polygon fill="burlywood" stroke="burlywood" points="397.23,-381.5 407.23,-378 397.23,-374.5 397.23,-381.5"/>
</g>
<!-- database -->
<g id="node16" class="node">
<title>database</title>
<path fill="dodgerblue" stroke="black" d="M541.03,-324C541.03,-324 484.63,-324 484.63,-324 478.63,-324 472.63,-318 472.63,-312 472.63,-312 472.63,-300 472.63,-300 472.63,-294 478.63,-288 484.63,-288 484.63,-288 541.03,-288 541.03,-288 547.03,-288 553.03,-294 553.03,-300 553.03,-300 553.03,-312 553.03,-312 553.03,-318 547.03,-324 541.03,-324"/>
<text text-anchor="middle" x="512.83" y="-300.57" font-family="Times New Roman,serif" font-size="14.00">database/v3</text>
</g>
<!-- dcrutil&#45;&gt;database -->
<g id="edge17" class="edge">
<title>dcrutil&#45;&gt;database</title>
<path fill="none" stroke="burlywood" d="M467.06,-348.83C467.06,-348.83 467.06,-306 467.06,-306 467.06,-306 469.1,-306 472.31,-306"/>
<polygon fill="burlywood" stroke="burlywood" points="463.56,-348.83 467.06,-358.83 470.56,-348.83 463.56,-348.83"/>
</g>
<!-- blockchain -->
<g id="node26" class="node">
<title>blockchain</title>
<path fill="orchid" stroke="black" d="M469.02,-108C469.02,-108 400.62,-108 400.62,-108 394.62,-108 388.62,-102 388.62,-96 388.62,-96 388.62,-84 388.62,-84 388.62,-78 394.62,-72 400.62,-72 400.62,-72 469.02,-72 469.02,-72 475.02,-72 481.02,-78 481.02,-84 481.02,-84 481.02,-96 481.02,-96 481.02,-102 475.02,-108 469.02,-108"/>
<text text-anchor="middle" x="434.82" y="-84.58" font-family="Times New Roman,serif" font-size="14.00">blockchain/v5</text>
</g>
<!-- dcrutil&#45;&gt;blockchain -->
<g id="edge16" class="edge">
<title>dcrutil&#45;&gt;blockchain</title>
<path fill="none" stroke="burlywood" d="M434.94,-348.55C434.94,-348.55 434.94,-108.3 434.94,-108.3"/>
<polygon fill="burlywood" stroke="burlywood" points="431.44,-348.55 434.94,-358.55 438.44,-348.55 431.44,-348.55"/>
</g>
<!-- mixing&#45;&gt;dcrd -->
<g id="edge27" class="edge">
<title>mixing&#45;&gt;dcrd</title>
<path fill="none" stroke="lawngreen" d="M343.82,-60.67C343.82,-60.67 343.82,-30 343.82,-30 343.82,-30 421.01,-30 463.52,-30"/>
<polygon fill="lawngreen" stroke="lawngreen" points="340.33,-60.67 343.82,-70.67 347.33,-60.67 340.33,-60.67"/>
</g>
<!-- stake -->
<g id="node19" class="node">
<title>stake</title>
<path fill="bisque" stroke="black" d="M574.15,-252C574.15,-252 473.5,-252 473.5,-252 467.5,-252 461.5,-246 461.5,-240 461.5,-240 461.5,-228 461.5,-228 461.5,-222 467.5,-216 473.5,-216 473.5,-216 574.15,-216 574.15,-216 580.15,-216 586.15,-222 586.15,-228 586.15,-228 586.15,-240 586.15,-240 586.15,-246 580.15,-252 574.15,-252"/>
<text text-anchor="middle" x="523.83" y="-228.57" font-family="Times New Roman,serif" font-size="14.00">blockchain/stake/v5</text>
</g>
<!-- database&#45;&gt;stake -->
<g id="edge19" class="edge">
<title>database&#45;&gt;stake</title>
<path fill="none" stroke="dodgerblue" d="M512.83,-276.83C512.83,-276.83 512.83,-252.41 512.83,-252.41"/>
<polygon fill="dodgerblue" stroke="dodgerblue" points="509.33,-276.83 512.83,-286.83 516.33,-276.83 509.33,-276.83"/>
</g>
<!-- hdkeychain -->
<g id="node17" class="node">
<title>hdkeychain</title>
<path fill="deepskyblue" stroke="black" d="M582.15,-108C582.15,-108 511.5,-108 511.5,-108 505.5,-108 499.5,-102 499.5,-96 499.5,-96 499.5,-84 499.5,-84 499.5,-78 505.5,-72 511.5,-72 511.5,-72 582.15,-72 582.15,-72 588.15,-72 594.15,-78 594.15,-84 594.15,-84 594.15,-96 594.15,-96 594.15,-102 588.15,-108 582.15,-108"/>
<text text-anchor="middle" x="546.83" y="-84.58" font-family="Times New Roman,serif" font-size="14.00">hdkeychain/v3</text>
</g>
<!-- hdkeychain&#45;&gt;dcrd -->
<g id="edge32" class="edge">
<title>hdkeychain&#45;&gt;dcrd</title>
<path fill="none" stroke="deepskyblue" d="M508.66,-60.83C508.66,-60.83 508.66,-36.41 508.66,-36.41"/>
<polygon fill="deepskyblue" stroke="deepskyblue" points="505.16,-60.83 508.66,-70.83 512.16,-60.83 505.16,-60.83"/>
</g>
<!-- txscript&#45;&gt;dcrutil -->
<g id="edge13" class="edge">
<title>txscript&#45;&gt;dcrutil</title>
<path fill="none" stroke="mediumspringgreen" d="M447.64,-420.83C447.64,-420.83 447.64,-396.41 447.64,-396.41"/>
<polygon fill="mediumspringgreen" stroke="mediumspringgreen" points="444.14,-420.83 447.64,-430.83 451.14,-420.83 444.14,-420.83"/>
</g>
<!-- txscript&#45;&gt;hdkeychain -->
<g id="edge14" class="edge">
<title>txscript&#45;&gt;hdkeychain</title>
<path fill="none" stroke="mediumspringgreen" d="M484.46,-420.58C484.46,-420.58 484.46,-414 484.46,-414 484.46,-414 590.15,-414 590.15,-414 590.15,-414 590.15,-176.89 590.15,-108.35"/>
<polygon fill="mediumspringgreen" stroke="mediumspringgreen" points="480.96,-420.58 484.46,-430.58 487.96,-420.58 480.96,-420.58"/>
</g>
<!-- peer -->
<g id="node23" class="node">
<title>peer</title>
<path fill="khaki" stroke="black" d="M286.65,-108C286.65,-108 255,-108 255,-108 249,-108 243,-102 243,-96 243,-96 243,-84 243,-84 243,-78 249,-72 255,-72 255,-72 286.65,-72 286.65,-72 292.65,-72 298.65,-78 298.65,-84 298.65,-84 298.65,-96 298.65,-96 298.65,-102 292.65,-108 286.65,-108"/>
<text text-anchor="middle" x="270.82" y="-84.58" font-family="Times New Roman,serif" font-size="14.00">peer/v3</text>
</g>
<!-- txscript&#45;&gt;peer -->
<g id="edge15" class="edge">
<title>txscript&#45;&gt;peer</title>
<path fill="none" stroke="mediumspringgreen" d="M408.67,-441C408.67,-441 277.51,-441 277.51,-441 277.51,-441 277.51,-180.6 277.51,-108.38"/>
<polygon fill="mediumspringgreen" stroke="mediumspringgreen" points="408.67,-444.5 418.67,-441 408.67,-437.5 408.67,-444.5"/>
</g>
<!-- gcs -->
<g id="node20" class="node">
<title>gcs</title>
<path fill="gold" stroke="black" d="M556.83,-180C556.83,-180 526.83,-180 526.83,-180 520.83,-180 514.83,-174 514.83,-168 514.83,-168 514.83,-156 514.83,-156 514.83,-150 520.83,-144 526.83,-144 526.83,-144 556.83,-144 556.83,-144 562.83,-144 568.83,-150 568.83,-156 568.83,-156 568.83,-168 568.83,-168 568.83,-174 562.83,-180 556.83,-180"/>
<text text-anchor="middle" x="541.83" y="-156.57" font-family="Times New Roman,serif" font-size="14.00">gcs/v4</text>
</g>
<!-- stake&#45;&gt;gcs -->
<g id="edge20" class="edge">
<title>stake&#45;&gt;gcs</title>
<path fill="none" stroke="bisque" d="M541.83,-204.83C541.83,-204.83 541.83,-180.41 541.83,-180.41"/>
<polygon fill="bisque" stroke="bisque" points="538.33,-204.83 541.83,-214.83 545.33,-204.83 538.33,-204.83"/>
</g>
<!-- gcs&#45;&gt;rpcclient -->
<g id="edge21" class="edge">
<title>gcs&#45;&gt;rpcclient</title>
<path fill="none" stroke="gold" d="M580.28,-162C580.28,-162 638.55,-162 638.55,-162 638.55,-162 638.55,-129.5 638.55,-108.17"/>
<polygon fill="gold" stroke="gold" points="580.28,-158.5 570.28,-162 580.28,-165.5 580.28,-158.5"/>
</g>
<!-- standalone&#45;&gt;dcrd -->
<g id="edge28" class="edge">
<title>standalone&#45;&gt;dcrd</title>
<path fill="none" stroke="firebrick" d="M883.83,-60.83C883.83,-60.83 883.83,-18 883.83,-18 883.83,-18 607.27,-18 518.15,-18"/>
<polygon fill="firebrick" stroke="firebrick" points="880.33,-60.83 883.83,-70.83 887.33,-60.83 880.33,-60.83"/>
</g>
<!-- lru -->
<g id="node22" class="node">
<title>lru</title>
<path fill="#3a5fcd" stroke="black" d="M355.52,-180C355.52,-180 296.12,-180 296.12,-180 290.12,-180 284.12,-174 284.12,-168 284.12,-168 284.12,-156 284.12,-156 284.12,-150 290.12,-144 296.12,-144 296.12,-144 355.52,-144 355.52,-144 361.52,-144 367.52,-150 367.52,-156 367.52,-156 367.52,-168 367.52,-168 367.52,-174 361.52,-180 355.52,-180"/>
<text text-anchor="middle" x="325.82" y="-156.57" font-family="Times New Roman,serif" font-size="14.00">container/lru</text>
</g>
<!-- lru&#45;&gt;peer -->
<g id="edge22" class="edge">
<title>lru&#45;&gt;peer</title>
<path fill="none" stroke="#3a5fcd" d="M291.39,-132.83C291.39,-132.83 291.39,-108.41 291.39,-108.41"/>
<polygon fill="#3a5fcd" stroke="#3a5fcd" points="287.89,-132.83 291.39,-142.83 294.89,-132.83 287.89,-132.83"/>
</g>
<!-- peer&#45;&gt;dcrd -->
<g id="edge34" class="edge">
<title>peer&#45;&gt;dcrd</title>
<path fill="none" stroke="khaki" d="M270.82,-60.62C270.82,-60.62 270.82,-24 270.82,-24 270.82,-24 404.43,-24 463.41,-24"/>
<polygon fill="khaki" stroke="khaki" points="267.33,-60.62 270.82,-70.62 274.33,-60.62 267.33,-60.62"/>
</g>
<!-- rpcclient&#45;&gt;dcrd -->
<g id="edge33" class="edge">
<title>rpcclient&#45;&gt;dcrd</title>
<path fill="none" stroke="mediumseagreen" d="M651.83,-60.67C651.83,-60.67 651.83,-30 651.83,-30 651.83,-30 564.07,-30 518.14,-30"/>
<polygon fill="mediumseagreen" stroke="mediumseagreen" points="648.33,-60.67 651.83,-70.67 655.33,-60.67 648.33,-60.67"/>
</g>
<!-- addrmgr&#45;&gt;dcrd -->
<g id="edge31" class="edge">
<title>addrmgr&#45;&gt;dcrd</title>
<path fill="none" stroke="lightsalmon" d="M748.83,-60.62C748.83,-60.62 748.83,-24 748.83,-24 748.83,-24 584.19,-24 517.95,-24"/>
<polygon fill="lightsalmon" stroke="lightsalmon" points="745.33,-60.62 748.83,-70.62 752.33,-60.62 745.33,-60.62"/>
</g>
<!-- blockchain&#45;&gt;dcrd -->
<g id="edge26" class="edge">
<title>blockchain&#45;&gt;dcrd</title>
<path fill="none" stroke="orchid" d="M472.42,-60.83C472.42,-60.83 472.42,-36.41 472.42,-36.41"/>
<polygon fill="orchid" stroke="orchid" points="468.93,-60.83 472.42,-70.83 475.93,-60.83 468.93,-60.83"/>
</g>
<!-- apbf -->
<g id="node27" class="node">
<title>apbf</title>
<path fill="goldenrod" stroke="black" d="M1062.15,-108C1062.15,-108 991.5,-108 991.5,-108 985.5,-108 979.5,-102 979.5,-96 979.5,-96 979.5,-84 979.5,-84 979.5,-78 985.5,-72 991.5,-72 991.5,-72 1062.15,-72 1062.15,-72 1068.15,-72 1074.15,-78 1074.15,-84 1074.15,-84 1074.15,-96 1074.15,-96 1074.15,-102 1068.15,-108 1062.15,-108"/>
<text text-anchor="middle" x="1026.83" y="-84.58" font-family="Times New Roman,serif" font-size="14.00">container/apbf</text>
</g>
<!-- apbf&#45;&gt;dcrd -->
<g id="edge35" class="edge">
<title>apbf&#45;&gt;dcrd</title>
<path fill="none" stroke="goldenrod" d="M1026.83,-60.52C1026.83,-60.52 1026.83,-12 1026.83,-12 1026.83,-12 627.37,-12 518.14,-12"/>
<polygon fill="goldenrod" stroke="goldenrod" points="1023.33,-60.52 1026.83,-70.52 1030.33,-60.52 1023.33,-60.52"/>
</g>
<!-- uint256 -->
<g id="node28" class="node">
<title>uint256</title>
<path fill="lightgreen" stroke="black" d="M1165.65,-108C1165.65,-108 1104,-108 1104,-108 1098,-108 1092,-102 1092,-96 1092,-96 1092,-84 1092,-84 1092,-78 1098,-72 1104,-72 1104,-72 1165.65,-72 1165.65,-72 1171.65,-72 1177.65,-78 1177.65,-84 1177.65,-84 1177.65,-96 1177.65,-96 1177.65,-102 1171.65,-108 1165.65,-108"/>
<text text-anchor="middle" x="1134.83" y="-84.58" font-family="Times New Roman,serif" font-size="14.00">math/uint256</text>
</g>
<!-- uint256&#45;&gt;dcrd -->
<g id="edge36" class="edge">
<title>uint256&#45;&gt;dcrd</title>
<path fill="none" stroke="lightgreen" d="M1134.83,-60.56C1134.83,-60.56 1134.83,-5 1134.83,-5 1134.83,-5 640.66,-5 518.09,-5"/>
<polygon fill="lightgreen" stroke="lightgreen" points="1131.33,-60.56 1134.83,-70.56 1138.33,-60.56 1131.33,-60.56"/>
</g>
</g>
</svg>
