<?xml version="1.0" encoding="UTF-8" standalone="no"?>
<!DOCTYPE svg PUBLIC "-//W3C//DTD SVG 1.1//EN"
 "http://www.w3.org/Graphics/SVG/1.1/DTD/svg11.dtd">
<!-- Generated by graphviz version 2.38.0 (20140413.2041)
 -->
<!-- Title: %3 Pages: 1 -->
<svg width="1122pt" height="720pt"
 viewBox="0.00 0.00 1121.50 720.00" xmlns="http://www.w3.org/2000/svg" xmlns:xlink="http://www.w3.org/1999/xlink">
<g id="graph0" class="graph" transform="scale(1 1) rotate(0) translate(4 716)">
<title>%3</title>
<polygon fill="white" stroke="#000000" points="-4,4 -4,-716 1117.5,-716 1117.5,4 -4,4"/>
<text text-anchor="start" x="490.25" y="-694.6" font-family="Times New Roman,serif" text-decoration="underline" font-size="18.00">Module Hierarchy</text>
<!-- blake256 -->
<g id="node1" class="node"><title>blake256</title>
<path fill="cornflowerblue" stroke="black" d="M401,-684C401,-684 320,-684 320,-684 314,-684 308,-678 308,-672 308,-672 308,-660 308,-660 308,-654 314,-648 320,-648 320,-648 401,-648 401,-648 407,-648 413,-654 413,-660 413,-660 413,-672 413,-672 413,-678 407,-684 401,-684"/>
<text text-anchor="middle" x="360.5" y="-662.3" font-family="Times New Roman,serif" font-size="14.00">crypto/blake256</text>
</g>
<!-- chainhash -->
<g id="node5" class="node"><title>chainhash</title>
<path fill="aquamarine" stroke="black" d="M595.5,-684C595.5,-684 499.5,-684 499.5,-684 493.5,-684 487.5,-678 487.5,-672 487.5,-672 487.5,-660 487.5,-660 487.5,-654 493.5,-648 499.5,-648 499.5,-648 595.5,-648 595.5,-648 601.5,-648 607.5,-654 607.5,-660 607.5,-660 607.5,-672 607.5,-672 607.5,-678 601.5,-684 595.5,-684"/>
<text text-anchor="middle" x="547.5" y="-662.3" font-family="Times New Roman,serif" font-size="14.00">chaincfg/chainhash</text>
</g>
<!-- blake256&#45;&gt;chainhash -->
<g id="edge1" class="edge"><title>blake256&#45;&gt;chainhash</title>
<path fill="none" stroke="cornflowerblue" d="M423.088,-666C423.088,-666 487.397,-666 487.397,-666"/>
<polygon fill="cornflowerblue" stroke="cornflowerblue" points="423.088,-662.5 413.088,-666 423.088,-669.5 423.088,-662.5"/>
</g>
<!-- secp256k1 -->
<g id="node12" class="node"><title>secp256k1</title>
<path fill="mediumvioletred" stroke="black" d="M243,-540C243,-540 140,-540 140,-540 134,-540 128,-534 128,-528 128,-528 128,-516 128,-516 128,-510 134,-504 140,-504 140,-504 243,-504 243,-504 249,-504 255,-510 255,-516 255,-516 255,-528 255,-528 255,-534 249,-540 243,-540"/>
<text text-anchor="middle" x="191.5" y="-518.3" font-family="Times New Roman,serif" font-size="14.00">dcrec/secp256k1/v4</text>
</g>
<!-- blake256&#45;&gt;secp256k1 -->
<g id="edge2" class="edge"><title>blake256&#45;&gt;secp256k1</title>
<path fill="none" stroke="cornflowerblue" d="M297.954,-666C297.954,-666 191.5,-666 191.5,-666 191.5,-666 191.5,-578.986 191.5,-540.238"/>
<polygon fill="cornflowerblue" stroke="cornflowerblue" points="297.954,-669.5 307.954,-666 297.954,-662.5 297.954,-669.5"/>
</g>
<!-- ripemd160 -->
<g id="node2" class="node"><title>ripemd160</title>
<path fill="darkturquoise" stroke="black" d="M507.5,-540C507.5,-540 417.5,-540 417.5,-540 411.5,-540 405.5,-534 405.5,-528 405.5,-528 405.5,-516 405.5,-516 405.5,-510 411.5,-504 417.5,-504 417.5,-504 507.5,-504 507.5,-504 513.5,-504 519.5,-510 519.5,-516 519.5,-516 519.5,-528 519.5,-528 519.5,-534 513.5,-540 507.5,-540"/>
<text text-anchor="middle" x="462.5" y="-518.3" font-family="Times New Roman,serif" font-size="14.00">crypto/ripemd160</text>
</g>
<!-- txscript -->
<g id="node16" class="node"><title>txscript</title>
<path fill="mediumspringgreen" stroke="black" d="M316.5,-468C316.5,-468 266.5,-468 266.5,-468 260.5,-468 254.5,-462 254.5,-456 254.5,-456 254.5,-444 254.5,-444 254.5,-438 260.5,-432 266.5,-432 266.5,-432 316.5,-432 316.5,-432 322.5,-432 328.5,-438 328.5,-444 328.5,-444 328.5,-456 328.5,-456 328.5,-462 322.5,-468 316.5,-468"/>
<text text-anchor="middle" x="291.5" y="-446.3" font-family="Times New Roman,serif" font-size="14.00">txscript/v4</text>
</g>
<!-- ripemd160&#45;&gt;txscript -->
<g id="edge10" class="edge"><title>ripemd160&#45;&gt;txscript</title>
<path fill="none" stroke="darkturquoise" d="M444,-493.831C444,-493.831 444,-450 444,-450 444,-450 373.953,-450 328.806,-450"/>
<polygon fill="darkturquoise" stroke="darkturquoise" points="440.5,-493.831 444,-503.831 447.5,-493.831 440.5,-493.831"/>
</g>
<!-- certgen -->
<g id="node3" class="node"><title>certgen</title>
<path fill="darkkhaki" stroke="black" d="M43,-108C43,-108 12,-108 12,-108 6,-108 0,-102 0,-96 0,-96 0,-84 0,-84 0,-78 6,-72 12,-72 12,-72 43,-72 43,-72 49,-72 55,-78 55,-84 55,-84 55,-96 55,-96 55,-102 49,-108 43,-108"/>
<text text-anchor="middle" x="27.5" y="-86.3" font-family="Times New Roman,serif" font-size="14.00">certgen</text>
</g>
<!-- dcrd -->
<g id="node28" class="node"><title>dcrd</title>
<path fill="chocolate" stroke="black" d="M500.5,-36C500.5,-36 470.5,-36 470.5,-36 464.5,-36 458.5,-30 458.5,-24 458.5,-24 458.5,-12 458.5,-12 458.5,-6 464.5,-0 470.5,-0 470.5,-0 500.5,-0 500.5,-0 506.5,-0 512.5,-6 512.5,-12 512.5,-12 512.5,-24 512.5,-24 512.5,-30 506.5,-36 500.5,-36"/>
<text text-anchor="middle" x="485.5" y="-14.3" font-family="Times New Roman,serif" font-size="14.00">dcrd</text>
</g>
<!-- certgen&#45;&gt;dcrd -->
<g id="edge27" class="edge"><title>certgen&#45;&gt;dcrd</title>
<path fill="none" stroke="darkkhaki" d="M27.5,-61.9737C27.5,-61.9737 27.5,-5 27.5,-5 27.5,-5 359.623,-5 458.222,-5"/>
<polygon fill="darkkhaki" stroke="darkkhaki" points="24.0001,-61.9737 27.5,-71.9737 31.0001,-61.9737 24.0001,-61.9737"/>
</g>
<!-- bech32 -->
<g id="node4" class="node"><title>bech32</title>
<path fill="#cdc0b0" stroke="black" d="M116,-108C116,-108 85,-108 85,-108 79,-108 73,-102 73,-96 73,-96 73,-84 73,-84 73,-78 79,-72 85,-72 85,-72 116,-72 116,-72 122,-72 128,-78 128,-84 128,-84 128,-96 128,-96 128,-102 122,-108 116,-108"/>
<text text-anchor="middle" x="100.5" y="-86.3" font-family="Times New Roman,serif" font-size="14.00">bech32</text>
</g>
<!-- bech32&#45;&gt;dcrd -->
<g id="edge28" class="edge"><title>bech32&#45;&gt;dcrd</title>
<path fill="none" stroke="#cdc0b0" d="M100.5,-61.9092C100.5,-61.9092 100.5,-12 100.5,-12 100.5,-12 370.793,-12 458.428,-12"/>
<polygon fill="#cdc0b0" stroke="#cdc0b0" points="97.0001,-61.9091 100.5,-71.9092 104,-61.9092 97.0001,-61.9091"/>
</g>
<!-- dcrjson -->
<g id="node6" class="node"><title>dcrjson</title>
<path fill="indianred" stroke="black" d="M572.5,-612C572.5,-612 522.5,-612 522.5,-612 516.5,-612 510.5,-606 510.5,-600 510.5,-600 510.5,-588 510.5,-588 510.5,-582 516.5,-576 522.5,-576 522.5,-576 572.5,-576 572.5,-576 578.5,-576 584.5,-582 584.5,-588 584.5,-588 584.5,-600 584.5,-600 584.5,-606 578.5,-612 572.5,-612"/>
<text text-anchor="middle" x="547.5" y="-590.3" font-family="Times New Roman,serif" font-size="14.00">dcrjson/v4</text>
</g>
<!-- chainhash&#45;&gt;dcrjson -->
<g id="edge4" class="edge"><title>chainhash&#45;&gt;dcrjson</title>
<path fill="none" stroke="aquamarine" d="M547.5,-637.831C547.5,-637.831 547.5,-612.413 547.5,-612.413"/>
<polygon fill="aquamarine" stroke="aquamarine" points="544,-637.831 547.5,-647.831 551,-637.831 544,-637.831"/>
</g>
<!-- wire -->
<g id="node8" class="node"><title>wire</title>
<path fill="coral" stroke="black" d="M698.5,-612C698.5,-612 668.5,-612 668.5,-612 662.5,-612 656.5,-606 656.5,-600 656.5,-600 656.5,-588 656.5,-588 656.5,-582 662.5,-576 668.5,-576 668.5,-576 698.5,-576 698.5,-576 704.5,-576 710.5,-582 710.5,-588 710.5,-588 710.5,-600 710.5,-600 710.5,-606 704.5,-612 698.5,-612"/>
<text text-anchor="middle" x="683.5" y="-590.3" font-family="Times New Roman,serif" font-size="14.00">wire</text>
</g>
<!-- chainhash&#45;&gt;wire -->
<g id="edge5" class="edge"><title>chainhash&#45;&gt;wire</title>
<path fill="none" stroke="aquamarine" d="M596,-637.831C596,-637.831 596,-594 596,-594 596,-594 630.608,-594 656.294,-594"/>
<polygon fill="aquamarine" stroke="aquamarine" points="592.5,-637.831 596,-647.831 599.5,-637.831 592.5,-637.831"/>
</g>
<!-- types -->
<g id="node7" class="node"><title>types</title>
<path fill="tomato" stroke="black" d="M600.5,-468C600.5,-468 494.5,-468 494.5,-468 488.5,-468 482.5,-462 482.5,-456 482.5,-456 482.5,-444 482.5,-444 482.5,-438 488.5,-432 494.5,-432 494.5,-432 600.5,-432 600.5,-432 606.5,-432 612.5,-438 612.5,-444 612.5,-444 612.5,-456 612.5,-456 612.5,-462 606.5,-468 600.5,-468"/>
<text text-anchor="middle" x="547.5" y="-446.3" font-family="Times New Roman,serif" font-size="14.00">rpc/jsonrpc/types/v4</text>
</g>
<!-- dcrjson&#45;&gt;types -->
<g id="edge23" class="edge"><title>dcrjson&#45;&gt;types</title>
<path fill="none" stroke="indianred" d="M547.75,-565.762C547.75,-565.762 547.75,-468.09 547.75,-468.09"/>
<polygon fill="indianred" stroke="indianred" points="544.25,-565.762 547.75,-575.762 551.25,-565.762 544.25,-565.762"/>
</g>
<!-- rpcclient -->
<g id="node22" class="node"><title>rpcclient</title>
<path fill="mediumseagreen" stroke="black" d="M513.5,-108C513.5,-108 457.5,-108 457.5,-108 451.5,-108 445.5,-102 445.5,-96 445.5,-96 445.5,-84 445.5,-84 445.5,-78 451.5,-72 457.5,-72 457.5,-72 513.5,-72 513.5,-72 519.5,-72 525.5,-78 525.5,-84 525.5,-84 525.5,-96 525.5,-96 525.5,-102 519.5,-108 513.5,-108"/>
<text text-anchor="middle" x="485.5" y="-86.3" font-family="Times New Roman,serif" font-size="14.00">rpcclient/v8</text>
</g>
<!-- types&#45;&gt;rpcclient -->
<g id="edge24" class="edge"><title>types&#45;&gt;rpcclient</title>
<path fill="none" stroke="tomato" d="M534.5,-421.653C534.5,-421.653 534.5,-90 534.5,-90 534.5,-90 530.836,-90 525.513,-90"/>
<polygon fill="tomato" stroke="tomato" points="531,-421.653 534.5,-431.653 538,-421.653 531,-421.653"/>
</g>
<!-- chaincfg -->
<g id="node9" class="node"><title>chaincfg</title>
<path fill="cadetblue" stroke="black" d="M643,-540C643,-540 588,-540 588,-540 582,-540 576,-534 576,-528 576,-528 576,-516 576,-516 576,-510 582,-504 588,-504 588,-504 643,-504 643,-504 649,-504 655,-510 655,-516 655,-516 655,-528 655,-528 655,-534 649,-540 643,-540"/>
<text text-anchor="middle" x="615.5" y="-518.3" font-family="Times New Roman,serif" font-size="14.00">chaincfg/v3</text>
</g>
<!-- wire&#45;&gt;chaincfg -->
<g id="edge7" class="edge"><title>wire&#45;&gt;chaincfg</title>
<path fill="none" stroke="coral" d="M670.833,-565.831C670.833,-565.831 670.833,-522 670.833,-522 670.833,-522 663.994,-522 655.125,-522"/>
<polygon fill="coral" stroke="coral" points="667.333,-565.831 670.833,-575.831 674.333,-565.831 667.333,-565.831"/>
</g>
<!-- standalone -->
<g id="node19" class="node"><title>standalone</title>
<path fill="#8b1a1a" stroke="black" d="M687.5,-108C687.5,-108 555.5,-108 555.5,-108 549.5,-108 543.5,-102 543.5,-96 543.5,-96 543.5,-84 543.5,-84 543.5,-78 549.5,-72 555.5,-72 555.5,-72 687.5,-72 687.5,-72 693.5,-72 699.5,-78 699.5,-84 699.5,-84 699.5,-96 699.5,-96 699.5,-102 693.5,-108 687.5,-108"/>
<text text-anchor="middle" x="621.5" y="-86.3" font-family="Times New Roman,serif" font-size="14.00">blockchain/standalone/v2</text>
</g>
<!-- wire&#45;&gt;standalone -->
<g id="edge9" class="edge"><title>wire&#45;&gt;standalone</title>
<path fill="none" stroke="coral" d="M685.167,-565.765C685.167,-565.765 685.167,-108.211 685.167,-108.211"/>
<polygon fill="coral" stroke="coral" points="681.667,-565.765 685.167,-575.765 688.667,-565.765 681.667,-565.765"/>
</g>
<!-- addrmgr -->
<g id="node23" class="node"><title>addrmgr</title>
<path fill="lightsalmon" stroke="black" d="M785,-108C785,-108 730,-108 730,-108 724,-108 718,-102 718,-96 718,-96 718,-84 718,-84 718,-78 724,-72 730,-72 730,-72 785,-72 785,-72 791,-72 797,-78 797,-84 797,-84 797,-96 797,-96 797,-102 791,-108 785,-108"/>
<text text-anchor="middle" x="757.5" y="-86.3" font-family="Times New Roman,serif" font-size="14.00">addrmgr/v2</text>
</g>
<!-- wire&#45;&gt;addrmgr -->
<g id="edge6" class="edge"><title>wire&#45;&gt;addrmgr</title>
<path fill="none" stroke="coral" d="M705,-565.765C705,-565.765 705,-90 705,-90 705,-90 710.519,-90 717.978,-90"/>
<polygon fill="coral" stroke="coral" points="701.5,-565.765 705,-575.765 708.5,-565.765 701.5,-565.765"/>
</g>
<!-- connmgr -->
<g id="node24" class="node"><title>connmgr</title>
<path fill="mistyrose" stroke="black" d="M884,-108C884,-108 827,-108 827,-108 821,-108 815,-102 815,-96 815,-96 815,-84 815,-84 815,-78 821,-72 827,-72 827,-72 884,-72 884,-72 890,-72 896,-78 896,-84 896,-84 896,-96 896,-96 896,-102 890,-108 884,-108"/>
<text text-anchor="middle" x="855.5" y="-86.3" font-family="Times New Roman,serif" font-size="14.00">connmgr/v3</text>
</g>
<!-- wire&#45;&gt;connmgr -->
<g id="edge8" class="edge"><title>wire&#45;&gt;connmgr</title>
<path fill="none" stroke="coral" d="M720.754,-594C720.754,-594 855.5,-594 855.5,-594 855.5,-594 855.5,-198.592 855.5,-108.235"/>
<polygon fill="coral" stroke="coral" points="720.754,-590.5 710.754,-594 720.754,-597.5 720.754,-590.5"/>
</g>
<!-- chaincfg&#45;&gt;txscript -->
<g id="edge3" class="edge"><title>chaincfg&#45;&gt;txscript</title>
<path fill="none" stroke="cadetblue" d="M594.25,-493.578C594.25,-493.578 594.25,-486 594.25,-486 594.25,-486 310.167,-486 310.167,-486 310.167,-486 310.167,-477.279 310.167,-468.422"/>
<polygon fill="cadetblue" stroke="cadetblue" points="590.75,-493.578 594.25,-503.578 597.75,-493.578 590.75,-493.578"/>
</g>
<!-- dcrec -->
<g id="node10" class="node"><title>dcrec</title>
<path fill="mediumpurple" stroke="black" d="M97.5,-540C97.5,-540 67.5,-540 67.5,-540 61.5,-540 55.5,-534 55.5,-528 55.5,-528 55.5,-516 55.5,-516 55.5,-510 61.5,-504 67.5,-504 67.5,-504 97.5,-504 97.5,-504 103.5,-504 109.5,-510 109.5,-516 109.5,-516 109.5,-528 109.5,-528 109.5,-534 103.5,-540 97.5,-540"/>
<text text-anchor="middle" x="82.5" y="-518.3" font-family="Times New Roman,serif" font-size="14.00">dcrec</text>
</g>
<!-- dcrec&#45;&gt;txscript -->
<g id="edge11" class="edge"><title>dcrec&#45;&gt;txscript</title>
<path fill="none" stroke="mediumpurple" d="M91.25,-493.965C91.25,-493.965 91.25,-456 91.25,-456 91.25,-456 196.393,-456 254.304,-456"/>
<polygon fill="mediumpurple" stroke="mediumpurple" points="87.7501,-493.965 91.25,-503.965 94.7501,-493.965 87.7501,-493.965"/>
</g>
<!-- edwards -->
<g id="node11" class="node"><title>edwards</title>
<path fill="lightseagreen" stroke="black" d="M375.5,-540C375.5,-540 285.5,-540 285.5,-540 279.5,-540 273.5,-534 273.5,-528 273.5,-528 273.5,-516 273.5,-516 273.5,-510 279.5,-504 285.5,-504 285.5,-504 375.5,-504 375.5,-504 381.5,-504 387.5,-510 387.5,-516 387.5,-516 387.5,-528 387.5,-528 387.5,-534 381.5,-540 375.5,-540"/>
<text text-anchor="middle" x="330.5" y="-518.3" font-family="Times New Roman,serif" font-size="14.00">dcrec/edwards/v2</text>
</g>
<!-- edwards&#45;&gt;txscript -->
<g id="edge12" class="edge"><title>edwards&#45;&gt;txscript</title>
<path fill="none" stroke="lightseagreen" d="M291.833,-493.831C291.833,-493.831 291.833,-468.413 291.833,-468.413"/>
<polygon fill="lightseagreen" stroke="lightseagreen" points="288.333,-493.831 291.833,-503.831 295.333,-493.831 288.333,-493.831"/>
</g>
<!-- secp256k1&#45;&gt;txscript -->
<g id="edge13" class="edge"><title>secp256k1&#45;&gt;txscript</title>
<path fill="none" stroke="mediumvioletred" d="M263.329,-522C263.329,-522 264.25,-522 264.25,-522 264.25,-522 264.25,-489.498 264.25,-468.169"/>
<polygon fill="mediumvioletred" stroke="mediumvioletred" points="265.036,-518.5 255.036,-522 265.036,-525.5 265.036,-518.5"/>
</g>
<!-- dcrutil -->
<g id="node13" class="node"><title>dcrutil</title>
<path fill="burlywood" stroke="black" d="M387,-396C387,-396 344,-396 344,-396 338,-396 332,-390 332,-384 332,-384 332,-372 332,-372 332,-366 338,-360 344,-360 344,-360 387,-360 387,-360 393,-360 399,-366 399,-372 399,-372 399,-384 399,-384 399,-390 393,-396 387,-396"/>
<text text-anchor="middle" x="365.5" y="-374.3" font-family="Times New Roman,serif" font-size="14.00">dcrutil/v4</text>
</g>
<!-- database -->
<g id="node14" class="node"><title>database</title>
<path fill="dodgerblue" stroke="black" d="M474,-324C474,-324 417,-324 417,-324 411,-324 405,-318 405,-312 405,-312 405,-300 405,-300 405,-294 411,-288 417,-288 417,-288 474,-288 474,-288 480,-288 486,-294 486,-300 486,-300 486,-312 486,-312 486,-318 480,-324 474,-324"/>
<text text-anchor="middle" x="445.5" y="-302.3" font-family="Times New Roman,serif" font-size="14.00">database/v3</text>
</g>
<!-- dcrutil&#45;&gt;database -->
<g id="edge18" class="edge"><title>dcrutil&#45;&gt;database</title>
<path fill="none" stroke="burlywood" d="M374,-349.831C374,-349.831 374,-306 374,-306 374,-306 388.681,-306 404.737,-306"/>
<polygon fill="burlywood" stroke="burlywood" points="370.5,-349.831 374,-359.831 377.5,-349.831 370.5,-349.831"/>
</g>
<!-- blockchain -->
<g id="node25" class="node"><title>blockchain</title>
<path fill="orchid" stroke="black" d="M415,-108C415,-108 346,-108 346,-108 340,-108 334,-102 334,-96 334,-96 334,-84 334,-84 334,-78 340,-72 346,-72 346,-72 415,-72 415,-72 421,-72 427,-78 427,-84 427,-84 427,-96 427,-96 427,-102 421,-108 415,-108"/>
<text text-anchor="middle" x="380.5" y="-86.3" font-family="Times New Roman,serif" font-size="14.00">blockchain/v5</text>
</g>
<!-- dcrutil&#45;&gt;blockchain -->
<g id="edge17" class="edge"><title>dcrutil&#45;&gt;blockchain</title>
<path fill="none" stroke="burlywood" d="M354,-349.984C354,-349.984 354,-108.009 354,-108.009"/>
<polygon fill="burlywood" stroke="burlywood" points="350.5,-349.984 354,-359.984 357.5,-349.984 350.5,-349.984"/>
</g>
<!-- stake -->
<g id="node17" class="node"><title>stake</title>
<path fill="bisque" stroke="black" d="M507,-252C507,-252 406,-252 406,-252 400,-252 394,-246 394,-240 394,-240 394,-228 394,-228 394,-222 400,-216 406,-216 406,-216 507,-216 507,-216 513,-216 519,-222 519,-228 519,-228 519,-240 519,-240 519,-246 513,-252 507,-252"/>
<text text-anchor="middle" x="456.5" y="-230.3" font-family="Times New Roman,serif" font-size="14.00">blockchain/stake/v5</text>
</g>
<!-- database&#45;&gt;stake -->
<g id="edge19" class="edge"><title>database&#45;&gt;stake</title>
<path fill="none" stroke="dodgerblue" d="M445.5,-277.831C445.5,-277.831 445.5,-252.413 445.5,-252.413"/>
<polygon fill="dodgerblue" stroke="dodgerblue" points="442,-277.831 445.5,-287.831 449,-277.831 442,-277.831"/>
</g>
<!-- hdkeychain -->
<g id="node15" class="node"><title>hdkeychain</title>
<path fill="deepskyblue" stroke="black" d="M304,-108C304,-108 233,-108 233,-108 227,-108 221,-102 221,-96 221,-96 221,-84 221,-84 221,-78 227,-72 233,-72 233,-72 304,-72 304,-72 310,-72 316,-78 316,-84 316,-84 316,-96 316,-96 316,-102 310,-108 304,-108"/>
<text text-anchor="middle" x="268.5" y="-86.3" font-family="Times New Roman,serif" font-size="14.00">hdkeychain/v3</text>
</g>
<!-- hdkeychain&#45;&gt;dcrd -->
<g id="edge30" class="edge"><title>hdkeychain&#45;&gt;dcrd</title>
<path fill="none" stroke="deepskyblue" d="M268.5,-61.9652C268.5,-61.9652 268.5,-24 268.5,-24 268.5,-24 400.285,-24 458.456,-24"/>
<polygon fill="deepskyblue" stroke="deepskyblue" points="265,-61.9652 268.5,-71.9652 272,-61.9652 265,-61.9652"/>
</g>
<!-- txscript&#45;&gt;dcrutil -->
<g id="edge14" class="edge"><title>txscript&#45;&gt;dcrutil</title>
<path fill="none" stroke="mediumspringgreen" d="M322.25,-421.831C322.25,-421.831 322.25,-378 322.25,-378 322.25,-378 326.265,-378 331.849,-378"/>
<polygon fill="mediumspringgreen" stroke="mediumspringgreen" points="318.75,-421.831 322.25,-431.831 325.75,-421.831 318.75,-421.831"/>
</g>
<!-- txscript&#45;&gt;hdkeychain -->
<g id="edge15" class="edge"><title>txscript&#45;&gt;hdkeychain</title>
<path fill="none" stroke="mediumspringgreen" d="M285.25,-421.653C285.25,-421.653 285.25,-108.31 285.25,-108.31"/>
<polygon fill="mediumspringgreen" stroke="mediumspringgreen" points="281.75,-421.653 285.25,-431.653 288.75,-421.653 281.75,-421.653"/>
</g>
<!-- peer -->
<g id="node21" class="node"><title>peer</title>
<path fill="khaki" stroke="black" d="M190.5,-108C190.5,-108 158.5,-108 158.5,-108 152.5,-108 146.5,-102 146.5,-96 146.5,-96 146.5,-84 146.5,-84 146.5,-78 152.5,-72 158.5,-72 158.5,-72 190.5,-72 190.5,-72 196.5,-72 202.5,-78 202.5,-84 202.5,-84 202.5,-96 202.5,-96 202.5,-102 196.5,-108 190.5,-108"/>
<text text-anchor="middle" x="174.5" y="-86.3" font-family="Times New Roman,serif" font-size="14.00">peer/v3</text>
</g>
<!-- txscript&#45;&gt;peer -->
<g id="edge16" class="edge"><title>txscript&#45;&gt;peer</title>
<path fill="none" stroke="mediumspringgreen" d="M244.427,-444C244.427,-444 211.75,-444 211.75,-444 211.75,-444 211.75,-90 211.75,-90 211.75,-90 207.928,-90 202.733,-90"/>
<polygon fill="mediumspringgreen" stroke="mediumspringgreen" points="244.427,-447.5 254.427,-444 244.427,-440.5 244.427,-447.5"/>
</g>
<!-- gcs -->
<g id="node18" class="node"><title>gcs</title>
<path fill="gold" stroke="black" d="M489.5,-180C489.5,-180 459.5,-180 459.5,-180 453.5,-180 447.5,-174 447.5,-168 447.5,-168 447.5,-156 447.5,-156 447.5,-150 453.5,-144 459.5,-144 459.5,-144 489.5,-144 489.5,-144 495.5,-144 501.5,-150 501.5,-156 501.5,-156 501.5,-168 501.5,-168 501.5,-174 495.5,-180 489.5,-180"/>
<text text-anchor="middle" x="474.5" y="-158.3" font-family="Times New Roman,serif" font-size="14.00">gcs/v4</text>
</g>
<!-- stake&#45;&gt;gcs -->
<g id="edge20" class="edge"><title>stake&#45;&gt;gcs</title>
<path fill="none" stroke="bisque" d="M474.5,-205.831C474.5,-205.831 474.5,-180.413 474.5,-180.413"/>
<polygon fill="bisque" stroke="bisque" points="471,-205.831 474.5,-215.831 478,-205.831 471,-205.831"/>
</g>
<!-- gcs&#45;&gt;rpcclient -->
<g id="edge21" class="edge"><title>gcs&#45;&gt;rpcclient</title>
<path fill="none" stroke="gold" d="M474.5,-133.831C474.5,-133.831 474.5,-108.413 474.5,-108.413"/>
<polygon fill="gold" stroke="gold" points="471,-133.831 474.5,-143.831 478,-133.831 471,-133.831"/>
</g>
<!-- standalone&#45;&gt;dcrd -->
<g id="edge26" class="edge"><title>standalone&#45;&gt;dcrd</title>
<path fill="none" stroke="firebrick" d="M621.5,-61.998C621.5,-61.998 621.5,-30 621.5,-30 621.5,-30 552.383,-30 512.695,-30"/>
<polygon fill="firebrick" stroke="firebrick" points="618,-61.998 621.5,-71.998 625,-61.9981 618,-61.998"/>
</g>
<!-- lru -->
<g id="node20" class="node"><title>lru</title>
<path fill="#3a5fcd" stroke="black" d="M189.5,-180C189.5,-180 159.5,-180 159.5,-180 153.5,-180 147.5,-174 147.5,-168 147.5,-168 147.5,-156 147.5,-156 147.5,-150 153.5,-144 159.5,-144 159.5,-144 189.5,-144 189.5,-144 195.5,-144 201.5,-150 201.5,-156 201.5,-156 201.5,-168 201.5,-168 201.5,-174 195.5,-180 189.5,-180"/>
<text text-anchor="middle" x="174.5" y="-158.3" font-family="Times New Roman,serif" font-size="14.00">lru</text>
</g>
<!-- lru&#45;&gt;peer -->
<g id="edge22" class="edge"><title>lru&#45;&gt;peer</title>
<path fill="none" stroke="#3a5fcd" d="M174.5,-133.831C174.5,-133.831 174.5,-108.413 174.5,-108.413"/>
<polygon fill="#3a5fcd" stroke="#3a5fcd" points="171,-133.831 174.5,-143.831 178,-133.831 171,-133.831"/>
</g>
<!-- peer&#45;&gt;dcrd -->
<g id="edge33" class="edge"><title>peer&#45;&gt;dcrd</title>
<path fill="none" stroke="khaki" d="M174.5,-61.8314C174.5,-61.8314 174.5,-18 174.5,-18 174.5,-18 382.78,-18 458.445,-18"/>
<polygon fill="khaki" stroke="khaki" points="171,-61.8313 174.5,-71.8314 178,-61.8314 171,-61.8313"/>
</g>
<!-- rpcclient&#45;&gt;dcrd -->
<g id="edge32" class="edge"><title>rpcclient&#45;&gt;dcrd</title>
<path fill="none" stroke="mediumseagreen" d="M485.5,-61.8314C485.5,-61.8314 485.5,-36.4133 485.5,-36.4133"/>
<polygon fill="mediumseagreen" stroke="mediumseagreen" points="482,-61.8313 485.5,-71.8314 489,-61.8314 482,-61.8313"/>
</g>
<!-- addrmgr&#45;&gt;dcrd -->
<g id="edge29" class="edge"><title>addrmgr&#45;&gt;dcrd</title>
<path fill="none" stroke="lightsalmon" d="M757.5,-61.9652C757.5,-61.9652 757.5,-24 757.5,-24 757.5,-24 581.374,-24 512.575,-24"/>
<polygon fill="lightsalmon" stroke="lightsalmon" points="754,-61.9652 757.5,-71.9652 761,-61.9652 754,-61.9652"/>
</g>
<!-- connmgr&#45;&gt;dcrd -->
<g id="edge31" class="edge"><title>connmgr&#45;&gt;dcrd</title>
<path fill="none" stroke="mistyrose" d="M855.5,-61.8314C855.5,-61.8314 855.5,-18 855.5,-18 855.5,-18 598.154,-18 512.707,-18"/>
<polygon fill="mistyrose" stroke="mistyrose" points="852,-61.8313 855.5,-71.8314 859,-61.8314 852,-61.8313"/>
</g>
<!-- blockchain&#45;&gt;dcrd -->
<g id="edge25" class="edge"><title>blockchain&#45;&gt;dcrd</title>
<path fill="none" stroke="orchid" d="M380.5,-61.998C380.5,-61.998 380.5,-30 380.5,-30 380.5,-30 427.349,-30 458.46,-30"/>
<polygon fill="orchid" stroke="orchid" points="377,-61.998 380.5,-71.998 384,-61.9981 377,-61.998"/>
</g>
<!-- apbf -->
<g id="node26" class="node"><title>apbf</title>
<path fill="goldenrod" stroke="black" d="M997,-108C997,-108 926,-108 926,-108 920,-108 914,-102 914,-96 914,-96 914,-84 914,-84 914,-78 920,-72 926,-72 926,-72 997,-72 997,-72 1003,-72 1009,-78 1009,-84 1009,-84 1009,-96 1009,-96 1009,-102 1003,-108 997,-108"/>
<text text-anchor="middle" x="961.5" y="-86.3" font-family="Times New Roman,serif" font-size="14.00">container/apbf</text>
</g>
<!-- apbf&#45;&gt;dcrd -->
<g id="edge34" class="edge"><title>apbf&#45;&gt;dcrd</title>
<path fill="none" stroke="goldenrod" d="M961.5,-61.9092C961.5,-61.9092 961.5,-12 961.5,-12 961.5,-12 613.945,-12 512.801,-12"/>
<polygon fill="goldenrod" stroke="goldenrod" points="958,-61.9091 961.5,-71.9092 965,-61.9092 958,-61.9091"/>
</g>
<!-- uint256 -->
<g id="node27" class="node"><title>uint256</title>
<path fill="lightgreen" stroke="black" d="M1101.5,-108C1101.5,-108 1039.5,-108 1039.5,-108 1033.5,-108 1027.5,-102 1027.5,-96 1027.5,-96 1027.5,-84 1027.5,-84 1027.5,-78 1033.5,-72 1039.5,-72 1039.5,-72 1101.5,-72 1101.5,-72 1107.5,-72 1113.5,-78 1113.5,-84 1113.5,-84 1113.5,-96 1113.5,-96 1113.5,-102 1107.5,-108 1101.5,-108"/>
<text text-anchor="middle" x="1070.5" y="-86.3" font-family="Times New Roman,serif" font-size="14.00">math/uint256</text>
</g>
<!-- uint256&#45;&gt;dcrd -->
<g id="edge35" class="edge"><title>uint256&#45;&gt;dcrd</title>
<path fill="none" stroke="lightgreen" d="M1070.5,-61.9737C1070.5,-61.9737 1070.5,-5 1070.5,-5 1070.5,-5 627.594,-5 512.543,-5"/>
<polygon fill="lightgreen" stroke="lightgreen" points="1067,-61.9737 1070.5,-71.9737 1074,-61.9737 1067,-61.9737"/>
</g>
</g>
</svg>
