<?xml version="1.0" encoding="UTF-8" standalone="no"?>
<!DOCTYPE svg PUBLIC "-//W3C//DTD SVG 1.1//EN"
 "http://www.w3.org/Graphics/SVG/1.1/DTD/svg11.dtd">
<!-- Generated by graphviz version 2.38.0 (20140413.2041)
 -->
<!-- Title: %3 Pages: 1 -->
<svg width="696pt" height="792pt"
 viewBox="0.00 0.00 695.50 792.00" xmlns="http://www.w3.org/2000/svg" xmlns:xlink="http://www.w3.org/1999/xlink">
<g id="graph0" class="graph" transform="scale(1 1) rotate(0) translate(4 788)">
<title>%3</title>
<polygon fill="white" stroke="#000000" points="-4,4 -4,-788 691.5,-788 691.5,4 -4,4"/>
<text text-anchor="start" x="277.25" y="-766.6" font-family="Times New Roman,serif" text-decoration="underline" font-size="18.00">Module Hierarchy</text>
<!-- certgen -->
<g id="node1" class="node"><title>certgen</title>
<path fill="darkkhaki" stroke="black" d="M45,-108C45,-108 12,-108 12,-108 6,-108 0,-102 0,-96 0,-96 0,-84 0,-84 0,-78 6,-72 12,-72 12,-72 45,-72 45,-72 51,-72 57,-78 57,-84 57,-84 57,-96 57,-96 57,-102 51,-108 45,-108"/>
<text text-anchor="middle" x="28.5" y="-86.3" font-family="Times New Roman,serif" font-size="14.00">certgen</text>
</g>
<!-- dcrd -->
<g id="node25" class="node"><title>dcrd</title>
<path fill="chocolate" stroke="black" d="M360.5,-36C360.5,-36 330.5,-36 330.5,-36 324.5,-36 318.5,-30 318.5,-24 318.5,-24 318.5,-12 318.5,-12 318.5,-6 324.5,-0 330.5,-0 330.5,-0 360.5,-0 360.5,-0 366.5,-0 372.5,-6 372.5,-12 372.5,-12 372.5,-24 372.5,-24 372.5,-30 366.5,-36 360.5,-36"/>
<text text-anchor="middle" x="345.5" y="-14.3" font-family="Times New Roman,serif" font-size="14.00">dcrd</text>
</g>
<!-- certgen&#45;&gt;dcrd -->
<g id="edge27" class="edge"><title>certgen&#45;&gt;dcrd</title>
<path fill="none" stroke="darkkhaki" d="M28.5,-61.6198C28.5,-61.6198 28.5,-9 28.5,-9 28.5,-9 241.813,-9 318.473,-9"/>
<polygon fill="darkkhaki" stroke="darkkhaki" points="25.0001,-61.6198 28.5,-71.6198 32.0001,-61.6199 25.0001,-61.6198"/>
</g>
<!-- chainhash -->
<g id="node2" class="node"><title>chainhash</title>
<path fill="aquamarine" stroke="black" d="M514.5,-756C514.5,-756 416.5,-756 416.5,-756 410.5,-756 404.5,-750 404.5,-744 404.5,-744 404.5,-732 404.5,-732 404.5,-726 410.5,-720 416.5,-720 416.5,-720 514.5,-720 514.5,-720 520.5,-720 526.5,-726 526.5,-732 526.5,-732 526.5,-744 526.5,-744 526.5,-750 520.5,-756 514.5,-756"/>
<text text-anchor="middle" x="465.5" y="-734.3" font-family="Times New Roman,serif" font-size="14.00">chaincfg/chainhash</text>
</g>
<!-- dcrjson -->
<g id="node3" class="node"><title>dcrjson</title>
<path fill="indianred" stroke="black" d="M605.5,-684C605.5,-684 553.5,-684 553.5,-684 547.5,-684 541.5,-678 541.5,-672 541.5,-672 541.5,-660 541.5,-660 541.5,-654 547.5,-648 553.5,-648 553.5,-648 605.5,-648 605.5,-648 611.5,-648 617.5,-654 617.5,-660 617.5,-660 617.5,-672 617.5,-672 617.5,-678 611.5,-684 605.5,-684"/>
<text text-anchor="middle" x="579.5" y="-662.3" font-family="Times New Roman,serif" font-size="14.00">dcrjson/v3</text>
</g>
<!-- chainhash&#45;&gt;dcrjson -->
<g id="edge1" class="edge"><title>chainhash&#45;&gt;dcrjson</title>
<path fill="none" stroke="aquamarine" d="M536.505,-738C536.505,-738 579.5,-738 579.5,-738 579.5,-738 579.5,-705.498 579.5,-684.169"/>
<polygon fill="aquamarine" stroke="aquamarine" points="536.505,-734.5 526.505,-738 536.505,-741.5 536.505,-734.5"/>
</g>
<!-- wire -->
<g id="node5" class="node"><title>wire</title>
<path fill="coral" stroke="black" d="M205.5,-684C205.5,-684 175.5,-684 175.5,-684 169.5,-684 163.5,-678 163.5,-672 163.5,-672 163.5,-660 163.5,-660 163.5,-654 169.5,-648 175.5,-648 175.5,-648 205.5,-648 205.5,-648 211.5,-648 217.5,-654 217.5,-660 217.5,-660 217.5,-672 217.5,-672 217.5,-678 211.5,-684 205.5,-684"/>
<text text-anchor="middle" x="190.5" y="-662.3" font-family="Times New Roman,serif" font-size="14.00">wire</text>
</g>
<!-- chainhash&#45;&gt;wire -->
<g id="edge2" class="edge"><title>chainhash&#45;&gt;wire</title>
<path fill="none" stroke="aquamarine" d="M394.469,-738C394.469,-738 190.5,-738 190.5,-738 190.5,-738 190.5,-705.498 190.5,-684.169"/>
<polygon fill="aquamarine" stroke="aquamarine" points="394.469,-741.5 404.469,-738 394.469,-734.5 394.469,-741.5"/>
</g>
<!-- secp256k1 -->
<g id="node11" class="node"><title>secp256k1</title>
<path fill="mediumvioletred" stroke="black" d="M509.5,-684C509.5,-684 421.5,-684 421.5,-684 415.5,-684 409.5,-678 409.5,-672 409.5,-672 409.5,-660 409.5,-660 409.5,-654 415.5,-648 421.5,-648 421.5,-648 509.5,-648 509.5,-648 515.5,-648 521.5,-654 521.5,-660 521.5,-660 521.5,-672 521.5,-672 521.5,-678 515.5,-684 509.5,-684"/>
<text text-anchor="middle" x="465.5" y="-662.3" font-family="Times New Roman,serif" font-size="14.00">dcrec/secp256k1</text>
</g>
<!-- chainhash&#45;&gt;secp256k1 -->
<g id="edge6" class="edge"><title>chainhash&#45;&gt;secp256k1</title>
<path fill="none" stroke="aquamarine" d="M465.5,-709.831C465.5,-709.831 465.5,-684.413 465.5,-684.413"/>
<polygon fill="aquamarine" stroke="aquamarine" points="462,-709.831 465.5,-719.831 469,-709.831 462,-709.831"/>
</g>
<!-- types -->
<g id="node4" class="node"><title>types</title>
<path fill="tomato" stroke="black" d="M636,-540C636,-540 545,-540 545,-540 539,-540 533,-534 533,-528 533,-528 533,-516 533,-516 533,-510 539,-504 545,-504 545,-504 636,-504 636,-504 642,-504 648,-510 648,-516 648,-516 648,-528 648,-528 648,-534 642,-540 636,-540"/>
<text text-anchor="middle" x="590.5" y="-518.3" font-family="Times New Roman,serif" font-size="14.00">rpc/jsonrpc/types</text>
</g>
<!-- dcrjson&#45;&gt;types -->
<g id="edge23" class="edge"><title>dcrjson&#45;&gt;types</title>
<path fill="none" stroke="tomato" d="M579.5,-637.762C579.5,-637.762 579.5,-540.09 579.5,-540.09"/>
<polygon fill="tomato" stroke="tomato" points="576,-637.762 579.5,-647.762 583,-637.762 576,-637.762"/>
</g>
<!-- rpcclient -->
<g id="node23" class="node"><title>rpcclient</title>
<path fill="mediumseagreen" stroke="black" d="M603.5,-108C603.5,-108 545.5,-108 545.5,-108 539.5,-108 533.5,-102 533.5,-96 533.5,-96 533.5,-84 533.5,-84 533.5,-78 539.5,-72 545.5,-72 545.5,-72 603.5,-72 603.5,-72 609.5,-72 615.5,-78 615.5,-84 615.5,-84 615.5,-96 615.5,-96 615.5,-102 609.5,-108 603.5,-108"/>
<text text-anchor="middle" x="574.5" y="-86.3" font-family="Times New Roman,serif" font-size="14.00">rpcclient/v4</text>
</g>
<!-- types&#45;&gt;rpcclient -->
<g id="edge24" class="edge"><title>types&#45;&gt;rpcclient</title>
<path fill="none" stroke="indianred" d="M588.167,-493.987C588.167,-493.987 588.167,-108.089 588.167,-108.089"/>
<polygon fill="indianred" stroke="indianred" points="584.667,-493.987 588.167,-503.987 591.667,-493.988 584.667,-493.987"/>
</g>
<!-- addrmgr -->
<g id="node6" class="node"><title>addrmgr</title>
<path fill="lightsalmon" stroke="black" d="M127.5,-108C127.5,-108 87.5,-108 87.5,-108 81.5,-108 75.5,-102 75.5,-96 75.5,-96 75.5,-84 75.5,-84 75.5,-78 81.5,-72 87.5,-72 87.5,-72 127.5,-72 127.5,-72 133.5,-72 139.5,-78 139.5,-84 139.5,-84 139.5,-96 139.5,-96 139.5,-102 133.5,-108 127.5,-108"/>
<text text-anchor="middle" x="107.5" y="-86.3" font-family="Times New Roman,serif" font-size="14.00">addrmgr</text>
</g>
<!-- wire&#45;&gt;addrmgr -->
<g id="edge3" class="edge"><title>wire&#45;&gt;addrmgr</title>
<path fill="none" stroke="coral" d="M153.323,-666C153.323,-666 107.5,-666 107.5,-666 107.5,-666 107.5,-206.099 107.5,-108.19"/>
<polygon fill="coral" stroke="coral" points="153.323,-669.5 163.323,-666 153.323,-662.5 153.323,-669.5"/>
</g>
<!-- chaincfg -->
<g id="node7" class="node"><title>chaincfg</title>
<path fill="cadetblue" stroke="black" d="M219,-612C219,-612 162,-612 162,-612 156,-612 150,-606 150,-600 150,-600 150,-588 150,-588 150,-582 156,-576 162,-576 162,-576 219,-576 219,-576 225,-576 231,-582 231,-588 231,-588 231,-600 231,-600 231,-606 225,-612 219,-612"/>
<text text-anchor="middle" x="190.5" y="-590.3" font-family="Times New Roman,serif" font-size="14.00">chaincfg/v2</text>
</g>
<!-- wire&#45;&gt;chaincfg -->
<g id="edge4" class="edge"><title>wire&#45;&gt;chaincfg</title>
<path fill="none" stroke="coral" d="M190.5,-637.831C190.5,-637.831 190.5,-612.413 190.5,-612.413"/>
<polygon fill="coral" stroke="coral" points="187,-637.831 190.5,-647.831 194,-637.831 187,-637.831"/>
</g>
<!-- addrmgr&#45;&gt;dcrd -->
<g id="edge28" class="edge"><title>addrmgr&#45;&gt;dcrd</title>
<path fill="none" stroke="lightsalmon" d="M107.5,-61.8314C107.5,-61.8314 107.5,-18 107.5,-18 107.5,-18 255.683,-18 318.198,-18"/>
<polygon fill="lightsalmon" stroke="lightsalmon" points="104,-61.8313 107.5,-71.8314 111,-61.8314 104,-61.8313"/>
</g>
<!-- connmgr -->
<g id="node8" class="node"><title>connmgr</title>
<path fill="mistyrose" stroke="black" d="M211.5,-108C211.5,-108 169.5,-108 169.5,-108 163.5,-108 157.5,-102 157.5,-96 157.5,-96 157.5,-84 157.5,-84 157.5,-78 163.5,-72 169.5,-72 169.5,-72 211.5,-72 211.5,-72 217.5,-72 223.5,-78 223.5,-84 223.5,-84 223.5,-96 223.5,-96 223.5,-102 217.5,-108 211.5,-108"/>
<text text-anchor="middle" x="190.5" y="-86.3" font-family="Times New Roman,serif" font-size="14.00">connmgr</text>
</g>
<!-- chaincfg&#45;&gt;connmgr -->
<g id="edge5" class="edge"><title>chaincfg&#45;&gt;connmgr</title>
<path fill="none" stroke="cadetblue" d="M190.5,-565.765C190.5,-565.765 190.5,-108.211 190.5,-108.211"/>
<polygon fill="cadetblue" stroke="cadetblue" points="187,-565.765 190.5,-575.765 194,-565.765 187,-565.765"/>
</g>
<!-- dcrutil -->
<g id="node12" class="node"><title>dcrutil</title>
<path fill="burlywood" stroke="black" d="M383,-540C383,-540 338,-540 338,-540 332,-540 326,-534 326,-528 326,-528 326,-516 326,-516 326,-510 332,-504 338,-504 338,-504 383,-504 383,-504 389,-504 395,-510 395,-516 395,-516 395,-528 395,-528 395,-534 389,-540 383,-540"/>
<text text-anchor="middle" x="360.5" y="-518.3" font-family="Times New Roman,serif" font-size="14.00">dcrutil/v2</text>
</g>
<!-- chaincfg&#45;&gt;dcrutil -->
<g id="edge7" class="edge"><title>chaincfg&#45;&gt;dcrutil</title>
<path fill="none" stroke="cadetblue" d="M227.25,-565.831C227.25,-565.831 227.25,-522 227.25,-522 227.25,-522 286.357,-522 325.838,-522"/>
<polygon fill="cadetblue" stroke="cadetblue" points="223.75,-565.831 227.25,-575.831 230.75,-565.831 223.75,-565.831"/>
</g>
<!-- connmgr&#45;&gt;dcrd -->
<g id="edge30" class="edge"><title>connmgr&#45;&gt;dcrd</title>
<path fill="none" stroke="mistyrose" d="M190.5,-61.7778C190.5,-61.7778 190.5,-27 190.5,-27 190.5,-27 273.648,-27 318.146,-27"/>
<polygon fill="mistyrose" stroke="mistyrose" points="187,-61.7778 190.5,-71.7778 194,-61.7778 187,-61.7778"/>
</g>
<!-- dcrec -->
<g id="node9" class="node"><title>dcrec</title>
<path fill="mediumpurple" stroke="black" d="M291.5,-612C291.5,-612 261.5,-612 261.5,-612 255.5,-612 249.5,-606 249.5,-600 249.5,-600 249.5,-588 249.5,-588 249.5,-582 255.5,-576 261.5,-576 261.5,-576 291.5,-576 291.5,-576 297.5,-576 303.5,-582 303.5,-588 303.5,-588 303.5,-600 303.5,-600 303.5,-606 297.5,-612 291.5,-612"/>
<text text-anchor="middle" x="276.5" y="-590.3" font-family="Times New Roman,serif" font-size="14.00">dcrec</text>
</g>
<!-- dcrec&#45;&gt;dcrutil -->
<g id="edge8" class="edge"><title>dcrec&#45;&gt;dcrutil</title>
<path fill="none" stroke="mediumpurple" d="M276.5,-565.778C276.5,-565.778 276.5,-531 276.5,-531 276.5,-531 302.71,-531 325.849,-531"/>
<polygon fill="mediumpurple" stroke="mediumpurple" points="273,-565.778 276.5,-575.778 280,-565.778 273,-565.778"/>
</g>
<!-- edwards -->
<g id="node10" class="node"><title>edwards</title>
<path fill="lightseagreen" stroke="black" d="M425.5,-612C425.5,-612 333.5,-612 333.5,-612 327.5,-612 321.5,-606 321.5,-600 321.5,-600 321.5,-588 321.5,-588 321.5,-582 327.5,-576 333.5,-576 333.5,-576 425.5,-576 425.5,-576 431.5,-576 437.5,-582 437.5,-588 437.5,-588 437.5,-600 437.5,-600 437.5,-606 431.5,-612 425.5,-612"/>
<text text-anchor="middle" x="379.5" y="-590.3" font-family="Times New Roman,serif" font-size="14.00">dcrec/edwards/v2</text>
</g>
<!-- edwards&#45;&gt;dcrutil -->
<g id="edge9" class="edge"><title>edwards&#45;&gt;dcrutil</title>
<path fill="none" stroke="lightseagreen" d="M360.5,-565.831C360.5,-565.831 360.5,-540.413 360.5,-540.413"/>
<polygon fill="lightseagreen" stroke="lightseagreen" points="357,-565.831 360.5,-575.831 364,-565.831 357,-565.831"/>
</g>
<!-- secp256k1&#45;&gt;dcrutil -->
<g id="edge10" class="edge"><title>secp256k1&#45;&gt;dcrutil</title>
<path fill="none" stroke="mediumvioletred" d="M467,-637.959C467,-637.959 467,-528 467,-528 467,-528 426.175,-528 395.077,-528"/>
<polygon fill="mediumvioletred" stroke="mediumvioletred" points="463.5,-637.959 467,-647.959 470.5,-637.959 463.5,-637.959"/>
</g>
<!-- database -->
<g id="node13" class="node"><title>database</title>
<path fill="dodgerblue" stroke="black" d="M390,-468C390,-468 331,-468 331,-468 325,-468 319,-462 319,-456 319,-456 319,-444 319,-444 319,-438 325,-432 331,-432 331,-432 390,-432 390,-432 396,-432 402,-438 402,-444 402,-444 402,-456 402,-456 402,-462 396,-468 390,-468"/>
<text text-anchor="middle" x="360.5" y="-446.3" font-family="Times New Roman,serif" font-size="14.00">database/v2</text>
</g>
<!-- dcrutil&#45;&gt;database -->
<g id="edge11" class="edge"><title>dcrutil&#45;&gt;database</title>
<path fill="none" stroke="burlywood" d="M360.5,-493.831C360.5,-493.831 360.5,-468.413 360.5,-468.413"/>
<polygon fill="burlywood" stroke="burlywood" points="357,-493.831 360.5,-503.831 364,-493.831 357,-493.831"/>
</g>
<!-- hdkeychain -->
<g id="node14" class="node"><title>hdkeychain</title>
<path fill="deepskyblue" stroke="black" d="M327,-108C327,-108 254,-108 254,-108 248,-108 242,-102 242,-96 242,-96 242,-84 242,-84 242,-78 248,-72 254,-72 254,-72 327,-72 327,-72 333,-72 339,-78 339,-84 339,-84 339,-96 339,-96 339,-102 333,-108 327,-108"/>
<text text-anchor="middle" x="290.5" y="-86.3" font-family="Times New Roman,serif" font-size="14.00">hdkeychain/v2</text>
</g>
<!-- dcrutil&#45;&gt;hdkeychain -->
<g id="edge12" class="edge"><title>dcrutil&#45;&gt;hdkeychain</title>
<path fill="none" stroke="burlywood" d="M315.76,-513C315.76,-513 311.25,-513 311.25,-513 311.25,-513 311.25,-189.141 311.25,-108.176"/>
<polygon fill="burlywood" stroke="burlywood" points="315.76,-516.5 325.76,-513 315.76,-509.5 315.76,-516.5"/>
</g>
<!-- txscript -->
<g id="node15" class="node"><title>txscript</title>
<path fill="mediumspringgreen" stroke="black" d="M484.5,-468C484.5,-468 432.5,-468 432.5,-468 426.5,-468 420.5,-462 420.5,-456 420.5,-456 420.5,-444 420.5,-444 420.5,-438 426.5,-432 432.5,-432 432.5,-432 484.5,-432 484.5,-432 490.5,-432 496.5,-438 496.5,-444 496.5,-444 496.5,-456 496.5,-456 496.5,-462 490.5,-468 484.5,-468"/>
<text text-anchor="middle" x="458.5" y="-446.3" font-family="Times New Roman,serif" font-size="14.00">txscript/v2</text>
</g>
<!-- dcrutil&#45;&gt;txscript -->
<g id="edge13" class="edge"><title>dcrutil&#45;&gt;txscript</title>
<path fill="none" stroke="burlywood" d="M405.151,-516C405.151,-516 429,-516 429,-516 429,-516 429,-487.576 429,-468.035"/>
<polygon fill="burlywood" stroke="burlywood" points="405.151,-512.5 395.151,-516 405.151,-519.5 405.151,-512.5"/>
</g>
<!-- stake -->
<g id="node16" class="node"><title>stake</title>
<path fill="bisque" stroke="black" d="M503,-396C503,-396 400,-396 400,-396 394,-396 388,-390 388,-384 388,-384 388,-372 388,-372 388,-366 394,-360 400,-360 400,-360 503,-360 503,-360 509,-360 515,-366 515,-372 515,-372 515,-384 515,-384 515,-390 509,-396 503,-396"/>
<text text-anchor="middle" x="451.5" y="-374.3" font-family="Times New Roman,serif" font-size="14.00">blockchain/stake/v2</text>
</g>
<!-- database&#45;&gt;stake -->
<g id="edge14" class="edge"><title>database&#45;&gt;stake</title>
<path fill="none" stroke="dodgerblue" d="M395,-421.831C395,-421.831 395,-396.413 395,-396.413"/>
<polygon fill="dodgerblue" stroke="dodgerblue" points="391.5,-421.831 395,-431.831 398.5,-421.831 391.5,-421.831"/>
</g>
<!-- hdkeychain&#45;&gt;dcrd -->
<g id="edge29" class="edge"><title>hdkeychain&#45;&gt;dcrd</title>
<path fill="none" stroke="deepskyblue" d="M328.75,-61.8314C328.75,-61.8314 328.75,-36.4133 328.75,-36.4133"/>
<polygon fill="deepskyblue" stroke="deepskyblue" points="325.25,-61.8313 328.75,-71.8314 332.25,-61.8314 325.25,-61.8313"/>
</g>
<!-- txscript&#45;&gt;stake -->
<g id="edge15" class="edge"><title>txscript&#45;&gt;stake</title>
<path fill="none" stroke="mediumspringgreen" d="M458.5,-421.831C458.5,-421.831 458.5,-396.413 458.5,-396.413"/>
<polygon fill="mediumspringgreen" stroke="mediumspringgreen" points="455,-421.831 458.5,-431.831 462,-421.831 455,-421.831"/>
</g>
<!-- gcs -->
<g id="node17" class="node"><title>gcs</title>
<path fill="gold" stroke="black" d="M466.5,-324C466.5,-324 436.5,-324 436.5,-324 430.5,-324 424.5,-318 424.5,-312 424.5,-312 424.5,-300 424.5,-300 424.5,-294 430.5,-288 436.5,-288 436.5,-288 466.5,-288 466.5,-288 472.5,-288 478.5,-294 478.5,-300 478.5,-300 478.5,-312 478.5,-312 478.5,-318 472.5,-324 466.5,-324"/>
<text text-anchor="middle" x="451.5" y="-302.3" font-family="Times New Roman,serif" font-size="14.00">gcs</text>
</g>
<!-- stake&#45;&gt;gcs -->
<g id="edge16" class="edge"><title>stake&#45;&gt;gcs</title>
<path fill="none" stroke="bisque" d="M451.5,-349.831C451.5,-349.831 451.5,-324.413 451.5,-324.413"/>
<polygon fill="bisque" stroke="bisque" points="448,-349.831 451.5,-359.831 455,-349.831 448,-349.831"/>
</g>
<!-- blockchain -->
<g id="node18" class="node"><title>blockchain</title>
<path fill="orchid" stroke="black" d="M471,-252C471,-252 418,-252 418,-252 412,-252 406,-246 406,-240 406,-240 406,-228 406,-228 406,-222 412,-216 418,-216 418,-216 471,-216 471,-216 477,-216 483,-222 483,-228 483,-228 483,-240 483,-240 483,-246 477,-252 471,-252"/>
<text text-anchor="middle" x="444.5" y="-230.3" font-family="Times New Roman,serif" font-size="14.00">blockchain</text>
</g>
<!-- gcs&#45;&gt;blockchain -->
<g id="edge17" class="edge"><title>gcs&#45;&gt;blockchain</title>
<path fill="none" stroke="gold" d="M451.5,-277.831C451.5,-277.831 451.5,-252.413 451.5,-252.413"/>
<polygon fill="gold" stroke="gold" points="448,-277.831 451.5,-287.831 455,-277.831 448,-277.831"/>
</g>
<!-- gcs&#45;&gt;rpcclient -->
<g id="edge18" class="edge"><title>gcs&#45;&gt;rpcclient</title>
<path fill="none" stroke="gold" d="M488.526,-306C488.526,-306 560.833,-306 560.833,-306 560.833,-306 560.833,-159.958 560.833,-108.045"/>
<polygon fill="gold" stroke="gold" points="488.526,-302.5 478.526,-306 488.526,-309.5 488.526,-302.5"/>
</g>
<!-- mining -->
<g id="node20" class="node"><title>mining</title>
<path fill="chartreuse" stroke="black" d="M404.5,-180C404.5,-180 374.5,-180 374.5,-180 368.5,-180 362.5,-174 362.5,-168 362.5,-168 362.5,-156 362.5,-156 362.5,-150 368.5,-144 374.5,-144 374.5,-144 404.5,-144 404.5,-144 410.5,-144 416.5,-150 416.5,-156 416.5,-156 416.5,-168 416.5,-168 416.5,-174 410.5,-180 404.5,-180"/>
<text text-anchor="middle" x="389.5" y="-158.3" font-family="Times New Roman,serif" font-size="14.00">mining</text>
</g>
<!-- blockchain&#45;&gt;mining -->
<g id="edge19" class="edge"><title>blockchain&#45;&gt;mining</title>
<path fill="none" stroke="orchid" d="M411.25,-205.831C411.25,-205.831 411.25,-180.413 411.25,-180.413"/>
<polygon fill="orchid" stroke="orchid" points="407.75,-205.831 411.25,-215.831 414.75,-205.831 407.75,-205.831"/>
</g>
<!-- peer -->
<g id="node22" class="node"><title>peer</title>
<path fill="khaki" stroke="black" d="M503.5,-108C503.5,-108 473.5,-108 473.5,-108 467.5,-108 461.5,-102 461.5,-96 461.5,-96 461.5,-84 461.5,-84 461.5,-78 467.5,-72 473.5,-72 473.5,-72 503.5,-72 503.5,-72 509.5,-72 515.5,-78 515.5,-84 515.5,-84 515.5,-96 515.5,-96 515.5,-102 509.5,-108 503.5,-108"/>
<text text-anchor="middle" x="488.5" y="-86.3" font-family="Times New Roman,serif" font-size="14.00">peer</text>
</g>
<!-- blockchain&#45;&gt;peer -->
<g id="edge22" class="edge"><title>blockchain&#45;&gt;peer</title>
<path fill="none" stroke="orchid" d="M467,-205.762C467,-205.762 467,-108.09 467,-108.09"/>
<polygon fill="orchid" stroke="orchid" points="463.5,-205.762 467,-215.762 470.5,-205.762 463.5,-205.762"/>
</g>
<!-- mempool -->
<g id="node19" class="node"><title>mempool</title>
<path fill="slategray" stroke="black" d="M431.5,-108C431.5,-108 369.5,-108 369.5,-108 363.5,-108 357.5,-102 357.5,-96 357.5,-96 357.5,-84 357.5,-84 357.5,-78 363.5,-72 369.5,-72 369.5,-72 431.5,-72 431.5,-72 437.5,-72 443.5,-78 443.5,-84 443.5,-84 443.5,-96 443.5,-96 443.5,-102 437.5,-108 431.5,-108"/>
<text text-anchor="middle" x="400.5" y="-86.3" font-family="Times New Roman,serif" font-size="14.00">mempool/v2</text>
</g>
<!-- mempool&#45;&gt;dcrd -->
<g id="edge26" class="edge"><title>mempool&#45;&gt;dcrd</title>
<path fill="none" stroke="slategray" d="M365,-61.8314C365,-61.8314 365,-36.4133 365,-36.4133"/>
<polygon fill="slategray" stroke="slategray" points="361.5,-61.8313 365,-71.8314 368.5,-61.8314 361.5,-61.8313"/>
</g>
<!-- mining&#45;&gt;mempool -->
<g id="edge20" class="edge"><title>mining&#45;&gt;mempool</title>
<path fill="none" stroke="chartreuse" d="M389.5,-133.831C389.5,-133.831 389.5,-108.413 389.5,-108.413"/>
<polygon fill="chartreuse" stroke="chartreuse" points="386,-133.831 389.5,-143.831 393,-133.831 386,-133.831"/>
</g>
<!-- lru -->
<g id="node21" class="node"><title>lru</title>
<path fill="#3a5fcd" stroke="black" d="M514.5,-180C514.5,-180 484.5,-180 484.5,-180 478.5,-180 472.5,-174 472.5,-168 472.5,-168 472.5,-156 472.5,-156 472.5,-150 478.5,-144 484.5,-144 484.5,-144 514.5,-144 514.5,-144 520.5,-144 526.5,-150 526.5,-156 526.5,-156 526.5,-168 526.5,-168 526.5,-174 520.5,-180 514.5,-180"/>
<text text-anchor="middle" x="499.5" y="-158.3" font-family="Times New Roman,serif" font-size="14.00">lru</text>
</g>
<!-- lru&#45;&gt;peer -->
<g id="edge21" class="edge"><title>lru&#45;&gt;peer</title>
<path fill="none" stroke="#3a5fcd" d="M494,-133.831C494,-133.831 494,-108.413 494,-108.413"/>
<polygon fill="#3a5fcd" stroke="#3a5fcd" points="490.5,-133.831 494,-143.831 497.5,-133.831 490.5,-133.831"/>
</g>
<!-- peer&#45;&gt;dcrd -->
<g id="edge32" class="edge"><title>peer&#45;&gt;dcrd</title>
<path fill="none" stroke="khaki" d="M488.5,-61.7778C488.5,-61.7778 488.5,-27 488.5,-27 488.5,-27 414.224,-27 372.734,-27"/>
<polygon fill="khaki" stroke="khaki" points="485,-61.7778 488.5,-71.7778 492,-61.7778 485,-61.7778"/>
</g>
<!-- rpcclient&#45;&gt;dcrd -->
<g id="edge31" class="edge"><title>rpcclient&#45;&gt;dcrd</title>
<path fill="none" stroke="mediumseagreen" d="M574.5,-61.8314C574.5,-61.8314 574.5,-18 574.5,-18 574.5,-18 433.328,-18 372.669,-18"/>
<polygon fill="mediumseagreen" stroke="mediumseagreen" points="571,-61.8313 574.5,-71.8314 578,-61.8314 571,-61.8313"/>
</g>
<!-- fees -->
<g id="node24" class="node"><title>fees</title>
<path fill="#bcee68" stroke="black" d="M675.5,-108C675.5,-108 645.5,-108 645.5,-108 639.5,-108 633.5,-102 633.5,-96 633.5,-96 633.5,-84 633.5,-84 633.5,-78 639.5,-72 645.5,-72 645.5,-72 675.5,-72 675.5,-72 681.5,-72 687.5,-78 687.5,-84 687.5,-84 687.5,-96 687.5,-96 687.5,-102 681.5,-108 675.5,-108"/>
<text text-anchor="middle" x="660.5" y="-86.3" font-family="Times New Roman,serif" font-size="14.00">fees</text>
</g>
<!-- fees&#45;&gt;dcrd -->
<g id="edge25" class="edge"><title>fees&#45;&gt;dcrd</title>
<path fill="none" stroke="#bcee68" d="M660.5,-61.6198C660.5,-61.6198 660.5,-9 660.5,-9 660.5,-9 449.037,-9 372.629,-9"/>
<polygon fill="#bcee68" stroke="#bcee68" points="657,-61.6198 660.5,-71.6198 664,-61.6199 657,-61.6198"/>
</g>
</g>
</svg>
