<?xml version="1.0" encoding="UTF-8" standalone="no"?>
<!DOCTYPE svg PUBLIC "-//W3C//DTD SVG 1.1//EN"
 "http://www.w3.org/Graphics/SVG/1.1/DTD/svg11.dtd">
<!-- Generated by graphviz version 2.38.0 (20140413.2041)
 -->
<!-- Title: %3 Pages: 1 -->
<svg width="686pt" height="576pt"
 viewBox="0.00 0.00 686.00 576.00" xmlns="http://www.w3.org/2000/svg" xmlns:xlink="http://www.w3.org/1999/xlink">
<g id="graph0" class="graph" transform="scale(1 1) rotate(0) translate(4 572)">
<title>%3</title>
<polygon fill="white" stroke="#000000" points="-4,4 -4,-572 682,-572 682,4 -4,4"/>
<text text-anchor="start" x="272.5" y="-550.6" font-family="Times New Roman,serif" text-decoration="underline" font-size="18.00">Module Hierarchy</text>
<!-- certgen -->
<g id="node1" class="node"><title>certgen</title>
<path fill="darkkhaki" stroke="black" d="M45,-108C45,-108 12,-108 12,-108 6,-108 0,-102 0,-96 0,-96 0,-84 0,-84 0,-78 6,-72 12,-72 12,-72 45,-72 45,-72 51,-72 57,-78 57,-84 57,-84 57,-96 57,-96 57,-102 51,-108 45,-108"/>
<text text-anchor="middle" x="28.5" y="-86.3" font-family="Times New Roman,serif" font-size="14.00">certgen</text>
</g>
<!-- dcrd -->
<g id="node23" class="node"><title>dcrd</title>
<path fill="chocolate" stroke="black" d="M353.5,-36C353.5,-36 323.5,-36 323.5,-36 317.5,-36 311.5,-30 311.5,-24 311.5,-24 311.5,-12 311.5,-12 311.5,-6 317.5,-0 323.5,-0 323.5,-0 353.5,-0 353.5,-0 359.5,-0 365.5,-6 365.5,-12 365.5,-12 365.5,-24 365.5,-24 365.5,-30 359.5,-36 353.5,-36"/>
<text text-anchor="middle" x="338.5" y="-14.3" font-family="Times New Roman,serif" font-size="14.00">dcrd</text>
</g>
<!-- certgen&#45;&gt;dcrd -->
<g id="edge25" class="edge"><title>certgen&#45;&gt;dcrd</title>
<path fill="none" stroke="darkkhaki" d="M28.5,-61.6198C28.5,-61.6198 28.5,-9 28.5,-9 28.5,-9 235.616,-9 311.261,-9"/>
<polygon fill="darkkhaki" stroke="darkkhaki" points="25.0001,-61.6198 28.5,-71.6198 32.0001,-61.6199 25.0001,-61.6198"/>
</g>
<!-- chainhash -->
<g id="node2" class="node"><title>chainhash</title>
<path fill="aquamarine" stroke="black" d="M382.5,-540C382.5,-540 284.5,-540 284.5,-540 278.5,-540 272.5,-534 272.5,-528 272.5,-528 272.5,-516 272.5,-516 272.5,-510 278.5,-504 284.5,-504 284.5,-504 382.5,-504 382.5,-504 388.5,-504 394.5,-510 394.5,-516 394.5,-516 394.5,-528 394.5,-528 394.5,-534 388.5,-540 382.5,-540"/>
<text text-anchor="middle" x="333.5" y="-518.3" font-family="Times New Roman,serif" font-size="14.00">chaincfg/chainhash</text>
</g>
<!-- dcrjson -->
<g id="node3" class="node"><title>dcrjson</title>
<path fill="indianred" stroke="black" d="M151.5,-324C151.5,-324 99.5,-324 99.5,-324 93.5,-324 87.5,-318 87.5,-312 87.5,-312 87.5,-300 87.5,-300 87.5,-294 93.5,-288 99.5,-288 99.5,-288 151.5,-288 151.5,-288 157.5,-288 163.5,-294 163.5,-300 163.5,-300 163.5,-312 163.5,-312 163.5,-318 157.5,-324 151.5,-324"/>
<text text-anchor="middle" x="125.5" y="-302.3" font-family="Times New Roman,serif" font-size="14.00">dcrjson/v3</text>
</g>
<!-- chainhash&#45;&gt;dcrjson -->
<g id="edge2" class="edge"><title>chainhash&#45;&gt;dcrjson</title>
<path fill="none" stroke="aquamarine" d="M262.47,-522C262.47,-522 122.5,-522 122.5,-522 122.5,-522 122.5,-375.958 122.5,-324.045"/>
<polygon fill="aquamarine" stroke="aquamarine" points="262.47,-525.5 272.47,-522 262.47,-518.5 262.47,-525.5"/>
</g>
<!-- wire -->
<g id="node5" class="node"><title>wire</title>
<path fill="coral" stroke="black" d="M553.5,-468C553.5,-468 523.5,-468 523.5,-468 517.5,-468 511.5,-462 511.5,-456 511.5,-456 511.5,-444 511.5,-444 511.5,-438 517.5,-432 523.5,-432 523.5,-432 553.5,-432 553.5,-432 559.5,-432 565.5,-438 565.5,-444 565.5,-444 565.5,-456 565.5,-456 565.5,-462 559.5,-468 553.5,-468"/>
<text text-anchor="middle" x="538.5" y="-446.3" font-family="Times New Roman,serif" font-size="14.00">wire</text>
</g>
<!-- chainhash&#45;&gt;wire -->
<g id="edge3" class="edge"><title>chainhash&#45;&gt;wire</title>
<path fill="none" stroke="aquamarine" d="M404.729,-522C404.729,-522 538.5,-522 538.5,-522 538.5,-522 538.5,-489.498 538.5,-468.169"/>
<polygon fill="aquamarine" stroke="aquamarine" points="404.729,-518.5 394.729,-522 404.729,-525.5 404.729,-518.5"/>
</g>
<!-- types -->
<g id="node4" class="node"><title>types</title>
<path fill="tomato" stroke="black" d="M170,-252C170,-252 79,-252 79,-252 73,-252 67,-246 67,-240 67,-240 67,-228 67,-228 67,-222 73,-216 79,-216 79,-216 170,-216 170,-216 176,-216 182,-222 182,-228 182,-228 182,-240 182,-240 182,-246 176,-252 170,-252"/>
<text text-anchor="middle" x="124.5" y="-230.3" font-family="Times New Roman,serif" font-size="14.00">rpc/jsonrpc/types</text>
</g>
<!-- dcrjson&#45;&gt;types -->
<g id="edge22" class="edge"><title>dcrjson&#45;&gt;types</title>
<path fill="none" stroke="tomato" d="M125.5,-277.831C125.5,-277.831 125.5,-252.413 125.5,-252.413"/>
<polygon fill="tomato" stroke="tomato" points="122,-277.831 125.5,-287.831 129,-277.831 122,-277.831"/>
</g>
<!-- rpcclient -->
<g id="node22" class="node"><title>rpcclient</title>
<path fill="mediumseagreen" stroke="black" d="M145.5,-108C145.5,-108 87.5,-108 87.5,-108 81.5,-108 75.5,-102 75.5,-96 75.5,-96 75.5,-84 75.5,-84 75.5,-78 81.5,-72 87.5,-72 87.5,-72 145.5,-72 145.5,-72 151.5,-72 157.5,-78 157.5,-84 157.5,-84 157.5,-96 157.5,-96 157.5,-102 151.5,-108 145.5,-108"/>
<text text-anchor="middle" x="116.5" y="-86.3" font-family="Times New Roman,serif" font-size="14.00">rpcclient/v6</text>
</g>
<!-- types&#45;&gt;rpcclient -->
<g id="edge23" class="edge"><title>types&#45;&gt;rpcclient</title>
<path fill="none" stroke="indianred" d="M102.833,-205.762C102.833,-205.762 102.833,-108.09 102.833,-108.09"/>
<polygon fill="indianred" stroke="indianred" points="99.3334,-205.762 102.833,-215.762 106.333,-205.762 99.3334,-205.762"/>
</g>
<!-- addrmgr -->
<g id="node6" class="node"><title>addrmgr</title>
<path fill="lightsalmon" stroke="black" d="M547.5,-108C547.5,-108 507.5,-108 507.5,-108 501.5,-108 495.5,-102 495.5,-96 495.5,-96 495.5,-84 495.5,-84 495.5,-78 501.5,-72 507.5,-72 507.5,-72 547.5,-72 547.5,-72 553.5,-72 559.5,-78 559.5,-84 559.5,-84 559.5,-96 559.5,-96 559.5,-102 553.5,-108 547.5,-108"/>
<text text-anchor="middle" x="527.5" y="-86.3" font-family="Times New Roman,serif" font-size="14.00">addrmgr</text>
</g>
<!-- wire&#45;&gt;addrmgr -->
<g id="edge4" class="edge"><title>wire&#45;&gt;addrmgr</title>
<path fill="none" stroke="coral" d="M575.704,-444C575.704,-444 588.25,-444 588.25,-444 588.25,-444 588.25,-90 588.25,-90 588.25,-90 574.226,-90 559.654,-90"/>
<polygon fill="coral" stroke="coral" points="575.704,-440.5 565.704,-444 575.704,-447.5 575.704,-440.5"/>
</g>
<!-- chaincfg -->
<g id="node7" class="node"><title>chaincfg</title>
<path fill="cadetblue" stroke="black" d="M451,-396C451,-396 394,-396 394,-396 388,-396 382,-390 382,-384 382,-384 382,-372 382,-372 382,-366 388,-360 394,-360 394,-360 451,-360 451,-360 457,-360 463,-366 463,-372 463,-372 463,-384 463,-384 463,-390 457,-396 451,-396"/>
<text text-anchor="middle" x="422.5" y="-374.3" font-family="Times New Roman,serif" font-size="14.00">chaincfg/v3</text>
</g>
<!-- wire&#45;&gt;chaincfg -->
<g id="edge5" class="edge"><title>wire&#45;&gt;chaincfg</title>
<path fill="none" stroke="coral" d="M529.5,-421.831C529.5,-421.831 529.5,-378 529.5,-378 529.5,-378 493.496,-378 463.257,-378"/>
<polygon fill="coral" stroke="coral" points="526,-421.831 529.5,-431.831 533,-421.831 526,-421.831"/>
</g>
<!-- connmgr -->
<g id="node8" class="node"><title>connmgr</title>
<path fill="mistyrose" stroke="black" d="M666,-108C666,-108 607,-108 607,-108 601,-108 595,-102 595,-96 595,-96 595,-84 595,-84 595,-78 601,-72 607,-72 607,-72 666,-72 666,-72 672,-72 678,-78 678,-84 678,-84 678,-96 678,-96 678,-102 672,-108 666,-108"/>
<text text-anchor="middle" x="636.5" y="-86.3" font-family="Times New Roman,serif" font-size="14.00">connmgr/v3</text>
</g>
<!-- wire&#45;&gt;connmgr -->
<g id="edge6" class="edge"><title>wire&#45;&gt;connmgr</title>
<path fill="none" stroke="coral" d="M575.538,-456C575.538,-456 636.5,-456 636.5,-456 636.5,-456 636.5,-182.001 636.5,-108.15"/>
<polygon fill="coral" stroke="coral" points="575.538,-452.5 565.538,-456 575.538,-459.5 575.538,-452.5"/>
</g>
<!-- standalone -->
<g id="node17" class="node"><title>standalone</title>
<path fill="#8b1a1a" stroke="black" d="M569.5,-252C569.5,-252 435.5,-252 435.5,-252 429.5,-252 423.5,-246 423.5,-240 423.5,-240 423.5,-228 423.5,-228 423.5,-222 429.5,-216 435.5,-216 435.5,-216 569.5,-216 569.5,-216 575.5,-216 581.5,-222 581.5,-228 581.5,-228 581.5,-240 581.5,-240 581.5,-246 575.5,-252 569.5,-252"/>
<text text-anchor="middle" x="502.5" y="-230.3" font-family="Times New Roman,serif" font-size="14.00">blockchain/standalone/v2</text>
</g>
<!-- wire&#45;&gt;standalone -->
<g id="edge7" class="edge"><title>wire&#45;&gt;standalone</title>
<path fill="none" stroke="coral" d="M547.5,-421.955C547.5,-421.955 547.5,-252.145 547.5,-252.145"/>
<polygon fill="coral" stroke="coral" points="544,-421.955 547.5,-431.955 551,-421.956 544,-421.955"/>
</g>
<!-- addrmgr&#45;&gt;dcrd -->
<g id="edge26" class="edge"><title>addrmgr&#45;&gt;dcrd</title>
<path fill="none" stroke="lightsalmon" d="M527.5,-61.8314C527.5,-61.8314 527.5,-18 527.5,-18 527.5,-18 417.839,-18 365.579,-18"/>
<polygon fill="lightsalmon" stroke="lightsalmon" points="524,-61.8313 527.5,-71.8314 531,-61.8314 524,-61.8313"/>
</g>
<!-- txscript -->
<g id="node15" class="node"><title>txscript</title>
<path fill="mediumspringgreen" stroke="black" d="M419.5,-324C419.5,-324 367.5,-324 367.5,-324 361.5,-324 355.5,-318 355.5,-312 355.5,-312 355.5,-300 355.5,-300 355.5,-294 361.5,-288 367.5,-288 367.5,-288 419.5,-288 419.5,-288 425.5,-288 431.5,-294 431.5,-300 431.5,-300 431.5,-312 431.5,-312 431.5,-318 425.5,-324 419.5,-324"/>
<text text-anchor="middle" x="393.5" y="-302.3" font-family="Times New Roman,serif" font-size="14.00">txscript/v3</text>
</g>
<!-- chaincfg&#45;&gt;txscript -->
<g id="edge1" class="edge"><title>chaincfg&#45;&gt;txscript</title>
<path fill="none" stroke="cadetblue" d="M406.75,-349.831C406.75,-349.831 406.75,-324.413 406.75,-324.413"/>
<polygon fill="cadetblue" stroke="cadetblue" points="403.25,-349.831 406.75,-359.831 410.25,-349.831 403.25,-349.831"/>
</g>
<!-- connmgr&#45;&gt;dcrd -->
<g id="edge28" class="edge"><title>connmgr&#45;&gt;dcrd</title>
<path fill="none" stroke="mistyrose" d="M636.5,-61.6198C636.5,-61.6198 636.5,-9 636.5,-9 636.5,-9 439.3,-9 365.736,-9"/>
<polygon fill="mistyrose" stroke="mistyrose" points="633,-61.6198 636.5,-71.6198 640,-61.6199 633,-61.6198"/>
</g>
<!-- dcrec -->
<g id="node9" class="node"><title>dcrec</title>
<path fill="mediumpurple" stroke="black" d="M199.5,-468C199.5,-468 169.5,-468 169.5,-468 163.5,-468 157.5,-462 157.5,-456 157.5,-456 157.5,-444 157.5,-444 157.5,-438 163.5,-432 169.5,-432 169.5,-432 199.5,-432 199.5,-432 205.5,-432 211.5,-438 211.5,-444 211.5,-444 211.5,-456 211.5,-456 211.5,-462 205.5,-468 199.5,-468"/>
<text text-anchor="middle" x="184.5" y="-446.3" font-family="Times New Roman,serif" font-size="14.00">dcrec</text>
</g>
<!-- dcrutil -->
<g id="node12" class="node"><title>dcrutil</title>
<path fill="burlywood" stroke="black" d="M310,-396C310,-396 265,-396 265,-396 259,-396 253,-390 253,-384 253,-384 253,-372 253,-372 253,-366 259,-360 265,-360 265,-360 310,-360 310,-360 316,-360 322,-366 322,-372 322,-372 322,-384 322,-384 322,-390 316,-396 310,-396"/>
<text text-anchor="middle" x="287.5" y="-374.3" font-family="Times New Roman,serif" font-size="14.00">dcrutil/v3</text>
</g>
<!-- dcrec&#45;&gt;dcrutil -->
<g id="edge8" class="edge"><title>dcrec&#45;&gt;dcrutil</title>
<path fill="none" stroke="mediumpurple" d="M196.75,-421.965C196.75,-421.965 196.75,-384 196.75,-384 196.75,-384 227.287,-384 252.932,-384"/>
<polygon fill="mediumpurple" stroke="mediumpurple" points="193.25,-421.965 196.75,-431.965 200.25,-421.965 193.25,-421.965"/>
</g>
<!-- edwards -->
<g id="node10" class="node"><title>edwards</title>
<path fill="lightseagreen" stroke="black" d="M333.5,-468C333.5,-468 241.5,-468 241.5,-468 235.5,-468 229.5,-462 229.5,-456 229.5,-456 229.5,-444 229.5,-444 229.5,-438 235.5,-432 241.5,-432 241.5,-432 333.5,-432 333.5,-432 339.5,-432 345.5,-438 345.5,-444 345.5,-444 345.5,-456 345.5,-456 345.5,-462 339.5,-468 333.5,-468"/>
<text text-anchor="middle" x="287.5" y="-446.3" font-family="Times New Roman,serif" font-size="14.00">dcrec/edwards/v2</text>
</g>
<!-- edwards&#45;&gt;dcrutil -->
<g id="edge9" class="edge"><title>edwards&#45;&gt;dcrutil</title>
<path fill="none" stroke="lightseagreen" d="M287.5,-421.831C287.5,-421.831 287.5,-396.413 287.5,-396.413"/>
<polygon fill="lightseagreen" stroke="lightseagreen" points="284,-421.831 287.5,-431.831 291,-421.831 284,-421.831"/>
</g>
<!-- secp256k1 -->
<g id="node11" class="node"><title>secp256k1</title>
<path fill="mediumvioletred" stroke="black" d="M481,-468C481,-468 376,-468 376,-468 370,-468 364,-462 364,-456 364,-456 364,-444 364,-444 364,-438 370,-432 376,-432 376,-432 481,-432 481,-432 487,-432 493,-438 493,-444 493,-444 493,-456 493,-456 493,-462 487,-468 481,-468"/>
<text text-anchor="middle" x="428.5" y="-446.3" font-family="Times New Roman,serif" font-size="14.00">dcrec/secp256k1/v4</text>
</g>
<!-- secp256k1&#45;&gt;dcrutil -->
<g id="edge10" class="edge"><title>secp256k1&#45;&gt;dcrutil</title>
<path fill="none" stroke="mediumvioletred" d="M373,-421.965C373,-421.965 373,-384 373,-384 373,-384 345.947,-384 322.276,-384"/>
<polygon fill="mediumvioletred" stroke="mediumvioletred" points="369.5,-421.965 373,-431.965 376.5,-421.965 369.5,-421.965"/>
</g>
<!-- database -->
<g id="node13" class="node"><title>database</title>
<path fill="dodgerblue" stroke="black" d="M318,-324C318,-324 259,-324 259,-324 253,-324 247,-318 247,-312 247,-312 247,-300 247,-300 247,-294 253,-288 259,-288 259,-288 318,-288 318,-288 324,-288 330,-294 330,-300 330,-300 330,-312 330,-312 330,-318 324,-324 318,-324"/>
<text text-anchor="middle" x="288.5" y="-302.3" font-family="Times New Roman,serif" font-size="14.00">database/v2</text>
</g>
<!-- dcrutil&#45;&gt;database -->
<g id="edge11" class="edge"><title>dcrutil&#45;&gt;database</title>
<path fill="none" stroke="burlywood" d="M287.5,-349.831C287.5,-349.831 287.5,-324.413 287.5,-324.413"/>
<polygon fill="burlywood" stroke="burlywood" points="284,-349.831 287.5,-359.831 291,-349.831 284,-349.831"/>
</g>
<!-- hdkeychain -->
<g id="node14" class="node"><title>hdkeychain</title>
<path fill="deepskyblue" stroke="black" d="M261,-108C261,-108 188,-108 188,-108 182,-108 176,-102 176,-96 176,-96 176,-84 176,-84 176,-78 182,-72 188,-72 188,-72 261,-72 261,-72 267,-72 273,-78 273,-84 273,-84 273,-96 273,-96 273,-102 267,-108 261,-108"/>
<text text-anchor="middle" x="224.5" y="-86.3" font-family="Times New Roman,serif" font-size="14.00">hdkeychain/v3</text>
</g>
<!-- dcrutil&#45;&gt;hdkeychain -->
<g id="edge12" class="edge"><title>dcrutil&#45;&gt;hdkeychain</title>
<path fill="none" stroke="burlywood" d="M242.904,-372C242.904,-372 234.75,-372 234.75,-372 234.75,-372 234.75,-170.31 234.75,-108.069"/>
<polygon fill="burlywood" stroke="burlywood" points="242.904,-375.5 252.904,-372 242.904,-368.5 242.904,-375.5"/>
</g>
<!-- dcrutil&#45;&gt;txscript -->
<g id="edge13" class="edge"><title>dcrutil&#45;&gt;txscript</title>
<path fill="none" stroke="burlywood" d="M332.355,-372C332.355,-372 359.75,-372 359.75,-372 359.75,-372 359.75,-343.576 359.75,-324.035"/>
<polygon fill="burlywood" stroke="burlywood" points="332.355,-368.5 322.355,-372 332.355,-375.5 332.355,-368.5"/>
</g>
<!-- stake -->
<g id="node16" class="node"><title>stake</title>
<path fill="bisque" stroke="black" d="M355,-252C355,-252 252,-252 252,-252 246,-252 240,-246 240,-240 240,-240 240,-228 240,-228 240,-222 246,-216 252,-216 252,-216 355,-216 355,-216 361,-216 367,-222 367,-228 367,-228 367,-240 367,-240 367,-246 361,-252 355,-252"/>
<text text-anchor="middle" x="303.5" y="-230.3" font-family="Times New Roman,serif" font-size="14.00">blockchain/stake/v3</text>
</g>
<!-- database&#45;&gt;stake -->
<g id="edge14" class="edge"><title>database&#45;&gt;stake</title>
<path fill="none" stroke="dodgerblue" d="M288.5,-277.831C288.5,-277.831 288.5,-252.413 288.5,-252.413"/>
<polygon fill="dodgerblue" stroke="dodgerblue" points="285,-277.831 288.5,-287.831 292,-277.831 285,-277.831"/>
</g>
<!-- hdkeychain&#45;&gt;dcrd -->
<g id="edge27" class="edge"><title>hdkeychain&#45;&gt;dcrd</title>
<path fill="none" stroke="deepskyblue" d="M224.5,-61.7778C224.5,-61.7778 224.5,-27 224.5,-27 224.5,-27 277.772,-27 311.484,-27"/>
<polygon fill="deepskyblue" stroke="deepskyblue" points="221,-61.7778 224.5,-71.7778 228,-61.7778 221,-61.7778"/>
</g>
<!-- txscript&#45;&gt;stake -->
<g id="edge15" class="edge"><title>txscript&#45;&gt;stake</title>
<path fill="none" stroke="mediumspringgreen" d="M361.25,-277.831C361.25,-277.831 361.25,-252.413 361.25,-252.413"/>
<polygon fill="mediumspringgreen" stroke="mediumspringgreen" points="357.75,-277.831 361.25,-287.831 364.75,-277.831 357.75,-277.831"/>
</g>
<!-- peer -->
<g id="node21" class="node"><title>peer</title>
<path fill="khaki" stroke="black" d="M450.5,-108C450.5,-108 416.5,-108 416.5,-108 410.5,-108 404.5,-102 404.5,-96 404.5,-96 404.5,-84 404.5,-84 404.5,-78 410.5,-72 416.5,-72 416.5,-72 450.5,-72 450.5,-72 456.5,-72 462.5,-78 462.5,-84 462.5,-84 462.5,-96 462.5,-96 462.5,-102 456.5,-108 450.5,-108"/>
<text text-anchor="middle" x="433.5" y="-86.3" font-family="Times New Roman,serif" font-size="14.00">peer/v2</text>
</g>
<!-- txscript&#45;&gt;peer -->
<g id="edge16" class="edge"><title>txscript&#45;&gt;peer</title>
<path fill="none" stroke="mediumspringgreen" d="M417.5,-277.955C417.5,-277.955 417.5,-108.145 417.5,-108.145"/>
<polygon fill="mediumspringgreen" stroke="mediumspringgreen" points="414,-277.955 417.5,-287.955 421,-277.956 414,-277.955"/>
</g>
<!-- gcs -->
<g id="node18" class="node"><title>gcs</title>
<path fill="gold" stroke="black" d="M283.5,-180C283.5,-180 253.5,-180 253.5,-180 247.5,-180 241.5,-174 241.5,-168 241.5,-168 241.5,-156 241.5,-156 241.5,-150 247.5,-144 253.5,-144 253.5,-144 283.5,-144 283.5,-144 289.5,-144 295.5,-150 295.5,-156 295.5,-156 295.5,-168 295.5,-168 295.5,-174 289.5,-180 283.5,-180"/>
<text text-anchor="middle" x="268.5" y="-158.3" font-family="Times New Roman,serif" font-size="14.00">gcs</text>
</g>
<!-- stake&#45;&gt;gcs -->
<g id="edge17" class="edge"><title>stake&#45;&gt;gcs</title>
<path fill="none" stroke="bisque" d="M268.5,-205.831C268.5,-205.831 268.5,-180.413 268.5,-180.413"/>
<polygon fill="bisque" stroke="bisque" points="265,-205.831 268.5,-215.831 272,-205.831 265,-205.831"/>
</g>
<!-- blockchain -->
<g id="node19" class="node"><title>blockchain</title>
<path fill="orchid" stroke="black" d="M374,-108C374,-108 303,-108 303,-108 297,-108 291,-102 291,-96 291,-96 291,-84 291,-84 291,-78 297,-72 303,-72 303,-72 374,-72 374,-72 380,-72 386,-78 386,-84 386,-84 386,-96 386,-96 386,-102 380,-108 374,-108"/>
<text text-anchor="middle" x="338.5" y="-86.3" font-family="Times New Roman,serif" font-size="14.00">blockchain/v3</text>
</g>
<!-- standalone&#45;&gt;blockchain -->
<g id="edge18" class="edge"><title>standalone&#45;&gt;blockchain</title>
<path fill="none" stroke="#8b1a1a" d="M443,-205.679C443,-205.679 443,-126 443,-126 443,-126 368.75,-126 368.75,-126 368.75,-126 368.75,-117.279 368.75,-108.422"/>
<polygon fill="#8b1a1a" stroke="#8b1a1a" points="439.5,-205.679 443,-215.679 446.5,-205.679 439.5,-205.679"/>
</g>
<!-- gcs&#45;&gt;blockchain -->
<g id="edge19" class="edge"><title>gcs&#45;&gt;blockchain</title>
<path fill="none" stroke="gold" d="M282,-133.831C282,-133.831 282,-90 282,-90 282,-90 285.531,-90 290.828,-90"/>
<polygon fill="gold" stroke="gold" points="278.5,-133.831 282,-143.831 285.5,-133.831 278.5,-133.831"/>
</g>
<!-- gcs&#45;&gt;rpcclient -->
<g id="edge20" class="edge"><title>gcs&#45;&gt;rpcclient</title>
<path fill="none" stroke="gold" d="M231.5,-162C231.5,-162 130.167,-162 130.167,-162 130.167,-162 130.167,-129.498 130.167,-108.169"/>
<polygon fill="gold" stroke="gold" points="231.5,-165.5 241.5,-162 231.5,-158.5 231.5,-165.5"/>
</g>
<!-- blockchain&#45;&gt;dcrd -->
<g id="edge24" class="edge"><title>blockchain&#45;&gt;dcrd</title>
<path fill="none" stroke="orchid" d="M338.5,-61.8314C338.5,-61.8314 338.5,-36.4133 338.5,-36.4133"/>
<polygon fill="orchid" stroke="orchid" points="335,-61.8313 338.5,-71.8314 342,-61.8314 335,-61.8313"/>
</g>
<!-- lru -->
<g id="node20" class="node"><title>lru</title>
<path fill="#3a5fcd" stroke="black" d="M393.5,-180C393.5,-180 363.5,-180 363.5,-180 357.5,-180 351.5,-174 351.5,-168 351.5,-168 351.5,-156 351.5,-156 351.5,-150 357.5,-144 363.5,-144 363.5,-144 393.5,-144 393.5,-144 399.5,-144 405.5,-150 405.5,-156 405.5,-156 405.5,-168 405.5,-168 405.5,-174 399.5,-180 393.5,-180"/>
<text text-anchor="middle" x="378.5" y="-158.3" font-family="Times New Roman,serif" font-size="14.00">lru</text>
</g>
<!-- lru&#45;&gt;peer -->
<g id="edge21" class="edge"><title>lru&#45;&gt;peer</title>
<path fill="none" stroke="#3a5fcd" d="M410.925,-162C410.925,-162 411.5,-162 411.5,-162 411.5,-162 411.5,-129.498 411.5,-108.169"/>
<polygon fill="#3a5fcd" stroke="#3a5fcd" points="415.752,-158.5 405.752,-162 415.752,-165.5 415.752,-158.5"/>
</g>
<!-- peer&#45;&gt;dcrd -->
<g id="edge30" class="edge"><title>peer&#45;&gt;dcrd</title>
<path fill="none" stroke="khaki" d="M433.5,-61.7778C433.5,-61.7778 433.5,-27 433.5,-27 433.5,-27 393.796,-27 365.723,-27"/>
<polygon fill="khaki" stroke="khaki" points="430,-61.7778 433.5,-71.7778 437,-61.7778 430,-61.7778"/>
</g>
<!-- rpcclient&#45;&gt;dcrd -->
<g id="edge29" class="edge"><title>rpcclient&#45;&gt;dcrd</title>
<path fill="none" stroke="mediumseagreen" d="M116.5,-61.8314C116.5,-61.8314 116.5,-18 116.5,-18 116.5,-18 251.998,-18 311.278,-18"/>
<polygon fill="mediumseagreen" stroke="mediumseagreen" points="113,-61.8313 116.5,-71.8314 120,-61.8314 113,-61.8313"/>
</g>
</g>
</svg>
