<?xml version="1.0" encoding="UTF-8" standalone="no"?>
<!DOCTYPE svg PUBLIC "-//W3C//DTD SVG 1.1//EN"
 "http://www.w3.org/Graphics/SVG/1.1/DTD/svg11.dtd">
<!-- Generated by graphviz version 2.38.0 (20140413.2041)
 -->
<!-- Title: %3 Pages: 1 -->
<svg width="903pt" height="720pt"
 viewBox="0.00 0.00 903.00 720.00" xmlns="http://www.w3.org/2000/svg" xmlns:xlink="http://www.w3.org/1999/xlink">
<g id="graph0" class="graph" transform="scale(1 1) rotate(0) translate(4 716)">
<title>%3</title>
<polygon fill="white" stroke="#000000" points="-4,4 -4,-716 899,-716 899,4 -4,4"/>
<text text-anchor="start" x="381" y="-694.6" font-family="Times New Roman,serif" text-decoration="underline" font-size="18.00">Module Hierarchy</text>
<!-- blake256 -->
<g id="node1" class="node"><title>blake256</title>
<path fill="cornflowerblue" stroke="black" d="M106,-684C106,-684 23,-684 23,-684 17,-684 11,-678 11,-672 11,-672 11,-660 11,-660 11,-654 17,-648 23,-648 23,-648 106,-648 106,-648 112,-648 118,-654 118,-660 118,-660 118,-672 118,-672 118,-678 112,-684 106,-684"/>
<text text-anchor="middle" x="64.5" y="-662.3" font-family="Times New Roman,serif" font-size="14.00">crypto/blake256</text>
</g>
<!-- chainhash -->
<g id="node5" class="node"><title>chainhash</title>
<path fill="aquamarine" stroke="black" d="M246.5,-684C246.5,-684 148.5,-684 148.5,-684 142.5,-684 136.5,-678 136.5,-672 136.5,-672 136.5,-660 136.5,-660 136.5,-654 142.5,-648 148.5,-648 148.5,-648 246.5,-648 246.5,-648 252.5,-648 258.5,-654 258.5,-660 258.5,-660 258.5,-672 258.5,-672 258.5,-678 252.5,-684 246.5,-684"/>
<text text-anchor="middle" x="197.5" y="-662.3" font-family="Times New Roman,serif" font-size="14.00">chaincfg/chainhash</text>
</g>
<!-- blake256&#45;&gt;chainhash -->
<g id="edge1" class="edge"><title>blake256&#45;&gt;chainhash</title>
<path fill="none" stroke="cornflowerblue" d="M128.213,-666C128.213,-666 136.172,-666 136.172,-666"/>
<polygon fill="cornflowerblue" stroke="cornflowerblue" points="128.213,-662.5 118.213,-666 128.213,-669.5 128.213,-662.5"/>
</g>
<!-- secp256k1 -->
<g id="node14" class="node"><title>secp256k1</title>
<path fill="mediumvioletred" stroke="black" d="M117,-540C117,-540 12,-540 12,-540 6,-540 0,-534 0,-528 0,-528 0,-516 0,-516 0,-510 6,-504 12,-504 12,-504 117,-504 117,-504 123,-504 129,-510 129,-516 129,-516 129,-528 129,-528 129,-534 123,-540 117,-540"/>
<text text-anchor="middle" x="64.5" y="-518.3" font-family="Times New Roman,serif" font-size="14.00">dcrec/secp256k1/v4</text>
</g>
<!-- blake256&#45;&gt;secp256k1 -->
<g id="edge2" class="edge"><title>blake256&#45;&gt;secp256k1</title>
<path fill="none" stroke="cornflowerblue" d="M64.5,-637.762C64.5,-637.762 64.5,-540.09 64.5,-540.09"/>
<polygon fill="cornflowerblue" stroke="cornflowerblue" points="61.0001,-637.762 64.5,-647.762 68.0001,-637.762 61.0001,-637.762"/>
</g>
<!-- ripemd160 -->
<g id="node2" class="node"><title>ripemd160</title>
<path fill="darkturquoise" stroke="black" d="M289.5,-540C289.5,-540 197.5,-540 197.5,-540 191.5,-540 185.5,-534 185.5,-528 185.5,-528 185.5,-516 185.5,-516 185.5,-510 191.5,-504 197.5,-504 197.5,-504 289.5,-504 289.5,-504 295.5,-504 301.5,-510 301.5,-516 301.5,-516 301.5,-528 301.5,-528 301.5,-534 295.5,-540 289.5,-540"/>
<text text-anchor="middle" x="243.5" y="-518.3" font-family="Times New Roman,serif" font-size="14.00">crypto/ripemd160</text>
</g>
<!-- txscript -->
<g id="node18" class="node"><title>txscript</title>
<path fill="mediumspringgreen" stroke="black" d="M372.5,-468C372.5,-468 320.5,-468 320.5,-468 314.5,-468 308.5,-462 308.5,-456 308.5,-456 308.5,-444 308.5,-444 308.5,-438 314.5,-432 320.5,-432 320.5,-432 372.5,-432 372.5,-432 378.5,-432 384.5,-438 384.5,-444 384.5,-444 384.5,-456 384.5,-456 384.5,-462 378.5,-468 372.5,-468"/>
<text text-anchor="middle" x="346.5" y="-446.3" font-family="Times New Roman,serif" font-size="14.00">txscript/v4</text>
</g>
<!-- ripemd160&#45;&gt;txscript -->
<g id="edge10" class="edge"><title>ripemd160&#45;&gt;txscript</title>
<path fill="none" stroke="darkturquoise" d="M311.543,-522C311.543,-522 315.833,-522 315.833,-522 315.833,-522 315.833,-489.498 315.833,-468.169"/>
<polygon fill="darkturquoise" stroke="darkturquoise" points="311.543,-518.5 301.543,-522 311.543,-525.5 311.543,-518.5"/>
</g>
<!-- certgen -->
<g id="node3" class="node"><title>certgen</title>
<path fill="darkkhaki" stroke="black" d="M88,-108C88,-108 55,-108 55,-108 49,-108 43,-102 43,-96 43,-96 43,-84 43,-84 43,-78 49,-72 55,-72 55,-72 88,-72 88,-72 94,-72 100,-78 100,-84 100,-84 100,-96 100,-96 100,-102 94,-108 88,-108"/>
<text text-anchor="middle" x="71.5" y="-86.3" font-family="Times New Roman,serif" font-size="14.00">certgen</text>
</g>
<!-- dcrd -->
<g id="node27" class="node"><title>dcrd</title>
<path fill="chocolate" stroke="black" d="M433.5,-36C433.5,-36 403.5,-36 403.5,-36 397.5,-36 391.5,-30 391.5,-24 391.5,-24 391.5,-12 391.5,-12 391.5,-6 397.5,-0 403.5,-0 403.5,-0 433.5,-0 433.5,-0 439.5,-0 445.5,-6 445.5,-12 445.5,-12 445.5,-24 445.5,-24 445.5,-30 439.5,-36 433.5,-36"/>
<text text-anchor="middle" x="418.5" y="-14.3" font-family="Times New Roman,serif" font-size="14.00">dcrd</text>
</g>
<!-- certgen&#45;&gt;dcrd -->
<g id="edge28" class="edge"><title>certgen&#45;&gt;dcrd</title>
<path fill="none" stroke="darkkhaki" d="M71.5,-61.9902C71.5,-61.9902 71.5,-7 71.5,-7 71.5,-7 309.469,-7 391.271,-7"/>
<polygon fill="darkkhaki" stroke="darkkhaki" points="68.0001,-61.9902 71.5,-71.9902 75.0001,-61.9903 68.0001,-61.9902"/>
</g>
<!-- bech32 -->
<g id="node4" class="node"><title>bech32</title>
<path fill="#cdc0b0" stroke="black" d="M163,-108C163,-108 130,-108 130,-108 124,-108 118,-102 118,-96 118,-96 118,-84 118,-84 118,-78 124,-72 130,-72 130,-72 163,-72 163,-72 169,-72 175,-78 175,-84 175,-84 175,-96 175,-96 175,-102 169,-108 163,-108"/>
<text text-anchor="middle" x="146.5" y="-86.3" font-family="Times New Roman,serif" font-size="14.00">bech32</text>
</g>
<!-- bech32&#45;&gt;dcrd -->
<g id="edge29" class="edge"><title>bech32&#45;&gt;dcrd</title>
<path fill="none" stroke="#cdc0b0" d="M146.5,-61.9891C146.5,-61.9891 146.5,-14 146.5,-14 146.5,-14 322.626,-14 391.425,-14"/>
<polygon fill="#cdc0b0" stroke="#cdc0b0" points="143,-61.989 146.5,-71.9891 150,-61.9891 143,-61.989"/>
</g>
<!-- dcrjson -->
<g id="node6" class="node"><title>dcrjson</title>
<path fill="indianred" stroke="black" d="M203.5,-612C203.5,-612 151.5,-612 151.5,-612 145.5,-612 139.5,-606 139.5,-600 139.5,-600 139.5,-588 139.5,-588 139.5,-582 145.5,-576 151.5,-576 151.5,-576 203.5,-576 203.5,-576 209.5,-576 215.5,-582 215.5,-588 215.5,-588 215.5,-600 215.5,-600 215.5,-606 209.5,-612 203.5,-612"/>
<text text-anchor="middle" x="177.5" y="-590.3" font-family="Times New Roman,serif" font-size="14.00">dcrjson/v4</text>
</g>
<!-- chainhash&#45;&gt;dcrjson -->
<g id="edge4" class="edge"><title>chainhash&#45;&gt;dcrjson</title>
<path fill="none" stroke="aquamarine" d="M177.5,-637.831C177.5,-637.831 177.5,-612.413 177.5,-612.413"/>
<polygon fill="aquamarine" stroke="aquamarine" points="174,-637.831 177.5,-647.831 181,-637.831 174,-637.831"/>
</g>
<!-- wire -->
<g id="node8" class="node"><title>wire</title>
<path fill="coral" stroke="black" d="M650.5,-612C650.5,-612 620.5,-612 620.5,-612 614.5,-612 608.5,-606 608.5,-600 608.5,-600 608.5,-588 608.5,-588 608.5,-582 614.5,-576 620.5,-576 620.5,-576 650.5,-576 650.5,-576 656.5,-576 662.5,-582 662.5,-588 662.5,-588 662.5,-600 662.5,-600 662.5,-606 656.5,-612 650.5,-612"/>
<text text-anchor="middle" x="635.5" y="-590.3" font-family="Times New Roman,serif" font-size="14.00">wire</text>
</g>
<!-- chainhash&#45;&gt;wire -->
<g id="edge5" class="edge"><title>chainhash&#45;&gt;wire</title>
<path fill="none" stroke="aquamarine" d="M237,-637.831C237,-637.831 237,-594 237,-594 237,-594 518.731,-594 608.423,-594"/>
<polygon fill="aquamarine" stroke="aquamarine" points="233.5,-637.831 237,-647.831 240.5,-637.831 233.5,-637.831"/>
</g>
<!-- types -->
<g id="node7" class="node"><title>types</title>
<path fill="tomato" stroke="black" d="M245.5,-468C245.5,-468 137.5,-468 137.5,-468 131.5,-468 125.5,-462 125.5,-456 125.5,-456 125.5,-444 125.5,-444 125.5,-438 131.5,-432 137.5,-432 137.5,-432 245.5,-432 245.5,-432 251.5,-432 257.5,-438 257.5,-444 257.5,-444 257.5,-456 257.5,-456 257.5,-462 251.5,-468 245.5,-468"/>
<text text-anchor="middle" x="191.5" y="-446.3" font-family="Times New Roman,serif" font-size="14.00">rpc/jsonrpc/types/v3</text>
</g>
<!-- dcrjson&#45;&gt;types -->
<g id="edge25" class="edge"><title>dcrjson&#45;&gt;types</title>
<path fill="none" stroke="tomato" d="M162.5,-565.762C162.5,-565.762 162.5,-468.09 162.5,-468.09"/>
<polygon fill="tomato" stroke="tomato" points="159,-565.762 162.5,-575.762 166,-565.762 159,-565.762"/>
</g>
<!-- rpcclient -->
<g id="node25" class="node"><title>rpcclient</title>
<path fill="mediumseagreen" stroke="black" d="M339.5,-108C339.5,-108 281.5,-108 281.5,-108 275.5,-108 269.5,-102 269.5,-96 269.5,-96 269.5,-84 269.5,-84 269.5,-78 275.5,-72 281.5,-72 281.5,-72 339.5,-72 339.5,-72 345.5,-72 351.5,-78 351.5,-84 351.5,-84 351.5,-96 351.5,-96 351.5,-102 345.5,-108 339.5,-108"/>
<text text-anchor="middle" x="310.5" y="-86.3" font-family="Times New Roman,serif" font-size="14.00">rpcclient/v6</text>
</g>
<!-- types&#45;&gt;rpcclient -->
<g id="edge26" class="edge"><title>types&#45;&gt;rpcclient</title>
<path fill="none" stroke="indianred" d="M208,-421.877C208,-421.877 208,-198 208,-198 208,-198 284.5,-198 284.5,-198 284.5,-198 284.5,-139.134 284.5,-108.321"/>
<polygon fill="indianred" stroke="indianred" points="204.5,-421.877 208,-431.877 211.5,-421.877 204.5,-421.877"/>
</g>
<!-- addrmgr -->
<g id="node9" class="node"><title>addrmgr</title>
<path fill="lightsalmon" stroke="black" d="M667,-108C667,-108 610,-108 610,-108 604,-108 598,-102 598,-96 598,-96 598,-84 598,-84 598,-78 604,-72 610,-72 610,-72 667,-72 667,-72 673,-72 679,-78 679,-84 679,-84 679,-96 679,-96 679,-102 673,-108 667,-108"/>
<text text-anchor="middle" x="638.5" y="-86.3" font-family="Times New Roman,serif" font-size="14.00">addrmgr/v2</text>
</g>
<!-- wire&#45;&gt;addrmgr -->
<g id="edge6" class="edge"><title>wire&#45;&gt;addrmgr</title>
<path fill="none" stroke="coral" d="M644.5,-565.765C644.5,-565.765 644.5,-108.211 644.5,-108.211"/>
<polygon fill="coral" stroke="coral" points="641,-565.765 644.5,-575.765 648,-565.765 641,-565.765"/>
</g>
<!-- chaincfg -->
<g id="node10" class="node"><title>chaincfg</title>
<path fill="cadetblue" stroke="black" d="M595,-540C595,-540 538,-540 538,-540 532,-540 526,-534 526,-528 526,-528 526,-516 526,-516 526,-510 532,-504 538,-504 538,-504 595,-504 595,-504 601,-504 607,-510 607,-516 607,-516 607,-528 607,-528 607,-534 601,-540 595,-540"/>
<text text-anchor="middle" x="566.5" y="-518.3" font-family="Times New Roman,serif" font-size="14.00">chaincfg/v3</text>
</g>
<!-- wire&#45;&gt;chaincfg -->
<g id="edge7" class="edge"><title>wire&#45;&gt;chaincfg</title>
<path fill="none" stroke="coral" d="M614.5,-565.831C614.5,-565.831 614.5,-522 614.5,-522 614.5,-522 611.685,-522 607.417,-522"/>
<polygon fill="coral" stroke="coral" points="611,-565.831 614.5,-575.831 618,-565.831 611,-565.831"/>
</g>
<!-- connmgr -->
<g id="node11" class="node"><title>connmgr</title>
<path fill="mistyrose" stroke="black" d="M768,-108C768,-108 709,-108 709,-108 703,-108 697,-102 697,-96 697,-96 697,-84 697,-84 697,-78 703,-72 709,-72 709,-72 768,-72 768,-72 774,-72 780,-78 780,-84 780,-84 780,-96 780,-96 780,-102 774,-108 768,-108"/>
<text text-anchor="middle" x="738.5" y="-86.3" font-family="Times New Roman,serif" font-size="14.00">connmgr/v3</text>
</g>
<!-- wire&#45;&gt;connmgr -->
<g id="edge8" class="edge"><title>wire&#45;&gt;connmgr</title>
<path fill="none" stroke="coral" d="M672.562,-594C672.562,-594 738.5,-594 738.5,-594 738.5,-594 738.5,-198.592 738.5,-108.235"/>
<polygon fill="coral" stroke="coral" points="672.562,-590.5 662.562,-594 672.562,-597.5 672.562,-590.5"/>
</g>
<!-- standalone -->
<g id="node20" class="node"><title>standalone</title>
<path fill="#8b1a1a" stroke="black" d="M614.5,-396C614.5,-396 480.5,-396 480.5,-396 474.5,-396 468.5,-390 468.5,-384 468.5,-384 468.5,-372 468.5,-372 468.5,-366 474.5,-360 480.5,-360 480.5,-360 614.5,-360 614.5,-360 620.5,-360 626.5,-366 626.5,-372 626.5,-372 626.5,-384 626.5,-384 626.5,-390 620.5,-396 614.5,-396"/>
<text text-anchor="middle" x="547.5" y="-374.3" font-family="Times New Roman,serif" font-size="14.00">blockchain/standalone/v2</text>
</g>
<!-- wire&#45;&gt;standalone -->
<g id="edge9" class="edge"><title>wire&#45;&gt;standalone</title>
<path fill="none" stroke="coral" d="M620.5,-565.955C620.5,-565.955 620.5,-396.145 620.5,-396.145"/>
<polygon fill="coral" stroke="coral" points="617,-565.955 620.5,-575.955 624,-565.956 617,-565.955"/>
</g>
<!-- addrmgr&#45;&gt;dcrd -->
<g id="edge30" class="edge"><title>addrmgr&#45;&gt;dcrd</title>
<path fill="none" stroke="lightsalmon" d="M638.5,-61.8711C638.5,-61.8711 638.5,-21 638.5,-21 638.5,-21 504.893,-21 445.918,-21"/>
<polygon fill="lightsalmon" stroke="lightsalmon" points="635,-61.871 638.5,-71.8711 642,-61.8711 635,-61.871"/>
</g>
<!-- chaincfg&#45;&gt;txscript -->
<g id="edge3" class="edge"><title>chaincfg&#45;&gt;txscript</title>
<path fill="none" stroke="cadetblue" d="M566.5,-493.965C566.5,-493.965 566.5,-456 566.5,-456 566.5,-456 447.853,-456 384.821,-456"/>
<polygon fill="cadetblue" stroke="cadetblue" points="563,-493.965 566.5,-503.965 570,-493.965 563,-493.965"/>
</g>
<!-- connmgr&#45;&gt;dcrd -->
<g id="edge32" class="edge"><title>connmgr&#45;&gt;dcrd</title>
<path fill="none" stroke="mistyrose" d="M738.5,-61.9891C738.5,-61.9891 738.5,-14 738.5,-14 738.5,-14 522.655,-14 445.507,-14"/>
<polygon fill="mistyrose" stroke="mistyrose" points="735,-61.989 738.5,-71.9891 742,-61.9891 735,-61.989"/>
</g>
<!-- dcrec -->
<g id="node12" class="node"><title>dcrec</title>
<path fill="mediumpurple" stroke="black" d="M361.5,-540C361.5,-540 331.5,-540 331.5,-540 325.5,-540 319.5,-534 319.5,-528 319.5,-528 319.5,-516 319.5,-516 319.5,-510 325.5,-504 331.5,-504 331.5,-504 361.5,-504 361.5,-504 367.5,-504 373.5,-510 373.5,-516 373.5,-516 373.5,-528 373.5,-528 373.5,-534 367.5,-540 361.5,-540"/>
<text text-anchor="middle" x="346.5" y="-518.3" font-family="Times New Roman,serif" font-size="14.00">dcrec</text>
</g>
<!-- dcrec&#45;&gt;txscript -->
<g id="edge11" class="edge"><title>dcrec&#45;&gt;txscript</title>
<path fill="none" stroke="mediumpurple" d="M346.5,-493.831C346.5,-493.831 346.5,-468.413 346.5,-468.413"/>
<polygon fill="mediumpurple" stroke="mediumpurple" points="343,-493.831 346.5,-503.831 350,-493.831 343,-493.831"/>
</g>
<!-- edwards -->
<g id="node13" class="node"><title>edwards</title>
<path fill="lightseagreen" stroke="black" d="M495.5,-540C495.5,-540 403.5,-540 403.5,-540 397.5,-540 391.5,-534 391.5,-528 391.5,-528 391.5,-516 391.5,-516 391.5,-510 397.5,-504 403.5,-504 403.5,-504 495.5,-504 495.5,-504 501.5,-504 507.5,-510 507.5,-516 507.5,-516 507.5,-528 507.5,-528 507.5,-534 501.5,-540 495.5,-540"/>
<text text-anchor="middle" x="449.5" y="-518.3" font-family="Times New Roman,serif" font-size="14.00">dcrec/edwards/v2</text>
</g>
<!-- edwards&#45;&gt;txscript -->
<g id="edge12" class="edge"><title>edwards&#45;&gt;txscript</title>
<path fill="none" stroke="lightseagreen" d="M381.28,-522C381.28,-522 379,-522 379,-522 379,-522 379,-489.498 379,-468.169"/>
<polygon fill="lightseagreen" stroke="lightseagreen" points="381.28,-525.5 391.28,-522 381.28,-518.5 381.28,-525.5"/>
</g>
<!-- secp256k1&#45;&gt;txscript -->
<g id="edge13" class="edge"><title>secp256k1&#45;&gt;txscript</title>
<path fill="none" stroke="mediumvioletred" d="M120,-493.578C120,-493.578 120,-486 120,-486 120,-486 312.167,-486 312.167,-486 312.167,-486 312.167,-477.279 312.167,-468.422"/>
<polygon fill="mediumvioletred" stroke="mediumvioletred" points="116.5,-493.578 120,-503.578 123.5,-493.578 116.5,-493.578"/>
</g>
<!-- dcrutil -->
<g id="node15" class="node"><title>dcrutil</title>
<path fill="burlywood" stroke="black" d="M333,-396C333,-396 288,-396 288,-396 282,-396 276,-390 276,-384 276,-384 276,-372 276,-372 276,-366 282,-360 288,-360 288,-360 333,-360 333,-360 339,-360 345,-366 345,-372 345,-372 345,-384 345,-384 345,-390 339,-396 333,-396"/>
<text text-anchor="middle" x="310.5" y="-374.3" font-family="Times New Roman,serif" font-size="14.00">dcrutil/v4</text>
</g>
<!-- database -->
<g id="node16" class="node"><title>database</title>
<path fill="dodgerblue" stroke="black" d="M337,-324C337,-324 278,-324 278,-324 272,-324 266,-318 266,-312 266,-312 266,-300 266,-300 266,-294 272,-288 278,-288 278,-288 337,-288 337,-288 343,-288 349,-294 349,-300 349,-300 349,-312 349,-312 349,-318 343,-324 337,-324"/>
<text text-anchor="middle" x="307.5" y="-302.3" font-family="Times New Roman,serif" font-size="14.00">database/v3</text>
</g>
<!-- dcrutil&#45;&gt;database -->
<g id="edge18" class="edge"><title>dcrutil&#45;&gt;database</title>
<path fill="none" stroke="burlywood" d="M310.5,-349.831C310.5,-349.831 310.5,-324.413 310.5,-324.413"/>
<polygon fill="burlywood" stroke="burlywood" points="307,-349.831 310.5,-359.831 314,-349.831 307,-349.831"/>
</g>
<!-- stake -->
<g id="node19" class="node"><title>stake</title>
<path fill="bisque" stroke="black" d="M378,-252C378,-252 275,-252 275,-252 269,-252 263,-246 263,-240 263,-240 263,-228 263,-228 263,-222 269,-216 275,-216 275,-216 378,-216 378,-216 384,-216 390,-222 390,-228 390,-228 390,-240 390,-240 390,-246 384,-252 378,-252"/>
<text text-anchor="middle" x="326.5" y="-230.3" font-family="Times New Roman,serif" font-size="14.00">blockchain/stake/v3</text>
</g>
<!-- database&#45;&gt;stake -->
<g id="edge19" class="edge"><title>database&#45;&gt;stake</title>
<path fill="none" stroke="dodgerblue" d="M307.5,-277.831C307.5,-277.831 307.5,-252.413 307.5,-252.413"/>
<polygon fill="dodgerblue" stroke="dodgerblue" points="304,-277.831 307.5,-287.831 311,-277.831 304,-277.831"/>
</g>
<!-- hdkeychain -->
<g id="node17" class="node"><title>hdkeychain</title>
<path fill="deepskyblue" stroke="black" d="M455,-108C455,-108 382,-108 382,-108 376,-108 370,-102 370,-96 370,-96 370,-84 370,-84 370,-78 376,-72 382,-72 382,-72 455,-72 455,-72 461,-72 467,-78 467,-84 467,-84 467,-96 467,-96 467,-102 461,-108 455,-108"/>
<text text-anchor="middle" x="418.5" y="-86.3" font-family="Times New Roman,serif" font-size="14.00">hdkeychain/v3</text>
</g>
<!-- hdkeychain&#45;&gt;dcrd -->
<g id="edge31" class="edge"><title>hdkeychain&#45;&gt;dcrd</title>
<path fill="none" stroke="deepskyblue" d="M418.5,-61.8314C418.5,-61.8314 418.5,-36.4133 418.5,-36.4133"/>
<polygon fill="deepskyblue" stroke="deepskyblue" points="415,-61.8313 418.5,-71.8314 422,-61.8314 415,-61.8313"/>
</g>
<!-- txscript&#45;&gt;dcrutil -->
<g id="edge14" class="edge"><title>txscript&#45;&gt;dcrutil</title>
<path fill="none" stroke="mediumspringgreen" d="M332.833,-421.831C332.833,-421.831 332.833,-396.413 332.833,-396.413"/>
<polygon fill="mediumspringgreen" stroke="mediumspringgreen" points="329.333,-421.831 332.833,-431.831 336.333,-421.831 329.333,-421.831"/>
</g>
<!-- txscript&#45;&gt;hdkeychain -->
<g id="edge15" class="edge"><title>txscript&#45;&gt;hdkeychain</title>
<path fill="none" stroke="mediumspringgreen" d="M394.968,-444C394.968,-444 429.25,-444 429.25,-444 429.25,-444 429.25,-180.18 429.25,-108.042"/>
<polygon fill="mediumspringgreen" stroke="mediumspringgreen" points="394.968,-440.5 384.968,-444 394.968,-447.5 394.968,-440.5"/>
</g>
<!-- txscript&#45;&gt;stake -->
<g id="edge16" class="edge"><title>txscript&#45;&gt;stake</title>
<path fill="none" stroke="mediumspringgreen" d="M366.75,-421.955C366.75,-421.955 366.75,-252.145 366.75,-252.145"/>
<polygon fill="mediumspringgreen" stroke="mediumspringgreen" points="363.25,-421.955 366.75,-431.955 370.25,-421.956 363.25,-421.955"/>
</g>
<!-- peer -->
<g id="node24" class="node"><title>peer</title>
<path fill="khaki" stroke="black" d="M239.5,-108C239.5,-108 205.5,-108 205.5,-108 199.5,-108 193.5,-102 193.5,-96 193.5,-96 193.5,-84 193.5,-84 193.5,-78 199.5,-72 205.5,-72 205.5,-72 239.5,-72 239.5,-72 245.5,-72 251.5,-78 251.5,-84 251.5,-84 251.5,-96 251.5,-96 251.5,-102 245.5,-108 239.5,-108"/>
<text text-anchor="middle" x="222.5" y="-86.3" font-family="Times New Roman,serif" font-size="14.00">peer/v3</text>
</g>
<!-- txscript&#45;&gt;peer -->
<g id="edge17" class="edge"><title>txscript&#45;&gt;peer</title>
<path fill="none" stroke="mediumspringgreen" d="M320.667,-421.578C320.667,-421.578 320.667,-414 320.667,-414 320.667,-414 237,-414 237,-414 237,-414 237,-176.888 237,-108.348"/>
<polygon fill="mediumspringgreen" stroke="mediumspringgreen" points="317.167,-421.578 320.667,-431.578 324.167,-421.578 317.167,-421.578"/>
</g>
<!-- gcs -->
<g id="node21" class="node"><title>gcs</title>
<path fill="gold" stroke="black" d="M341.5,-180C341.5,-180 311.5,-180 311.5,-180 305.5,-180 299.5,-174 299.5,-168 299.5,-168 299.5,-156 299.5,-156 299.5,-150 305.5,-144 311.5,-144 311.5,-144 341.5,-144 341.5,-144 347.5,-144 353.5,-150 353.5,-156 353.5,-156 353.5,-168 353.5,-168 353.5,-174 347.5,-180 341.5,-180"/>
<text text-anchor="middle" x="326.5" y="-158.3" font-family="Times New Roman,serif" font-size="14.00">gcs</text>
</g>
<!-- stake&#45;&gt;gcs -->
<g id="edge20" class="edge"><title>stake&#45;&gt;gcs</title>
<path fill="none" stroke="bisque" d="M326.5,-205.831C326.5,-205.831 326.5,-180.413 326.5,-180.413"/>
<polygon fill="bisque" stroke="bisque" points="323,-205.831 326.5,-215.831 330,-205.831 323,-205.831"/>
</g>
<!-- blockchain -->
<g id="node22" class="node"><title>blockchain</title>
<path fill="orchid" stroke="black" d="M568,-108C568,-108 497,-108 497,-108 491,-108 485,-102 485,-96 485,-96 485,-84 485,-84 485,-78 491,-72 497,-72 497,-72 568,-72 568,-72 574,-72 580,-78 580,-84 580,-84 580,-96 580,-96 580,-102 574,-108 568,-108"/>
<text text-anchor="middle" x="532.5" y="-86.3" font-family="Times New Roman,serif" font-size="14.00">blockchain/v3</text>
</g>
<!-- standalone&#45;&gt;blockchain -->
<g id="edge21" class="edge"><title>standalone&#45;&gt;blockchain</title>
<path fill="none" stroke="#8b1a1a" d="M548.333,-349.984C548.333,-349.984 548.333,-108.009 548.333,-108.009"/>
<polygon fill="#8b1a1a" stroke="#8b1a1a" points="544.833,-349.984 548.333,-359.984 551.833,-349.984 544.833,-349.984"/>
</g>
<!-- gcs&#45;&gt;blockchain -->
<g id="edge22" class="edge"><title>gcs&#45;&gt;blockchain</title>
<path fill="none" stroke="gold" d="M363.746,-162C363.746,-162 516.667,-162 516.667,-162 516.667,-162 516.667,-129.498 516.667,-108.169"/>
<polygon fill="gold" stroke="gold" points="363.746,-158.5 353.746,-162 363.746,-165.5 363.746,-158.5"/>
</g>
<!-- gcs&#45;&gt;rpcclient -->
<g id="edge23" class="edge"><title>gcs&#45;&gt;rpcclient</title>
<path fill="none" stroke="gold" d="M325.5,-133.831C325.5,-133.831 325.5,-108.413 325.5,-108.413"/>
<polygon fill="gold" stroke="gold" points="322,-133.831 325.5,-143.831 329,-133.831 322,-133.831"/>
</g>
<!-- blockchain&#45;&gt;dcrd -->
<g id="edge27" class="edge"><title>blockchain&#45;&gt;dcrd</title>
<path fill="none" stroke="orchid" d="M532.5,-61.7333C532.5,-61.7333 532.5,-28 532.5,-28 532.5,-28 479.228,-28 445.516,-28"/>
<polygon fill="orchid" stroke="orchid" points="529,-61.7333 532.5,-71.7333 536,-61.7333 529,-61.7333"/>
</g>
<!-- lru -->
<g id="node23" class="node"><title>lru</title>
<path fill="#3a5fcd" stroke="black" d="M156.5,-180C156.5,-180 126.5,-180 126.5,-180 120.5,-180 114.5,-174 114.5,-168 114.5,-168 114.5,-156 114.5,-156 114.5,-150 120.5,-144 126.5,-144 126.5,-144 156.5,-144 156.5,-144 162.5,-144 168.5,-150 168.5,-156 168.5,-156 168.5,-168 168.5,-168 168.5,-174 162.5,-180 156.5,-180"/>
<text text-anchor="middle" x="141.5" y="-158.3" font-family="Times New Roman,serif" font-size="14.00">lru</text>
</g>
<!-- lru&#45;&gt;peer -->
<g id="edge24" class="edge"><title>lru&#45;&gt;peer</title>
<path fill="none" stroke="#3a5fcd" d="M178.923,-162C178.923,-162 222.5,-162 222.5,-162 222.5,-162 222.5,-129.498 222.5,-108.169"/>
<polygon fill="#3a5fcd" stroke="#3a5fcd" points="178.923,-158.5 168.923,-162 178.923,-165.5 178.923,-158.5"/>
</g>
<!-- peer&#45;&gt;dcrd -->
<g id="edge34" class="edge"><title>peer&#45;&gt;dcrd</title>
<path fill="none" stroke="khaki" d="M222.5,-61.8711C222.5,-61.8711 222.5,-21 222.5,-21 222.5,-21 337.392,-21 391.247,-21"/>
<polygon fill="khaki" stroke="khaki" points="219,-61.871 222.5,-71.8711 226,-61.8711 219,-61.871"/>
</g>
<!-- rpcclient&#45;&gt;dcrd -->
<g id="edge33" class="edge"><title>rpcclient&#45;&gt;dcrd</title>
<path fill="none" stroke="mediumseagreen" d="M310.5,-61.7333C310.5,-61.7333 310.5,-28 310.5,-28 310.5,-28 359.253,-28 391.247,-28"/>
<polygon fill="mediumseagreen" stroke="mediumseagreen" points="307,-61.7333 310.5,-71.7333 314,-61.7333 307,-61.7333"/>
</g>
<!-- apbf -->
<g id="node26" class="node"><title>apbf</title>
<path fill="goldenrod" stroke="black" d="M883,-108C883,-108 810,-108 810,-108 804,-108 798,-102 798,-96 798,-96 798,-84 798,-84 798,-78 804,-72 810,-72 810,-72 883,-72 883,-72 889,-72 895,-78 895,-84 895,-84 895,-96 895,-96 895,-102 889,-108 883,-108"/>
<text text-anchor="middle" x="846.5" y="-86.3" font-family="Times New Roman,serif" font-size="14.00">container/apbf</text>
</g>
<!-- apbf&#45;&gt;dcrd -->
<g id="edge35" class="edge"><title>apbf&#45;&gt;dcrd</title>
<path fill="none" stroke="goldenrod" d="M846.5,-61.9902C846.5,-61.9902 846.5,-7 846.5,-7 846.5,-7 539.681,-7 445.598,-7"/>
<polygon fill="goldenrod" stroke="goldenrod" points="843,-61.9902 846.5,-71.9902 850,-61.9903 843,-61.9902"/>
</g>
</g>
</svg>
