<?xml version="1.0" encoding="UTF-8" standalone="no"?>
<!DOCTYPE svg PUBLIC "-//W3C//DTD SVG 1.1//EN"
 "http://www.w3.org/Graphics/SVG/1.1/DTD/svg11.dtd">
<!-- Generated by graphviz version 2.38.0 (20140413.2041)
 -->
<!-- Title: %3 Pages: 1 -->
<svg width="861pt" height="720pt"
 viewBox="0.00 0.00 861.00 720.00" xmlns="http://www.w3.org/2000/svg" xmlns:xlink="http://www.w3.org/1999/xlink">
<g id="graph0" class="graph" transform="scale(1 1) rotate(0) translate(4 716)">
<title>%3</title>
<polygon fill="white" stroke="#000000" points="-4,4 -4,-716 857,-716 857,4 -4,4"/>
<text text-anchor="start" x="360" y="-694.6" font-family="Times New Roman,serif" text-decoration="underline" font-size="18.00">Module Hierarchy</text>
<!-- blake256 -->
<g id="node1" class="node"><title>blake256</title>
<path fill="cornflowerblue" stroke="black" d="M449,-684C449,-684 366,-684 366,-684 360,-684 354,-678 354,-672 354,-672 354,-660 354,-660 354,-654 360,-648 366,-648 366,-648 449,-648 449,-648 455,-648 461,-654 461,-660 461,-660 461,-672 461,-672 461,-678 455,-684 449,-684"/>
<text text-anchor="middle" x="407.5" y="-662.3" font-family="Times New Roman,serif" font-size="14.00">crypto/blake256</text>
</g>
<!-- chainhash -->
<g id="node5" class="node"><title>chainhash</title>
<path fill="aquamarine" stroke="black" d="M674.5,-684C674.5,-684 576.5,-684 576.5,-684 570.5,-684 564.5,-678 564.5,-672 564.5,-672 564.5,-660 564.5,-660 564.5,-654 570.5,-648 576.5,-648 576.5,-648 674.5,-648 674.5,-648 680.5,-648 686.5,-654 686.5,-660 686.5,-660 686.5,-672 686.5,-672 686.5,-678 680.5,-684 674.5,-684"/>
<text text-anchor="middle" x="625.5" y="-662.3" font-family="Times New Roman,serif" font-size="14.00">chaincfg/chainhash</text>
</g>
<!-- blake256&#45;&gt;chainhash -->
<g id="edge1" class="edge"><title>blake256&#45;&gt;chainhash</title>
<path fill="none" stroke="cornflowerblue" d="M471.108,-666C471.108,-666 564.39,-666 564.39,-666"/>
<polygon fill="cornflowerblue" stroke="cornflowerblue" points="471.108,-662.5 461.108,-666 471.108,-669.5 471.108,-662.5"/>
</g>
<!-- secp256k1 -->
<g id="node14" class="node"><title>secp256k1</title>
<path fill="mediumvioletred" stroke="black" d="M203,-540C203,-540 98,-540 98,-540 92,-540 86,-534 86,-528 86,-528 86,-516 86,-516 86,-510 92,-504 98,-504 98,-504 203,-504 203,-504 209,-504 215,-510 215,-516 215,-516 215,-528 215,-528 215,-534 209,-540 203,-540"/>
<text text-anchor="middle" x="150.5" y="-518.3" font-family="Times New Roman,serif" font-size="14.00">dcrec/secp256k1/v4</text>
</g>
<!-- blake256&#45;&gt;secp256k1 -->
<g id="edge2" class="edge"><title>blake256&#45;&gt;secp256k1</title>
<path fill="none" stroke="cornflowerblue" d="M343.937,-666C343.937,-666 150.5,-666 150.5,-666 150.5,-666 150.5,-578.986 150.5,-540.238"/>
<polygon fill="cornflowerblue" stroke="cornflowerblue" points="343.937,-669.5 353.937,-666 343.937,-662.5 343.937,-669.5"/>
</g>
<!-- ripemd160 -->
<g id="node2" class="node"><title>ripemd160</title>
<path fill="darkturquoise" stroke="black" d="M570.5,-540C570.5,-540 478.5,-540 478.5,-540 472.5,-540 466.5,-534 466.5,-528 466.5,-528 466.5,-516 466.5,-516 466.5,-510 472.5,-504 478.5,-504 478.5,-504 570.5,-504 570.5,-504 576.5,-504 582.5,-510 582.5,-516 582.5,-516 582.5,-528 582.5,-528 582.5,-534 576.5,-540 570.5,-540"/>
<text text-anchor="middle" x="524.5" y="-518.3" font-family="Times New Roman,serif" font-size="14.00">crypto/ripemd160</text>
</g>
<!-- txscript -->
<g id="node18" class="node"><title>txscript</title>
<path fill="mediumspringgreen" stroke="black" d="M309.5,-468C309.5,-468 257.5,-468 257.5,-468 251.5,-468 245.5,-462 245.5,-456 245.5,-456 245.5,-444 245.5,-444 245.5,-438 251.5,-432 257.5,-432 257.5,-432 309.5,-432 309.5,-432 315.5,-432 321.5,-438 321.5,-444 321.5,-444 321.5,-456 321.5,-456 321.5,-462 315.5,-468 309.5,-468"/>
<text text-anchor="middle" x="283.5" y="-446.3" font-family="Times New Roman,serif" font-size="14.00">txscript/v4</text>
</g>
<!-- ripemd160&#45;&gt;txscript -->
<g id="edge10" class="edge"><title>ripemd160&#45;&gt;txscript</title>
<path fill="none" stroke="darkturquoise" d="M524.5,-493.909C524.5,-493.909 524.5,-444 524.5,-444 524.5,-444 389.643,-444 321.687,-444"/>
<polygon fill="darkturquoise" stroke="darkturquoise" points="521,-493.909 524.5,-503.909 528,-493.909 521,-493.909"/>
</g>
<!-- certgen -->
<g id="node3" class="node"><title>certgen</title>
<path fill="darkkhaki" stroke="black" d="M45,-108C45,-108 12,-108 12,-108 6,-108 0,-102 0,-96 0,-96 0,-84 0,-84 0,-78 6,-72 12,-72 12,-72 45,-72 45,-72 51,-72 57,-78 57,-84 57,-84 57,-96 57,-96 57,-102 51,-108 45,-108"/>
<text text-anchor="middle" x="28.5" y="-86.3" font-family="Times New Roman,serif" font-size="14.00">certgen</text>
</g>
<!-- dcrd -->
<g id="node27" class="node"><title>dcrd</title>
<path fill="chocolate" stroke="black" d="M404.5,-36C404.5,-36 374.5,-36 374.5,-36 368.5,-36 362.5,-30 362.5,-24 362.5,-24 362.5,-12 362.5,-12 362.5,-6 368.5,-0 374.5,-0 374.5,-0 404.5,-0 404.5,-0 410.5,-0 416.5,-6 416.5,-12 416.5,-12 416.5,-24 416.5,-24 416.5,-30 410.5,-36 404.5,-36"/>
<text text-anchor="middle" x="389.5" y="-14.3" font-family="Times New Roman,serif" font-size="14.00">dcrd</text>
</g>
<!-- certgen&#45;&gt;dcrd -->
<g id="edge28" class="edge"><title>certgen&#45;&gt;dcrd</title>
<path fill="none" stroke="darkkhaki" d="M28.5,-61.9902C28.5,-61.9902 28.5,-7 28.5,-7 28.5,-7 278.412,-7 362.366,-7"/>
<polygon fill="darkkhaki" stroke="darkkhaki" points="25.0001,-61.9902 28.5,-71.9902 32.0001,-61.9903 25.0001,-61.9902"/>
</g>
<!-- bech32 -->
<g id="node4" class="node"><title>bech32</title>
<path fill="#cdc0b0" stroke="black" d="M120,-108C120,-108 87,-108 87,-108 81,-108 75,-102 75,-96 75,-96 75,-84 75,-84 75,-78 81,-72 87,-72 87,-72 120,-72 120,-72 126,-72 132,-78 132,-84 132,-84 132,-96 132,-96 132,-102 126,-108 120,-108"/>
<text text-anchor="middle" x="103.5" y="-86.3" font-family="Times New Roman,serif" font-size="14.00">bech32</text>
</g>
<!-- bech32&#45;&gt;dcrd -->
<g id="edge29" class="edge"><title>bech32&#45;&gt;dcrd</title>
<path fill="none" stroke="#cdc0b0" d="M103.5,-61.9891C103.5,-61.9891 103.5,-14 103.5,-14 103.5,-14 290.946,-14 362.336,-14"/>
<polygon fill="#cdc0b0" stroke="#cdc0b0" points="100,-61.989 103.5,-71.9891 107,-61.9891 100,-61.989"/>
</g>
<!-- dcrjson -->
<g id="node6" class="node"><title>dcrjson</title>
<path fill="indianred" stroke="black" d="M763.5,-612C763.5,-612 711.5,-612 711.5,-612 705.5,-612 699.5,-606 699.5,-600 699.5,-600 699.5,-588 699.5,-588 699.5,-582 705.5,-576 711.5,-576 711.5,-576 763.5,-576 763.5,-576 769.5,-576 775.5,-582 775.5,-588 775.5,-588 775.5,-600 775.5,-600 775.5,-606 769.5,-612 763.5,-612"/>
<text text-anchor="middle" x="737.5" y="-590.3" font-family="Times New Roman,serif" font-size="14.00">dcrjson/v4</text>
</g>
<!-- chainhash&#45;&gt;dcrjson -->
<g id="edge4" class="edge"><title>chainhash&#45;&gt;dcrjson</title>
<path fill="none" stroke="aquamarine" d="M670.75,-637.831C670.75,-637.831 670.75,-594 670.75,-594 670.75,-594 684.455,-594 699.445,-594"/>
<polygon fill="aquamarine" stroke="aquamarine" points="667.25,-637.831 670.75,-647.831 674.25,-637.831 667.25,-637.831"/>
</g>
<!-- wire -->
<g id="node8" class="node"><title>wire</title>
<path fill="coral" stroke="black" d="M640.5,-612C640.5,-612 610.5,-612 610.5,-612 604.5,-612 598.5,-606 598.5,-600 598.5,-600 598.5,-588 598.5,-588 598.5,-582 604.5,-576 610.5,-576 610.5,-576 640.5,-576 640.5,-576 646.5,-576 652.5,-582 652.5,-588 652.5,-588 652.5,-600 652.5,-600 652.5,-606 646.5,-612 640.5,-612"/>
<text text-anchor="middle" x="625.5" y="-590.3" font-family="Times New Roman,serif" font-size="14.00">wire</text>
</g>
<!-- chainhash&#45;&gt;wire -->
<g id="edge5" class="edge"><title>chainhash&#45;&gt;wire</title>
<path fill="none" stroke="aquamarine" d="M625.5,-637.831C625.5,-637.831 625.5,-612.413 625.5,-612.413"/>
<polygon fill="aquamarine" stroke="aquamarine" points="622,-637.831 625.5,-647.831 629,-637.831 622,-637.831"/>
</g>
<!-- types -->
<g id="node7" class="node"><title>types</title>
<path fill="tomato" stroke="black" d="M834.5,-468C834.5,-468 726.5,-468 726.5,-468 720.5,-468 714.5,-462 714.5,-456 714.5,-456 714.5,-444 714.5,-444 714.5,-438 720.5,-432 726.5,-432 726.5,-432 834.5,-432 834.5,-432 840.5,-432 846.5,-438 846.5,-444 846.5,-444 846.5,-456 846.5,-456 846.5,-462 840.5,-468 834.5,-468"/>
<text text-anchor="middle" x="780.5" y="-446.3" font-family="Times New Roman,serif" font-size="14.00">rpc/jsonrpc/types/v3</text>
</g>
<!-- dcrjson&#45;&gt;types -->
<g id="edge25" class="edge"><title>dcrjson&#45;&gt;types</title>
<path fill="none" stroke="tomato" d="M745,-565.762C745,-565.762 745,-468.09 745,-468.09"/>
<polygon fill="tomato" stroke="tomato" points="741.5,-565.762 745,-575.762 748.5,-565.762 741.5,-565.762"/>
</g>
<!-- rpcclient -->
<g id="node25" class="node"><title>rpcclient</title>
<path fill="mediumseagreen" stroke="black" d="M624.5,-108C624.5,-108 566.5,-108 566.5,-108 560.5,-108 554.5,-102 554.5,-96 554.5,-96 554.5,-84 554.5,-84 554.5,-78 560.5,-72 566.5,-72 566.5,-72 624.5,-72 624.5,-72 630.5,-72 636.5,-78 636.5,-84 636.5,-84 636.5,-96 636.5,-96 636.5,-102 630.5,-108 624.5,-108"/>
<text text-anchor="middle" x="595.5" y="-86.3" font-family="Times New Roman,serif" font-size="14.00">rpcclient/v6</text>
</g>
<!-- types&#45;&gt;rpcclient -->
<g id="edge26" class="edge"><title>types&#45;&gt;rpcclient</title>
<path fill="none" stroke="indianred" d="M704.131,-456C704.131,-456 631.167,-456 631.167,-456 631.167,-456 631.167,-182.001 631.167,-108.15"/>
<polygon fill="indianred" stroke="indianred" points="704.131,-459.5 714.131,-456 704.131,-452.5 704.131,-459.5"/>
</g>
<!-- addrmgr -->
<g id="node9" class="node"><title>addrmgr</title>
<path fill="lightsalmon" stroke="black" d="M524,-108C524,-108 467,-108 467,-108 461,-108 455,-102 455,-96 455,-96 455,-84 455,-84 455,-78 461,-72 467,-72 467,-72 524,-72 524,-72 530,-72 536,-78 536,-84 536,-84 536,-96 536,-96 536,-102 530,-108 524,-108"/>
<text text-anchor="middle" x="495.5" y="-86.3" font-family="Times New Roman,serif" font-size="14.00">addrmgr/v2</text>
</g>
<!-- wire&#45;&gt;addrmgr -->
<g id="edge6" class="edge"><title>wire&#45;&gt;addrmgr</title>
<path fill="none" stroke="coral" d="M625.833,-565.941C625.833,-565.941 625.833,-126 625.833,-126 625.833,-126 492.833,-126 492.833,-126 492.833,-126 492.833,-117.279 492.833,-108.422"/>
<polygon fill="coral" stroke="coral" points="622.333,-565.941 625.833,-575.941 629.333,-565.941 622.333,-565.941"/>
</g>
<!-- chaincfg -->
<g id="node10" class="node"><title>chaincfg</title>
<path fill="cadetblue" stroke="black" d="M302,-540C302,-540 245,-540 245,-540 239,-540 233,-534 233,-528 233,-528 233,-516 233,-516 233,-510 239,-504 245,-504 245,-504 302,-504 302,-504 308,-504 314,-510 314,-516 314,-516 314,-528 314,-528 314,-534 308,-540 302,-540"/>
<text text-anchor="middle" x="273.5" y="-518.3" font-family="Times New Roman,serif" font-size="14.00">chaincfg/v3</text>
</g>
<!-- wire&#45;&gt;chaincfg -->
<g id="edge7" class="edge"><title>wire&#45;&gt;chaincfg</title>
<path fill="none" stroke="coral" d="M588.464,-594C588.464,-594 273.5,-594 273.5,-594 273.5,-594 273.5,-561.498 273.5,-540.169"/>
<polygon fill="coral" stroke="coral" points="588.464,-597.5 598.464,-594 588.464,-590.5 588.464,-597.5"/>
</g>
<!-- connmgr -->
<g id="node11" class="node"><title>connmgr</title>
<path fill="mistyrose" stroke="black" d="M726,-108C726,-108 667,-108 667,-108 661,-108 655,-102 655,-96 655,-96 655,-84 655,-84 655,-78 661,-72 667,-72 667,-72 726,-72 726,-72 732,-72 738,-78 738,-84 738,-84 738,-96 738,-96 738,-102 732,-108 726,-108"/>
<text text-anchor="middle" x="696.5" y="-86.3" font-family="Times New Roman,serif" font-size="14.00">connmgr/v3</text>
</g>
<!-- wire&#45;&gt;connmgr -->
<g id="edge8" class="edge"><title>wire&#45;&gt;connmgr</title>
<path fill="none" stroke="coral" d="M644.5,-565.765C644.5,-565.765 644.5,-90 644.5,-90 644.5,-90 648.728,-90 654.774,-90"/>
<polygon fill="coral" stroke="coral" points="641,-565.765 644.5,-575.765 648,-565.765 641,-565.765"/>
</g>
<!-- standalone -->
<g id="node20" class="node"><title>standalone</title>
<path fill="#8b1a1a" stroke="black" d="M608.5,-396C608.5,-396 474.5,-396 474.5,-396 468.5,-396 462.5,-390 462.5,-384 462.5,-384 462.5,-372 462.5,-372 462.5,-366 468.5,-360 474.5,-360 474.5,-360 608.5,-360 608.5,-360 614.5,-360 620.5,-366 620.5,-372 620.5,-372 620.5,-384 620.5,-384 620.5,-390 614.5,-396 608.5,-396"/>
<text text-anchor="middle" x="541.5" y="-374.3" font-family="Times New Roman,serif" font-size="14.00">blockchain/standalone/v2</text>
</g>
<!-- wire&#45;&gt;standalone -->
<g id="edge9" class="edge"><title>wire&#45;&gt;standalone</title>
<path fill="none" stroke="coral" d="M609.5,-565.955C609.5,-565.955 609.5,-396.145 609.5,-396.145"/>
<polygon fill="coral" stroke="coral" points="606,-565.955 609.5,-575.955 613,-565.956 606,-565.955"/>
</g>
<!-- addrmgr&#45;&gt;dcrd -->
<g id="edge30" class="edge"><title>addrmgr&#45;&gt;dcrd</title>
<path fill="none" stroke="lightsalmon" d="M495.5,-61.7333C495.5,-61.7333 495.5,-28 495.5,-28 495.5,-28 447.928,-28 416.523,-28"/>
<polygon fill="lightsalmon" stroke="lightsalmon" points="492,-61.7333 495.5,-71.7333 499,-61.7333 492,-61.7333"/>
</g>
<!-- chaincfg&#45;&gt;txscript -->
<g id="edge3" class="edge"><title>chaincfg&#45;&gt;txscript</title>
<path fill="none" stroke="cadetblue" d="M279.75,-493.831C279.75,-493.831 279.75,-468.413 279.75,-468.413"/>
<polygon fill="cadetblue" stroke="cadetblue" points="276.25,-493.831 279.75,-503.831 283.25,-493.831 276.25,-493.831"/>
</g>
<!-- connmgr&#45;&gt;dcrd -->
<g id="edge32" class="edge"><title>connmgr&#45;&gt;dcrd</title>
<path fill="none" stroke="mistyrose" d="M696.5,-61.9891C696.5,-61.9891 696.5,-14 696.5,-14 696.5,-14 491.879,-14 416.744,-14"/>
<polygon fill="mistyrose" stroke="mistyrose" points="693,-61.989 696.5,-71.9891 700,-61.9891 693,-61.989"/>
</g>
<!-- dcrec -->
<g id="node12" class="node"><title>dcrec</title>
<path fill="mediumpurple" stroke="black" d="M55.5,-540C55.5,-540 25.5,-540 25.5,-540 19.5,-540 13.5,-534 13.5,-528 13.5,-528 13.5,-516 13.5,-516 13.5,-510 19.5,-504 25.5,-504 25.5,-504 55.5,-504 55.5,-504 61.5,-504 67.5,-510 67.5,-516 67.5,-516 67.5,-528 67.5,-528 67.5,-534 61.5,-540 55.5,-540"/>
<text text-anchor="middle" x="40.5" y="-518.3" font-family="Times New Roman,serif" font-size="14.00">dcrec</text>
</g>
<!-- dcrec&#45;&gt;txscript -->
<g id="edge11" class="edge"><title>dcrec&#45;&gt;txscript</title>
<path fill="none" stroke="mediumpurple" d="M62.25,-493.831C62.25,-493.831 62.25,-450 62.25,-450 62.25,-450 182.207,-450 245.466,-450"/>
<polygon fill="mediumpurple" stroke="mediumpurple" points="58.7501,-493.831 62.25,-503.831 65.7501,-493.831 58.7501,-493.831"/>
</g>
<!-- edwards -->
<g id="node13" class="node"><title>edwards</title>
<path fill="lightseagreen" stroke="black" d="M436.5,-540C436.5,-540 344.5,-540 344.5,-540 338.5,-540 332.5,-534 332.5,-528 332.5,-528 332.5,-516 332.5,-516 332.5,-510 338.5,-504 344.5,-504 344.5,-504 436.5,-504 436.5,-504 442.5,-504 448.5,-510 448.5,-516 448.5,-516 448.5,-528 448.5,-528 448.5,-534 442.5,-540 436.5,-540"/>
<text text-anchor="middle" x="390.5" y="-518.3" font-family="Times New Roman,serif" font-size="14.00">dcrec/edwards/v2</text>
</g>
<!-- edwards&#45;&gt;txscript -->
<g id="edge12" class="edge"><title>edwards&#45;&gt;txscript</title>
<path fill="none" stroke="lightseagreen" d="M322.472,-522C322.472,-522 317.75,-522 317.75,-522 317.75,-522 317.75,-489.498 317.75,-468.169"/>
<polygon fill="lightseagreen" stroke="lightseagreen" points="322.472,-525.5 332.472,-522 322.472,-518.5 322.472,-525.5"/>
</g>
<!-- secp256k1&#45;&gt;txscript -->
<g id="edge13" class="edge"><title>secp256k1&#45;&gt;txscript</title>
<path fill="none" stroke="mediumvioletred" d="M191.667,-493.778C191.667,-493.778 191.667,-459 191.667,-459 191.667,-459 220.121,-459 245.352,-459"/>
<polygon fill="mediumvioletred" stroke="mediumvioletred" points="188.167,-493.778 191.667,-503.778 195.167,-493.778 188.167,-493.778"/>
</g>
<!-- dcrutil -->
<g id="node15" class="node"><title>dcrutil</title>
<path fill="burlywood" stroke="black" d="M317,-396C317,-396 272,-396 272,-396 266,-396 260,-390 260,-384 260,-384 260,-372 260,-372 260,-366 266,-360 272,-360 272,-360 317,-360 317,-360 323,-360 329,-366 329,-372 329,-372 329,-384 329,-384 329,-390 323,-396 317,-396"/>
<text text-anchor="middle" x="294.5" y="-374.3" font-family="Times New Roman,serif" font-size="14.00">dcrutil/v3</text>
</g>
<!-- database -->
<g id="node16" class="node"><title>database</title>
<path fill="dodgerblue" stroke="black" d="M394,-324C394,-324 335,-324 335,-324 329,-324 323,-318 323,-312 323,-312 323,-300 323,-300 323,-294 329,-288 335,-288 335,-288 394,-288 394,-288 400,-288 406,-294 406,-300 406,-300 406,-312 406,-312 406,-318 400,-324 394,-324"/>
<text text-anchor="middle" x="364.5" y="-302.3" font-family="Times New Roman,serif" font-size="14.00">database/v2</text>
</g>
<!-- dcrutil&#45;&gt;database -->
<g id="edge18" class="edge"><title>dcrutil&#45;&gt;database</title>
<path fill="none" stroke="burlywood" d="M304.167,-349.831C304.167,-349.831 304.167,-306 304.167,-306 304.167,-306 312.475,-306 322.926,-306"/>
<polygon fill="burlywood" stroke="burlywood" points="300.667,-349.831 304.167,-359.831 307.667,-349.831 300.667,-349.831"/>
</g>
<!-- peer -->
<g id="node24" class="node"><title>peer</title>
<path fill="khaki" stroke="black" d="M311.5,-108C311.5,-108 277.5,-108 277.5,-108 271.5,-108 265.5,-102 265.5,-96 265.5,-96 265.5,-84 265.5,-84 265.5,-78 271.5,-72 277.5,-72 277.5,-72 311.5,-72 311.5,-72 317.5,-72 323.5,-78 323.5,-84 323.5,-84 323.5,-96 323.5,-96 323.5,-102 317.5,-108 311.5,-108"/>
<text text-anchor="middle" x="294.5" y="-86.3" font-family="Times New Roman,serif" font-size="14.00">peer/v2</text>
</g>
<!-- dcrutil&#45;&gt;peer -->
<g id="edge17" class="edge"><title>dcrutil&#45;&gt;peer</title>
<path fill="none" stroke="burlywood" d="M285.333,-349.984C285.333,-349.984 285.333,-108.009 285.333,-108.009"/>
<polygon fill="burlywood" stroke="burlywood" points="281.833,-349.984 285.333,-359.984 288.833,-349.984 281.833,-349.984"/>
</g>
<!-- stake -->
<g id="node19" class="node"><title>stake</title>
<path fill="bisque" stroke="black" d="M462,-252C462,-252 359,-252 359,-252 353,-252 347,-246 347,-240 347,-240 347,-228 347,-228 347,-222 353,-216 359,-216 359,-216 462,-216 462,-216 468,-216 474,-222 474,-228 474,-228 474,-240 474,-240 474,-246 468,-252 462,-252"/>
<text text-anchor="middle" x="410.5" y="-230.3" font-family="Times New Roman,serif" font-size="14.00">blockchain/stake/v3</text>
</g>
<!-- database&#45;&gt;stake -->
<g id="edge19" class="edge"><title>database&#45;&gt;stake</title>
<path fill="none" stroke="dodgerblue" d="M376.5,-277.831C376.5,-277.831 376.5,-252.413 376.5,-252.413"/>
<polygon fill="dodgerblue" stroke="dodgerblue" points="373,-277.831 376.5,-287.831 380,-277.831 373,-277.831"/>
</g>
<!-- hdkeychain -->
<g id="node17" class="node"><title>hdkeychain</title>
<path fill="deepskyblue" stroke="black" d="M235,-108C235,-108 162,-108 162,-108 156,-108 150,-102 150,-96 150,-96 150,-84 150,-84 150,-78 156,-72 162,-72 162,-72 235,-72 235,-72 241,-72 247,-78 247,-84 247,-84 247,-96 247,-96 247,-102 241,-108 235,-108"/>
<text text-anchor="middle" x="198.5" y="-86.3" font-family="Times New Roman,serif" font-size="14.00">hdkeychain/v3</text>
</g>
<!-- hdkeychain&#45;&gt;dcrd -->
<g id="edge31" class="edge"><title>hdkeychain&#45;&gt;dcrd</title>
<path fill="none" stroke="deepskyblue" d="M198.5,-61.8711C198.5,-61.8711 198.5,-21 198.5,-21 198.5,-21 309.321,-21 362.134,-21"/>
<polygon fill="deepskyblue" stroke="deepskyblue" points="195,-61.871 198.5,-71.8711 202,-61.8711 195,-61.871"/>
</g>
<!-- txscript&#45;&gt;dcrutil -->
<g id="edge14" class="edge"><title>txscript&#45;&gt;dcrutil</title>
<path fill="none" stroke="mediumspringgreen" d="M290.75,-421.831C290.75,-421.831 290.75,-396.413 290.75,-396.413"/>
<polygon fill="mediumspringgreen" stroke="mediumspringgreen" points="287.25,-421.831 290.75,-431.831 294.25,-421.831 287.25,-421.831"/>
</g>
<!-- txscript&#45;&gt;hdkeychain -->
<g id="edge15" class="edge"><title>txscript&#45;&gt;hdkeychain</title>
<path fill="none" stroke="mediumspringgreen" d="M235.356,-441C235.356,-441 170.833,-441 170.833,-441 170.833,-441 170.833,-180.598 170.833,-108.377"/>
<polygon fill="mediumspringgreen" stroke="mediumspringgreen" points="235.356,-444.5 245.356,-441 235.356,-437.5 235.356,-444.5"/>
</g>
<!-- txscript&#45;&gt;stake -->
<g id="edge16" class="edge"><title>txscript&#45;&gt;stake</title>
<path fill="none" stroke="mediumspringgreen" d="M252.75,-421.955C252.75,-421.955 252.75,-234 252.75,-234 252.75,-234 303.01,-234 346.792,-234"/>
<polygon fill="mediumspringgreen" stroke="mediumspringgreen" points="249.25,-421.955 252.75,-431.955 256.25,-421.956 249.25,-421.955"/>
</g>
<!-- gcs -->
<g id="node21" class="node"><title>gcs</title>
<path fill="gold" stroke="black" d="M572.5,-180C572.5,-180 542.5,-180 542.5,-180 536.5,-180 530.5,-174 530.5,-168 530.5,-168 530.5,-156 530.5,-156 530.5,-150 536.5,-144 542.5,-144 542.5,-144 572.5,-144 572.5,-144 578.5,-144 584.5,-150 584.5,-156 584.5,-156 584.5,-168 584.5,-168 584.5,-174 578.5,-180 572.5,-180"/>
<text text-anchor="middle" x="557.5" y="-158.3" font-family="Times New Roman,serif" font-size="14.00">gcs</text>
</g>
<!-- stake&#45;&gt;gcs -->
<g id="edge20" class="edge"><title>stake&#45;&gt;gcs</title>
<path fill="none" stroke="bisque" d="M464.5,-205.965C464.5,-205.965 464.5,-168 464.5,-168 464.5,-168 502.667,-168 530.1,-168"/>
<polygon fill="bisque" stroke="bisque" points="461,-205.965 464.5,-215.965 468,-205.965 461,-205.965"/>
</g>
<!-- blockchain -->
<g id="node22" class="node"><title>blockchain</title>
<path fill="orchid" stroke="black" d="M425,-108C425,-108 354,-108 354,-108 348,-108 342,-102 342,-96 342,-96 342,-84 342,-84 342,-78 348,-72 354,-72 354,-72 425,-72 425,-72 431,-72 437,-78 437,-84 437,-84 437,-96 437,-96 437,-102 431,-108 425,-108"/>
<text text-anchor="middle" x="389.5" y="-86.3" font-family="Times New Roman,serif" font-size="14.00">blockchain/v3</text>
</g>
<!-- standalone&#45;&gt;blockchain -->
<g id="edge21" class="edge"><title>standalone&#45;&gt;blockchain</title>
<path fill="none" stroke="#8b1a1a" d="M511.667,-349.75C511.667,-349.75 511.667,-198 511.667,-198 511.667,-198 377,-198 377,-198 377,-198 377,-139.134 377,-108.321"/>
<polygon fill="#8b1a1a" stroke="#8b1a1a" points="508.167,-349.75 511.667,-359.75 515.167,-349.75 508.167,-349.75"/>
</g>
<!-- gcs&#45;&gt;blockchain -->
<g id="edge22" class="edge"><title>gcs&#45;&gt;blockchain</title>
<path fill="none" stroke="gold" d="M520.246,-156C520.246,-156 407,-156 407,-156 407,-156 407,-127.576 407,-108.035"/>
<polygon fill="gold" stroke="gold" points="520.246,-159.5 530.246,-156 520.246,-152.5 520.246,-159.5"/>
</g>
<!-- gcs&#45;&gt;rpcclient -->
<g id="edge23" class="edge"><title>gcs&#45;&gt;rpcclient</title>
<path fill="none" stroke="gold" d="M569.5,-133.831C569.5,-133.831 569.5,-108.413 569.5,-108.413"/>
<polygon fill="gold" stroke="gold" points="566,-133.831 569.5,-143.831 573,-133.831 566,-133.831"/>
</g>
<!-- blockchain&#45;&gt;dcrd -->
<g id="edge27" class="edge"><title>blockchain&#45;&gt;dcrd</title>
<path fill="none" stroke="orchid" d="M389.5,-61.8314C389.5,-61.8314 389.5,-36.4133 389.5,-36.4133"/>
<polygon fill="orchid" stroke="orchid" points="386,-61.8313 389.5,-71.8314 393,-61.8314 386,-61.8313"/>
</g>
<!-- lru -->
<g id="node23" class="node"><title>lru</title>
<path fill="#3a5fcd" stroke="black" d="M254.5,-180C254.5,-180 224.5,-180 224.5,-180 218.5,-180 212.5,-174 212.5,-168 212.5,-168 212.5,-156 212.5,-156 212.5,-150 218.5,-144 224.5,-144 224.5,-144 254.5,-144 254.5,-144 260.5,-144 266.5,-150 266.5,-156 266.5,-156 266.5,-168 266.5,-168 266.5,-174 260.5,-180 254.5,-180"/>
<text text-anchor="middle" x="239.5" y="-158.3" font-family="Times New Roman,serif" font-size="14.00">lru</text>
</g>
<!-- lru&#45;&gt;peer -->
<g id="edge24" class="edge"><title>lru&#45;&gt;peer</title>
<path fill="none" stroke="#3a5fcd" d="M256.25,-133.831C256.25,-133.831 256.25,-90 256.25,-90 256.25,-90 259.985,-90 265.121,-90"/>
<polygon fill="#3a5fcd" stroke="#3a5fcd" points="252.75,-133.831 256.25,-143.831 259.75,-133.831 252.75,-133.831"/>
</g>
<!-- peer&#45;&gt;dcrd -->
<g id="edge34" class="edge"><title>peer&#45;&gt;dcrd</title>
<path fill="none" stroke="khaki" d="M294.5,-61.7333C294.5,-61.7333 294.5,-28 294.5,-28 294.5,-28 334.204,-28 362.277,-28"/>
<polygon fill="khaki" stroke="khaki" points="291,-61.7333 294.5,-71.7333 298,-61.7333 291,-61.7333"/>
</g>
<!-- rpcclient&#45;&gt;dcrd -->
<g id="edge33" class="edge"><title>rpcclient&#45;&gt;dcrd</title>
<path fill="none" stroke="mediumseagreen" d="M595.5,-61.8711C595.5,-61.8711 595.5,-21 595.5,-21 595.5,-21 472.891,-21 416.855,-21"/>
<polygon fill="mediumseagreen" stroke="mediumseagreen" points="592,-61.871 595.5,-71.8711 599,-61.8711 592,-61.871"/>
</g>
<!-- apbf -->
<g id="node26" class="node"><title>apbf</title>
<path fill="goldenrod" stroke="black" d="M841,-108C841,-108 768,-108 768,-108 762,-108 756,-102 756,-96 756,-96 756,-84 756,-84 756,-78 762,-72 768,-72 768,-72 841,-72 841,-72 847,-72 853,-78 853,-84 853,-84 853,-96 853,-96 853,-102 847,-108 841,-108"/>
<text text-anchor="middle" x="804.5" y="-86.3" font-family="Times New Roman,serif" font-size="14.00">container/apbf</text>
</g>
<!-- apbf&#45;&gt;dcrd -->
<g id="edge35" class="edge"><title>apbf&#45;&gt;dcrd</title>
<path fill="none" stroke="goldenrod" d="M804.5,-61.9902C804.5,-61.9902 804.5,-7 804.5,-7 804.5,-7 509.056,-7 416.729,-7"/>
<polygon fill="goldenrod" stroke="goldenrod" points="801,-61.9902 804.5,-71.9902 808,-61.9903 801,-61.9902"/>
</g>
</g>
</svg>
