<?xml version="1.0" encoding="UTF-8" standalone="no"?>
<!DOCTYPE svg PUBLIC "-//W3C//DTD SVG 1.1//EN"
 "http://www.w3.org/Graphics/SVG/1.1/DTD/svg11.dtd">
<!-- Generated by graphviz version 2.38.0 (20140413.2041)
 -->
<!-- Title: %3 Pages: 1 -->
<svg width="845pt" height="648pt"
 viewBox="0.00 0.00 845.00 648.00" xmlns="http://www.w3.org/2000/svg" xmlns:xlink="http://www.w3.org/1999/xlink">
<g id="graph0" class="graph" transform="scale(1 1) rotate(0) translate(4 644)">
<title>%3</title>
<polygon fill="white" stroke="#000000" points="-4,4 -4,-644 841,-644 841,4 -4,4"/>
<text text-anchor="start" x="352" y="-622.6" font-family="Times New Roman,serif" text-decoration="underline" font-size="18.00">Module Hierarchy</text>
<!-- blake256 -->
<g id="node1" class="node"><title>blake256</title>
<path fill="cornflowerblue" stroke="black" d="M547,-612C547,-612 464,-612 464,-612 458,-612 452,-606 452,-600 452,-600 452,-588 452,-588 452,-582 458,-576 464,-576 464,-576 547,-576 547,-576 553,-576 559,-582 559,-588 559,-588 559,-600 559,-600 559,-606 553,-612 547,-612"/>
<text text-anchor="middle" x="505.5" y="-590.3" font-family="Times New Roman,serif" font-size="14.00">crypto/blake256</text>
</g>
<!-- chainhash -->
<g id="node5" class="node"><title>chainhash</title>
<path fill="aquamarine" stroke="black" d="M554.5,-540C554.5,-540 456.5,-540 456.5,-540 450.5,-540 444.5,-534 444.5,-528 444.5,-528 444.5,-516 444.5,-516 444.5,-510 450.5,-504 456.5,-504 456.5,-504 554.5,-504 554.5,-504 560.5,-504 566.5,-510 566.5,-516 566.5,-516 566.5,-528 566.5,-528 566.5,-534 560.5,-540 554.5,-540"/>
<text text-anchor="middle" x="505.5" y="-518.3" font-family="Times New Roman,serif" font-size="14.00">chaincfg/chainhash</text>
</g>
<!-- blake256&#45;&gt;chainhash -->
<g id="edge1" class="edge"><title>blake256&#45;&gt;chainhash</title>
<path fill="none" stroke="cornflowerblue" d="M505.5,-565.831C505.5,-565.831 505.5,-540.413 505.5,-540.413"/>
<polygon fill="cornflowerblue" stroke="cornflowerblue" points="502,-565.831 505.5,-575.831 509,-565.831 502,-565.831"/>
</g>
<!-- ripemd160 -->
<g id="node2" class="node"><title>ripemd160</title>
<path fill="darkturquoise" stroke="black" d="M651.5,-468C651.5,-468 559.5,-468 559.5,-468 553.5,-468 547.5,-462 547.5,-456 547.5,-456 547.5,-444 547.5,-444 547.5,-438 553.5,-432 559.5,-432 559.5,-432 651.5,-432 651.5,-432 657.5,-432 663.5,-438 663.5,-444 663.5,-444 663.5,-456 663.5,-456 663.5,-462 657.5,-468 651.5,-468"/>
<text text-anchor="middle" x="605.5" y="-446.3" font-family="Times New Roman,serif" font-size="14.00">crypto/ripemd160</text>
</g>
<!-- dcrutil -->
<g id="node15" class="node"><title>dcrutil</title>
<path fill="burlywood" stroke="black" d="M583,-396C583,-396 538,-396 538,-396 532,-396 526,-390 526,-384 526,-384 526,-372 526,-372 526,-366 532,-360 538,-360 538,-360 583,-360 583,-360 589,-360 595,-366 595,-372 595,-372 595,-384 595,-384 595,-390 589,-396 583,-396"/>
<text text-anchor="middle" x="560.5" y="-374.3" font-family="Times New Roman,serif" font-size="14.00">dcrutil/v3</text>
</g>
<!-- ripemd160&#45;&gt;dcrutil -->
<g id="edge9" class="edge"><title>ripemd160&#45;&gt;dcrutil</title>
<path fill="none" stroke="darkturquoise" d="M571.25,-421.831C571.25,-421.831 571.25,-396.413 571.25,-396.413"/>
<polygon fill="darkturquoise" stroke="darkturquoise" points="567.75,-421.831 571.25,-431.831 574.75,-421.831 567.75,-421.831"/>
</g>
<!-- certgen -->
<g id="node3" class="node"><title>certgen</title>
<path fill="darkkhaki" stroke="black" d="M45,-108C45,-108 12,-108 12,-108 6,-108 0,-102 0,-96 0,-96 0,-84 0,-84 0,-78 6,-72 12,-72 12,-72 45,-72 45,-72 51,-72 57,-78 57,-84 57,-84 57,-96 57,-96 57,-102 51,-108 45,-108"/>
<text text-anchor="middle" x="28.5" y="-86.3" font-family="Times New Roman,serif" font-size="14.00">certgen</text>
</g>
<!-- dcrd -->
<g id="node27" class="node"><title>dcrd</title>
<path fill="chocolate" stroke="black" d="M378.5,-36C378.5,-36 348.5,-36 348.5,-36 342.5,-36 336.5,-30 336.5,-24 336.5,-24 336.5,-12 336.5,-12 336.5,-6 342.5,-0 348.5,-0 348.5,-0 378.5,-0 378.5,-0 384.5,-0 390.5,-6 390.5,-12 390.5,-12 390.5,-24 390.5,-24 390.5,-30 384.5,-36 378.5,-36"/>
<text text-anchor="middle" x="363.5" y="-14.3" font-family="Times New Roman,serif" font-size="14.00">dcrd</text>
</g>
<!-- certgen&#45;&gt;dcrd -->
<g id="edge27" class="edge"><title>certgen&#45;&gt;dcrd</title>
<path fill="none" stroke="darkkhaki" d="M28.5,-61.9902C28.5,-61.9902 28.5,-7 28.5,-7 28.5,-7 256.617,-7 336.369,-7"/>
<polygon fill="darkkhaki" stroke="darkkhaki" points="25.0001,-61.9902 28.5,-71.9902 32.0001,-61.9903 25.0001,-61.9902"/>
</g>
<!-- bech32 -->
<g id="node4" class="node"><title>bech32</title>
<path fill="#cdc0b0" stroke="black" d="M120,-108C120,-108 87,-108 87,-108 81,-108 75,-102 75,-96 75,-96 75,-84 75,-84 75,-78 81,-72 87,-72 87,-72 120,-72 120,-72 126,-72 132,-78 132,-84 132,-84 132,-96 132,-96 132,-102 126,-108 120,-108"/>
<text text-anchor="middle" x="103.5" y="-86.3" font-family="Times New Roman,serif" font-size="14.00">bech32</text>
</g>
<!-- bech32&#45;&gt;dcrd -->
<g id="edge28" class="edge"><title>bech32&#45;&gt;dcrd</title>
<path fill="none" stroke="#cdc0b0" d="M103.5,-61.9891C103.5,-61.9891 103.5,-14 103.5,-14 103.5,-14 269.413,-14 336.167,-14"/>
<polygon fill="#cdc0b0" stroke="#cdc0b0" points="100,-61.989 103.5,-71.9891 107,-61.9891 100,-61.989"/>
</g>
<!-- dcrjson -->
<g id="node6" class="node"><title>dcrjson</title>
<path fill="indianred" stroke="black" d="M817.5,-468C817.5,-468 765.5,-468 765.5,-468 759.5,-468 753.5,-462 753.5,-456 753.5,-456 753.5,-444 753.5,-444 753.5,-438 759.5,-432 765.5,-432 765.5,-432 817.5,-432 817.5,-432 823.5,-432 829.5,-438 829.5,-444 829.5,-444 829.5,-456 829.5,-456 829.5,-462 823.5,-468 817.5,-468"/>
<text text-anchor="middle" x="791.5" y="-446.3" font-family="Times New Roman,serif" font-size="14.00">dcrjson/v4</text>
</g>
<!-- chainhash&#45;&gt;dcrjson -->
<g id="edge3" class="edge"><title>chainhash&#45;&gt;dcrjson</title>
<path fill="none" stroke="aquamarine" d="M576.503,-522C576.503,-522 791.5,-522 791.5,-522 791.5,-522 791.5,-489.498 791.5,-468.169"/>
<polygon fill="aquamarine" stroke="aquamarine" points="576.503,-518.5 566.503,-522 576.503,-525.5 576.503,-518.5"/>
</g>
<!-- wire -->
<g id="node8" class="node"><title>wire</title>
<path fill="coral" stroke="black" d="M235.5,-468C235.5,-468 205.5,-468 205.5,-468 199.5,-468 193.5,-462 193.5,-456 193.5,-456 193.5,-444 193.5,-444 193.5,-438 199.5,-432 205.5,-432 205.5,-432 235.5,-432 235.5,-432 241.5,-432 247.5,-438 247.5,-444 247.5,-444 247.5,-456 247.5,-456 247.5,-462 241.5,-468 235.5,-468"/>
<text text-anchor="middle" x="220.5" y="-446.3" font-family="Times New Roman,serif" font-size="14.00">wire</text>
</g>
<!-- chainhash&#45;&gt;wire -->
<g id="edge4" class="edge"><title>chainhash&#45;&gt;wire</title>
<path fill="none" stroke="aquamarine" d="M434.36,-522C434.36,-522 220.5,-522 220.5,-522 220.5,-522 220.5,-489.498 220.5,-468.169"/>
<polygon fill="aquamarine" stroke="aquamarine" points="434.36,-525.5 444.36,-522 434.36,-518.5 434.36,-525.5"/>
</g>
<!-- types -->
<g id="node7" class="node"><title>types</title>
<path fill="tomato" stroke="black" d="M799,-252C799,-252 708,-252 708,-252 702,-252 696,-246 696,-240 696,-240 696,-228 696,-228 696,-222 702,-216 708,-216 708,-216 799,-216 799,-216 805,-216 811,-222 811,-228 811,-228 811,-240 811,-240 811,-246 805,-252 799,-252"/>
<text text-anchor="middle" x="753.5" y="-230.3" font-family="Times New Roman,serif" font-size="14.00">rpc/jsonrpc/types</text>
</g>
<!-- dcrjson&#45;&gt;types -->
<g id="edge24" class="edge"><title>dcrjson&#45;&gt;types</title>
<path fill="none" stroke="tomato" d="M782.25,-421.955C782.25,-421.955 782.25,-252.145 782.25,-252.145"/>
<polygon fill="tomato" stroke="tomato" points="778.75,-421.955 782.25,-431.955 785.75,-421.956 778.75,-421.955"/>
</g>
<!-- rpcclient -->
<g id="node25" class="node"><title>rpcclient</title>
<path fill="mediumseagreen" stroke="black" d="M709.5,-108C709.5,-108 651.5,-108 651.5,-108 645.5,-108 639.5,-102 639.5,-96 639.5,-96 639.5,-84 639.5,-84 639.5,-78 645.5,-72 651.5,-72 651.5,-72 709.5,-72 709.5,-72 715.5,-72 721.5,-78 721.5,-84 721.5,-84 721.5,-96 721.5,-96 721.5,-102 715.5,-108 709.5,-108"/>
<text text-anchor="middle" x="680.5" y="-86.3" font-family="Times New Roman,serif" font-size="14.00">rpcclient/v6</text>
</g>
<!-- types&#45;&gt;rpcclient -->
<g id="edge25" class="edge"><title>types&#45;&gt;rpcclient</title>
<path fill="none" stroke="indianred" d="M708.75,-205.762C708.75,-205.762 708.75,-108.09 708.75,-108.09"/>
<polygon fill="indianred" stroke="indianred" points="705.25,-205.762 708.75,-215.762 712.25,-205.762 705.25,-205.762"/>
</g>
<!-- addrmgr -->
<g id="node9" class="node"><title>addrmgr</title>
<path fill="lightsalmon" stroke="black" d="M202.5,-108C202.5,-108 162.5,-108 162.5,-108 156.5,-108 150.5,-102 150.5,-96 150.5,-96 150.5,-84 150.5,-84 150.5,-78 156.5,-72 162.5,-72 162.5,-72 202.5,-72 202.5,-72 208.5,-72 214.5,-78 214.5,-84 214.5,-84 214.5,-96 214.5,-96 214.5,-102 208.5,-108 202.5,-108"/>
<text text-anchor="middle" x="182.5" y="-86.3" font-family="Times New Roman,serif" font-size="14.00">addrmgr</text>
</g>
<!-- wire&#45;&gt;addrmgr -->
<g id="edge5" class="edge"><title>wire&#45;&gt;addrmgr</title>
<path fill="none" stroke="coral" d="M204,-421.653C204,-421.653 204,-108.31 204,-108.31"/>
<polygon fill="coral" stroke="coral" points="200.5,-421.653 204,-431.653 207.5,-421.653 200.5,-421.653"/>
</g>
<!-- chaincfg -->
<g id="node10" class="node"><title>chaincfg</title>
<path fill="cadetblue" stroke="black" d="M458,-396C458,-396 401,-396 401,-396 395,-396 389,-390 389,-384 389,-384 389,-372 389,-372 389,-366 395,-360 401,-360 401,-360 458,-360 458,-360 464,-360 470,-366 470,-372 470,-372 470,-384 470,-384 470,-390 464,-396 458,-396"/>
<text text-anchor="middle" x="429.5" y="-374.3" font-family="Times New Roman,serif" font-size="14.00">chaincfg/v3</text>
</g>
<!-- wire&#45;&gt;chaincfg -->
<g id="edge6" class="edge"><title>wire&#45;&gt;chaincfg</title>
<path fill="none" stroke="coral" d="M243.875,-421.831C243.875,-421.831 243.875,-378 243.875,-378 243.875,-378 334.122,-378 388.764,-378"/>
<polygon fill="coral" stroke="coral" points="240.375,-421.831 243.875,-431.831 247.375,-421.831 240.375,-421.831"/>
</g>
<!-- connmgr -->
<g id="node11" class="node"><title>connmgr</title>
<path fill="mistyrose" stroke="black" d="M304,-108C304,-108 245,-108 245,-108 239,-108 233,-102 233,-96 233,-96 233,-84 233,-84 233,-78 239,-72 245,-72 245,-72 304,-72 304,-72 310,-72 316,-78 316,-84 316,-84 316,-96 316,-96 316,-102 310,-108 304,-108"/>
<text text-anchor="middle" x="274.5" y="-86.3" font-family="Times New Roman,serif" font-size="14.00">connmgr/v3</text>
</g>
<!-- wire&#45;&gt;connmgr -->
<g id="edge7" class="edge"><title>wire&#45;&gt;connmgr</title>
<path fill="none" stroke="coral" d="M236.625,-421.653C236.625,-421.653 236.625,-108.31 236.625,-108.31"/>
<polygon fill="coral" stroke="coral" points="233.125,-421.653 236.625,-431.653 240.125,-421.653 233.125,-421.653"/>
</g>
<!-- standalone -->
<g id="node20" class="node"><title>standalone</title>
<path fill="#8b1a1a" stroke="black" d="M394.5,-324C394.5,-324 260.5,-324 260.5,-324 254.5,-324 248.5,-318 248.5,-312 248.5,-312 248.5,-300 248.5,-300 248.5,-294 254.5,-288 260.5,-288 260.5,-288 394.5,-288 394.5,-288 400.5,-288 406.5,-294 406.5,-300 406.5,-300 406.5,-312 406.5,-312 406.5,-318 400.5,-324 394.5,-324"/>
<text text-anchor="middle" x="327.5" y="-302.3" font-family="Times New Roman,serif" font-size="14.00">blockchain/standalone/v2</text>
</g>
<!-- wire&#45;&gt;standalone -->
<g id="edge8" class="edge"><title>wire&#45;&gt;standalone</title>
<path fill="none" stroke="coral" d="M240.25,-421.762C240.25,-421.762 240.25,-306 240.25,-306 240.25,-306 243.317,-306 248.302,-306"/>
<polygon fill="coral" stroke="coral" points="236.75,-421.762 240.25,-431.762 243.75,-421.762 236.75,-421.762"/>
</g>
<!-- addrmgr&#45;&gt;dcrd -->
<g id="edge29" class="edge"><title>addrmgr&#45;&gt;dcrd</title>
<path fill="none" stroke="lightsalmon" d="M182.5,-61.8711C182.5,-61.8711 182.5,-21 182.5,-21 182.5,-21 285.91,-21 336.402,-21"/>
<polygon fill="lightsalmon" stroke="lightsalmon" points="179,-61.871 182.5,-71.8711 186,-61.8711 179,-61.871"/>
</g>
<!-- txscript -->
<g id="node18" class="node"><title>txscript</title>
<path fill="mediumspringgreen" stroke="black" d="M488.5,-324C488.5,-324 436.5,-324 436.5,-324 430.5,-324 424.5,-318 424.5,-312 424.5,-312 424.5,-300 424.5,-300 424.5,-294 430.5,-288 436.5,-288 436.5,-288 488.5,-288 488.5,-288 494.5,-288 500.5,-294 500.5,-300 500.5,-300 500.5,-312 500.5,-312 500.5,-318 494.5,-324 488.5,-324"/>
<text text-anchor="middle" x="462.5" y="-302.3" font-family="Times New Roman,serif" font-size="14.00">txscript/v3</text>
</g>
<!-- chaincfg&#45;&gt;txscript -->
<g id="edge2" class="edge"><title>chaincfg&#45;&gt;txscript</title>
<path fill="none" stroke="cadetblue" d="M447.25,-349.831C447.25,-349.831 447.25,-324.413 447.25,-324.413"/>
<polygon fill="cadetblue" stroke="cadetblue" points="443.75,-349.831 447.25,-359.831 450.75,-349.831 443.75,-349.831"/>
</g>
<!-- connmgr&#45;&gt;dcrd -->
<g id="edge31" class="edge"><title>connmgr&#45;&gt;dcrd</title>
<path fill="none" stroke="mistyrose" d="M274.5,-61.7333C274.5,-61.7333 274.5,-28 274.5,-28 274.5,-28 310.14,-28 336.313,-28"/>
<polygon fill="mistyrose" stroke="mistyrose" points="271,-61.7333 274.5,-71.7333 278,-61.7333 271,-61.7333"/>
</g>
<!-- dcrec -->
<g id="node12" class="node"><title>dcrec</title>
<path fill="mediumpurple" stroke="black" d="M723.5,-468C723.5,-468 693.5,-468 693.5,-468 687.5,-468 681.5,-462 681.5,-456 681.5,-456 681.5,-444 681.5,-444 681.5,-438 687.5,-432 693.5,-432 693.5,-432 723.5,-432 723.5,-432 729.5,-432 735.5,-438 735.5,-444 735.5,-444 735.5,-456 735.5,-456 735.5,-462 729.5,-468 723.5,-468"/>
<text text-anchor="middle" x="708.5" y="-446.3" font-family="Times New Roman,serif" font-size="14.00">dcrec</text>
</g>
<!-- dcrec&#45;&gt;dcrutil -->
<g id="edge10" class="edge"><title>dcrec&#45;&gt;dcrutil</title>
<path fill="none" stroke="mediumpurple" d="M688.75,-421.965C688.75,-421.965 688.75,-384 688.75,-384 688.75,-384 633.188,-384 595.206,-384"/>
<polygon fill="mediumpurple" stroke="mediumpurple" points="685.25,-421.965 688.75,-431.965 692.25,-421.965 685.25,-421.965"/>
</g>
<!-- edwards -->
<g id="node13" class="node"><title>edwards</title>
<path fill="lightseagreen" stroke="black" d="M369.5,-468C369.5,-468 277.5,-468 277.5,-468 271.5,-468 265.5,-462 265.5,-456 265.5,-456 265.5,-444 265.5,-444 265.5,-438 271.5,-432 277.5,-432 277.5,-432 369.5,-432 369.5,-432 375.5,-432 381.5,-438 381.5,-444 381.5,-444 381.5,-456 381.5,-456 381.5,-462 375.5,-468 369.5,-468"/>
<text text-anchor="middle" x="323.5" y="-446.3" font-family="Times New Roman,serif" font-size="14.00">dcrec/edwards/v2</text>
</g>
<!-- edwards&#45;&gt;dcrutil -->
<g id="edge11" class="edge"><title>edwards&#45;&gt;dcrutil</title>
<path fill="none" stroke="lightseagreen" d="M323.5,-421.578C323.5,-421.578 323.5,-414 323.5,-414 323.5,-414 538.25,-414 538.25,-414 538.25,-414 538.25,-405.279 538.25,-396.422"/>
<polygon fill="lightseagreen" stroke="lightseagreen" points="320,-421.578 323.5,-431.578 327,-421.578 320,-421.578"/>
</g>
<!-- secp256k1 -->
<g id="node14" class="node"><title>secp256k1</title>
<path fill="mediumvioletred" stroke="black" d="M517,-468C517,-468 412,-468 412,-468 406,-468 400,-462 400,-456 400,-456 400,-444 400,-444 400,-438 406,-432 412,-432 412,-432 517,-432 517,-432 523,-432 529,-438 529,-444 529,-444 529,-456 529,-456 529,-462 523,-468 517,-468"/>
<text text-anchor="middle" x="464.5" y="-446.3" font-family="Times New Roman,serif" font-size="14.00">dcrec/secp256k1/v4</text>
</g>
<!-- secp256k1&#45;&gt;dcrutil -->
<g id="edge12" class="edge"><title>secp256k1&#45;&gt;dcrutil</title>
<path fill="none" stroke="mediumvioletred" d="M522.5,-421.909C522.5,-421.909 522.5,-372 522.5,-372 522.5,-372 523.623,-372 525.482,-372"/>
<polygon fill="mediumvioletred" stroke="mediumvioletred" points="519,-421.909 522.5,-431.909 526,-421.909 519,-421.909"/>
</g>
<!-- database -->
<g id="node16" class="node"><title>database</title>
<path fill="dodgerblue" stroke="black" d="M590,-324C590,-324 531,-324 531,-324 525,-324 519,-318 519,-312 519,-312 519,-300 519,-300 519,-294 525,-288 531,-288 531,-288 590,-288 590,-288 596,-288 602,-294 602,-300 602,-300 602,-312 602,-312 602,-318 596,-324 590,-324"/>
<text text-anchor="middle" x="560.5" y="-302.3" font-family="Times New Roman,serif" font-size="14.00">database/v2</text>
</g>
<!-- dcrutil&#45;&gt;database -->
<g id="edge13" class="edge"><title>dcrutil&#45;&gt;database</title>
<path fill="none" stroke="burlywood" d="M560.5,-349.831C560.5,-349.831 560.5,-324.413 560.5,-324.413"/>
<polygon fill="burlywood" stroke="burlywood" points="557,-349.831 560.5,-359.831 564,-349.831 557,-349.831"/>
</g>
<!-- hdkeychain -->
<g id="node17" class="node"><title>hdkeychain</title>
<path fill="deepskyblue" stroke="black" d="M609,-108C609,-108 536,-108 536,-108 530,-108 524,-102 524,-96 524,-96 524,-84 524,-84 524,-78 530,-72 536,-72 536,-72 609,-72 609,-72 615,-72 621,-78 621,-84 621,-84 621,-96 621,-96 621,-102 615,-108 609,-108"/>
<text text-anchor="middle" x="572.5" y="-86.3" font-family="Times New Roman,serif" font-size="14.00">hdkeychain/v3</text>
</g>
<!-- dcrutil&#45;&gt;hdkeychain -->
<g id="edge14" class="edge"><title>dcrutil&#45;&gt;hdkeychain</title>
<path fill="none" stroke="burlywood" d="M605.083,-372C605.083,-372 611.5,-372 611.5,-372 611.5,-372 611.5,-170.31 611.5,-108.069"/>
<polygon fill="burlywood" stroke="burlywood" points="605.083,-368.5 595.083,-372 605.083,-375.5 605.083,-368.5"/>
</g>
<!-- dcrutil&#45;&gt;txscript -->
<g id="edge15" class="edge"><title>dcrutil&#45;&gt;txscript</title>
<path fill="none" stroke="burlywood" d="M515.958,-384C515.958,-384 485.25,-384 485.25,-384 485.25,-384 485.25,-347.133 485.25,-324.091"/>
<polygon fill="burlywood" stroke="burlywood" points="515.958,-387.5 525.958,-384 515.958,-380.5 515.958,-387.5"/>
</g>
<!-- stake -->
<g id="node19" class="node"><title>stake</title>
<path fill="bisque" stroke="black" d="M590,-252C590,-252 487,-252 487,-252 481,-252 475,-246 475,-240 475,-240 475,-228 475,-228 475,-222 481,-216 487,-216 487,-216 590,-216 590,-216 596,-216 602,-222 602,-228 602,-228 602,-240 602,-240 602,-246 596,-252 590,-252"/>
<text text-anchor="middle" x="538.5" y="-230.3" font-family="Times New Roman,serif" font-size="14.00">blockchain/stake/v3</text>
</g>
<!-- database&#45;&gt;stake -->
<g id="edge16" class="edge"><title>database&#45;&gt;stake</title>
<path fill="none" stroke="dodgerblue" d="M560.5,-277.831C560.5,-277.831 560.5,-252.413 560.5,-252.413"/>
<polygon fill="dodgerblue" stroke="dodgerblue" points="557,-277.831 560.5,-287.831 564,-277.831 557,-277.831"/>
</g>
<!-- hdkeychain&#45;&gt;dcrd -->
<g id="edge30" class="edge"><title>hdkeychain&#45;&gt;dcrd</title>
<path fill="none" stroke="deepskyblue" d="M572.5,-61.8711C572.5,-61.8711 572.5,-21 572.5,-21 572.5,-21 447.475,-21 390.823,-21"/>
<polygon fill="deepskyblue" stroke="deepskyblue" points="569,-61.871 572.5,-71.8711 576,-61.8711 569,-61.871"/>
</g>
<!-- txscript&#45;&gt;stake -->
<g id="edge17" class="edge"><title>txscript&#45;&gt;stake</title>
<path fill="none" stroke="mediumspringgreen" d="M487.75,-277.831C487.75,-277.831 487.75,-252.413 487.75,-252.413"/>
<polygon fill="mediumspringgreen" stroke="mediumspringgreen" points="484.25,-277.831 487.75,-287.831 491.25,-277.831 484.25,-277.831"/>
</g>
<!-- peer -->
<g id="node24" class="node"><title>peer</title>
<path fill="khaki" stroke="black" d="M380.5,-108C380.5,-108 346.5,-108 346.5,-108 340.5,-108 334.5,-102 334.5,-96 334.5,-96 334.5,-84 334.5,-84 334.5,-78 340.5,-72 346.5,-72 346.5,-72 380.5,-72 380.5,-72 386.5,-72 392.5,-78 392.5,-84 392.5,-84 392.5,-96 392.5,-96 392.5,-102 386.5,-108 380.5,-108"/>
<text text-anchor="middle" x="363.5" y="-86.3" font-family="Times New Roman,serif" font-size="14.00">peer/v2</text>
</g>
<!-- txscript&#45;&gt;peer -->
<g id="edge18" class="edge"><title>txscript&#45;&gt;peer</title>
<path fill="none" stroke="mediumspringgreen" d="M449.75,-277.578C449.75,-277.578 449.75,-270 449.75,-270 449.75,-270 386.5,-270 386.5,-270 386.5,-270 386.5,-154.011 386.5,-108.25"/>
<polygon fill="mediumspringgreen" stroke="mediumspringgreen" points="446.25,-277.578 449.75,-287.578 453.25,-277.578 446.25,-277.578"/>
</g>
<!-- gcs -->
<g id="node21" class="node"><title>gcs</title>
<path fill="gold" stroke="black" d="M553.5,-180C553.5,-180 523.5,-180 523.5,-180 517.5,-180 511.5,-174 511.5,-168 511.5,-168 511.5,-156 511.5,-156 511.5,-150 517.5,-144 523.5,-144 523.5,-144 553.5,-144 553.5,-144 559.5,-144 565.5,-150 565.5,-156 565.5,-156 565.5,-168 565.5,-168 565.5,-174 559.5,-180 553.5,-180"/>
<text text-anchor="middle" x="538.5" y="-158.3" font-family="Times New Roman,serif" font-size="14.00">gcs</text>
</g>
<!-- stake&#45;&gt;gcs -->
<g id="edge19" class="edge"><title>stake&#45;&gt;gcs</title>
<path fill="none" stroke="bisque" d="M538.5,-205.831C538.5,-205.831 538.5,-180.413 538.5,-180.413"/>
<polygon fill="bisque" stroke="bisque" points="535,-205.831 538.5,-215.831 542,-205.831 535,-205.831"/>
</g>
<!-- blockchain -->
<g id="node22" class="node"><title>blockchain</title>
<path fill="orchid" stroke="black" d="M494,-108C494,-108 423,-108 423,-108 417,-108 411,-102 411,-96 411,-96 411,-84 411,-84 411,-78 417,-72 423,-72 423,-72 494,-72 494,-72 500,-72 506,-78 506,-84 506,-84 506,-96 506,-96 506,-102 500,-108 494,-108"/>
<text text-anchor="middle" x="458.5" y="-86.3" font-family="Times New Roman,serif" font-size="14.00">blockchain/v3</text>
</g>
<!-- standalone&#45;&gt;blockchain -->
<g id="edge20" class="edge"><title>standalone&#45;&gt;blockchain</title>
<path fill="none" stroke="#8b1a1a" d="M416.643,-306C416.643,-306 417.75,-306 417.75,-306 417.75,-306 417.75,-159.958 417.75,-108.045"/>
<polygon fill="#8b1a1a" stroke="#8b1a1a" points="416.684,-302.5 406.684,-306 416.684,-309.5 416.684,-302.5"/>
</g>
<!-- gcs&#45;&gt;blockchain -->
<g id="edge21" class="edge"><title>gcs&#45;&gt;blockchain</title>
<path fill="none" stroke="gold" d="M517.75,-133.831C517.75,-133.831 517.75,-90 517.75,-90 517.75,-90 512.932,-90 506.044,-90"/>
<polygon fill="gold" stroke="gold" points="514.25,-133.831 517.75,-143.831 521.25,-133.831 514.25,-133.831"/>
</g>
<!-- gcs&#45;&gt;rpcclient -->
<g id="edge22" class="edge"><title>gcs&#45;&gt;rpcclient</title>
<path fill="none" stroke="gold" d="M575.566,-162C575.566,-162 651.5,-162 651.5,-162 651.5,-162 651.5,-129.498 651.5,-108.169"/>
<polygon fill="gold" stroke="gold" points="575.566,-158.5 565.566,-162 575.566,-165.5 575.566,-158.5"/>
</g>
<!-- blockchain&#45;&gt;dcrd -->
<g id="edge26" class="edge"><title>blockchain&#45;&gt;dcrd</title>
<path fill="none" stroke="orchid" d="M458.5,-61.7333C458.5,-61.7333 458.5,-28 458.5,-28 458.5,-28 418.796,-28 390.723,-28"/>
<polygon fill="orchid" stroke="orchid" points="455,-61.7333 458.5,-71.7333 462,-61.7333 455,-61.7333"/>
</g>
<!-- lru -->
<g id="node23" class="node"><title>lru</title>
<path fill="#3a5fcd" stroke="black" d="M368.5,-180C368.5,-180 338.5,-180 338.5,-180 332.5,-180 326.5,-174 326.5,-168 326.5,-168 326.5,-156 326.5,-156 326.5,-150 332.5,-144 338.5,-144 338.5,-144 368.5,-144 368.5,-144 374.5,-144 380.5,-150 380.5,-156 380.5,-156 380.5,-168 380.5,-168 380.5,-174 374.5,-180 368.5,-180"/>
<text text-anchor="middle" x="353.5" y="-158.3" font-family="Times New Roman,serif" font-size="14.00">lru</text>
</g>
<!-- lru&#45;&gt;peer -->
<g id="edge23" class="edge"><title>lru&#45;&gt;peer</title>
<path fill="none" stroke="#3a5fcd" d="M357.5,-133.831C357.5,-133.831 357.5,-108.413 357.5,-108.413"/>
<polygon fill="#3a5fcd" stroke="#3a5fcd" points="354,-133.831 357.5,-143.831 361,-133.831 354,-133.831"/>
</g>
<!-- peer&#45;&gt;dcrd -->
<g id="edge33" class="edge"><title>peer&#45;&gt;dcrd</title>
<path fill="none" stroke="khaki" d="M363.5,-61.8314C363.5,-61.8314 363.5,-36.4133 363.5,-36.4133"/>
<polygon fill="khaki" stroke="khaki" points="360,-61.8313 363.5,-71.8314 367,-61.8314 360,-61.8313"/>
</g>
<!-- rpcclient&#45;&gt;dcrd -->
<g id="edge32" class="edge"><title>rpcclient&#45;&gt;dcrd</title>
<path fill="none" stroke="mediumseagreen" d="M680.5,-61.9891C680.5,-61.9891 680.5,-14 680.5,-14 680.5,-14 467.187,-14 390.527,-14"/>
<polygon fill="mediumseagreen" stroke="mediumseagreen" points="677,-61.989 680.5,-71.9891 684,-61.9891 677,-61.989"/>
</g>
<!-- apbf -->
<g id="node26" class="node"><title>apbf</title>
<path fill="goldenrod" stroke="black" d="M825,-108C825,-108 752,-108 752,-108 746,-108 740,-102 740,-96 740,-96 740,-84 740,-84 740,-78 746,-72 752,-72 752,-72 825,-72 825,-72 831,-72 837,-78 837,-84 837,-84 837,-96 837,-96 837,-102 831,-108 825,-108"/>
<text text-anchor="middle" x="788.5" y="-86.3" font-family="Times New Roman,serif" font-size="14.00">container/apbf</text>
</g>
<!-- apbf&#45;&gt;dcrd -->
<g id="edge34" class="edge"><title>apbf&#45;&gt;dcrd</title>
<path fill="none" stroke="goldenrod" d="M788.5,-61.9902C788.5,-61.9902 788.5,-7 788.5,-7 788.5,-7 484.534,-7 390.732,-7"/>
<polygon fill="goldenrod" stroke="goldenrod" points="785,-61.9902 788.5,-71.9902 792,-61.9903 785,-61.9902"/>
</g>
</g>
</svg>
