<?xml version="1.0" encoding="UTF-8" standalone="no"?>
<!DOCTYPE svg PUBLIC "-//W3C//DTD SVG 1.1//EN"
 "http://www.w3.org/Graphics/SVG/1.1/DTD/svg11.dtd">
<!-- Generated by graphviz version 2.38.0 (20140413.2041)
 -->
<!-- Title: %3 Pages: 1 -->
<svg width="860pt" height="720pt"
 viewBox="0.00 0.00 860.00 720.00" xmlns="http://www.w3.org/2000/svg" xmlns:xlink="http://www.w3.org/1999/xlink">
<g id="graph0" class="graph" transform="scale(1 1) rotate(0) translate(4 716)">
<title>%3</title>
<polygon fill="white" stroke="#000000" points="-4,4 -4,-716 856,-716 856,4 -4,4"/>
<text text-anchor="start" x="359.5" y="-694.6" font-family="Times New Roman,serif" text-decoration="underline" font-size="18.00">Module Hierarchy</text>
<!-- blake256 -->
<g id="node1" class="node"><title>blake256</title>
<path fill="cornflowerblue" stroke="black" d="M279,-684C279,-684 196,-684 196,-684 190,-684 184,-678 184,-672 184,-672 184,-660 184,-660 184,-654 190,-648 196,-648 196,-648 279,-648 279,-648 285,-648 291,-654 291,-660 291,-660 291,-672 291,-672 291,-678 285,-684 279,-684"/>
<text text-anchor="middle" x="237.5" y="-662.3" font-family="Times New Roman,serif" font-size="14.00">crypto/blake256</text>
</g>
<!-- chainhash -->
<g id="node5" class="node"><title>chainhash</title>
<path fill="aquamarine" stroke="black" d="M419.5,-684C419.5,-684 321.5,-684 321.5,-684 315.5,-684 309.5,-678 309.5,-672 309.5,-672 309.5,-660 309.5,-660 309.5,-654 315.5,-648 321.5,-648 321.5,-648 419.5,-648 419.5,-648 425.5,-648 431.5,-654 431.5,-660 431.5,-660 431.5,-672 431.5,-672 431.5,-678 425.5,-684 419.5,-684"/>
<text text-anchor="middle" x="370.5" y="-662.3" font-family="Times New Roman,serif" font-size="14.00">chaincfg/chainhash</text>
</g>
<!-- blake256&#45;&gt;chainhash -->
<g id="edge1" class="edge"><title>blake256&#45;&gt;chainhash</title>
<path fill="none" stroke="cornflowerblue" d="M301.213,-666C301.213,-666 309.172,-666 309.172,-666"/>
<polygon fill="cornflowerblue" stroke="cornflowerblue" points="301.213,-662.5 291.213,-666 301.213,-669.5 301.213,-662.5"/>
</g>
<!-- secp256k1 -->
<g id="node14" class="node"><title>secp256k1</title>
<path fill="mediumvioletred" stroke="black" d="M290,-540C290,-540 185,-540 185,-540 179,-540 173,-534 173,-528 173,-528 173,-516 173,-516 173,-510 179,-504 185,-504 185,-504 290,-504 290,-504 296,-504 302,-510 302,-516 302,-516 302,-528 302,-528 302,-534 296,-540 290,-540"/>
<text text-anchor="middle" x="237.5" y="-518.3" font-family="Times New Roman,serif" font-size="14.00">dcrec/secp256k1/v4</text>
</g>
<!-- blake256&#45;&gt;secp256k1 -->
<g id="edge2" class="edge"><title>blake256&#45;&gt;secp256k1</title>
<path fill="none" stroke="cornflowerblue" d="M237.5,-637.762C237.5,-637.762 237.5,-540.09 237.5,-540.09"/>
<polygon fill="cornflowerblue" stroke="cornflowerblue" points="234,-637.762 237.5,-647.762 241,-637.762 234,-637.762"/>
</g>
<!-- ripemd160 -->
<g id="node2" class="node"><title>ripemd160</title>
<path fill="darkturquoise" stroke="black" d="M658.5,-540C658.5,-540 566.5,-540 566.5,-540 560.5,-540 554.5,-534 554.5,-528 554.5,-528 554.5,-516 554.5,-516 554.5,-510 560.5,-504 566.5,-504 566.5,-504 658.5,-504 658.5,-504 664.5,-504 670.5,-510 670.5,-516 670.5,-516 670.5,-528 670.5,-528 670.5,-534 664.5,-540 658.5,-540"/>
<text text-anchor="middle" x="612.5" y="-518.3" font-family="Times New Roman,serif" font-size="14.00">crypto/ripemd160</text>
</g>
<!-- txscript -->
<g id="node18" class="node"><title>txscript</title>
<path fill="mediumspringgreen" stroke="black" d="M521.5,-468C521.5,-468 469.5,-468 469.5,-468 463.5,-468 457.5,-462 457.5,-456 457.5,-456 457.5,-444 457.5,-444 457.5,-438 463.5,-432 469.5,-432 469.5,-432 521.5,-432 521.5,-432 527.5,-432 533.5,-438 533.5,-444 533.5,-444 533.5,-456 533.5,-456 533.5,-462 527.5,-468 521.5,-468"/>
<text text-anchor="middle" x="495.5" y="-446.3" font-family="Times New Roman,serif" font-size="14.00">txscript/v4</text>
</g>
<!-- ripemd160&#45;&gt;txscript -->
<g id="edge10" class="edge"><title>ripemd160&#45;&gt;txscript</title>
<path fill="none" stroke="darkturquoise" d="M569.25,-493.965C569.25,-493.965 569.25,-456 569.25,-456 569.25,-456 551.667,-456 533.671,-456"/>
<polygon fill="darkturquoise" stroke="darkturquoise" points="565.75,-493.965 569.25,-503.965 572.75,-493.965 565.75,-493.965"/>
</g>
<!-- certgen -->
<g id="node3" class="node"><title>certgen</title>
<path fill="darkkhaki" stroke="black" d="M473,-108C473,-108 440,-108 440,-108 434,-108 428,-102 428,-96 428,-96 428,-84 428,-84 428,-78 434,-72 440,-72 440,-72 473,-72 473,-72 479,-72 485,-78 485,-84 485,-84 485,-96 485,-96 485,-102 479,-108 473,-108"/>
<text text-anchor="middle" x="456.5" y="-86.3" font-family="Times New Roman,serif" font-size="14.00">certgen</text>
</g>
<!-- dcrd -->
<g id="node27" class="node"><title>dcrd</title>
<path fill="chocolate" stroke="black" d="M471.5,-36C471.5,-36 441.5,-36 441.5,-36 435.5,-36 429.5,-30 429.5,-24 429.5,-24 429.5,-12 429.5,-12 429.5,-6 435.5,-0 441.5,-0 441.5,-0 471.5,-0 471.5,-0 477.5,-0 483.5,-6 483.5,-12 483.5,-12 483.5,-24 483.5,-24 483.5,-30 477.5,-36 471.5,-36"/>
<text text-anchor="middle" x="456.5" y="-14.3" font-family="Times New Roman,serif" font-size="14.00">dcrd</text>
</g>
<!-- certgen&#45;&gt;dcrd -->
<g id="edge27" class="edge"><title>certgen&#45;&gt;dcrd</title>
<path fill="none" stroke="darkkhaki" d="M456.5,-61.8314C456.5,-61.8314 456.5,-36.4133 456.5,-36.4133"/>
<polygon fill="darkkhaki" stroke="darkkhaki" points="453,-61.8313 456.5,-71.8314 460,-61.8314 453,-61.8313"/>
</g>
<!-- bech32 -->
<g id="node4" class="node"><title>bech32</title>
<path fill="#cdc0b0" stroke="black" d="M548,-108C548,-108 515,-108 515,-108 509,-108 503,-102 503,-96 503,-96 503,-84 503,-84 503,-78 509,-72 515,-72 515,-72 548,-72 548,-72 554,-72 560,-78 560,-84 560,-84 560,-96 560,-96 560,-102 554,-108 548,-108"/>
<text text-anchor="middle" x="531.5" y="-86.3" font-family="Times New Roman,serif" font-size="14.00">bech32</text>
</g>
<!-- bech32&#45;&gt;dcrd -->
<g id="edge28" class="edge"><title>bech32&#45;&gt;dcrd</title>
<path fill="none" stroke="#cdc0b0" d="M531.5,-61.7333C531.5,-61.7333 531.5,-28 531.5,-28 531.5,-28 505.06,-28 483.577,-28"/>
<polygon fill="#cdc0b0" stroke="#cdc0b0" points="528,-61.7333 531.5,-71.7333 535,-61.7333 528,-61.7333"/>
</g>
<!-- dcrjson -->
<g id="node6" class="node"><title>dcrjson</title>
<path fill="indianred" stroke="black" d="M596.5,-612C596.5,-612 544.5,-612 544.5,-612 538.5,-612 532.5,-606 532.5,-600 532.5,-600 532.5,-588 532.5,-588 532.5,-582 538.5,-576 544.5,-576 544.5,-576 596.5,-576 596.5,-576 602.5,-576 608.5,-582 608.5,-588 608.5,-588 608.5,-600 608.5,-600 608.5,-606 602.5,-612 596.5,-612"/>
<text text-anchor="middle" x="570.5" y="-590.3" font-family="Times New Roman,serif" font-size="14.00">dcrjson/v4</text>
</g>
<!-- chainhash&#45;&gt;dcrjson -->
<g id="edge4" class="edge"><title>chainhash&#45;&gt;dcrjson</title>
<path fill="none" stroke="aquamarine" d="M441.593,-666C441.593,-666 570.5,-666 570.5,-666 570.5,-666 570.5,-633.498 570.5,-612.169"/>
<polygon fill="aquamarine" stroke="aquamarine" points="441.593,-662.5 431.593,-666 441.593,-669.5 441.593,-662.5"/>
</g>
<!-- wire -->
<g id="node8" class="node"><title>wire</title>
<path fill="coral" stroke="black" d="M159.5,-612C159.5,-612 129.5,-612 129.5,-612 123.5,-612 117.5,-606 117.5,-600 117.5,-600 117.5,-588 117.5,-588 117.5,-582 123.5,-576 129.5,-576 129.5,-576 159.5,-576 159.5,-576 165.5,-576 171.5,-582 171.5,-588 171.5,-588 171.5,-600 171.5,-600 171.5,-606 165.5,-612 159.5,-612"/>
<text text-anchor="middle" x="144.5" y="-590.3" font-family="Times New Roman,serif" font-size="14.00">wire</text>
</g>
<!-- chainhash&#45;&gt;wire -->
<g id="edge5" class="edge"><title>chainhash&#45;&gt;wire</title>
<path fill="none" stroke="aquamarine" d="M316.75,-637.965C316.75,-637.965 316.75,-600 316.75,-600 316.75,-600 220.363,-600 171.794,-600"/>
<polygon fill="aquamarine" stroke="aquamarine" points="313.25,-637.965 316.75,-647.965 320.25,-637.965 313.25,-637.965"/>
</g>
<!-- types -->
<g id="node7" class="node"><title>types</title>
<path fill="tomato" stroke="black" d="M759.5,-468C759.5,-468 651.5,-468 651.5,-468 645.5,-468 639.5,-462 639.5,-456 639.5,-456 639.5,-444 639.5,-444 639.5,-438 645.5,-432 651.5,-432 651.5,-432 759.5,-432 759.5,-432 765.5,-432 771.5,-438 771.5,-444 771.5,-444 771.5,-456 771.5,-456 771.5,-462 765.5,-468 759.5,-468"/>
<text text-anchor="middle" x="705.5" y="-446.3" font-family="Times New Roman,serif" font-size="14.00">rpc/jsonrpc/types/v3</text>
</g>
<!-- dcrjson&#45;&gt;types -->
<g id="edge24" class="edge"><title>dcrjson&#45;&gt;types</title>
<path fill="none" stroke="tomato" d="M618.623,-594C618.623,-594 679.5,-594 679.5,-594 679.5,-594 679.5,-506.986 679.5,-468.238"/>
<polygon fill="tomato" stroke="tomato" points="618.623,-590.5 608.623,-594 618.623,-597.5 618.623,-590.5"/>
</g>
<!-- rpcclient -->
<g id="node25" class="node"><title>rpcclient</title>
<path fill="mediumseagreen" stroke="black" d="M648.5,-108C648.5,-108 590.5,-108 590.5,-108 584.5,-108 578.5,-102 578.5,-96 578.5,-96 578.5,-84 578.5,-84 578.5,-78 584.5,-72 590.5,-72 590.5,-72 648.5,-72 648.5,-72 654.5,-72 660.5,-78 660.5,-84 660.5,-84 660.5,-96 660.5,-96 660.5,-102 654.5,-108 648.5,-108"/>
<text text-anchor="middle" x="619.5" y="-86.3" font-family="Times New Roman,serif" font-size="14.00">rpcclient/v6</text>
</g>
<!-- types&#45;&gt;rpcclient -->
<g id="edge25" class="edge"><title>types&#45;&gt;rpcclient</title>
<path fill="none" stroke="indianred" d="M650,-421.653C650,-421.653 650,-108.31 650,-108.31"/>
<polygon fill="indianred" stroke="indianred" points="646.5,-421.653 650,-431.653 653.5,-421.653 646.5,-421.653"/>
</g>
<!-- addrmgr -->
<g id="node9" class="node"><title>addrmgr</title>
<path fill="lightsalmon" stroke="black" d="M69,-108C69,-108 12,-108 12,-108 6,-108 0,-102 0,-96 0,-96 0,-84 0,-84 0,-78 6,-72 12,-72 12,-72 69,-72 69,-72 75,-72 81,-78 81,-84 81,-84 81,-96 81,-96 81,-102 75,-108 69,-108"/>
<text text-anchor="middle" x="40.5" y="-86.3" font-family="Times New Roman,serif" font-size="14.00">addrmgr/v2</text>
</g>
<!-- wire&#45;&gt;addrmgr -->
<g id="edge6" class="edge"><title>wire&#45;&gt;addrmgr</title>
<path fill="none" stroke="coral" d="M107.447,-594C107.447,-594 40.5,-594 40.5,-594 40.5,-594 40.5,-198.592 40.5,-108.235"/>
<polygon fill="coral" stroke="coral" points="107.447,-597.5 117.447,-594 107.447,-590.5 107.447,-597.5"/>
</g>
<!-- chaincfg -->
<g id="node10" class="node"><title>chaincfg</title>
<path fill="cadetblue" stroke="black" d="M524,-540C524,-540 467,-540 467,-540 461,-540 455,-534 455,-528 455,-528 455,-516 455,-516 455,-510 461,-504 467,-504 467,-504 524,-504 524,-504 530,-504 536,-510 536,-516 536,-516 536,-528 536,-528 536,-534 530,-540 524,-540"/>
<text text-anchor="middle" x="495.5" y="-518.3" font-family="Times New Roman,serif" font-size="14.00">chaincfg/v3</text>
</g>
<!-- wire&#45;&gt;chaincfg -->
<g id="edge7" class="edge"><title>wire&#45;&gt;chaincfg</title>
<path fill="none" stroke="coral" d="M181.614,-588C181.614,-588 493.75,-588 493.75,-588 493.75,-588 493.75,-559.576 493.75,-540.035"/>
<polygon fill="coral" stroke="coral" points="181.614,-584.5 171.614,-588 181.614,-591.5 181.614,-584.5"/>
</g>
<!-- connmgr -->
<g id="node11" class="node"><title>connmgr</title>
<path fill="mistyrose" stroke="black" d="M170,-108C170,-108 111,-108 111,-108 105,-108 99,-102 99,-96 99,-96 99,-84 99,-84 99,-78 105,-72 111,-72 111,-72 170,-72 170,-72 176,-72 182,-78 182,-84 182,-84 182,-96 182,-96 182,-102 176,-108 170,-108"/>
<text text-anchor="middle" x="140.5" y="-86.3" font-family="Times New Roman,serif" font-size="14.00">connmgr/v3</text>
</g>
<!-- wire&#45;&gt;connmgr -->
<g id="edge8" class="edge"><title>wire&#45;&gt;connmgr</title>
<path fill="none" stroke="coral" d="M129.5,-565.765C129.5,-565.765 129.5,-108.211 129.5,-108.211"/>
<polygon fill="coral" stroke="coral" points="126,-565.765 129.5,-575.765 133,-565.765 126,-565.765"/>
</g>
<!-- standalone -->
<g id="node20" class="node"><title>standalone</title>
<path fill="#8b1a1a" stroke="black" d="M287.5,-396C287.5,-396 153.5,-396 153.5,-396 147.5,-396 141.5,-390 141.5,-384 141.5,-384 141.5,-372 141.5,-372 141.5,-366 147.5,-360 153.5,-360 153.5,-360 287.5,-360 287.5,-360 293.5,-360 299.5,-366 299.5,-372 299.5,-372 299.5,-384 299.5,-384 299.5,-390 293.5,-396 287.5,-396"/>
<text text-anchor="middle" x="220.5" y="-374.3" font-family="Times New Roman,serif" font-size="14.00">blockchain/standalone/v2</text>
</g>
<!-- wire&#45;&gt;standalone -->
<g id="edge9" class="edge"><title>wire&#45;&gt;standalone</title>
<path fill="none" stroke="coral" d="M156.5,-565.955C156.5,-565.955 156.5,-396.145 156.5,-396.145"/>
<polygon fill="coral" stroke="coral" points="153,-565.955 156.5,-575.955 160,-565.956 153,-565.955"/>
</g>
<!-- addrmgr&#45;&gt;dcrd -->
<g id="edge29" class="edge"><title>addrmgr&#45;&gt;dcrd</title>
<path fill="none" stroke="lightsalmon" d="M40.5,-61.9902C40.5,-61.9902 40.5,-7 40.5,-7 40.5,-7 336.656,-7 429.205,-7"/>
<polygon fill="lightsalmon" stroke="lightsalmon" points="37.0001,-61.9902 40.5,-71.9902 44.0001,-61.9903 37.0001,-61.9902"/>
</g>
<!-- chaincfg&#45;&gt;txscript -->
<g id="edge3" class="edge"><title>chaincfg&#45;&gt;txscript</title>
<path fill="none" stroke="cadetblue" d="M482.833,-493.831C482.833,-493.831 482.833,-468.413 482.833,-468.413"/>
<polygon fill="cadetblue" stroke="cadetblue" points="479.333,-493.831 482.833,-503.831 486.333,-493.831 479.333,-493.831"/>
</g>
<!-- connmgr&#45;&gt;dcrd -->
<g id="edge31" class="edge"><title>connmgr&#45;&gt;dcrd</title>
<path fill="none" stroke="mistyrose" d="M140.5,-61.9891C140.5,-61.9891 140.5,-14 140.5,-14 140.5,-14 352.634,-14 429.285,-14"/>
<polygon fill="mistyrose" stroke="mistyrose" points="137,-61.989 140.5,-71.9891 144,-61.9891 137,-61.989"/>
</g>
<!-- dcrec -->
<g id="node12" class="node"><title>dcrec</title>
<path fill="mediumpurple" stroke="black" d="M730.5,-540C730.5,-540 700.5,-540 700.5,-540 694.5,-540 688.5,-534 688.5,-528 688.5,-528 688.5,-516 688.5,-516 688.5,-510 694.5,-504 700.5,-504 700.5,-504 730.5,-504 730.5,-504 736.5,-504 742.5,-510 742.5,-516 742.5,-516 742.5,-528 742.5,-528 742.5,-534 736.5,-540 730.5,-540"/>
<text text-anchor="middle" x="715.5" y="-518.3" font-family="Times New Roman,serif" font-size="14.00">dcrec</text>
</g>
<!-- dcrec&#45;&gt;txscript -->
<g id="edge11" class="edge"><title>dcrec&#45;&gt;txscript</title>
<path fill="none" stroke="mediumpurple" d="M715.5,-493.578C715.5,-493.578 715.5,-486 715.5,-486 715.5,-486 508.167,-486 508.167,-486 508.167,-486 508.167,-477.279 508.167,-468.422"/>
<polygon fill="mediumpurple" stroke="mediumpurple" points="712,-493.578 715.5,-503.578 719,-493.578 712,-493.578"/>
</g>
<!-- edwards -->
<g id="node13" class="node"><title>edwards</title>
<path fill="lightseagreen" stroke="black" d="M424.5,-540C424.5,-540 332.5,-540 332.5,-540 326.5,-540 320.5,-534 320.5,-528 320.5,-528 320.5,-516 320.5,-516 320.5,-510 326.5,-504 332.5,-504 332.5,-504 424.5,-504 424.5,-504 430.5,-504 436.5,-510 436.5,-516 436.5,-516 436.5,-528 436.5,-528 436.5,-534 430.5,-540 424.5,-540"/>
<text text-anchor="middle" x="378.5" y="-518.3" font-family="Times New Roman,serif" font-size="14.00">dcrec/edwards/v2</text>
</g>
<!-- edwards&#45;&gt;txscript -->
<g id="edge12" class="edge"><title>edwards&#45;&gt;txscript</title>
<path fill="none" stroke="lightseagreen" d="M419,-493.778C419,-493.778 419,-459 419,-459 419,-459 438.125,-459 457.25,-459"/>
<polygon fill="lightseagreen" stroke="lightseagreen" points="415.5,-493.778 419,-503.778 422.5,-493.778 415.5,-493.778"/>
</g>
<!-- secp256k1&#45;&gt;txscript -->
<g id="edge13" class="edge"><title>secp256k1&#45;&gt;txscript</title>
<path fill="none" stroke="mediumvioletred" d="M236.25,-493.831C236.25,-493.831 236.25,-450 236.25,-450 236.25,-450 385.132,-450 457.247,-450"/>
<polygon fill="mediumvioletred" stroke="mediumvioletred" points="232.75,-493.831 236.25,-503.831 239.75,-493.831 232.75,-493.831"/>
</g>
<!-- dcrutil -->
<g id="node15" class="node"><title>dcrutil</title>
<path fill="burlywood" stroke="black" d="M518,-396C518,-396 473,-396 473,-396 467,-396 461,-390 461,-384 461,-384 461,-372 461,-372 461,-366 467,-360 473,-360 473,-360 518,-360 518,-360 524,-360 530,-366 530,-372 530,-372 530,-384 530,-384 530,-390 524,-396 518,-396"/>
<text text-anchor="middle" x="495.5" y="-374.3" font-family="Times New Roman,serif" font-size="14.00">dcrutil/v4</text>
</g>
<!-- database -->
<g id="node16" class="node"><title>database</title>
<path fill="dodgerblue" stroke="black" d="M525,-324C525,-324 466,-324 466,-324 460,-324 454,-318 454,-312 454,-312 454,-300 454,-300 454,-294 460,-288 466,-288 466,-288 525,-288 525,-288 531,-288 537,-294 537,-300 537,-300 537,-312 537,-312 537,-318 531,-324 525,-324"/>
<text text-anchor="middle" x="495.5" y="-302.3" font-family="Times New Roman,serif" font-size="14.00">database/v3</text>
</g>
<!-- dcrutil&#45;&gt;database -->
<g id="edge17" class="edge"><title>dcrutil&#45;&gt;database</title>
<path fill="none" stroke="burlywood" d="M495.5,-349.831C495.5,-349.831 495.5,-324.413 495.5,-324.413"/>
<polygon fill="burlywood" stroke="burlywood" points="492,-349.831 495.5,-359.831 499,-349.831 492,-349.831"/>
</g>
<!-- stake -->
<g id="node19" class="node"><title>stake</title>
<path fill="bisque" stroke="black" d="M547,-252C547,-252 444,-252 444,-252 438,-252 432,-246 432,-240 432,-240 432,-228 432,-228 432,-222 438,-216 444,-216 444,-216 547,-216 547,-216 553,-216 559,-222 559,-228 559,-228 559,-240 559,-240 559,-246 553,-252 547,-252"/>
<text text-anchor="middle" x="495.5" y="-230.3" font-family="Times New Roman,serif" font-size="14.00">blockchain/stake/v4</text>
</g>
<!-- database&#45;&gt;stake -->
<g id="edge18" class="edge"><title>database&#45;&gt;stake</title>
<path fill="none" stroke="dodgerblue" d="M495.5,-277.831C495.5,-277.831 495.5,-252.413 495.5,-252.413"/>
<polygon fill="dodgerblue" stroke="dodgerblue" points="492,-277.831 495.5,-287.831 499,-277.831 492,-277.831"/>
</g>
<!-- hdkeychain -->
<g id="node17" class="node"><title>hdkeychain</title>
<path fill="deepskyblue" stroke="black" d="M398,-108C398,-108 325,-108 325,-108 319,-108 313,-102 313,-96 313,-96 313,-84 313,-84 313,-78 319,-72 325,-72 325,-72 398,-72 398,-72 404,-72 410,-78 410,-84 410,-84 410,-96 410,-96 410,-102 404,-108 398,-108"/>
<text text-anchor="middle" x="361.5" y="-86.3" font-family="Times New Roman,serif" font-size="14.00">hdkeychain/v3</text>
</g>
<!-- hdkeychain&#45;&gt;dcrd -->
<g id="edge30" class="edge"><title>hdkeychain&#45;&gt;dcrd</title>
<path fill="none" stroke="deepskyblue" d="M361.5,-61.7333C361.5,-61.7333 361.5,-28 361.5,-28 361.5,-28 401.204,-28 429.277,-28"/>
<polygon fill="deepskyblue" stroke="deepskyblue" points="358,-61.7333 361.5,-71.7333 365,-61.7333 358,-61.7333"/>
</g>
<!-- txscript&#45;&gt;dcrutil -->
<g id="edge14" class="edge"><title>txscript&#45;&gt;dcrutil</title>
<path fill="none" stroke="mediumspringgreen" d="M495.5,-421.831C495.5,-421.831 495.5,-396.413 495.5,-396.413"/>
<polygon fill="mediumspringgreen" stroke="mediumspringgreen" points="492,-421.831 495.5,-431.831 499,-421.831 492,-421.831"/>
</g>
<!-- txscript&#45;&gt;hdkeychain -->
<g id="edge15" class="edge"><title>txscript&#45;&gt;hdkeychain</title>
<path fill="none" stroke="mediumspringgreen" d="M447.476,-441C447.476,-441 365.25,-441 365.25,-441 365.25,-441 365.25,-180.598 365.25,-108.377"/>
<polygon fill="mediumspringgreen" stroke="mediumspringgreen" points="447.476,-444.5 457.476,-441 447.476,-437.5 447.476,-444.5"/>
</g>
<!-- peer -->
<g id="node24" class="node"><title>peer</title>
<path fill="khaki" stroke="black" d="M724.5,-108C724.5,-108 690.5,-108 690.5,-108 684.5,-108 678.5,-102 678.5,-96 678.5,-96 678.5,-84 678.5,-84 678.5,-78 684.5,-72 690.5,-72 690.5,-72 724.5,-72 724.5,-72 730.5,-72 736.5,-78 736.5,-84 736.5,-84 736.5,-96 736.5,-96 736.5,-102 730.5,-108 724.5,-108"/>
<text text-anchor="middle" x="707.5" y="-86.3" font-family="Times New Roman,serif" font-size="14.00">peer/v3</text>
</g>
<!-- txscript&#45;&gt;peer -->
<g id="edge16" class="edge"><title>txscript&#45;&gt;peer</title>
<path fill="none" stroke="mediumspringgreen" d="M543.613,-444C543.613,-444 619.167,-444 619.167,-444 619.167,-444 619.167,-126 619.167,-126 619.167,-126 698.5,-126 698.5,-126 698.5,-126 698.5,-117.279 698.5,-108.422"/>
<polygon fill="mediumspringgreen" stroke="mediumspringgreen" points="543.613,-440.5 533.613,-444 543.613,-447.5 543.613,-440.5"/>
</g>
<!-- gcs -->
<g id="node21" class="node"><title>gcs</title>
<path fill="gold" stroke="black" d="M510.5,-180C510.5,-180 480.5,-180 480.5,-180 474.5,-180 468.5,-174 468.5,-168 468.5,-168 468.5,-156 468.5,-156 468.5,-150 474.5,-144 480.5,-144 480.5,-144 510.5,-144 510.5,-144 516.5,-144 522.5,-150 522.5,-156 522.5,-156 522.5,-168 522.5,-168 522.5,-174 516.5,-180 510.5,-180"/>
<text text-anchor="middle" x="495.5" y="-158.3" font-family="Times New Roman,serif" font-size="14.00">gcs/v3</text>
</g>
<!-- stake&#45;&gt;gcs -->
<g id="edge19" class="edge"><title>stake&#45;&gt;gcs</title>
<path fill="none" stroke="bisque" d="M495.5,-205.831C495.5,-205.831 495.5,-180.413 495.5,-180.413"/>
<polygon fill="bisque" stroke="bisque" points="492,-205.831 495.5,-215.831 499,-205.831 492,-205.831"/>
</g>
<!-- blockchain -->
<g id="node22" class="node"><title>blockchain</title>
<path fill="orchid" stroke="black" d="M283,-108C283,-108 212,-108 212,-108 206,-108 200,-102 200,-96 200,-96 200,-84 200,-84 200,-78 206,-72 212,-72 212,-72 283,-72 283,-72 289,-72 295,-78 295,-84 295,-84 295,-96 295,-96 295,-102 289,-108 283,-108"/>
<text text-anchor="middle" x="247.5" y="-86.3" font-family="Times New Roman,serif" font-size="14.00">blockchain/v3</text>
</g>
<!-- standalone&#45;&gt;blockchain -->
<g id="edge20" class="edge"><title>standalone&#45;&gt;blockchain</title>
<path fill="none" stroke="#8b1a1a" d="M231.667,-349.984C231.667,-349.984 231.667,-108.009 231.667,-108.009"/>
<polygon fill="#8b1a1a" stroke="#8b1a1a" points="228.167,-349.984 231.667,-359.984 235.167,-349.984 228.167,-349.984"/>
</g>
<!-- gcs&#45;&gt;blockchain -->
<g id="edge21" class="edge"><title>gcs&#45;&gt;blockchain</title>
<path fill="none" stroke="gold" d="M458.413,-162C458.413,-162 263.333,-162 263.333,-162 263.333,-162 263.333,-129.498 263.333,-108.169"/>
<polygon fill="gold" stroke="gold" points="458.413,-165.5 468.413,-162 458.413,-158.5 458.413,-165.5"/>
</g>
<!-- gcs&#45;&gt;rpcclient -->
<g id="edge22" class="edge"><title>gcs&#45;&gt;rpcclient</title>
<path fill="none" stroke="gold" d="M532.65,-162C532.65,-162 598.833,-162 598.833,-162 598.833,-162 598.833,-129.498 598.833,-108.169"/>
<polygon fill="gold" stroke="gold" points="532.65,-158.5 522.65,-162 532.65,-165.5 532.65,-158.5"/>
</g>
<!-- blockchain&#45;&gt;dcrd -->
<g id="edge26" class="edge"><title>blockchain&#45;&gt;dcrd</title>
<path fill="none" stroke="orchid" d="M247.5,-61.8711C247.5,-61.8711 247.5,-21 247.5,-21 247.5,-21 372.525,-21 429.177,-21"/>
<polygon fill="orchid" stroke="orchid" points="244,-61.871 247.5,-71.8711 251,-61.8711 244,-61.871"/>
</g>
<!-- lru -->
<g id="node23" class="node"><title>lru</title>
<path fill="#3a5fcd" stroke="black" d="M722.5,-180C722.5,-180 692.5,-180 692.5,-180 686.5,-180 680.5,-174 680.5,-168 680.5,-168 680.5,-156 680.5,-156 680.5,-150 686.5,-144 692.5,-144 692.5,-144 722.5,-144 722.5,-144 728.5,-144 734.5,-150 734.5,-156 734.5,-156 734.5,-168 734.5,-168 734.5,-174 728.5,-180 722.5,-180"/>
<text text-anchor="middle" x="707.5" y="-158.3" font-family="Times New Roman,serif" font-size="14.00">lru</text>
</g>
<!-- lru&#45;&gt;peer -->
<g id="edge23" class="edge"><title>lru&#45;&gt;peer</title>
<path fill="none" stroke="#3a5fcd" d="M716.5,-133.831C716.5,-133.831 716.5,-108.413 716.5,-108.413"/>
<polygon fill="#3a5fcd" stroke="#3a5fcd" points="713,-133.831 716.5,-143.831 720,-133.831 713,-133.831"/>
</g>
<!-- peer&#45;&gt;dcrd -->
<g id="edge33" class="edge"><title>peer&#45;&gt;dcrd</title>
<path fill="none" stroke="khaki" d="M707.5,-61.9891C707.5,-61.9891 707.5,-14 707.5,-14 707.5,-14 548.893,-14 483.839,-14"/>
<polygon fill="khaki" stroke="khaki" points="704,-61.989 707.5,-71.9891 711,-61.9891 704,-61.989"/>
</g>
<!-- rpcclient&#45;&gt;dcrd -->
<g id="edge32" class="edge"><title>rpcclient&#45;&gt;dcrd</title>
<path fill="none" stroke="mediumseagreen" d="M619.5,-61.8711C619.5,-61.8711 619.5,-21 619.5,-21 619.5,-21 530.185,-21 483.783,-21"/>
<polygon fill="mediumseagreen" stroke="mediumseagreen" points="616,-61.871 619.5,-71.8711 623,-61.8711 616,-61.871"/>
</g>
<!-- apbf -->
<g id="node26" class="node"><title>apbf</title>
<path fill="goldenrod" stroke="black" d="M840,-108C840,-108 767,-108 767,-108 761,-108 755,-102 755,-96 755,-96 755,-84 755,-84 755,-78 761,-72 767,-72 767,-72 840,-72 840,-72 846,-72 852,-78 852,-84 852,-84 852,-96 852,-96 852,-102 846,-108 840,-108"/>
<text text-anchor="middle" x="803.5" y="-86.3" font-family="Times New Roman,serif" font-size="14.00">container/apbf</text>
</g>
<!-- apbf&#45;&gt;dcrd -->
<g id="edge34" class="edge"><title>apbf&#45;&gt;dcrd</title>
<path fill="none" stroke="goldenrod" d="M803.5,-61.9902C803.5,-61.9902 803.5,-7 803.5,-7 803.5,-7 565.531,-7 483.729,-7"/>
<polygon fill="goldenrod" stroke="goldenrod" points="800,-61.9902 803.5,-71.9902 807,-61.9903 800,-61.9902"/>
</g>
</g>
</svg>
