<?xml version="1.0" encoding="UTF-8" standalone="no"?>
<!DOCTYPE svg PUBLIC "-//W3C//DTD SVG 1.1//EN"
 "http://www.w3.org/Graphics/SVG/1.1/DTD/svg11.dtd">
<!-- Generated by graphviz version 8.0.5 (20230430.1635)
 -->
<!-- Pages: 1 -->
<svg width="1286pt" height="720pt"
 viewBox="0.00 0.00 1285.65 720.25" xmlns="http://www.w3.org/2000/svg" xmlns:xlink="http://www.w3.org/1999/xlink">
<g id="graph0" class="graph" transform="scale(1 1) rotate(0) translate(4 716.25)">
<polygon fill="white" stroke="none" points="-4,4 -4,-716.25 1281.65,-716.25 1281.65,4 -4,4"/>
<text text-anchor="start" x="572.83" y="-692.15" font-family="Times New Roman,serif" text-decoration="underline" font-size="18.00">Module Hierarchy</text>
<!-- blake256 -->
<g id="node1" class="node">
<title>blake256</title>
<path fill="cornflowerblue" stroke="black" d="M533.03,-684C533.03,-684 452.63,-684 452.63,-684 446.63,-684 440.63,-678 440.63,-672 440.63,-672 440.63,-660 440.63,-660 440.63,-654 446.63,-648 452.63,-648 452.63,-648 533.03,-648 533.03,-648 539.03,-648 545.03,-654 545.03,-660 545.03,-660 545.03,-672 545.03,-672 545.03,-678 539.03,-684 533.03,-684"/>
<text text-anchor="middle" x="492.83" y="-660.58" font-family="Times New Roman,serif" font-size="14.00">crypto/blake256</text>
</g>
<!-- chainhash -->
<g id="node6" class="node">
<title>chainhash</title>
<path fill="aquamarine" stroke="black" d="M670.9,-684C670.9,-684 574.75,-684 574.75,-684 568.75,-684 562.75,-678 562.75,-672 562.75,-672 562.75,-660 562.75,-660 562.75,-654 568.75,-648 574.75,-648 574.75,-648 670.9,-648 670.9,-648 676.9,-648 682.9,-654 682.9,-660 682.9,-660 682.9,-672 682.9,-672 682.9,-678 676.9,-684 670.9,-684"/>
<text text-anchor="middle" x="622.83" y="-660.58" font-family="Times New Roman,serif" font-size="14.00">chaincfg/chainhash</text>
</g>
<!-- blake256&#45;&gt;chainhash -->
<g id="edge1" class="edge">
<title>blake256&#45;&gt;chainhash</title>
<path fill="none" stroke="cornflowerblue" d="M556.33,-666C556.33,-666 562.45,-666 562.45,-666"/>
<polygon fill="cornflowerblue" stroke="cornflowerblue" points="556.33,-662.5 546.33,-666 556.33,-669.5 556.33,-662.5"/>
</g>
<!-- secp256k1 -->
<g id="node13" class="node">
<title>secp256k1</title>
<path fill="mediumvioletred" stroke="black" d="M544.28,-540C544.28,-540 441.38,-540 441.38,-540 435.38,-540 429.38,-534 429.38,-528 429.38,-528 429.38,-516 429.38,-516 429.38,-510 435.38,-504 441.38,-504 441.38,-504 544.28,-504 544.28,-504 550.28,-504 556.28,-510 556.28,-516 556.28,-516 556.28,-528 556.28,-528 556.28,-534 550.28,-540 544.28,-540"/>
<text text-anchor="middle" x="492.83" y="-516.58" font-family="Times New Roman,serif" font-size="14.00">dcrec/secp256k1/v4</text>
</g>
<!-- blake256&#45;&gt;secp256k1 -->
<g id="edge2" class="edge">
<title>blake256&#45;&gt;secp256k1</title>
<path fill="none" stroke="cornflowerblue" d="M492.83,-636.76C492.83,-636.76 492.83,-540.09 492.83,-540.09"/>
<polygon fill="cornflowerblue" stroke="cornflowerblue" points="489.33,-636.76 492.83,-646.76 496.33,-636.76 489.33,-636.76"/>
</g>
<!-- ripemd160 -->
<g id="node2" class="node">
<title>ripemd160</title>
<path fill="darkturquoise" stroke="black" d="M398.9,-540C398.9,-540 308.75,-540 308.75,-540 302.75,-540 296.75,-534 296.75,-528 296.75,-528 296.75,-516 296.75,-516 296.75,-510 302.75,-504 308.75,-504 308.75,-504 398.9,-504 398.9,-504 404.9,-504 410.9,-510 410.9,-516 410.9,-516 410.9,-528 410.9,-528 410.9,-534 404.9,-540 398.9,-540"/>
<text text-anchor="middle" x="353.83" y="-516.58" font-family="Times New Roman,serif" font-size="14.00">crypto/ripemd160</text>
</g>
<!-- txscript -->
<g id="node18" class="node">
<title>txscript</title>
<path fill="mediumspringgreen" stroke="black" d="M610.65,-468C610.65,-468 561,-468 561,-468 555,-468 549,-462 549,-456 549,-456 549,-444 549,-444 549,-438 555,-432 561,-432 561,-432 610.65,-432 610.65,-432 616.65,-432 622.65,-438 622.65,-444 622.65,-444 622.65,-456 622.65,-456 622.65,-462 616.65,-468 610.65,-468"/>
<text text-anchor="middle" x="585.83" y="-444.57" font-family="Times New Roman,serif" font-size="14.00">txscript/v4</text>
</g>
<!-- ripemd160&#45;&gt;txscript -->
<g id="edge10" class="edge">
<title>ripemd160&#45;&gt;txscript</title>
<path fill="none" stroke="darkturquoise" d="M403.26,-492.83C403.26,-492.83 403.26,-450 403.26,-450 403.26,-450 495.54,-450 548.88,-450"/>
<polygon fill="darkturquoise" stroke="darkturquoise" points="399.76,-492.83 403.26,-502.83 406.76,-492.83 399.76,-492.83"/>
</g>
<!-- rand -->
<g id="node3" class="node">
<title>rand</title>
<path fill="lavender" stroke="black" d="M67.65,-108C67.65,-108 12,-108 12,-108 6,-108 0,-102 0,-96 0,-96 0,-84 0,-84 0,-78 6,-72 12,-72 12,-72 67.65,-72 67.65,-72 73.65,-72 79.65,-78 79.65,-84 79.65,-84 79.65,-96 79.65,-96 79.65,-102 73.65,-108 67.65,-108"/>
<text text-anchor="middle" x="39.83" y="-84.58" font-family="Times New Roman,serif" font-size="14.00">crypto/rand</text>
</g>
<!-- dcrd -->
<g id="node30" class="node">
<title>dcrd</title>
<path fill="chocolate" stroke="black" d="M585.83,-36C585.83,-36 555.83,-36 555.83,-36 549.83,-36 543.83,-30 543.83,-24 543.83,-24 543.83,-12 543.83,-12 543.83,-6 549.83,0 555.83,0 555.83,0 585.83,0 585.83,0 591.83,0 597.83,-6 597.83,-12 597.83,-12 597.83,-24 597.83,-24 597.83,-30 591.83,-36 585.83,-36"/>
<text text-anchor="middle" x="570.83" y="-12.57" font-family="Times New Roman,serif" font-size="14.00">dcrd</text>
</g>
<!-- rand&#45;&gt;dcrd -->
<g id="edge26" class="edge">
<title>rand&#45;&gt;dcrd</title>
<path fill="none" stroke="lavender" d="M39.83,-60.56C39.83,-60.56 39.83,-5 39.83,-5 39.83,-5 434.66,-5 543.39,-5"/>
<polygon fill="lavender" stroke="lavender" points="36.33,-60.56 39.83,-70.56 43.33,-60.56 36.33,-60.56"/>
</g>
<!-- certgen -->
<g id="node4" class="node">
<title>certgen</title>
<path fill="darkkhaki" stroke="black" d="M140.28,-108C140.28,-108 109.38,-108 109.38,-108 103.38,-108 97.38,-102 97.38,-96 97.38,-96 97.38,-84 97.38,-84 97.38,-78 103.38,-72 109.38,-72 109.38,-72 140.28,-72 140.28,-72 146.28,-72 152.28,-78 152.28,-84 152.28,-84 152.28,-96 152.28,-96 152.28,-102 146.28,-108 140.28,-108"/>
<text text-anchor="middle" x="124.83" y="-84.58" font-family="Times New Roman,serif" font-size="14.00">certgen</text>
</g>
<!-- certgen&#45;&gt;dcrd -->
<g id="edge30" class="edge">
<title>certgen&#45;&gt;dcrd</title>
<path fill="none" stroke="darkkhaki" d="M124.83,-60.85C124.83,-60.85 124.83,-10 124.83,-10 124.83,-10 446.76,-10 543.6,-10"/>
<polygon fill="darkkhaki" stroke="darkkhaki" points="121.33,-60.85 124.83,-70.85 128.33,-60.85 121.33,-60.85"/>
</g>
<!-- bech32 -->
<g id="node5" class="node">
<title>bech32</title>
<path fill="#cdc0b0" stroke="black" d="M213.28,-108C213.28,-108 182.38,-108 182.38,-108 176.38,-108 170.38,-102 170.38,-96 170.38,-96 170.38,-84 170.38,-84 170.38,-78 176.38,-72 182.38,-72 182.38,-72 213.28,-72 213.28,-72 219.28,-72 225.28,-78 225.28,-84 225.28,-84 225.28,-96 225.28,-96 225.28,-102 219.28,-108 213.28,-108"/>
<text text-anchor="middle" x="197.83" y="-84.58" font-family="Times New Roman,serif" font-size="14.00">bech32</text>
</g>
<!-- bech32&#45;&gt;dcrd -->
<g id="edge31" class="edge">
<title>bech32&#45;&gt;dcrd</title>
<path fill="none" stroke="#cdc0b0" d="M197.83,-60.84C197.83,-60.84 197.83,-15 197.83,-15 197.83,-15 457.26,-15 543.4,-15"/>
<polygon fill="#cdc0b0" stroke="#cdc0b0" points="194.33,-60.84 197.83,-70.84 201.33,-60.84 194.33,-60.84"/>
</g>
<!-- dcrjson -->
<g id="node7" class="node">
<title>dcrjson</title>
<path fill="indianred" stroke="black" d="M615.65,-612C615.65,-612 566,-612 566,-612 560,-612 554,-606 554,-600 554,-600 554,-588 554,-588 554,-582 560,-576 566,-576 566,-576 615.65,-576 615.65,-576 621.65,-576 627.65,-582 627.65,-588 627.65,-588 627.65,-600 627.65,-600 627.65,-606 621.65,-612 615.65,-612"/>
<text text-anchor="middle" x="590.83" y="-588.58" font-family="Times New Roman,serif" font-size="14.00">dcrjson/v4</text>
</g>
<!-- chainhash&#45;&gt;dcrjson -->
<g id="edge4" class="edge">
<title>chainhash&#45;&gt;dcrjson</title>
<path fill="none" stroke="aquamarine" d="M595.2,-636.83C595.2,-636.83 595.2,-612.41 595.2,-612.41"/>
<polygon fill="aquamarine" stroke="aquamarine" points="591.7,-636.83 595.2,-646.83 598.7,-636.83 591.7,-636.83"/>
</g>
<!-- wire -->
<g id="node9" class="node">
<title>wire</title>
<path fill="coral" stroke="black" d="M899.83,-612C899.83,-612 869.83,-612 869.83,-612 863.83,-612 857.83,-606 857.83,-600 857.83,-600 857.83,-588 857.83,-588 857.83,-582 863.83,-576 869.83,-576 869.83,-576 899.83,-576 899.83,-576 905.83,-576 911.83,-582 911.83,-588 911.83,-588 911.83,-600 911.83,-600 911.83,-606 905.83,-612 899.83,-612"/>
<text text-anchor="middle" x="884.83" y="-588.58" font-family="Times New Roman,serif" font-size="14.00">wire</text>
</g>
<!-- chainhash&#45;&gt;wire -->
<g id="edge5" class="edge">
<title>chainhash&#45;&gt;wire</title>
<path fill="none" stroke="aquamarine" d="M664.33,-636.83C664.33,-636.83 664.33,-594 664.33,-594 664.33,-594 798.24,-594 857.34,-594"/>
<polygon fill="aquamarine" stroke="aquamarine" points="660.83,-636.83 664.33,-646.83 667.83,-636.83 660.83,-636.83"/>
</g>
<!-- types -->
<g id="node8" class="node">
<title>types</title>
<path fill="tomato" stroke="black" d="M324.78,-468C324.78,-468 218.88,-468 218.88,-468 212.88,-468 206.88,-462 206.88,-456 206.88,-456 206.88,-444 206.88,-444 206.88,-438 212.88,-432 218.88,-432 218.88,-432 324.78,-432 324.78,-432 330.78,-432 336.78,-438 336.78,-444 336.78,-444 336.78,-456 336.78,-456 336.78,-462 330.78,-468 324.78,-468"/>
<text text-anchor="middle" x="271.83" y="-444.57" font-family="Times New Roman,serif" font-size="14.00">rpc/jsonrpc/types/v4</text>
</g>
<!-- dcrjson&#45;&gt;types -->
<g id="edge24" class="edge">
<title>dcrjson&#45;&gt;types</title>
<path fill="none" stroke="indianred" d="M542.57,-594C542.57,-594 251.81,-594 251.81,-594 251.81,-594 251.81,-506.99 251.81,-468.24"/>
<polygon fill="indianred" stroke="indianred" points="542.58,-597.5 552.57,-594 542.57,-590.5 542.58,-597.5"/>
</g>
<!-- rpcclient -->
<g id="node24" class="node">
<title>rpcclient</title>
<path fill="mediumseagreen" stroke="black" d="M310.65,-108C310.65,-108 255,-108 255,-108 249,-108 243,-102 243,-96 243,-96 243,-84 243,-84 243,-78 249,-72 255,-72 255,-72 310.65,-72 310.65,-72 316.65,-72 322.65,-78 322.65,-84 322.65,-84 322.65,-96 322.65,-96 322.65,-102 316.65,-108 310.65,-108"/>
<text text-anchor="middle" x="282.83" y="-84.58" font-family="Times New Roman,serif" font-size="14.00">rpcclient/v8</text>
</g>
<!-- types&#45;&gt;rpcclient -->
<g id="edge25" class="edge">
<title>types&#45;&gt;rpcclient</title>
<path fill="none" stroke="tomato" d="M269.55,-420.65C269.55,-420.65 269.55,-108.31 269.55,-108.31"/>
<polygon fill="tomato" stroke="tomato" points="266.05,-420.65 269.55,-430.65 273.05,-420.65 266.05,-420.65"/>
</g>
<!-- chaincfg -->
<g id="node10" class="node">
<title>chaincfg</title>
<path fill="cadetblue" stroke="black" d="M845.28,-540C845.28,-540 790.38,-540 790.38,-540 784.38,-540 778.38,-534 778.38,-528 778.38,-528 778.38,-516 778.38,-516 778.38,-510 784.38,-504 790.38,-504 790.38,-504 845.28,-504 845.28,-504 851.28,-504 857.28,-510 857.28,-516 857.28,-516 857.28,-528 857.28,-528 857.28,-534 851.28,-540 845.28,-540"/>
<text text-anchor="middle" x="817.83" y="-516.58" font-family="Times New Roman,serif" font-size="14.00">chaincfg/v3</text>
</g>
<!-- wire&#45;&gt;chaincfg -->
<g id="edge7" class="edge">
<title>wire&#45;&gt;chaincfg</title>
<path fill="none" stroke="coral" d="M860.39,-564.83C860.39,-564.83 860.39,-522 860.39,-522 860.39,-522 859.35,-522 857.6,-522"/>
<polygon fill="coral" stroke="coral" points="856.89,-564.83 860.39,-574.83 863.89,-564.83 856.89,-564.83"/>
</g>
<!-- standalone -->
<g id="node21" class="node">
<title>standalone</title>
<path fill="#8b1a1a" stroke="black" d="M853.53,-108C853.53,-108 722.12,-108 722.12,-108 716.12,-108 710.12,-102 710.12,-96 710.12,-96 710.12,-84 710.12,-84 710.12,-78 716.12,-72 722.12,-72 722.12,-72 853.53,-72 853.53,-72 859.53,-72 865.53,-78 865.53,-84 865.53,-84 865.53,-96 865.53,-96 865.53,-102 859.53,-108 853.53,-108"/>
<text text-anchor="middle" x="787.83" y="-84.58" font-family="Times New Roman,serif" font-size="14.00">blockchain/standalone/v2</text>
</g>
<!-- wire&#45;&gt;standalone -->
<g id="edge9" class="edge">
<title>wire&#45;&gt;standalone</title>
<path fill="none" stroke="coral" d="M862.96,-564.76C862.96,-564.76 862.96,-108.48 862.96,-108.48"/>
<polygon fill="coral" stroke="coral" points="859.46,-564.76 862.96,-574.76 866.46,-564.76 859.46,-564.76"/>
</g>
<!-- addrmgr -->
<g id="node25" class="node">
<title>addrmgr</title>
<path fill="lightsalmon" stroke="black" d="M950.28,-108C950.28,-108 895.38,-108 895.38,-108 889.38,-108 883.38,-102 883.38,-96 883.38,-96 883.38,-84 883.38,-84 883.38,-78 889.38,-72 895.38,-72 895.38,-72 950.28,-72 950.28,-72 956.28,-72 962.28,-78 962.28,-84 962.28,-84 962.28,-96 962.28,-96 962.28,-102 956.28,-108 950.28,-108"/>
<text text-anchor="middle" x="922.83" y="-84.58" font-family="Times New Roman,serif" font-size="14.00">addrmgr/v3</text>
</g>
<!-- wire&#45;&gt;addrmgr -->
<g id="edge6" class="edge">
<title>wire&#45;&gt;addrmgr</title>
<path fill="none" stroke="coral" d="M897.6,-564.76C897.6,-564.76 897.6,-108.48 897.6,-108.48"/>
<polygon fill="coral" stroke="coral" points="894.1,-564.76 897.6,-574.76 901.1,-564.76 894.1,-564.76"/>
</g>
<!-- connmgr -->
<g id="node26" class="node">
<title>connmgr</title>
<path fill="mistyrose" stroke="black" d="M1049.4,-108C1049.4,-108 992.25,-108 992.25,-108 986.25,-108 980.25,-102 980.25,-96 980.25,-96 980.25,-84 980.25,-84 980.25,-78 986.25,-72 992.25,-72 992.25,-72 1049.4,-72 1049.4,-72 1055.4,-72 1061.4,-78 1061.4,-84 1061.4,-84 1061.4,-96 1061.4,-96 1061.4,-102 1055.4,-108 1049.4,-108"/>
<text text-anchor="middle" x="1020.83" y="-84.58" font-family="Times New Roman,serif" font-size="14.00">connmgr/v3</text>
</g>
<!-- wire&#45;&gt;connmgr -->
<g id="edge8" class="edge">
<title>wire&#45;&gt;connmgr</title>
<path fill="none" stroke="coral" d="M923.02,-594C923.02,-594 1020.83,-594 1020.83,-594 1020.83,-594 1020.83,-198.59 1020.83,-108.24"/>
<polygon fill="coral" stroke="coral" points="923.02,-590.5 913.02,-594 923.02,-597.5 923.02,-590.5"/>
</g>
<!-- chaincfg&#45;&gt;txscript -->
<g id="edge3" class="edge">
<title>chaincfg&#45;&gt;txscript</title>
<path fill="none" stroke="cadetblue" d="M817.83,-492.83C817.83,-492.83 817.83,-450 817.83,-450 817.83,-450 688.68,-450 623.1,-450"/>
<polygon fill="cadetblue" stroke="cadetblue" points="814.33,-492.83 817.83,-502.83 821.33,-492.83 814.33,-492.83"/>
</g>
<!-- dcrec -->
<g id="node11" class="node">
<title>dcrec</title>
<path fill="mediumpurple" stroke="black" d="M615.83,-540C615.83,-540 585.83,-540 585.83,-540 579.83,-540 573.83,-534 573.83,-528 573.83,-528 573.83,-516 573.83,-516 573.83,-510 579.83,-504 585.83,-504 585.83,-504 615.83,-504 615.83,-504 621.83,-504 627.83,-510 627.83,-516 627.83,-516 627.83,-528 627.83,-528 627.83,-534 621.83,-540 615.83,-540"/>
<text text-anchor="middle" x="600.83" y="-516.58" font-family="Times New Roman,serif" font-size="14.00">dcrec</text>
</g>
<!-- dcrec&#45;&gt;txscript -->
<g id="edge11" class="edge">
<title>dcrec&#45;&gt;txscript</title>
<path fill="none" stroke="mediumpurple" d="M598.24,-492.83C598.24,-492.83 598.24,-468.41 598.24,-468.41"/>
<polygon fill="mediumpurple" stroke="mediumpurple" points="594.74,-492.83 598.24,-502.83 601.74,-492.83 594.74,-492.83"/>
</g>
<!-- edwards -->
<g id="node12" class="node">
<title>edwards</title>
<path fill="lightseagreen" stroke="black" d="M747.9,-540C747.9,-540 657.75,-540 657.75,-540 651.75,-540 645.75,-534 645.75,-528 645.75,-528 645.75,-516 645.75,-516 645.75,-510 651.75,-504 657.75,-504 657.75,-504 747.9,-504 747.9,-504 753.9,-504 759.9,-510 759.9,-516 759.9,-516 759.9,-528 759.9,-528 759.9,-534 753.9,-540 747.9,-540"/>
<text text-anchor="middle" x="702.83" y="-516.58" font-family="Times New Roman,serif" font-size="14.00">dcrec/edwards/v2</text>
</g>
<!-- edwards&#45;&gt;txscript -->
<g id="edge12" class="edge">
<title>edwards&#45;&gt;txscript</title>
<path fill="none" stroke="lightseagreen" d="M664.14,-492.78C664.14,-492.78 664.14,-459 664.14,-459 664.14,-459 643.32,-459 623.15,-459"/>
<polygon fill="lightseagreen" stroke="lightseagreen" points="660.64,-492.78 664.14,-502.78 667.64,-492.78 660.64,-492.78"/>
</g>
<!-- secp256k1&#45;&gt;txscript -->
<g id="edge13" class="edge">
<title>secp256k1&#45;&gt;txscript</title>
<path fill="none" stroke="mediumvioletred" d="M552.64,-492.83C552.64,-492.83 552.64,-468.41 552.64,-468.41"/>
<polygon fill="mediumvioletred" stroke="mediumvioletred" points="549.14,-492.83 552.64,-502.83 556.14,-492.83 549.14,-492.83"/>
</g>
<!-- dcrutil -->
<g id="node14" class="node">
<title>dcrutil</title>
<path fill="burlywood" stroke="black" d="M494.28,-396C494.28,-396 451.38,-396 451.38,-396 445.38,-396 439.38,-390 439.38,-384 439.38,-384 439.38,-372 439.38,-372 439.38,-366 445.38,-360 451.38,-360 451.38,-360 494.28,-360 494.28,-360 500.28,-360 506.28,-366 506.28,-372 506.28,-372 506.28,-384 506.28,-384 506.28,-390 500.28,-396 494.28,-396"/>
<text text-anchor="middle" x="472.83" y="-372.57" font-family="Times New Roman,serif" font-size="14.00">dcrutil/v4</text>
</g>
<!-- mixing -->
<g id="node15" class="node">
<title>mixing</title>
<path fill="lawngreen" stroke="black" d="M382.83,-108C382.83,-108 352.83,-108 352.83,-108 346.83,-108 340.83,-102 340.83,-96 340.83,-96 340.83,-84 340.83,-84 340.83,-78 346.83,-72 352.83,-72 352.83,-72 382.83,-72 382.83,-72 388.83,-72 394.83,-78 394.83,-84 394.83,-84 394.83,-96 394.83,-96 394.83,-102 388.83,-108 382.83,-108"/>
<text text-anchor="middle" x="367.83" y="-84.58" font-family="Times New Roman,serif" font-size="14.00">mixing</text>
</g>
<!-- dcrutil&#45;&gt;mixing -->
<g id="edge19" class="edge">
<title>dcrutil&#45;&gt;mixing</title>
<path fill="none" stroke="burlywood" d="M428.07,-378C428.07,-378 351.66,-378 351.66,-378 351.66,-378 351.66,-172.02 351.66,-108.45"/>
<polygon fill="burlywood" stroke="burlywood" points="428.07,-381.5 438.07,-378 428.07,-374.5 428.07,-381.5"/>
</g>
<!-- database -->
<g id="node16" class="node">
<title>database</title>
<path fill="dodgerblue" stroke="black" d="M464.03,-324C464.03,-324 407.63,-324 407.63,-324 401.63,-324 395.63,-318 395.63,-312 395.63,-312 395.63,-300 395.63,-300 395.63,-294 401.63,-288 407.63,-288 407.63,-288 464.03,-288 464.03,-288 470.03,-288 476.03,-294 476.03,-300 476.03,-300 476.03,-312 476.03,-312 476.03,-318 470.03,-324 464.03,-324"/>
<text text-anchor="middle" x="435.83" y="-300.57" font-family="Times New Roman,serif" font-size="14.00">database/v3</text>
</g>
<!-- dcrutil&#45;&gt;database -->
<g id="edge18" class="edge">
<title>dcrutil&#45;&gt;database</title>
<path fill="none" stroke="burlywood" d="M457.7,-348.83C457.7,-348.83 457.7,-324.41 457.7,-324.41"/>
<polygon fill="burlywood" stroke="burlywood" points="454.2,-348.83 457.7,-358.83 461.2,-348.83 454.2,-348.83"/>
</g>
<!-- blockchain -->
<g id="node27" class="node">
<title>blockchain</title>
<path fill="orchid" stroke="black" d="M493.03,-108C493.03,-108 424.63,-108 424.63,-108 418.63,-108 412.63,-102 412.63,-96 412.63,-96 412.63,-84 412.63,-84 412.63,-78 418.63,-72 424.63,-72 424.63,-72 493.03,-72 493.03,-72 499.03,-72 505.03,-78 505.03,-84 505.03,-84 505.03,-96 505.03,-96 505.03,-102 499.03,-108 493.03,-108"/>
<text text-anchor="middle" x="458.83" y="-84.58" font-family="Times New Roman,serif" font-size="14.00">blockchain/v5</text>
</g>
<!-- dcrutil&#45;&gt;blockchain -->
<g id="edge17" class="edge">
<title>dcrutil&#45;&gt;blockchain</title>
<path fill="none" stroke="burlywood" d="M496.09,-348.55C496.09,-348.55 496.09,-108.3 496.09,-108.3"/>
<polygon fill="burlywood" stroke="burlywood" points="492.59,-348.55 496.09,-358.55 499.59,-348.55 492.59,-348.55"/>
</g>
<!-- mixing&#45;&gt;dcrd -->
<g id="edge28" class="edge">
<title>mixing&#45;&gt;dcrd</title>
<path fill="none" stroke="lawngreen" d="M367.83,-60.55C367.83,-60.55 367.83,-25 367.83,-25 367.83,-25 488.04,-25 543.45,-25"/>
<polygon fill="lawngreen" stroke="lawngreen" points="364.33,-60.55 367.83,-70.55 371.33,-60.55 364.33,-60.55"/>
</g>
<!-- stake -->
<g id="node19" class="node">
<title>stake</title>
<path fill="bisque" stroke="black" d="M475.15,-252C475.15,-252 374.5,-252 374.5,-252 368.5,-252 362.5,-246 362.5,-240 362.5,-240 362.5,-228 362.5,-228 362.5,-222 368.5,-216 374.5,-216 374.5,-216 475.15,-216 475.15,-216 481.15,-216 487.15,-222 487.15,-228 487.15,-228 487.15,-240 487.15,-240 487.15,-246 481.15,-252 475.15,-252"/>
<text text-anchor="middle" x="424.83" y="-228.57" font-family="Times New Roman,serif" font-size="14.00">blockchain/stake/v5</text>
</g>
<!-- database&#45;&gt;stake -->
<g id="edge20" class="edge">
<title>database&#45;&gt;stake</title>
<path fill="none" stroke="dodgerblue" d="M435.83,-276.83C435.83,-276.83 435.83,-252.41 435.83,-252.41"/>
<polygon fill="dodgerblue" stroke="dodgerblue" points="432.33,-276.83 435.83,-286.83 439.33,-276.83 432.33,-276.83"/>
</g>
<!-- hdkeychain -->
<g id="node17" class="node">
<title>hdkeychain</title>
<path fill="deepskyblue" stroke="black" d="M606.15,-108C606.15,-108 535.5,-108 535.5,-108 529.5,-108 523.5,-102 523.5,-96 523.5,-96 523.5,-84 523.5,-84 523.5,-78 529.5,-72 535.5,-72 535.5,-72 606.15,-72 606.15,-72 612.15,-72 618.15,-78 618.15,-84 618.15,-84 618.15,-96 618.15,-96 618.15,-102 612.15,-108 606.15,-108"/>
<text text-anchor="middle" x="570.83" y="-84.58" font-family="Times New Roman,serif" font-size="14.00">hdkeychain/v3</text>
</g>
<!-- hdkeychain&#45;&gt;dcrd -->
<g id="edge33" class="edge">
<title>hdkeychain&#45;&gt;dcrd</title>
<path fill="none" stroke="deepskyblue" d="M570.83,-60.83C570.83,-60.83 570.83,-36.41 570.83,-36.41"/>
<polygon fill="deepskyblue" stroke="deepskyblue" points="567.33,-60.83 570.83,-70.83 574.33,-60.83 567.33,-60.83"/>
</g>
<!-- txscript&#45;&gt;dcrutil -->
<g id="edge14" class="edge">
<title>txscript&#45;&gt;dcrutil</title>
<path fill="none" stroke="mediumspringgreen" d="M565.71,-420.83C565.71,-420.83 565.71,-378 565.71,-378 565.71,-378 533.18,-378 506.62,-378"/>
<polygon fill="mediumspringgreen" stroke="mediumspringgreen" points="562.21,-420.83 565.71,-430.83 569.21,-420.83 562.21,-420.83"/>
</g>
<!-- txscript&#45;&gt;hdkeychain -->
<g id="edge15" class="edge">
<title>txscript&#45;&gt;hdkeychain</title>
<path fill="none" stroke="mediumspringgreen" d="M582.42,-420.65C582.42,-420.65 582.42,-108.31 582.42,-108.31"/>
<polygon fill="mediumspringgreen" stroke="mediumspringgreen" points="578.92,-420.65 582.42,-430.65 585.92,-420.65 578.92,-420.65"/>
</g>
<!-- peer -->
<g id="node23" class="node">
<title>peer</title>
<path fill="khaki" stroke="black" d="M679.65,-108C679.65,-108 648,-108 648,-108 642,-108 636,-102 636,-96 636,-96 636,-84 636,-84 636,-78 642,-72 648,-72 648,-72 679.65,-72 679.65,-72 685.65,-72 691.65,-78 691.65,-84 691.65,-84 691.65,-96 691.65,-96 691.65,-102 685.65,-108 679.65,-108"/>
<text text-anchor="middle" x="663.83" y="-84.58" font-family="Times New Roman,serif" font-size="14.00">peer/v3</text>
</g>
<!-- txscript&#45;&gt;peer -->
<g id="edge16" class="edge">
<title>txscript&#45;&gt;peer</title>
<path fill="none" stroke="mediumspringgreen" d="M633.96,-441C633.96,-441 687.09,-441 687.09,-441 687.09,-441 687.09,-180.6 687.09,-108.38"/>
<polygon fill="mediumspringgreen" stroke="mediumspringgreen" points="633.96,-437.5 623.96,-441 633.96,-444.5 633.96,-437.5"/>
</g>
<!-- gcs -->
<g id="node20" class="node">
<title>gcs</title>
<path fill="gold" stroke="black" d="M421.83,-180C421.83,-180 391.83,-180 391.83,-180 385.83,-180 379.83,-174 379.83,-168 379.83,-168 379.83,-156 379.83,-156 379.83,-150 385.83,-144 391.83,-144 391.83,-144 421.83,-144 421.83,-144 427.83,-144 433.83,-150 433.83,-156 433.83,-156 433.83,-168 433.83,-168 433.83,-174 427.83,-180 421.83,-180"/>
<text text-anchor="middle" x="406.83" y="-156.57" font-family="Times New Roman,serif" font-size="14.00">gcs/v4</text>
</g>
<!-- stake&#45;&gt;gcs -->
<g id="edge21" class="edge">
<title>stake&#45;&gt;gcs</title>
<path fill="none" stroke="bisque" d="M406.83,-204.83C406.83,-204.83 406.83,-180.41 406.83,-180.41"/>
<polygon fill="bisque" stroke="bisque" points="403.33,-204.83 406.83,-214.83 410.33,-204.83 403.33,-204.83"/>
</g>
<!-- gcs&#45;&gt;rpcclient -->
<g id="edge22" class="edge">
<title>gcs&#45;&gt;rpcclient</title>
<path fill="none" stroke="gold" d="M368.45,-162C368.45,-162 296.1,-162 296.1,-162 296.1,-162 296.1,-129.5 296.1,-108.17"/>
<polygon fill="gold" stroke="gold" points="368.45,-165.5 378.45,-162 368.45,-158.5 368.45,-165.5"/>
</g>
<!-- standalone&#45;&gt;dcrd -->
<g id="edge29" class="edge">
<title>standalone&#45;&gt;dcrd</title>
<path fill="none" stroke="firebrick" d="M787.83,-60.55C787.83,-60.55 787.83,-25 787.83,-25 787.83,-25 656.7,-25 598.31,-25"/>
<polygon fill="firebrick" stroke="firebrick" points="784.33,-60.55 787.83,-70.55 791.33,-60.55 784.33,-60.55"/>
</g>
<!-- lru -->
<g id="node22" class="node">
<title>lru</title>
<path fill="#3a5fcd" stroke="black" d="M670.53,-180C670.53,-180 611.12,-180 611.12,-180 605.12,-180 599.12,-174 599.12,-168 599.12,-168 599.12,-156 599.12,-156 599.12,-150 605.12,-144 611.12,-144 611.12,-144 670.53,-144 670.53,-144 676.53,-144 682.53,-150 682.53,-156 682.53,-156 682.53,-168 682.53,-168 682.53,-174 676.53,-180 670.53,-180"/>
<text text-anchor="middle" x="640.83" y="-156.57" font-family="Times New Roman,serif" font-size="14.00">container/lru</text>
</g>
<!-- lru&#45;&gt;peer -->
<g id="edge23" class="edge">
<title>lru&#45;&gt;peer</title>
<path fill="none" stroke="#3a5fcd" d="M659.26,-132.83C659.26,-132.83 659.26,-108.41 659.26,-108.41"/>
<polygon fill="#3a5fcd" stroke="#3a5fcd" points="655.76,-132.83 659.26,-142.83 662.76,-132.83 655.76,-132.83"/>
</g>
<!-- peer&#45;&gt;dcrd -->
<g id="edge36" class="edge">
<title>peer&#45;&gt;dcrd</title>
<path fill="none" stroke="khaki" d="M663.83,-60.67C663.83,-60.67 663.83,-30 663.83,-30 663.83,-30 625.66,-30 598.23,-30"/>
<polygon fill="khaki" stroke="khaki" points="660.33,-60.67 663.83,-70.67 667.33,-60.67 660.33,-60.67"/>
</g>
<!-- rpcclient&#45;&gt;dcrd -->
<g id="edge35" class="edge">
<title>rpcclient&#45;&gt;dcrd</title>
<path fill="none" stroke="mediumseagreen" d="M282.83,-60.61C282.83,-60.61 282.83,-20 282.83,-20 282.83,-20 471.58,-20 543.47,-20"/>
<polygon fill="mediumseagreen" stroke="mediumseagreen" points="279.33,-60.61 282.83,-70.61 286.33,-60.61 279.33,-60.61"/>
</g>
<!-- addrmgr&#45;&gt;dcrd -->
<g id="edge32" class="edge">
<title>addrmgr&#45;&gt;dcrd</title>
<path fill="none" stroke="lightsalmon" d="M922.83,-60.61C922.83,-60.61 922.83,-20 922.83,-20 922.83,-20 680.86,-20 598.15,-20"/>
<polygon fill="lightsalmon" stroke="lightsalmon" points="919.33,-60.61 922.83,-70.61 926.33,-60.61 919.33,-60.61"/>
</g>
<!-- connmgr&#45;&gt;dcrd -->
<g id="edge34" class="edge">
<title>connmgr&#45;&gt;dcrd</title>
<path fill="none" stroke="mistyrose" d="M1020.83,-60.84C1020.83,-60.84 1020.83,-15 1020.83,-15 1020.83,-15 696,-15 598.3,-15"/>
<polygon fill="mistyrose" stroke="mistyrose" points="1017.33,-60.84 1020.83,-70.84 1024.33,-60.84 1017.33,-60.84"/>
</g>
<!-- blockchain&#45;&gt;dcrd -->
<g id="edge27" class="edge">
<title>blockchain&#45;&gt;dcrd</title>
<path fill="none" stroke="orchid" d="M458.83,-60.67C458.83,-60.67 458.83,-30 458.83,-30 458.83,-30 510.27,-30 543.43,-30"/>
<polygon fill="orchid" stroke="orchid" points="455.33,-60.67 458.83,-70.67 462.33,-60.67 455.33,-60.67"/>
</g>
<!-- apbf -->
<g id="node28" class="node">
<title>apbf</title>
<path fill="goldenrod" stroke="black" d="M1162.15,-108C1162.15,-108 1091.5,-108 1091.5,-108 1085.5,-108 1079.5,-102 1079.5,-96 1079.5,-96 1079.5,-84 1079.5,-84 1079.5,-78 1085.5,-72 1091.5,-72 1091.5,-72 1162.15,-72 1162.15,-72 1168.15,-72 1174.15,-78 1174.15,-84 1174.15,-84 1174.15,-96 1174.15,-96 1174.15,-102 1168.15,-108 1162.15,-108"/>
<text text-anchor="middle" x="1126.83" y="-84.58" font-family="Times New Roman,serif" font-size="14.00">container/apbf</text>
</g>
<!-- apbf&#45;&gt;dcrd -->
<g id="edge37" class="edge">
<title>apbf&#45;&gt;dcrd</title>
<path fill="none" stroke="goldenrod" d="M1126.83,-60.85C1126.83,-60.85 1126.83,-10 1126.83,-10 1126.83,-10 709.65,-10 598.02,-10"/>
<polygon fill="goldenrod" stroke="goldenrod" points="1123.33,-60.85 1126.83,-70.85 1130.33,-60.85 1123.33,-60.85"/>
</g>
<!-- uint256 -->
<g id="node29" class="node">
<title>uint256</title>
<path fill="lightgreen" stroke="black" d="M1265.65,-108C1265.65,-108 1204,-108 1204,-108 1198,-108 1192,-102 1192,-96 1192,-96 1192,-84 1192,-84 1192,-78 1198,-72 1204,-72 1204,-72 1265.65,-72 1265.65,-72 1271.65,-72 1277.65,-78 1277.65,-84 1277.65,-84 1277.65,-96 1277.65,-96 1277.65,-102 1271.65,-108 1265.65,-108"/>
<text text-anchor="middle" x="1234.83" y="-84.58" font-family="Times New Roman,serif" font-size="14.00">math/uint256</text>
</g>
<!-- uint256&#45;&gt;dcrd -->
<g id="edge38" class="edge">
<title>uint256&#45;&gt;dcrd</title>
<path fill="none" stroke="lightgreen" d="M1234.83,-60.56C1234.83,-60.56 1234.83,-5 1234.83,-5 1234.83,-5 723.04,-5 598.09,-5"/>
<polygon fill="lightgreen" stroke="lightgreen" points="1231.33,-60.56 1234.83,-70.56 1238.33,-60.56 1231.33,-60.56"/>
</g>
</g>
</svg>
