<?xml version="1.0" encoding="UTF-8" standalone="no"?>
<!DOCTYPE svg PUBLIC "-//W3C//DTD SVG 1.1//EN"
 "http://www.w3.org/Graphics/SVG/1.1/DTD/svg11.dtd">
<!-- Generated by graphviz version 2.38.0 (20140413.2041)
 -->
<!-- Title: %3 Pages: 1 -->
<svg width="617pt" height="720pt"
 viewBox="0.00 0.00 617.00 720.00" xmlns="http://www.w3.org/2000/svg" xmlns:xlink="http://www.w3.org/1999/xlink">
<g id="graph0" class="graph" transform="scale(1 1) rotate(0) translate(4 716)">
<title>%3</title>
<polygon fill="white" stroke="#000000" points="-4,4 -4,-716 613,-716 613,4 -4,4"/>
<text text-anchor="start" x="238" y="-694.6" font-family="Times New Roman,serif" text-decoration="underline" font-size="18.00">Module Hierarchy</text>
<!-- certgen -->
<g id="node1" class="node"><title>certgen</title>
<path fill="darkkhaki" stroke="black" d="M45,-108C45,-108 12,-108 12,-108 6,-108 0,-102 0,-96 0,-96 0,-84 0,-84 0,-78 6,-72 12,-72 12,-72 45,-72 45,-72 51,-72 57,-78 57,-84 57,-84 57,-96 57,-96 57,-102 51,-108 45,-108"/>
<text text-anchor="middle" x="28.5" y="-86.3" font-family="Times New Roman,serif" font-size="14.00">certgen</text>
</g>
<!-- dcrd -->
<g id="node23" class="node"><title>dcrd</title>
<path fill="chocolate" stroke="black" d="M268.5,-36C268.5,-36 238.5,-36 238.5,-36 232.5,-36 226.5,-30 226.5,-24 226.5,-24 226.5,-12 226.5,-12 226.5,-6 232.5,-0 238.5,-0 238.5,-0 268.5,-0 268.5,-0 274.5,-0 280.5,-6 280.5,-12 280.5,-12 280.5,-24 280.5,-24 280.5,-30 274.5,-36 268.5,-36"/>
<text text-anchor="middle" x="253.5" y="-14.3" font-family="Times New Roman,serif" font-size="14.00">dcrd</text>
</g>
<!-- certgen&#45;&gt;dcrd -->
<g id="edge24" class="edge"><title>certgen&#45;&gt;dcrd</title>
<path fill="none" stroke="darkkhaki" d="M28.5,-61.9092C28.5,-61.9092 28.5,-12 28.5,-12 28.5,-12 166.517,-12 226.36,-12"/>
<polygon fill="darkkhaki" stroke="darkkhaki" points="25.0001,-61.9091 28.5,-71.9092 32.0001,-61.9092 25.0001,-61.9091"/>
</g>
<!-- chainhash -->
<g id="node2" class="node"><title>chainhash</title>
<path fill="aquamarine" stroke="black" d="M479.5,-684C479.5,-684 381.5,-684 381.5,-684 375.5,-684 369.5,-678 369.5,-672 369.5,-672 369.5,-660 369.5,-660 369.5,-654 375.5,-648 381.5,-648 381.5,-648 479.5,-648 479.5,-648 485.5,-648 491.5,-654 491.5,-660 491.5,-660 491.5,-672 491.5,-672 491.5,-678 485.5,-684 479.5,-684"/>
<text text-anchor="middle" x="430.5" y="-662.3" font-family="Times New Roman,serif" font-size="14.00">chaincfg/chainhash</text>
</g>
<!-- dcrjson -->
<g id="node3" class="node"><title>dcrjson</title>
<path fill="indianred" stroke="black" d="M577.5,-612C577.5,-612 525.5,-612 525.5,-612 519.5,-612 513.5,-606 513.5,-600 513.5,-600 513.5,-588 513.5,-588 513.5,-582 519.5,-576 525.5,-576 525.5,-576 577.5,-576 577.5,-576 583.5,-576 589.5,-582 589.5,-588 589.5,-588 589.5,-600 589.5,-600 589.5,-606 583.5,-612 577.5,-612"/>
<text text-anchor="middle" x="551.5" y="-590.3" font-family="Times New Roman,serif" font-size="14.00">dcrjson/v3</text>
</g>
<!-- chainhash&#45;&gt;dcrjson -->
<g id="edge1" class="edge"><title>chainhash&#45;&gt;dcrjson</title>
<path fill="none" stroke="aquamarine" d="M501.709,-666C501.709,-666 551.5,-666 551.5,-666 551.5,-666 551.5,-633.498 551.5,-612.169"/>
<polygon fill="aquamarine" stroke="aquamarine" points="501.709,-662.5 491.709,-666 501.709,-669.5 501.709,-662.5"/>
</g>
<!-- wire -->
<g id="node5" class="node"><title>wire</title>
<path fill="coral" stroke="black" d="M197.5,-612C197.5,-612 167.5,-612 167.5,-612 161.5,-612 155.5,-606 155.5,-600 155.5,-600 155.5,-588 155.5,-588 155.5,-582 161.5,-576 167.5,-576 167.5,-576 197.5,-576 197.5,-576 203.5,-576 209.5,-582 209.5,-588 209.5,-588 209.5,-600 209.5,-600 209.5,-606 203.5,-612 197.5,-612"/>
<text text-anchor="middle" x="182.5" y="-590.3" font-family="Times New Roman,serif" font-size="14.00">wire</text>
</g>
<!-- chainhash&#45;&gt;wire -->
<g id="edge2" class="edge"><title>chainhash&#45;&gt;wire</title>
<path fill="none" stroke="aquamarine" d="M359.197,-666C359.197,-666 182.5,-666 182.5,-666 182.5,-666 182.5,-633.498 182.5,-612.169"/>
<polygon fill="aquamarine" stroke="aquamarine" points="359.197,-669.5 369.197,-666 359.197,-662.5 359.197,-669.5"/>
</g>
<!-- secp256k1 -->
<g id="node11" class="node"><title>secp256k1</title>
<path fill="mediumvioletred" stroke="black" d="M483,-612C483,-612 378,-612 378,-612 372,-612 366,-606 366,-600 366,-600 366,-588 366,-588 366,-582 372,-576 378,-576 378,-576 483,-576 483,-576 489,-576 495,-582 495,-588 495,-588 495,-600 495,-600 495,-606 489,-612 483,-612"/>
<text text-anchor="middle" x="430.5" y="-590.3" font-family="Times New Roman,serif" font-size="14.00">dcrec/secp256k1/v2</text>
</g>
<!-- chainhash&#45;&gt;secp256k1 -->
<g id="edge6" class="edge"><title>chainhash&#45;&gt;secp256k1</title>
<path fill="none" stroke="aquamarine" d="M430.5,-637.831C430.5,-637.831 430.5,-612.413 430.5,-612.413"/>
<polygon fill="aquamarine" stroke="aquamarine" points="427,-637.831 430.5,-647.831 434,-637.831 427,-637.831"/>
</g>
<!-- types -->
<g id="node4" class="node"><title>types</title>
<path fill="tomato" stroke="black" d="M597,-468C597,-468 506,-468 506,-468 500,-468 494,-462 494,-456 494,-456 494,-444 494,-444 494,-438 500,-432 506,-432 506,-432 597,-432 597,-432 603,-432 609,-438 609,-444 609,-444 609,-456 609,-456 609,-462 603,-468 597,-468"/>
<text text-anchor="middle" x="551.5" y="-446.3" font-family="Times New Roman,serif" font-size="14.00">rpc/jsonrpc/types</text>
</g>
<!-- dcrjson&#45;&gt;types -->
<g id="edge22" class="edge"><title>dcrjson&#45;&gt;types</title>
<path fill="none" stroke="tomato" d="M551.5,-565.762C551.5,-565.762 551.5,-468.09 551.5,-468.09"/>
<polygon fill="tomato" stroke="tomato" points="548,-565.762 551.5,-575.762 555,-565.762 548,-565.762"/>
</g>
<!-- rpcclient -->
<g id="node22" class="node"><title>rpcclient</title>
<path fill="mediumseagreen" stroke="black" d="M542.5,-108C542.5,-108 484.5,-108 484.5,-108 478.5,-108 472.5,-102 472.5,-96 472.5,-96 472.5,-84 472.5,-84 472.5,-78 478.5,-72 484.5,-72 484.5,-72 542.5,-72 542.5,-72 548.5,-72 554.5,-78 554.5,-84 554.5,-84 554.5,-96 554.5,-96 554.5,-102 548.5,-108 542.5,-108"/>
<text text-anchor="middle" x="513.5" y="-86.3" font-family="Times New Roman,serif" font-size="14.00">rpcclient/v4</text>
</g>
<!-- types&#45;&gt;rpcclient -->
<g id="edge23" class="edge"><title>types&#45;&gt;rpcclient</title>
<path fill="none" stroke="indianred" d="M535.75,-421.653C535.75,-421.653 535.75,-108.31 535.75,-108.31"/>
<polygon fill="indianred" stroke="indianred" points="532.25,-421.653 535.75,-431.653 539.25,-421.653 532.25,-421.653"/>
</g>
<!-- addrmgr -->
<g id="node6" class="node"><title>addrmgr</title>
<path fill="lightsalmon" stroke="black" d="M127.5,-108C127.5,-108 87.5,-108 87.5,-108 81.5,-108 75.5,-102 75.5,-96 75.5,-96 75.5,-84 75.5,-84 75.5,-78 81.5,-72 87.5,-72 87.5,-72 127.5,-72 127.5,-72 133.5,-72 139.5,-78 139.5,-84 139.5,-84 139.5,-96 139.5,-96 139.5,-102 133.5,-108 127.5,-108"/>
<text text-anchor="middle" x="107.5" y="-86.3" font-family="Times New Roman,serif" font-size="14.00">addrmgr</text>
</g>
<!-- wire&#45;&gt;addrmgr -->
<g id="edge3" class="edge"><title>wire&#45;&gt;addrmgr</title>
<path fill="none" stroke="coral" d="M145.423,-594C145.423,-594 107.5,-594 107.5,-594 107.5,-594 107.5,-198.592 107.5,-108.235"/>
<polygon fill="coral" stroke="coral" points="145.423,-597.5 155.423,-594 145.423,-590.5 145.423,-597.5"/>
</g>
<!-- chaincfg -->
<g id="node7" class="node"><title>chaincfg</title>
<path fill="cadetblue" stroke="black" d="M211,-540C211,-540 154,-540 154,-540 148,-540 142,-534 142,-528 142,-528 142,-516 142,-516 142,-510 148,-504 154,-504 154,-504 211,-504 211,-504 217,-504 223,-510 223,-516 223,-516 223,-528 223,-528 223,-534 217,-540 211,-540"/>
<text text-anchor="middle" x="182.5" y="-518.3" font-family="Times New Roman,serif" font-size="14.00">chaincfg/v2</text>
</g>
<!-- wire&#45;&gt;chaincfg -->
<g id="edge4" class="edge"><title>wire&#45;&gt;chaincfg</title>
<path fill="none" stroke="coral" d="M182.5,-565.831C182.5,-565.831 182.5,-540.413 182.5,-540.413"/>
<polygon fill="coral" stroke="coral" points="179,-565.831 182.5,-575.831 186,-565.831 179,-565.831"/>
</g>
<!-- addrmgr&#45;&gt;dcrd -->
<g id="edge25" class="edge"><title>addrmgr&#45;&gt;dcrd</title>
<path fill="none" stroke="lightsalmon" d="M107.5,-61.9652C107.5,-61.9652 107.5,-24 107.5,-24 107.5,-24 184.159,-24 226.381,-24"/>
<polygon fill="lightsalmon" stroke="lightsalmon" points="104,-61.9652 107.5,-71.9652 111,-61.9652 104,-61.9652"/>
</g>
<!-- connmgr -->
<g id="node8" class="node"><title>connmgr</title>
<path fill="mistyrose" stroke="black" d="M229,-108C229,-108 170,-108 170,-108 164,-108 158,-102 158,-96 158,-96 158,-84 158,-84 158,-78 164,-72 170,-72 170,-72 229,-72 229,-72 235,-72 241,-78 241,-84 241,-84 241,-96 241,-96 241,-102 235,-108 229,-108"/>
<text text-anchor="middle" x="199.5" y="-86.3" font-family="Times New Roman,serif" font-size="14.00">connmgr/v2</text>
</g>
<!-- chaincfg&#45;&gt;connmgr -->
<g id="edge5" class="edge"><title>chaincfg&#45;&gt;connmgr</title>
<path fill="none" stroke="cadetblue" d="M179.667,-493.987C179.667,-493.987 179.667,-108.089 179.667,-108.089"/>
<polygon fill="cadetblue" stroke="cadetblue" points="176.167,-493.987 179.667,-503.987 183.167,-493.988 176.167,-493.987"/>
</g>
<!-- dcrutil -->
<g id="node12" class="node"><title>dcrutil</title>
<path fill="burlywood" stroke="black" d="M378,-468C378,-468 333,-468 333,-468 327,-468 321,-462 321,-456 321,-456 321,-444 321,-444 321,-438 327,-432 333,-432 333,-432 378,-432 378,-432 384,-432 390,-438 390,-444 390,-444 390,-456 390,-456 390,-462 384,-468 378,-468"/>
<text text-anchor="middle" x="355.5" y="-446.3" font-family="Times New Roman,serif" font-size="14.00">dcrutil/v2</text>
</g>
<!-- chaincfg&#45;&gt;dcrutil -->
<g id="edge7" class="edge"><title>chaincfg&#45;&gt;dcrutil</title>
<path fill="none" stroke="cadetblue" d="M201.333,-493.831C201.333,-493.831 201.333,-450 201.333,-450 201.333,-450 275.449,-450 320.902,-450"/>
<polygon fill="cadetblue" stroke="cadetblue" points="197.833,-493.831 201.333,-503.831 204.833,-493.831 197.833,-493.831"/>
</g>
<!-- connmgr&#45;&gt;dcrd -->
<g id="edge27" class="edge"><title>connmgr&#45;&gt;dcrd</title>
<path fill="none" stroke="mistyrose" d="M233.75,-61.8314C233.75,-61.8314 233.75,-36.4133 233.75,-36.4133"/>
<polygon fill="mistyrose" stroke="mistyrose" points="230.25,-61.8313 233.75,-71.8314 237.25,-61.8314 230.25,-61.8313"/>
</g>
<!-- dcrec -->
<g id="node9" class="node"><title>dcrec</title>
<path fill="mediumpurple" stroke="black" d="M283.5,-540C283.5,-540 253.5,-540 253.5,-540 247.5,-540 241.5,-534 241.5,-528 241.5,-528 241.5,-516 241.5,-516 241.5,-510 247.5,-504 253.5,-504 253.5,-504 283.5,-504 283.5,-504 289.5,-504 295.5,-510 295.5,-516 295.5,-516 295.5,-528 295.5,-528 295.5,-534 289.5,-540 283.5,-540"/>
<text text-anchor="middle" x="268.5" y="-518.3" font-family="Times New Roman,serif" font-size="14.00">dcrec</text>
</g>
<!-- dcrec&#45;&gt;dcrutil -->
<g id="edge8" class="edge"><title>dcrec&#45;&gt;dcrutil</title>
<path fill="none" stroke="mediumpurple" d="M283.333,-493.778C283.333,-493.778 283.333,-459 283.333,-459 283.333,-459 302.231,-459 320.685,-459"/>
<polygon fill="mediumpurple" stroke="mediumpurple" points="279.833,-493.778 283.333,-503.778 286.833,-493.778 279.833,-493.778"/>
</g>
<!-- edwards -->
<g id="node10" class="node"><title>edwards</title>
<path fill="lightseagreen" stroke="black" d="M417.5,-540C417.5,-540 325.5,-540 325.5,-540 319.5,-540 313.5,-534 313.5,-528 313.5,-528 313.5,-516 313.5,-516 313.5,-510 319.5,-504 325.5,-504 325.5,-504 417.5,-504 417.5,-504 423.5,-504 429.5,-510 429.5,-516 429.5,-516 429.5,-528 429.5,-528 429.5,-534 423.5,-540 417.5,-540"/>
<text text-anchor="middle" x="371.5" y="-518.3" font-family="Times New Roman,serif" font-size="14.00">dcrec/edwards/v2</text>
</g>
<!-- edwards&#45;&gt;dcrutil -->
<g id="edge9" class="edge"><title>edwards&#45;&gt;dcrutil</title>
<path fill="none" stroke="lightseagreen" d="M355.5,-493.831C355.5,-493.831 355.5,-468.413 355.5,-468.413"/>
<polygon fill="lightseagreen" stroke="lightseagreen" points="352,-493.831 355.5,-503.831 359,-493.831 352,-493.831"/>
</g>
<!-- secp256k1&#45;&gt;dcrutil -->
<g id="edge10" class="edge"><title>secp256k1&#45;&gt;dcrutil</title>
<path fill="none" stroke="mediumvioletred" d="M460.5,-565.959C460.5,-565.959 460.5,-456 460.5,-456 460.5,-456 420.756,-456 390.172,-456"/>
<polygon fill="mediumvioletred" stroke="mediumvioletred" points="457,-565.959 460.5,-575.959 464,-565.959 457,-565.959"/>
</g>
<!-- database -->
<g id="node13" class="node"><title>database</title>
<path fill="dodgerblue" stroke="black" d="M385,-396C385,-396 326,-396 326,-396 320,-396 314,-390 314,-384 314,-384 314,-372 314,-372 314,-366 320,-360 326,-360 326,-360 385,-360 385,-360 391,-360 397,-366 397,-372 397,-372 397,-384 397,-384 397,-390 391,-396 385,-396"/>
<text text-anchor="middle" x="355.5" y="-374.3" font-family="Times New Roman,serif" font-size="14.00">database/v2</text>
</g>
<!-- dcrutil&#45;&gt;database -->
<g id="edge11" class="edge"><title>dcrutil&#45;&gt;database</title>
<path fill="none" stroke="burlywood" d="M355.5,-421.831C355.5,-421.831 355.5,-396.413 355.5,-396.413"/>
<polygon fill="burlywood" stroke="burlywood" points="352,-421.831 355.5,-431.831 359,-421.831 352,-421.831"/>
</g>
<!-- hdkeychain -->
<g id="node14" class="node"><title>hdkeychain</title>
<path fill="deepskyblue" stroke="black" d="M344,-108C344,-108 271,-108 271,-108 265,-108 259,-102 259,-96 259,-96 259,-84 259,-84 259,-78 265,-72 271,-72 271,-72 344,-72 344,-72 350,-72 356,-78 356,-84 356,-84 356,-96 356,-96 356,-102 350,-108 344,-108"/>
<text text-anchor="middle" x="307.5" y="-86.3" font-family="Times New Roman,serif" font-size="14.00">hdkeychain/v2</text>
</g>
<!-- dcrutil&#45;&gt;hdkeychain -->
<g id="edge12" class="edge"><title>dcrutil&#45;&gt;hdkeychain</title>
<path fill="none" stroke="burlywood" d="M310.712,-441C310.712,-441 271.167,-441 271.167,-441 271.167,-441 271.167,-180.598 271.167,-108.377"/>
<polygon fill="burlywood" stroke="burlywood" points="310.712,-444.5 320.712,-441 310.711,-437.5 310.712,-444.5"/>
</g>
<!-- txscript -->
<g id="node15" class="node"><title>txscript</title>
<path fill="mediumspringgreen" stroke="black" d="M479.5,-396C479.5,-396 427.5,-396 427.5,-396 421.5,-396 415.5,-390 415.5,-384 415.5,-384 415.5,-372 415.5,-372 415.5,-366 421.5,-360 427.5,-360 427.5,-360 479.5,-360 479.5,-360 485.5,-360 491.5,-366 491.5,-372 491.5,-372 491.5,-384 491.5,-384 491.5,-390 485.5,-396 479.5,-396"/>
<text text-anchor="middle" x="453.5" y="-374.3" font-family="Times New Roman,serif" font-size="14.00">txscript/v2</text>
</g>
<!-- dcrutil&#45;&gt;txscript -->
<g id="edge13" class="edge"><title>dcrutil&#45;&gt;txscript</title>
<path fill="none" stroke="burlywood" d="M400.178,-444C400.178,-444 422.5,-444 422.5,-444 422.5,-444 422.5,-415.576 422.5,-396.035"/>
<polygon fill="burlywood" stroke="burlywood" points="400.178,-440.5 390.178,-444 400.177,-447.5 400.178,-440.5"/>
</g>
<!-- stake -->
<g id="node16" class="node"><title>stake</title>
<path fill="bisque" stroke="black" d="M505,-324C505,-324 402,-324 402,-324 396,-324 390,-318 390,-312 390,-312 390,-300 390,-300 390,-294 396,-288 402,-288 402,-288 505,-288 505,-288 511,-288 517,-294 517,-300 517,-300 517,-312 517,-312 517,-318 511,-324 505,-324"/>
<text text-anchor="middle" x="453.5" y="-302.3" font-family="Times New Roman,serif" font-size="14.00">blockchain/stake/v2</text>
</g>
<!-- database&#45;&gt;stake -->
<g id="edge14" class="edge"><title>database&#45;&gt;stake</title>
<path fill="none" stroke="dodgerblue" d="M393.5,-349.831C393.5,-349.831 393.5,-324.413 393.5,-324.413"/>
<polygon fill="dodgerblue" stroke="dodgerblue" points="390,-349.831 393.5,-359.831 397,-349.831 390,-349.831"/>
</g>
<!-- hdkeychain&#45;&gt;dcrd -->
<g id="edge26" class="edge"><title>hdkeychain&#45;&gt;dcrd</title>
<path fill="none" stroke="deepskyblue" d="M269.75,-61.8314C269.75,-61.8314 269.75,-36.4133 269.75,-36.4133"/>
<polygon fill="deepskyblue" stroke="deepskyblue" points="266.25,-61.8313 269.75,-71.8314 273.25,-61.8314 266.25,-61.8313"/>
</g>
<!-- txscript&#45;&gt;stake -->
<g id="edge15" class="edge"><title>txscript&#45;&gt;stake</title>
<path fill="none" stroke="mediumspringgreen" d="M453.5,-349.831C453.5,-349.831 453.5,-324.413 453.5,-324.413"/>
<polygon fill="mediumspringgreen" stroke="mediumspringgreen" points="450,-349.831 453.5,-359.831 457,-349.831 450,-349.831"/>
</g>
<!-- gcs -->
<g id="node18" class="node"><title>gcs</title>
<path fill="gold" stroke="black" d="M501.5,-252C501.5,-252 471.5,-252 471.5,-252 465.5,-252 459.5,-246 459.5,-240 459.5,-240 459.5,-228 459.5,-228 459.5,-222 465.5,-216 471.5,-216 471.5,-216 501.5,-216 501.5,-216 507.5,-216 513.5,-222 513.5,-228 513.5,-228 513.5,-240 513.5,-240 513.5,-246 507.5,-252 501.5,-252"/>
<text text-anchor="middle" x="486.5" y="-230.3" font-family="Times New Roman,serif" font-size="14.00">gcs</text>
</g>
<!-- stake&#45;&gt;gcs -->
<g id="edge16" class="edge"><title>stake&#45;&gt;gcs</title>
<path fill="none" stroke="bisque" d="M486.5,-277.831C486.5,-277.831 486.5,-252.413 486.5,-252.413"/>
<polygon fill="bisque" stroke="bisque" points="483,-277.831 486.5,-287.831 490,-277.831 483,-277.831"/>
</g>
<!-- standalone -->
<g id="node17" class="node"><title>standalone</title>
<path fill="#8b1a1a" stroke="black" d="M429.5,-252C429.5,-252 313.5,-252 313.5,-252 307.5,-252 301.5,-246 301.5,-240 301.5,-240 301.5,-228 301.5,-228 301.5,-222 307.5,-216 313.5,-216 313.5,-216 429.5,-216 429.5,-216 435.5,-216 441.5,-222 441.5,-228 441.5,-228 441.5,-240 441.5,-240 441.5,-246 435.5,-252 429.5,-252"/>
<text text-anchor="middle" x="371.5" y="-230.3" font-family="Times New Roman,serif" font-size="14.00">blockchain/standalone</text>
</g>
<!-- blockchain -->
<g id="node19" class="node"><title>blockchain</title>
<path fill="orchid" stroke="black" d="M401,-180C401,-180 330,-180 330,-180 324,-180 318,-174 318,-168 318,-168 318,-156 318,-156 318,-150 324,-144 330,-144 330,-144 401,-144 401,-144 407,-144 413,-150 413,-156 413,-156 413,-168 413,-168 413,-174 407,-180 401,-180"/>
<text text-anchor="middle" x="365.5" y="-158.3" font-family="Times New Roman,serif" font-size="14.00">blockchain/v2</text>
</g>
<!-- standalone&#45;&gt;blockchain -->
<g id="edge17" class="edge"><title>standalone&#45;&gt;blockchain</title>
<path fill="none" stroke="#8b1a1a" d="M349.667,-205.831C349.667,-205.831 349.667,-180.413 349.667,-180.413"/>
<polygon fill="#8b1a1a" stroke="#8b1a1a" points="346.167,-205.831 349.667,-215.831 353.167,-205.831 346.167,-205.831"/>
</g>
<!-- gcs&#45;&gt;blockchain -->
<g id="edge18" class="edge"><title>gcs&#45;&gt;blockchain</title>
<path fill="none" stroke="gold" d="M472.5,-205.578C472.5,-205.578 472.5,-198 472.5,-198 472.5,-198 381.333,-198 381.333,-198 381.333,-198 381.333,-189.279 381.333,-180.422"/>
<polygon fill="gold" stroke="gold" points="469,-205.578 472.5,-215.578 476,-205.578 469,-205.578"/>
</g>
<!-- gcs&#45;&gt;rpcclient -->
<g id="edge19" class="edge"><title>gcs&#45;&gt;rpcclient</title>
<path fill="none" stroke="gold" d="M499.5,-205.762C499.5,-205.762 499.5,-108.09 499.5,-108.09"/>
<polygon fill="gold" stroke="gold" points="496,-205.762 499.5,-215.762 503,-205.762 496,-205.762"/>
</g>
<!-- peer -->
<g id="node21" class="node"><title>peer</title>
<path fill="khaki" stroke="black" d="M420.5,-108C420.5,-108 386.5,-108 386.5,-108 380.5,-108 374.5,-102 374.5,-96 374.5,-96 374.5,-84 374.5,-84 374.5,-78 380.5,-72 386.5,-72 386.5,-72 420.5,-72 420.5,-72 426.5,-72 432.5,-78 432.5,-84 432.5,-84 432.5,-96 432.5,-96 432.5,-102 426.5,-108 420.5,-108"/>
<text text-anchor="middle" x="403.5" y="-86.3" font-family="Times New Roman,serif" font-size="14.00">peer/v2</text>
</g>
<!-- blockchain&#45;&gt;peer -->
<g id="edge21" class="edge"><title>blockchain&#45;&gt;peer</title>
<path fill="none" stroke="orchid" d="M393.75,-133.831C393.75,-133.831 393.75,-108.413 393.75,-108.413"/>
<polygon fill="orchid" stroke="orchid" points="390.25,-133.831 393.75,-143.831 397.25,-133.831 390.25,-133.831"/>
</g>
<!-- lru -->
<g id="node20" class="node"><title>lru</title>
<path fill="#3a5fcd" stroke="black" d="M473.5,-180C473.5,-180 443.5,-180 443.5,-180 437.5,-180 431.5,-174 431.5,-168 431.5,-168 431.5,-156 431.5,-156 431.5,-150 437.5,-144 443.5,-144 443.5,-144 473.5,-144 473.5,-144 479.5,-144 485.5,-150 485.5,-156 485.5,-156 485.5,-168 485.5,-168 485.5,-174 479.5,-180 473.5,-180"/>
<text text-anchor="middle" x="458.5" y="-158.3" font-family="Times New Roman,serif" font-size="14.00">lru</text>
</g>
<!-- lru&#45;&gt;peer -->
<g id="edge20" class="edge"><title>lru&#45;&gt;peer</title>
<path fill="none" stroke="#3a5fcd" d="M423.165,-162C423.165,-162 422.25,-162 422.25,-162 422.25,-162 422.25,-129.498 422.25,-108.169"/>
<polygon fill="#3a5fcd" stroke="#3a5fcd" points="421.397,-165.5 431.397,-162 421.397,-158.5 421.397,-165.5"/>
</g>
<!-- peer&#45;&gt;dcrd -->
<g id="edge29" class="edge"><title>peer&#45;&gt;dcrd</title>
<path fill="none" stroke="khaki" d="M403.5,-61.9652C403.5,-61.9652 403.5,-24 403.5,-24 403.5,-24 323.89,-24 280.664,-24"/>
<polygon fill="khaki" stroke="khaki" points="400,-61.9652 403.5,-71.9652 407,-61.9652 400,-61.9652"/>
</g>
<!-- rpcclient&#45;&gt;dcrd -->
<g id="edge28" class="edge"><title>rpcclient&#45;&gt;dcrd</title>
<path fill="none" stroke="mediumseagreen" d="M513.5,-61.9092C513.5,-61.9092 513.5,-12 513.5,-12 513.5,-12 347.587,-12 280.833,-12"/>
<polygon fill="mediumseagreen" stroke="mediumseagreen" points="510,-61.9091 513.5,-71.9092 517,-61.9092 510,-61.9091"/>
</g>
</g>
</svg>
