<?xml version="1.0" encoding="UTF-8" standalone="no"?>
<!DOCTYPE svg PUBLIC "-//W3C//DTD SVG 1.1//EN"
 "http://www.w3.org/Graphics/SVG/1.1/DTD/svg11.dtd">
<!-- Generated by graphviz version 2.38.0 (20140413.2041)
 -->
<!-- Title: %3 Pages: 1 -->
<svg width="613pt" height="720pt"
 viewBox="0.00 0.00 612.50 720.00" xmlns="http://www.w3.org/2000/svg" xmlns:xlink="http://www.w3.org/1999/xlink">
<g id="graph0" class="graph" transform="scale(1 1) rotate(0) translate(4 716)">
<title>%3</title>
<polygon fill="white" stroke="#000000" points="-4,4 -4,-716 608.5,-716 608.5,4 -4,4"/>
<text text-anchor="start" x="235.75" y="-694.6" font-family="Times New Roman,serif" text-decoration="underline" font-size="18.00">Module Hierarchy</text>
<!-- certgen -->
<g id="node1" class="node"><title>certgen</title>
<path fill="darkkhaki" stroke="black" d="M45,-108C45,-108 12,-108 12,-108 6,-108 0,-102 0,-96 0,-96 0,-84 0,-84 0,-78 6,-72 12,-72 12,-72 45,-72 45,-72 51,-72 57,-78 57,-84 57,-84 57,-96 57,-96 57,-102 51,-108 45,-108"/>
<text text-anchor="middle" x="28.5" y="-86.3" font-family="Times New Roman,serif" font-size="14.00">certgen</text>
</g>
<!-- dcrd -->
<g id="node24" class="node"><title>dcrd</title>
<path fill="chocolate" stroke="black" d="M322.5,-36C322.5,-36 292.5,-36 292.5,-36 286.5,-36 280.5,-30 280.5,-24 280.5,-24 280.5,-12 280.5,-12 280.5,-6 286.5,-0 292.5,-0 292.5,-0 322.5,-0 322.5,-0 328.5,-0 334.5,-6 334.5,-12 334.5,-12 334.5,-24 334.5,-24 334.5,-30 328.5,-36 322.5,-36"/>
<text text-anchor="middle" x="307.5" y="-14.3" font-family="Times New Roman,serif" font-size="14.00">dcrd</text>
</g>
<!-- certgen&#45;&gt;dcrd -->
<g id="edge25" class="edge"><title>certgen&#45;&gt;dcrd</title>
<path fill="none" stroke="darkkhaki" d="M28.5,-61.6198C28.5,-61.6198 28.5,-9 28.5,-9 28.5,-9 210.477,-9 280.495,-9"/>
<polygon fill="darkkhaki" stroke="darkkhaki" points="25.0001,-61.6198 28.5,-71.6198 32.0001,-61.6199 25.0001,-61.6198"/>
</g>
<!-- chainhash -->
<g id="node2" class="node"><title>chainhash</title>
<path fill="aquamarine" stroke="black" d="M457.5,-684C457.5,-684 359.5,-684 359.5,-684 353.5,-684 347.5,-678 347.5,-672 347.5,-672 347.5,-660 347.5,-660 347.5,-654 353.5,-648 359.5,-648 359.5,-648 457.5,-648 457.5,-648 463.5,-648 469.5,-654 469.5,-660 469.5,-660 469.5,-672 469.5,-672 469.5,-678 463.5,-684 457.5,-684"/>
<text text-anchor="middle" x="408.5" y="-662.3" font-family="Times New Roman,serif" font-size="14.00">chaincfg/chainhash</text>
</g>
<!-- dcrjson -->
<g id="node3" class="node"><title>dcrjson</title>
<path fill="indianred" stroke="black" d="M555.5,-612C555.5,-612 503.5,-612 503.5,-612 497.5,-612 491.5,-606 491.5,-600 491.5,-600 491.5,-588 491.5,-588 491.5,-582 497.5,-576 503.5,-576 503.5,-576 555.5,-576 555.5,-576 561.5,-576 567.5,-582 567.5,-588 567.5,-588 567.5,-600 567.5,-600 567.5,-606 561.5,-612 555.5,-612"/>
<text text-anchor="middle" x="529.5" y="-590.3" font-family="Times New Roman,serif" font-size="14.00">dcrjson/v3</text>
</g>
<!-- chainhash&#45;&gt;dcrjson -->
<g id="edge1" class="edge"><title>chainhash&#45;&gt;dcrjson</title>
<path fill="none" stroke="aquamarine" d="M479.709,-666C479.709,-666 529.5,-666 529.5,-666 529.5,-666 529.5,-633.498 529.5,-612.169"/>
<polygon fill="aquamarine" stroke="aquamarine" points="479.709,-662.5 469.709,-666 479.709,-669.5 479.709,-662.5"/>
</g>
<!-- wire -->
<g id="node5" class="node"><title>wire</title>
<path fill="coral" stroke="black" d="M197.5,-612C197.5,-612 167.5,-612 167.5,-612 161.5,-612 155.5,-606 155.5,-600 155.5,-600 155.5,-588 155.5,-588 155.5,-582 161.5,-576 167.5,-576 167.5,-576 197.5,-576 197.5,-576 203.5,-576 209.5,-582 209.5,-588 209.5,-588 209.5,-600 209.5,-600 209.5,-606 203.5,-612 197.5,-612"/>
<text text-anchor="middle" x="182.5" y="-590.3" font-family="Times New Roman,serif" font-size="14.00">wire</text>
</g>
<!-- chainhash&#45;&gt;wire -->
<g id="edge2" class="edge"><title>chainhash&#45;&gt;wire</title>
<path fill="none" stroke="aquamarine" d="M337.341,-666C337.341,-666 182.5,-666 182.5,-666 182.5,-666 182.5,-633.498 182.5,-612.169"/>
<polygon fill="aquamarine" stroke="aquamarine" points="337.341,-669.5 347.341,-666 337.341,-662.5 337.341,-669.5"/>
</g>
<!-- secp256k1 -->
<g id="node11" class="node"><title>secp256k1</title>
<path fill="mediumvioletred" stroke="black" d="M461,-612C461,-612 356,-612 356,-612 350,-612 344,-606 344,-600 344,-600 344,-588 344,-588 344,-582 350,-576 356,-576 356,-576 461,-576 461,-576 467,-576 473,-582 473,-588 473,-588 473,-600 473,-600 473,-606 467,-612 461,-612"/>
<text text-anchor="middle" x="408.5" y="-590.3" font-family="Times New Roman,serif" font-size="14.00">dcrec/secp256k1/v2</text>
</g>
<!-- chainhash&#45;&gt;secp256k1 -->
<g id="edge6" class="edge"><title>chainhash&#45;&gt;secp256k1</title>
<path fill="none" stroke="aquamarine" d="M408.5,-637.831C408.5,-637.831 408.5,-612.413 408.5,-612.413"/>
<polygon fill="aquamarine" stroke="aquamarine" points="405,-637.831 408.5,-647.831 412,-637.831 405,-637.831"/>
</g>
<!-- types -->
<g id="node4" class="node"><title>types</title>
<path fill="tomato" stroke="black" d="M575,-468C575,-468 484,-468 484,-468 478,-468 472,-462 472,-456 472,-456 472,-444 472,-444 472,-438 478,-432 484,-432 484,-432 575,-432 575,-432 581,-432 587,-438 587,-444 587,-444 587,-456 587,-456 587,-462 581,-468 575,-468"/>
<text text-anchor="middle" x="529.5" y="-446.3" font-family="Times New Roman,serif" font-size="14.00">rpc/jsonrpc/types</text>
</g>
<!-- dcrjson&#45;&gt;types -->
<g id="edge22" class="edge"><title>dcrjson&#45;&gt;types</title>
<path fill="none" stroke="tomato" d="M529.5,-565.762C529.5,-565.762 529.5,-468.09 529.5,-468.09"/>
<polygon fill="tomato" stroke="tomato" points="526,-565.762 529.5,-575.762 533,-565.762 526,-565.762"/>
</g>
<!-- rpcclient -->
<g id="node22" class="node"><title>rpcclient</title>
<path fill="mediumseagreen" stroke="black" d="M520.5,-108C520.5,-108 462.5,-108 462.5,-108 456.5,-108 450.5,-102 450.5,-96 450.5,-96 450.5,-84 450.5,-84 450.5,-78 456.5,-72 462.5,-72 462.5,-72 520.5,-72 520.5,-72 526.5,-72 532.5,-78 532.5,-84 532.5,-84 532.5,-96 532.5,-96 532.5,-102 526.5,-108 520.5,-108"/>
<text text-anchor="middle" x="491.5" y="-86.3" font-family="Times New Roman,serif" font-size="14.00">rpcclient/v4</text>
</g>
<!-- types&#45;&gt;rpcclient -->
<g id="edge23" class="edge"><title>types&#45;&gt;rpcclient</title>
<path fill="none" stroke="indianred" d="M513,-421.653C513,-421.653 513,-108.31 513,-108.31"/>
<polygon fill="indianred" stroke="indianred" points="509.5,-421.653 513,-431.653 516.5,-421.653 509.5,-421.653"/>
</g>
<!-- addrmgr -->
<g id="node6" class="node"><title>addrmgr</title>
<path fill="lightsalmon" stroke="black" d="M127.5,-108C127.5,-108 87.5,-108 87.5,-108 81.5,-108 75.5,-102 75.5,-96 75.5,-96 75.5,-84 75.5,-84 75.5,-78 81.5,-72 87.5,-72 87.5,-72 127.5,-72 127.5,-72 133.5,-72 139.5,-78 139.5,-84 139.5,-84 139.5,-96 139.5,-96 139.5,-102 133.5,-108 127.5,-108"/>
<text text-anchor="middle" x="107.5" y="-86.3" font-family="Times New Roman,serif" font-size="14.00">addrmgr</text>
</g>
<!-- wire&#45;&gt;addrmgr -->
<g id="edge3" class="edge"><title>wire&#45;&gt;addrmgr</title>
<path fill="none" stroke="coral" d="M145.423,-594C145.423,-594 107.5,-594 107.5,-594 107.5,-594 107.5,-198.592 107.5,-108.235"/>
<polygon fill="coral" stroke="coral" points="145.423,-597.5 155.423,-594 145.423,-590.5 145.423,-597.5"/>
</g>
<!-- chaincfg -->
<g id="node7" class="node"><title>chaincfg</title>
<path fill="cadetblue" stroke="black" d="M211,-540C211,-540 154,-540 154,-540 148,-540 142,-534 142,-528 142,-528 142,-516 142,-516 142,-510 148,-504 154,-504 154,-504 211,-504 211,-504 217,-504 223,-510 223,-516 223,-516 223,-528 223,-528 223,-534 217,-540 211,-540"/>
<text text-anchor="middle" x="182.5" y="-518.3" font-family="Times New Roman,serif" font-size="14.00">chaincfg/v2</text>
</g>
<!-- wire&#45;&gt;chaincfg -->
<g id="edge4" class="edge"><title>wire&#45;&gt;chaincfg</title>
<path fill="none" stroke="coral" d="M182.5,-565.831C182.5,-565.831 182.5,-540.413 182.5,-540.413"/>
<polygon fill="coral" stroke="coral" points="179,-565.831 182.5,-575.831 186,-565.831 179,-565.831"/>
</g>
<!-- addrmgr&#45;&gt;dcrd -->
<g id="edge26" class="edge"><title>addrmgr&#45;&gt;dcrd</title>
<path fill="none" stroke="lightsalmon" d="M107.5,-61.8314C107.5,-61.8314 107.5,-18 107.5,-18 107.5,-18 225.335,-18 280.11,-18"/>
<polygon fill="lightsalmon" stroke="lightsalmon" points="104,-61.8313 107.5,-71.8314 111,-61.8314 104,-61.8313"/>
</g>
<!-- connmgr -->
<g id="node8" class="node"><title>connmgr</title>
<path fill="mistyrose" stroke="black" d="M229,-108C229,-108 170,-108 170,-108 164,-108 158,-102 158,-96 158,-96 158,-84 158,-84 158,-78 164,-72 170,-72 170,-72 229,-72 229,-72 235,-72 241,-78 241,-84 241,-84 241,-96 241,-96 241,-102 235,-108 229,-108"/>
<text text-anchor="middle" x="199.5" y="-86.3" font-family="Times New Roman,serif" font-size="14.00">connmgr/v2</text>
</g>
<!-- chaincfg&#45;&gt;connmgr -->
<g id="edge5" class="edge"><title>chaincfg&#45;&gt;connmgr</title>
<path fill="none" stroke="cadetblue" d="M179.667,-493.987C179.667,-493.987 179.667,-108.089 179.667,-108.089"/>
<polygon fill="cadetblue" stroke="cadetblue" points="176.167,-493.987 179.667,-503.987 183.167,-493.988 176.167,-493.987"/>
</g>
<!-- dcrutil -->
<g id="node12" class="node"><title>dcrutil</title>
<path fill="burlywood" stroke="black" d="M354,-468C354,-468 309,-468 309,-468 303,-468 297,-462 297,-456 297,-456 297,-444 297,-444 297,-438 303,-432 309,-432 309,-432 354,-432 354,-432 360,-432 366,-438 366,-444 366,-444 366,-456 366,-456 366,-462 360,-468 354,-468"/>
<text text-anchor="middle" x="331.5" y="-446.3" font-family="Times New Roman,serif" font-size="14.00">dcrutil/v2</text>
</g>
<!-- chaincfg&#45;&gt;dcrutil -->
<g id="edge7" class="edge"><title>chaincfg&#45;&gt;dcrutil</title>
<path fill="none" stroke="cadetblue" d="M201.333,-493.965C201.333,-493.965 201.333,-456 201.333,-456 201.333,-456 258.397,-456 296.959,-456"/>
<polygon fill="cadetblue" stroke="cadetblue" points="197.833,-493.965 201.333,-503.965 204.833,-493.965 197.833,-493.965"/>
</g>
<!-- connmgr&#45;&gt;dcrd -->
<g id="edge28" class="edge"><title>connmgr&#45;&gt;dcrd</title>
<path fill="none" stroke="mistyrose" d="M199.5,-61.7778C199.5,-61.7778 199.5,-27 199.5,-27 199.5,-27 248.253,-27 280.247,-27"/>
<polygon fill="mistyrose" stroke="mistyrose" points="196,-61.7778 199.5,-71.7778 203,-61.7778 196,-61.7778"/>
</g>
<!-- dcrec -->
<g id="node9" class="node"><title>dcrec</title>
<path fill="mediumpurple" stroke="black" d="M283.5,-540C283.5,-540 253.5,-540 253.5,-540 247.5,-540 241.5,-534 241.5,-528 241.5,-528 241.5,-516 241.5,-516 241.5,-510 247.5,-504 253.5,-504 253.5,-504 283.5,-504 283.5,-504 289.5,-504 295.5,-510 295.5,-516 295.5,-516 295.5,-528 295.5,-528 295.5,-534 289.5,-540 283.5,-540"/>
<text text-anchor="middle" x="268.5" y="-518.3" font-family="Times New Roman,serif" font-size="14.00">dcrec</text>
</g>
<!-- dcrec&#45;&gt;dcrutil -->
<g id="edge8" class="edge"><title>dcrec&#45;&gt;dcrutil</title>
<path fill="none" stroke="mediumpurple" d="M301.812,-522C301.812,-522 302.5,-522 302.5,-522 302.5,-522 302.5,-489.498 302.5,-468.169"/>
<polygon fill="mediumpurple" stroke="mediumpurple" points="305.62,-518.5 295.62,-522 305.62,-525.5 305.62,-518.5"/>
</g>
<!-- edwards -->
<g id="node10" class="node"><title>edwards</title>
<path fill="lightseagreen" stroke="black" d="M417.5,-540C417.5,-540 325.5,-540 325.5,-540 319.5,-540 313.5,-534 313.5,-528 313.5,-528 313.5,-516 313.5,-516 313.5,-510 319.5,-504 325.5,-504 325.5,-504 417.5,-504 417.5,-504 423.5,-504 429.5,-510 429.5,-516 429.5,-516 429.5,-528 429.5,-528 429.5,-534 423.5,-540 417.5,-540"/>
<text text-anchor="middle" x="371.5" y="-518.3" font-family="Times New Roman,serif" font-size="14.00">dcrec/edwards/v2</text>
</g>
<!-- edwards&#45;&gt;dcrutil -->
<g id="edge9" class="edge"><title>edwards&#45;&gt;dcrutil</title>
<path fill="none" stroke="lightseagreen" d="M339.75,-493.831C339.75,-493.831 339.75,-468.413 339.75,-468.413"/>
<polygon fill="lightseagreen" stroke="lightseagreen" points="336.25,-493.831 339.75,-503.831 343.25,-493.831 336.25,-493.831"/>
</g>
<!-- secp256k1&#45;&gt;dcrutil -->
<g id="edge10" class="edge"><title>secp256k1&#45;&gt;dcrutil</title>
<path fill="none" stroke="mediumvioletred" d="M333.999,-594C333.999,-594 308,-594 308,-594 308,-594 308,-506.986 308,-468.238"/>
<polygon fill="mediumvioletred" stroke="mediumvioletred" points="333.999,-597.5 343.999,-594 333.999,-590.5 333.999,-597.5"/>
</g>
<!-- database -->
<g id="node13" class="node"><title>database</title>
<path fill="dodgerblue" stroke="black" d="M361,-396C361,-396 302,-396 302,-396 296,-396 290,-390 290,-384 290,-384 290,-372 290,-372 290,-366 296,-360 302,-360 302,-360 361,-360 361,-360 367,-360 373,-366 373,-372 373,-372 373,-384 373,-384 373,-390 367,-396 361,-396"/>
<text text-anchor="middle" x="331.5" y="-374.3" font-family="Times New Roman,serif" font-size="14.00">database/v2</text>
</g>
<!-- dcrutil&#45;&gt;database -->
<g id="edge11" class="edge"><title>dcrutil&#45;&gt;database</title>
<path fill="none" stroke="burlywood" d="M331.5,-421.831C331.5,-421.831 331.5,-396.413 331.5,-396.413"/>
<polygon fill="burlywood" stroke="burlywood" points="328,-421.831 331.5,-431.831 335,-421.831 328,-421.831"/>
</g>
<!-- hdkeychain -->
<g id="node14" class="node"><title>hdkeychain</title>
<path fill="deepskyblue" stroke="black" d="M344,-108C344,-108 271,-108 271,-108 265,-108 259,-102 259,-96 259,-96 259,-84 259,-84 259,-78 265,-72 271,-72 271,-72 344,-72 344,-72 350,-72 356,-78 356,-84 356,-84 356,-96 356,-96 356,-102 350,-108 344,-108"/>
<text text-anchor="middle" x="307.5" y="-86.3" font-family="Times New Roman,serif" font-size="14.00">hdkeychain/v2</text>
</g>
<!-- dcrutil&#45;&gt;hdkeychain -->
<g id="edge12" class="edge"><title>dcrutil&#45;&gt;hdkeychain</title>
<path fill="none" stroke="burlywood" d="M286.937,-444C286.937,-444 270.25,-444 270.25,-444 270.25,-444 270.25,-180.18 270.25,-108.042"/>
<polygon fill="burlywood" stroke="burlywood" points="286.937,-447.5 296.937,-444 286.937,-440.5 286.937,-447.5"/>
</g>
<!-- txscript -->
<g id="node15" class="node"><title>txscript</title>
<path fill="mediumspringgreen" stroke="black" d="M455.5,-396C455.5,-396 403.5,-396 403.5,-396 397.5,-396 391.5,-390 391.5,-384 391.5,-384 391.5,-372 391.5,-372 391.5,-366 397.5,-360 403.5,-360 403.5,-360 455.5,-360 455.5,-360 461.5,-360 467.5,-366 467.5,-372 467.5,-372 467.5,-384 467.5,-384 467.5,-390 461.5,-396 455.5,-396"/>
<text text-anchor="middle" x="429.5" y="-374.3" font-family="Times New Roman,serif" font-size="14.00">txscript/v2</text>
</g>
<!-- dcrutil&#45;&gt;txscript -->
<g id="edge13" class="edge"><title>dcrutil&#45;&gt;txscript</title>
<path fill="none" stroke="burlywood" d="M376.381,-450C376.381,-450 410.5,-450 410.5,-450 410.5,-450 410.5,-417.498 410.5,-396.169"/>
<polygon fill="burlywood" stroke="burlywood" points="376.381,-446.5 366.381,-450 376.38,-453.5 376.381,-446.5"/>
</g>
<!-- stake -->
<g id="node16" class="node"><title>stake</title>
<path fill="bisque" stroke="black" d="M481,-324C481,-324 378,-324 378,-324 372,-324 366,-318 366,-312 366,-312 366,-300 366,-300 366,-294 372,-288 378,-288 378,-288 481,-288 481,-288 487,-288 493,-294 493,-300 493,-300 493,-312 493,-312 493,-318 487,-324 481,-324"/>
<text text-anchor="middle" x="429.5" y="-302.3" font-family="Times New Roman,serif" font-size="14.00">blockchain/stake/v2</text>
</g>
<!-- database&#45;&gt;stake -->
<g id="edge14" class="edge"><title>database&#45;&gt;stake</title>
<path fill="none" stroke="dodgerblue" d="M369.5,-349.831C369.5,-349.831 369.5,-324.413 369.5,-324.413"/>
<polygon fill="dodgerblue" stroke="dodgerblue" points="366,-349.831 369.5,-359.831 373,-349.831 366,-349.831"/>
</g>
<!-- hdkeychain&#45;&gt;dcrd -->
<g id="edge27" class="edge"><title>hdkeychain&#45;&gt;dcrd</title>
<path fill="none" stroke="deepskyblue" d="M307.5,-61.8314C307.5,-61.8314 307.5,-36.4133 307.5,-36.4133"/>
<polygon fill="deepskyblue" stroke="deepskyblue" points="304,-61.8313 307.5,-71.8314 311,-61.8314 304,-61.8313"/>
</g>
<!-- txscript&#45;&gt;stake -->
<g id="edge15" class="edge"><title>txscript&#45;&gt;stake</title>
<path fill="none" stroke="mediumspringgreen" d="M429.5,-349.831C429.5,-349.831 429.5,-324.413 429.5,-324.413"/>
<polygon fill="mediumspringgreen" stroke="mediumspringgreen" points="426,-349.831 429.5,-359.831 433,-349.831 426,-349.831"/>
</g>
<!-- gcs -->
<g id="node18" class="node"><title>gcs</title>
<path fill="gold" stroke="black" d="M481.5,-252C481.5,-252 451.5,-252 451.5,-252 445.5,-252 439.5,-246 439.5,-240 439.5,-240 439.5,-228 439.5,-228 439.5,-222 445.5,-216 451.5,-216 451.5,-216 481.5,-216 481.5,-216 487.5,-216 493.5,-222 493.5,-228 493.5,-228 493.5,-240 493.5,-240 493.5,-246 487.5,-252 481.5,-252"/>
<text text-anchor="middle" x="466.5" y="-230.3" font-family="Times New Roman,serif" font-size="14.00">gcs</text>
</g>
<!-- stake&#45;&gt;gcs -->
<g id="edge16" class="edge"><title>stake&#45;&gt;gcs</title>
<path fill="none" stroke="bisque" d="M466.25,-277.831C466.25,-277.831 466.25,-252.413 466.25,-252.413"/>
<polygon fill="bisque" stroke="bisque" points="462.75,-277.831 466.25,-287.831 469.75,-277.831 462.75,-277.831"/>
</g>
<!-- standalone -->
<g id="node17" class="node"><title>standalone</title>
<path fill="#8b1a1a" stroke="black" d="M409.5,-252C409.5,-252 293.5,-252 293.5,-252 287.5,-252 281.5,-246 281.5,-240 281.5,-240 281.5,-228 281.5,-228 281.5,-222 287.5,-216 293.5,-216 293.5,-216 409.5,-216 409.5,-216 415.5,-216 421.5,-222 421.5,-228 421.5,-228 421.5,-240 421.5,-240 421.5,-246 415.5,-252 409.5,-252"/>
<text text-anchor="middle" x="351.5" y="-230.3" font-family="Times New Roman,serif" font-size="14.00">blockchain/standalone</text>
</g>
<!-- blockchain -->
<g id="node19" class="node"><title>blockchain</title>
<path fill="orchid" stroke="black" d="M379,-180C379,-180 308,-180 308,-180 302,-180 296,-174 296,-168 296,-168 296,-156 296,-156 296,-150 302,-144 308,-144 308,-144 379,-144 379,-144 385,-144 391,-150 391,-156 391,-156 391,-168 391,-168 391,-174 385,-180 379,-180"/>
<text text-anchor="middle" x="343.5" y="-158.3" font-family="Times New Roman,serif" font-size="14.00">blockchain/v2</text>
</g>
<!-- standalone&#45;&gt;blockchain -->
<g id="edge17" class="edge"><title>standalone&#45;&gt;blockchain</title>
<path fill="none" stroke="#8b1a1a" d="M327.667,-205.831C327.667,-205.831 327.667,-180.413 327.667,-180.413"/>
<polygon fill="#8b1a1a" stroke="#8b1a1a" points="324.167,-205.831 327.667,-215.831 331.167,-205.831 324.167,-205.831"/>
</g>
<!-- gcs&#45;&gt;blockchain -->
<g id="edge18" class="edge"><title>gcs&#45;&gt;blockchain</title>
<path fill="none" stroke="gold" d="M451.5,-205.578C451.5,-205.578 451.5,-198 451.5,-198 451.5,-198 359.333,-198 359.333,-198 359.333,-198 359.333,-189.279 359.333,-180.422"/>
<polygon fill="gold" stroke="gold" points="448,-205.578 451.5,-215.578 455,-205.578 448,-205.578"/>
</g>
<!-- gcs&#45;&gt;rpcclient -->
<g id="edge19" class="edge"><title>gcs&#45;&gt;rpcclient</title>
<path fill="none" stroke="gold" d="M478.5,-205.762C478.5,-205.762 478.5,-108.09 478.5,-108.09"/>
<polygon fill="gold" stroke="gold" points="475,-205.762 478.5,-215.762 482,-205.762 475,-205.762"/>
</g>
<!-- peer -->
<g id="node21" class="node"><title>peer</title>
<path fill="khaki" stroke="black" d="M420.5,-108C420.5,-108 386.5,-108 386.5,-108 380.5,-108 374.5,-102 374.5,-96 374.5,-96 374.5,-84 374.5,-84 374.5,-78 380.5,-72 386.5,-72 386.5,-72 420.5,-72 420.5,-72 426.5,-72 432.5,-78 432.5,-84 432.5,-84 432.5,-96 432.5,-96 432.5,-102 426.5,-108 420.5,-108"/>
<text text-anchor="middle" x="403.5" y="-86.3" font-family="Times New Roman,serif" font-size="14.00">peer/v2</text>
</g>
<!-- blockchain&#45;&gt;peer -->
<g id="edge21" class="edge"><title>blockchain&#45;&gt;peer</title>
<path fill="none" stroke="orchid" d="M382.75,-133.831C382.75,-133.831 382.75,-108.413 382.75,-108.413"/>
<polygon fill="orchid" stroke="orchid" points="379.25,-133.831 382.75,-143.831 386.25,-133.831 379.25,-133.831"/>
</g>
<!-- lru -->
<g id="node20" class="node"><title>lru</title>
<path fill="#3a5fcd" stroke="black" d="M451.5,-180C451.5,-180 421.5,-180 421.5,-180 415.5,-180 409.5,-174 409.5,-168 409.5,-168 409.5,-156 409.5,-156 409.5,-150 415.5,-144 421.5,-144 421.5,-144 451.5,-144 451.5,-144 457.5,-144 463.5,-150 463.5,-156 463.5,-156 463.5,-168 463.5,-168 463.5,-174 457.5,-180 451.5,-180"/>
<text text-anchor="middle" x="436.5" y="-158.3" font-family="Times New Roman,serif" font-size="14.00">lru</text>
</g>
<!-- lru&#45;&gt;peer -->
<g id="edge20" class="edge"><title>lru&#45;&gt;peer</title>
<path fill="none" stroke="#3a5fcd" d="M421,-133.831C421,-133.831 421,-108.413 421,-108.413"/>
<polygon fill="#3a5fcd" stroke="#3a5fcd" points="417.5,-133.831 421,-143.831 424.5,-133.831 417.5,-133.831"/>
</g>
<!-- peer&#45;&gt;dcrd -->
<g id="edge30" class="edge"><title>peer&#45;&gt;dcrd</title>
<path fill="none" stroke="khaki" d="M403.5,-61.7778C403.5,-61.7778 403.5,-27 403.5,-27 403.5,-27 363.135,-27 334.753,-27"/>
<polygon fill="khaki" stroke="khaki" points="400,-61.7778 403.5,-71.7778 407,-61.7778 400,-61.7778"/>
</g>
<!-- rpcclient&#45;&gt;dcrd -->
<g id="edge29" class="edge"><title>rpcclient&#45;&gt;dcrd</title>
<path fill="none" stroke="mediumseagreen" d="M491.5,-61.8314C491.5,-61.8314 491.5,-18 491.5,-18 491.5,-18 385.833,-18 334.65,-18"/>
<polygon fill="mediumseagreen" stroke="mediumseagreen" points="488,-61.8313 491.5,-71.8314 495,-61.8314 488,-61.8313"/>
</g>
<!-- fees -->
<g id="node23" class="node"><title>fees</title>
<path fill="#bcee68" stroke="black" d="M592.5,-108C592.5,-108 562.5,-108 562.5,-108 556.5,-108 550.5,-102 550.5,-96 550.5,-96 550.5,-84 550.5,-84 550.5,-78 556.5,-72 562.5,-72 562.5,-72 592.5,-72 592.5,-72 598.5,-72 604.5,-78 604.5,-84 604.5,-84 604.5,-96 604.5,-96 604.5,-102 598.5,-108 592.5,-108"/>
<text text-anchor="middle" x="577.5" y="-86.3" font-family="Times New Roman,serif" font-size="14.00">fees</text>
</g>
<!-- fees&#45;&gt;dcrd -->
<g id="edge24" class="edge"><title>fees&#45;&gt;dcrd</title>
<path fill="none" stroke="#bcee68" d="M577.5,-61.6198C577.5,-61.6198 577.5,-9 577.5,-9 577.5,-9 403.093,-9 334.625,-9"/>
<polygon fill="#bcee68" stroke="#bcee68" points="574,-61.6198 577.5,-71.6198 581,-61.6199 574,-61.6198"/>
</g>
</g>
</svg>
