<?xml version="1.0" encoding="UTF-8" standalone="no"?>
<!DOCTYPE svg PUBLIC "-//W3C//DTD SVG 1.1//EN"
 "http://www.w3.org/Graphics/SVG/1.1/DTD/svg11.dtd">
<!-- Generated by graphviz version 2.38.0 (20140413.2041)
 -->
<!-- Title: %3 Pages: 1 -->
<svg width="1044pt" height="720pt"
 viewBox="0.00 0.00 1043.50 720.00" xmlns="http://www.w3.org/2000/svg" xmlns:xlink="http://www.w3.org/1999/xlink">
<g id="graph0" class="graph" transform="scale(1 1) rotate(0) translate(4 716)">
<title>%3</title>
<polygon fill="white" stroke="#000000" points="-4,4 -4,-716 1039.5,-716 1039.5,4 -4,4"/>
<text text-anchor="start" x="451.25" y="-694.6" font-family="Times New Roman,serif" text-decoration="underline" font-size="18.00">Module Hierarchy</text>
<!-- blake256 -->
<g id="node1" class="node"><title>blake256</title>
<path fill="cornflowerblue" stroke="black" d="M106,-684C106,-684 23,-684 23,-684 17,-684 11,-678 11,-672 11,-672 11,-660 11,-660 11,-654 17,-648 23,-648 23,-648 106,-648 106,-648 112,-648 118,-654 118,-660 118,-660 118,-672 118,-672 118,-678 112,-684 106,-684"/>
<text text-anchor="middle" x="64.5" y="-662.3" font-family="Times New Roman,serif" font-size="14.00">crypto/blake256</text>
</g>
<!-- chainhash -->
<g id="node5" class="node"><title>chainhash</title>
<path fill="aquamarine" stroke="black" d="M246.5,-684C246.5,-684 148.5,-684 148.5,-684 142.5,-684 136.5,-678 136.5,-672 136.5,-672 136.5,-660 136.5,-660 136.5,-654 142.5,-648 148.5,-648 148.5,-648 246.5,-648 246.5,-648 252.5,-648 258.5,-654 258.5,-660 258.5,-660 258.5,-672 258.5,-672 258.5,-678 252.5,-684 246.5,-684"/>
<text text-anchor="middle" x="197.5" y="-662.3" font-family="Times New Roman,serif" font-size="14.00">chaincfg/chainhash</text>
</g>
<!-- blake256&#45;&gt;chainhash -->
<g id="edge1" class="edge"><title>blake256&#45;&gt;chainhash</title>
<path fill="none" stroke="cornflowerblue" d="M128.213,-666C128.213,-666 136.172,-666 136.172,-666"/>
<polygon fill="cornflowerblue" stroke="cornflowerblue" points="128.213,-662.5 118.213,-666 128.213,-669.5 128.213,-662.5"/>
</g>
<!-- secp256k1 -->
<g id="node14" class="node"><title>secp256k1</title>
<path fill="mediumvioletred" stroke="black" d="M117,-540C117,-540 12,-540 12,-540 6,-540 0,-534 0,-528 0,-528 0,-516 0,-516 0,-510 6,-504 12,-504 12,-504 117,-504 117,-504 123,-504 129,-510 129,-516 129,-516 129,-528 129,-528 129,-534 123,-540 117,-540"/>
<text text-anchor="middle" x="64.5" y="-518.3" font-family="Times New Roman,serif" font-size="14.00">dcrec/secp256k1/v4</text>
</g>
<!-- blake256&#45;&gt;secp256k1 -->
<g id="edge2" class="edge"><title>blake256&#45;&gt;secp256k1</title>
<path fill="none" stroke="cornflowerblue" d="M64.5,-637.762C64.5,-637.762 64.5,-540.09 64.5,-540.09"/>
<polygon fill="cornflowerblue" stroke="cornflowerblue" points="61.0001,-637.762 64.5,-647.762 68.0001,-637.762 61.0001,-637.762"/>
</g>
<!-- ripemd160 -->
<g id="node2" class="node"><title>ripemd160</title>
<path fill="darkturquoise" stroke="black" d="M495.5,-540C495.5,-540 403.5,-540 403.5,-540 397.5,-540 391.5,-534 391.5,-528 391.5,-528 391.5,-516 391.5,-516 391.5,-510 397.5,-504 403.5,-504 403.5,-504 495.5,-504 495.5,-504 501.5,-504 507.5,-510 507.5,-516 507.5,-516 507.5,-528 507.5,-528 507.5,-534 501.5,-540 495.5,-540"/>
<text text-anchor="middle" x="449.5" y="-518.3" font-family="Times New Roman,serif" font-size="14.00">crypto/ripemd160</text>
</g>
<!-- txscript -->
<g id="node18" class="node"><title>txscript</title>
<path fill="mediumspringgreen" stroke="black" d="M337.5,-468C337.5,-468 285.5,-468 285.5,-468 279.5,-468 273.5,-462 273.5,-456 273.5,-456 273.5,-444 273.5,-444 273.5,-438 279.5,-432 285.5,-432 285.5,-432 337.5,-432 337.5,-432 343.5,-432 349.5,-438 349.5,-444 349.5,-444 349.5,-456 349.5,-456 349.5,-462 343.5,-468 337.5,-468"/>
<text text-anchor="middle" x="311.5" y="-446.3" font-family="Times New Roman,serif" font-size="14.00">txscript/v4</text>
</g>
<!-- ripemd160&#45;&gt;txscript -->
<g id="edge10" class="edge"><title>ripemd160&#45;&gt;txscript</title>
<path fill="none" stroke="darkturquoise" d="M420.5,-493.778C420.5,-493.778 420.5,-459 420.5,-459 420.5,-459 381.055,-459 349.623,-459"/>
<polygon fill="darkturquoise" stroke="darkturquoise" points="417,-493.778 420.5,-503.778 424,-493.778 417,-493.778"/>
</g>
<!-- certgen -->
<g id="node3" class="node"><title>certgen</title>
<path fill="darkkhaki" stroke="black" d="M527,-108C527,-108 494,-108 494,-108 488,-108 482,-102 482,-96 482,-96 482,-84 482,-84 482,-78 488,-72 494,-72 494,-72 527,-72 527,-72 533,-72 539,-78 539,-84 539,-84 539,-96 539,-96 539,-102 533,-108 527,-108"/>
<text text-anchor="middle" x="510.5" y="-86.3" font-family="Times New Roman,serif" font-size="14.00">certgen</text>
</g>
<!-- dcrd -->
<g id="node28" class="node"><title>dcrd</title>
<path fill="chocolate" stroke="black" d="M562.5,-36C562.5,-36 532.5,-36 532.5,-36 526.5,-36 520.5,-30 520.5,-24 520.5,-24 520.5,-12 520.5,-12 520.5,-6 526.5,-0 532.5,-0 532.5,-0 562.5,-0 562.5,-0 568.5,-0 574.5,-6 574.5,-12 574.5,-12 574.5,-24 574.5,-24 574.5,-30 568.5,-36 562.5,-36"/>
<text text-anchor="middle" x="547.5" y="-14.3" font-family="Times New Roman,serif" font-size="14.00">dcrd</text>
</g>
<!-- certgen&#45;&gt;dcrd -->
<g id="edge27" class="edge"><title>certgen&#45;&gt;dcrd</title>
<path fill="none" stroke="darkkhaki" d="M529.75,-61.8314C529.75,-61.8314 529.75,-36.4133 529.75,-36.4133"/>
<polygon fill="darkkhaki" stroke="darkkhaki" points="526.25,-61.8313 529.75,-71.8314 533.25,-61.8314 526.25,-61.8313"/>
</g>
<!-- bech32 -->
<g id="node4" class="node"><title>bech32</title>
<path fill="#cdc0b0" stroke="black" d="M602,-108C602,-108 569,-108 569,-108 563,-108 557,-102 557,-96 557,-96 557,-84 557,-84 557,-78 563,-72 569,-72 569,-72 602,-72 602,-72 608,-72 614,-78 614,-84 614,-84 614,-96 614,-96 614,-102 608,-108 602,-108"/>
<text text-anchor="middle" x="585.5" y="-86.3" font-family="Times New Roman,serif" font-size="14.00">bech32</text>
</g>
<!-- bech32&#45;&gt;dcrd -->
<g id="edge28" class="edge"><title>bech32&#45;&gt;dcrd</title>
<path fill="none" stroke="#cdc0b0" d="M565.75,-61.8314C565.75,-61.8314 565.75,-36.4133 565.75,-36.4133"/>
<polygon fill="#cdc0b0" stroke="#cdc0b0" points="562.25,-61.8313 565.75,-71.8314 569.25,-61.8314 562.25,-61.8313"/>
</g>
<!-- dcrjson -->
<g id="node6" class="node"><title>dcrjson</title>
<path fill="indianred" stroke="black" d="M203.5,-612C203.5,-612 151.5,-612 151.5,-612 145.5,-612 139.5,-606 139.5,-600 139.5,-600 139.5,-588 139.5,-588 139.5,-582 145.5,-576 151.5,-576 151.5,-576 203.5,-576 203.5,-576 209.5,-576 215.5,-582 215.5,-588 215.5,-588 215.5,-600 215.5,-600 215.5,-606 209.5,-612 203.5,-612"/>
<text text-anchor="middle" x="177.5" y="-590.3" font-family="Times New Roman,serif" font-size="14.00">dcrjson/v4</text>
</g>
<!-- chainhash&#45;&gt;dcrjson -->
<g id="edge4" class="edge"><title>chainhash&#45;&gt;dcrjson</title>
<path fill="none" stroke="aquamarine" d="M177.5,-637.831C177.5,-637.831 177.5,-612.413 177.5,-612.413"/>
<polygon fill="aquamarine" stroke="aquamarine" points="174,-637.831 177.5,-647.831 181,-637.831 174,-637.831"/>
</g>
<!-- wire -->
<g id="node8" class="node"><title>wire</title>
<path fill="coral" stroke="black" d="M650.5,-612C650.5,-612 620.5,-612 620.5,-612 614.5,-612 608.5,-606 608.5,-600 608.5,-600 608.5,-588 608.5,-588 608.5,-582 614.5,-576 620.5,-576 620.5,-576 650.5,-576 650.5,-576 656.5,-576 662.5,-582 662.5,-588 662.5,-588 662.5,-600 662.5,-600 662.5,-606 656.5,-612 650.5,-612"/>
<text text-anchor="middle" x="635.5" y="-590.3" font-family="Times New Roman,serif" font-size="14.00">wire</text>
</g>
<!-- chainhash&#45;&gt;wire -->
<g id="edge5" class="edge"><title>chainhash&#45;&gt;wire</title>
<path fill="none" stroke="aquamarine" d="M245.75,-637.831C245.75,-637.831 245.75,-594 245.75,-594 245.75,-594 520.016,-594 608.403,-594"/>
<polygon fill="aquamarine" stroke="aquamarine" points="242.25,-637.831 245.75,-647.831 249.25,-637.831 242.25,-637.831"/>
</g>
<!-- types -->
<g id="node7" class="node"><title>types</title>
<path fill="tomato" stroke="black" d="M212.5,-468C212.5,-468 104.5,-468 104.5,-468 98.5,-468 92.5,-462 92.5,-456 92.5,-456 92.5,-444 92.5,-444 92.5,-438 98.5,-432 104.5,-432 104.5,-432 212.5,-432 212.5,-432 218.5,-432 224.5,-438 224.5,-444 224.5,-444 224.5,-456 224.5,-456 224.5,-462 218.5,-468 212.5,-468"/>
<text text-anchor="middle" x="158.5" y="-446.3" font-family="Times New Roman,serif" font-size="14.00">rpc/jsonrpc/types/v4</text>
</g>
<!-- dcrjson&#45;&gt;types -->
<g id="edge24" class="edge"><title>dcrjson&#45;&gt;types</title>
<path fill="none" stroke="tomato" d="M162.5,-565.762C162.5,-565.762 162.5,-468.09 162.5,-468.09"/>
<polygon fill="tomato" stroke="tomato" points="159,-565.762 162.5,-575.762 166,-565.762 159,-565.762"/>
</g>
<!-- rpcclient -->
<g id="node25" class="node"><title>rpcclient</title>
<path fill="mediumseagreen" stroke="black" d="M223.5,-108C223.5,-108 165.5,-108 165.5,-108 159.5,-108 153.5,-102 153.5,-96 153.5,-96 153.5,-84 153.5,-84 153.5,-78 159.5,-72 165.5,-72 165.5,-72 223.5,-72 223.5,-72 229.5,-72 235.5,-78 235.5,-84 235.5,-84 235.5,-96 235.5,-96 235.5,-102 229.5,-108 223.5,-108"/>
<text text-anchor="middle" x="194.5" y="-86.3" font-family="Times New Roman,serif" font-size="14.00">rpcclient/v8</text>
</g>
<!-- types&#45;&gt;rpcclient -->
<g id="edge25" class="edge"><title>types&#45;&gt;rpcclient</title>
<path fill="none" stroke="indianred" d="M189,-421.653C189,-421.653 189,-108.31 189,-108.31"/>
<polygon fill="indianred" stroke="indianred" points="185.5,-421.653 189,-431.653 192.5,-421.653 185.5,-421.653"/>
</g>
<!-- addrmgr -->
<g id="node9" class="node"><title>addrmgr</title>
<path fill="lightsalmon" stroke="black" d="M802,-108C802,-108 745,-108 745,-108 739,-108 733,-102 733,-96 733,-96 733,-84 733,-84 733,-78 739,-72 745,-72 745,-72 802,-72 802,-72 808,-72 814,-78 814,-84 814,-84 814,-96 814,-96 814,-102 808,-108 802,-108"/>
<text text-anchor="middle" x="773.5" y="-86.3" font-family="Times New Roman,serif" font-size="14.00">addrmgr/v2</text>
</g>
<!-- wire&#45;&gt;addrmgr -->
<g id="edge6" class="edge"><title>wire&#45;&gt;addrmgr</title>
<path fill="none" stroke="coral" d="M672.764,-594C672.764,-594 773.5,-594 773.5,-594 773.5,-594 773.5,-198.592 773.5,-108.235"/>
<polygon fill="coral" stroke="coral" points="672.764,-590.5 662.764,-594 672.764,-597.5 672.764,-590.5"/>
</g>
<!-- chaincfg -->
<g id="node10" class="node"><title>chaincfg</title>
<path fill="cadetblue" stroke="black" d="M595,-540C595,-540 538,-540 538,-540 532,-540 526,-534 526,-528 526,-528 526,-516 526,-516 526,-510 532,-504 538,-504 538,-504 595,-504 595,-504 601,-504 607,-510 607,-516 607,-516 607,-528 607,-528 607,-534 601,-540 595,-540"/>
<text text-anchor="middle" x="566.5" y="-518.3" font-family="Times New Roman,serif" font-size="14.00">chaincfg/v3</text>
</g>
<!-- wire&#45;&gt;chaincfg -->
<g id="edge7" class="edge"><title>wire&#45;&gt;chaincfg</title>
<path fill="none" stroke="coral" d="M620,-565.831C620,-565.831 620,-522 620,-522 620,-522 614.511,-522 607.049,-522"/>
<polygon fill="coral" stroke="coral" points="616.5,-565.831 620,-575.831 623.5,-565.831 616.5,-565.831"/>
</g>
<!-- connmgr -->
<g id="node11" class="node"><title>connmgr</title>
<path fill="mistyrose" stroke="black" d="M703,-108C703,-108 644,-108 644,-108 638,-108 632,-102 632,-96 632,-96 632,-84 632,-84 632,-78 638,-72 644,-72 644,-72 703,-72 703,-72 709,-72 715,-78 715,-84 715,-84 715,-96 715,-96 715,-102 709,-108 703,-108"/>
<text text-anchor="middle" x="673.5" y="-86.3" font-family="Times New Roman,serif" font-size="14.00">connmgr/v3</text>
</g>
<!-- wire&#45;&gt;connmgr -->
<g id="edge8" class="edge"><title>wire&#45;&gt;connmgr</title>
<path fill="none" stroke="coral" d="M647.25,-565.765C647.25,-565.765 647.25,-108.211 647.25,-108.211"/>
<polygon fill="coral" stroke="coral" points="643.75,-565.765 647.25,-575.765 650.75,-565.765 643.75,-565.765"/>
</g>
<!-- standalone -->
<g id="node20" class="node"><title>standalone</title>
<path fill="#8b1a1a" stroke="black" d="M595.5,-396C595.5,-396 461.5,-396 461.5,-396 455.5,-396 449.5,-390 449.5,-384 449.5,-384 449.5,-372 449.5,-372 449.5,-366 455.5,-360 461.5,-360 461.5,-360 595.5,-360 595.5,-360 601.5,-360 607.5,-366 607.5,-372 607.5,-372 607.5,-384 607.5,-384 607.5,-390 601.5,-396 595.5,-396"/>
<text text-anchor="middle" x="528.5" y="-374.3" font-family="Times New Roman,serif" font-size="14.00">blockchain/standalone/v2</text>
</g>
<!-- wire&#45;&gt;standalone -->
<g id="edge9" class="edge"><title>wire&#45;&gt;standalone</title>
<path fill="none" stroke="coral" d="M626,-565.955C626,-565.955 626,-378 626,-378 626,-378 618.5,-378 607.661,-378"/>
<polygon fill="coral" stroke="coral" points="622.5,-565.955 626,-575.955 629.5,-565.956 622.5,-565.955"/>
</g>
<!-- addrmgr&#45;&gt;dcrd -->
<g id="edge29" class="edge"><title>addrmgr&#45;&gt;dcrd</title>
<path fill="none" stroke="lightsalmon" d="M773.5,-61.8711C773.5,-61.8711 773.5,-21 773.5,-21 773.5,-21 634.87,-21 574.761,-21"/>
<polygon fill="lightsalmon" stroke="lightsalmon" points="770,-61.871 773.5,-71.8711 777,-61.8711 770,-61.871"/>
</g>
<!-- chaincfg&#45;&gt;txscript -->
<g id="edge3" class="edge"><title>chaincfg&#45;&gt;txscript</title>
<path fill="none" stroke="cadetblue" d="M566.5,-493.831C566.5,-493.831 566.5,-450 566.5,-450 566.5,-450 420.813,-450 349.676,-450"/>
<polygon fill="cadetblue" stroke="cadetblue" points="563,-493.831 566.5,-503.831 570,-493.831 563,-493.831"/>
</g>
<!-- connmgr&#45;&gt;dcrd -->
<g id="edge31" class="edge"><title>connmgr&#45;&gt;dcrd</title>
<path fill="none" stroke="mistyrose" d="M673.5,-61.7333C673.5,-61.7333 673.5,-28 673.5,-28 673.5,-28 611.553,-28 574.53,-28"/>
<polygon fill="mistyrose" stroke="mistyrose" points="670,-61.7333 673.5,-71.7333 677,-61.7333 670,-61.7333"/>
</g>
<!-- dcrec -->
<g id="node12" class="node"><title>dcrec</title>
<path fill="mediumpurple" stroke="black" d="M227.5,-540C227.5,-540 197.5,-540 197.5,-540 191.5,-540 185.5,-534 185.5,-528 185.5,-528 185.5,-516 185.5,-516 185.5,-510 191.5,-504 197.5,-504 197.5,-504 227.5,-504 227.5,-504 233.5,-504 239.5,-510 239.5,-516 239.5,-516 239.5,-528 239.5,-528 239.5,-534 233.5,-540 227.5,-540"/>
<text text-anchor="middle" x="212.5" y="-518.3" font-family="Times New Roman,serif" font-size="14.00">dcrec</text>
</g>
<!-- dcrec&#45;&gt;txscript -->
<g id="edge11" class="edge"><title>dcrec&#45;&gt;txscript</title>
<path fill="none" stroke="mediumpurple" d="M233.25,-493.831C233.25,-493.831 233.25,-450 233.25,-450 233.25,-450 253.429,-450 273.292,-450"/>
<polygon fill="mediumpurple" stroke="mediumpurple" points="229.75,-493.831 233.25,-503.831 236.75,-493.831 229.75,-493.831"/>
</g>
<!-- edwards -->
<g id="node13" class="node"><title>edwards</title>
<path fill="lightseagreen" stroke="black" d="M361.5,-540C361.5,-540 269.5,-540 269.5,-540 263.5,-540 257.5,-534 257.5,-528 257.5,-528 257.5,-516 257.5,-516 257.5,-510 263.5,-504 269.5,-504 269.5,-504 361.5,-504 361.5,-504 367.5,-504 373.5,-510 373.5,-516 373.5,-516 373.5,-528 373.5,-528 373.5,-534 367.5,-540 361.5,-540"/>
<text text-anchor="middle" x="315.5" y="-518.3" font-family="Times New Roman,serif" font-size="14.00">dcrec/edwards/v2</text>
</g>
<!-- edwards&#45;&gt;txscript -->
<g id="edge12" class="edge"><title>edwards&#45;&gt;txscript</title>
<path fill="none" stroke="lightseagreen" d="M324.167,-493.831C324.167,-493.831 324.167,-468.413 324.167,-468.413"/>
<polygon fill="lightseagreen" stroke="lightseagreen" points="320.667,-493.831 324.167,-503.831 327.667,-493.831 320.667,-493.831"/>
</g>
<!-- secp256k1&#45;&gt;txscript -->
<g id="edge13" class="edge"><title>secp256k1&#45;&gt;txscript</title>
<path fill="none" stroke="mediumvioletred" d="M110.75,-493.578C110.75,-493.578 110.75,-486 110.75,-486 110.75,-486 298.833,-486 298.833,-486 298.833,-486 298.833,-477.279 298.833,-468.422"/>
<polygon fill="mediumvioletred" stroke="mediumvioletred" points="107.25,-493.578 110.75,-503.578 114.25,-493.578 107.25,-493.578"/>
</g>
<!-- dcrutil -->
<g id="node15" class="node"><title>dcrutil</title>
<path fill="burlywood" stroke="black" d="M322,-396C322,-396 277,-396 277,-396 271,-396 265,-390 265,-384 265,-384 265,-372 265,-372 265,-366 271,-360 277,-360 277,-360 322,-360 322,-360 328,-360 334,-366 334,-372 334,-372 334,-384 334,-384 334,-390 328,-396 322,-396"/>
<text text-anchor="middle" x="299.5" y="-374.3" font-family="Times New Roman,serif" font-size="14.00">dcrutil/v4</text>
</g>
<!-- database -->
<g id="node16" class="node"><title>database</title>
<path fill="dodgerblue" stroke="black" d="M323,-324C323,-324 264,-324 264,-324 258,-324 252,-318 252,-312 252,-312 252,-300 252,-300 252,-294 258,-288 264,-288 264,-288 323,-288 323,-288 329,-288 335,-294 335,-300 335,-300 335,-312 335,-312 335,-318 329,-324 323,-324"/>
<text text-anchor="middle" x="293.5" y="-302.3" font-family="Times New Roman,serif" font-size="14.00">database/v3</text>
</g>
<!-- dcrutil&#45;&gt;database -->
<g id="edge17" class="edge"><title>dcrutil&#45;&gt;database</title>
<path fill="none" stroke="burlywood" d="M299.5,-349.831C299.5,-349.831 299.5,-324.413 299.5,-324.413"/>
<polygon fill="burlywood" stroke="burlywood" points="296,-349.831 299.5,-359.831 303,-349.831 296,-349.831"/>
</g>
<!-- stake -->
<g id="node19" class="node"><title>stake</title>
<path fill="bisque" stroke="black" d="M342,-252C342,-252 239,-252 239,-252 233,-252 227,-246 227,-240 227,-240 227,-228 227,-228 227,-222 233,-216 239,-216 239,-216 342,-216 342,-216 348,-216 354,-222 354,-228 354,-228 354,-240 354,-240 354,-246 348,-252 342,-252"/>
<text text-anchor="middle" x="290.5" y="-230.3" font-family="Times New Roman,serif" font-size="14.00">blockchain/stake/v5</text>
</g>
<!-- database&#45;&gt;stake -->
<g id="edge18" class="edge"><title>database&#45;&gt;stake</title>
<path fill="none" stroke="dodgerblue" d="M293.5,-277.831C293.5,-277.831 293.5,-252.413 293.5,-252.413"/>
<polygon fill="dodgerblue" stroke="dodgerblue" points="290,-277.831 293.5,-287.831 297,-277.831 290,-277.831"/>
</g>
<!-- hdkeychain -->
<g id="node17" class="node"><title>hdkeychain</title>
<path fill="deepskyblue" stroke="black" d="M339,-108C339,-108 266,-108 266,-108 260,-108 254,-102 254,-96 254,-96 254,-84 254,-84 254,-78 260,-72 266,-72 266,-72 339,-72 339,-72 345,-72 351,-78 351,-84 351,-84 351,-96 351,-96 351,-102 345,-108 339,-108"/>
<text text-anchor="middle" x="302.5" y="-86.3" font-family="Times New Roman,serif" font-size="14.00">hdkeychain/v3</text>
</g>
<!-- hdkeychain&#45;&gt;dcrd -->
<g id="edge30" class="edge"><title>hdkeychain&#45;&gt;dcrd</title>
<path fill="none" stroke="deepskyblue" d="M302.5,-61.8711C302.5,-61.8711 302.5,-21 302.5,-21 302.5,-21 456.556,-21 520.345,-21"/>
<polygon fill="deepskyblue" stroke="deepskyblue" points="299,-61.871 302.5,-71.8711 306,-61.8711 299,-61.871"/>
</g>
<!-- txscript&#45;&gt;dcrutil -->
<g id="edge14" class="edge"><title>txscript&#45;&gt;dcrutil</title>
<path fill="none" stroke="mediumspringgreen" d="M313.833,-421.831C313.833,-421.831 313.833,-396.413 313.833,-396.413"/>
<polygon fill="mediumspringgreen" stroke="mediumspringgreen" points="310.333,-421.831 313.833,-431.831 317.333,-421.831 310.333,-421.831"/>
</g>
<!-- txscript&#45;&gt;hdkeychain -->
<g id="edge15" class="edge"><title>txscript&#45;&gt;hdkeychain</title>
<path fill="none" stroke="mediumspringgreen" d="M359.651,-441C359.651,-441 361.5,-441 361.5,-441 361.5,-441 361.5,-90 361.5,-90 361.5,-90 357.337,-90 351.223,-90"/>
<polygon fill="mediumspringgreen" stroke="mediumspringgreen" points="359.651,-437.5 349.651,-441 359.651,-444.5 359.651,-437.5"/>
</g>
<!-- peer -->
<g id="node24" class="node"><title>peer</title>
<path fill="khaki" stroke="black" d="M123.5,-108C123.5,-108 89.5,-108 89.5,-108 83.5,-108 77.5,-102 77.5,-96 77.5,-96 77.5,-84 77.5,-84 77.5,-78 83.5,-72 89.5,-72 89.5,-72 123.5,-72 123.5,-72 129.5,-72 135.5,-78 135.5,-84 135.5,-84 135.5,-96 135.5,-96 135.5,-102 129.5,-108 123.5,-108"/>
<text text-anchor="middle" x="106.5" y="-86.3" font-family="Times New Roman,serif" font-size="14.00">peer/v3</text>
</g>
<!-- txscript&#45;&gt;peer -->
<g id="edge16" class="edge"><title>txscript&#45;&gt;peer</title>
<path fill="none" stroke="mediumspringgreen" d="M293.667,-421.578C293.667,-421.578 293.667,-414 293.667,-414 293.667,-414 144.5,-414 144.5,-414 144.5,-414 144.5,-90 144.5,-90 144.5,-90 140.789,-90 135.687,-90"/>
<polygon fill="mediumspringgreen" stroke="mediumspringgreen" points="290.167,-421.578 293.667,-431.578 297.167,-421.578 290.167,-421.578"/>
</g>
<!-- gcs -->
<g id="node21" class="node"><title>gcs</title>
<path fill="gold" stroke="black" d="M305.5,-180C305.5,-180 275.5,-180 275.5,-180 269.5,-180 263.5,-174 263.5,-168 263.5,-168 263.5,-156 263.5,-156 263.5,-150 269.5,-144 275.5,-144 275.5,-144 305.5,-144 305.5,-144 311.5,-144 317.5,-150 317.5,-156 317.5,-156 317.5,-168 317.5,-168 317.5,-174 311.5,-180 305.5,-180"/>
<text text-anchor="middle" x="290.5" y="-158.3" font-family="Times New Roman,serif" font-size="14.00">gcs/v4</text>
</g>
<!-- stake&#45;&gt;gcs -->
<g id="edge19" class="edge"><title>stake&#45;&gt;gcs</title>
<path fill="none" stroke="bisque" d="M290.5,-205.831C290.5,-205.831 290.5,-180.413 290.5,-180.413"/>
<polygon fill="bisque" stroke="bisque" points="287,-205.831 290.5,-215.831 294,-205.831 287,-205.831"/>
</g>
<!-- blockchain -->
<g id="node22" class="node"><title>blockchain</title>
<path fill="orchid" stroke="black" d="M452,-108C452,-108 381,-108 381,-108 375,-108 369,-102 369,-96 369,-96 369,-84 369,-84 369,-78 375,-72 381,-72 381,-72 452,-72 452,-72 458,-72 464,-78 464,-84 464,-84 464,-96 464,-96 464,-102 458,-108 452,-108"/>
<text text-anchor="middle" x="416.5" y="-86.3" font-family="Times New Roman,serif" font-size="14.00">blockchain/v5</text>
</g>
<!-- standalone&#45;&gt;blockchain -->
<g id="edge20" class="edge"><title>standalone&#45;&gt;blockchain</title>
<path fill="none" stroke="#8b1a1a" d="M456.75,-349.984C456.75,-349.984 456.75,-108.009 456.75,-108.009"/>
<polygon fill="#8b1a1a" stroke="#8b1a1a" points="453.25,-349.984 456.75,-359.984 460.25,-349.984 453.25,-349.984"/>
</g>
<!-- gcs&#45;&gt;blockchain -->
<g id="edge21" class="edge"><title>gcs&#45;&gt;blockchain</title>
<path fill="none" stroke="gold" d="M327.605,-162C327.605,-162 382.5,-162 382.5,-162 382.5,-162 382.5,-129.498 382.5,-108.169"/>
<polygon fill="gold" stroke="gold" points="327.605,-158.5 317.605,-162 327.605,-165.5 327.605,-158.5"/>
</g>
<!-- gcs&#45;&gt;rpcclient -->
<g id="edge22" class="edge"><title>gcs&#45;&gt;rpcclient</title>
<path fill="none" stroke="gold" d="M253.303,-162C253.303,-162 231.25,-162 231.25,-162 231.25,-162 231.25,-129.498 231.25,-108.169"/>
<polygon fill="gold" stroke="gold" points="253.303,-165.5 263.303,-162 253.303,-158.5 253.303,-165.5"/>
</g>
<!-- blockchain&#45;&gt;dcrd -->
<g id="edge26" class="edge"><title>blockchain&#45;&gt;dcrd</title>
<path fill="none" stroke="orchid" d="M416.5,-61.7333C416.5,-61.7333 416.5,-28 416.5,-28 416.5,-28 481.986,-28 520.357,-28"/>
<polygon fill="orchid" stroke="orchid" points="413,-61.7333 416.5,-71.7333 420,-61.7333 413,-61.7333"/>
</g>
<!-- lru -->
<g id="node23" class="node"><title>lru</title>
<path fill="#3a5fcd" stroke="black" d="M120.5,-180C120.5,-180 90.5,-180 90.5,-180 84.5,-180 78.5,-174 78.5,-168 78.5,-168 78.5,-156 78.5,-156 78.5,-150 84.5,-144 90.5,-144 90.5,-144 120.5,-144 120.5,-144 126.5,-144 132.5,-150 132.5,-156 132.5,-156 132.5,-168 132.5,-168 132.5,-174 126.5,-180 120.5,-180"/>
<text text-anchor="middle" x="105.5" y="-158.3" font-family="Times New Roman,serif" font-size="14.00">lru</text>
</g>
<!-- lru&#45;&gt;peer -->
<g id="edge23" class="edge"><title>lru&#45;&gt;peer</title>
<path fill="none" stroke="#3a5fcd" d="M105.5,-133.831C105.5,-133.831 105.5,-108.413 105.5,-108.413"/>
<polygon fill="#3a5fcd" stroke="#3a5fcd" points="102,-133.831 105.5,-143.831 109,-133.831 102,-133.831"/>
</g>
<!-- peer&#45;&gt;dcrd -->
<g id="edge33" class="edge"><title>peer&#45;&gt;dcrd</title>
<path fill="none" stroke="khaki" d="M106.5,-61.9902C106.5,-61.9902 106.5,-7 106.5,-7 106.5,-7 424.098,-7 520.246,-7"/>
<polygon fill="khaki" stroke="khaki" points="103,-61.9902 106.5,-71.9902 110,-61.9903 103,-61.9902"/>
</g>
<!-- rpcclient&#45;&gt;dcrd -->
<g id="edge32" class="edge"><title>rpcclient&#45;&gt;dcrd</title>
<path fill="none" stroke="mediumseagreen" d="M194.5,-61.9891C194.5,-61.9891 194.5,-14 194.5,-14 194.5,-14 437.727,-14 520.387,-14"/>
<polygon fill="mediumseagreen" stroke="mediumseagreen" points="191,-61.989 194.5,-71.9891 198,-61.9891 191,-61.989"/>
</g>
<!-- apbf -->
<g id="node26" class="node"><title>apbf</title>
<path fill="goldenrod" stroke="black" d="M917,-108C917,-108 844,-108 844,-108 838,-108 832,-102 832,-96 832,-96 832,-84 832,-84 832,-78 838,-72 844,-72 844,-72 917,-72 917,-72 923,-72 929,-78 929,-84 929,-84 929,-96 929,-96 929,-102 923,-108 917,-108"/>
<text text-anchor="middle" x="880.5" y="-86.3" font-family="Times New Roman,serif" font-size="14.00">container/apbf</text>
</g>
<!-- apbf&#45;&gt;dcrd -->
<g id="edge34" class="edge"><title>apbf&#45;&gt;dcrd</title>
<path fill="none" stroke="goldenrod" d="M880.5,-61.9891C880.5,-61.9891 880.5,-14 880.5,-14 880.5,-14 654.281,-14 574.751,-14"/>
<polygon fill="goldenrod" stroke="goldenrod" points="877,-61.989 880.5,-71.9891 884,-61.9891 877,-61.989"/>
</g>
<!-- uint256 -->
<g id="node27" class="node"><title>uint256</title>
<path fill="lightgreen" stroke="black" d="M1023.5,-108C1023.5,-108 959.5,-108 959.5,-108 953.5,-108 947.5,-102 947.5,-96 947.5,-96 947.5,-84 947.5,-84 947.5,-78 953.5,-72 959.5,-72 959.5,-72 1023.5,-72 1023.5,-72 1029.5,-72 1035.5,-78 1035.5,-84 1035.5,-84 1035.5,-96 1035.5,-96 1035.5,-102 1029.5,-108 1023.5,-108"/>
<text text-anchor="middle" x="991.5" y="-86.3" font-family="Times New Roman,serif" font-size="14.00">math/uint256</text>
</g>
<!-- uint256&#45;&gt;dcrd -->
<g id="edge35" class="edge"><title>uint256&#45;&gt;dcrd</title>
<path fill="none" stroke="lightgreen" d="M991.5,-61.9902C991.5,-61.9902 991.5,-7 991.5,-7 991.5,-7 671.005,-7 574.606,-7"/>
<polygon fill="lightgreen" stroke="lightgreen" points="988,-61.9902 991.5,-71.9902 995,-61.9903 988,-61.9902"/>
</g>
</g>
</svg>
