<?xml version="1.0" encoding="UTF-8" standalone="no"?>
<!DOCTYPE svg PUBLIC "-//W3C//DTD SVG 1.1//EN"
 "http://www.w3.org/Graphics/SVG/1.1/DTD/svg11.dtd">
<!-- Generated by graphviz version 2.38.0 (20140413.2041)
 -->
<!-- Title: %3 Pages: 1 -->
<svg width="861pt" height="648pt"
 viewBox="0.00 0.00 861.00 648.00" xmlns="http://www.w3.org/2000/svg" xmlns:xlink="http://www.w3.org/1999/xlink">
<g id="graph0" class="graph" transform="scale(1 1) rotate(0) translate(4 644)">
<title>%3</title>
<polygon fill="white" stroke="#000000" points="-4,4 -4,-644 857,-644 857,4 -4,4"/>
<text text-anchor="start" x="360" y="-622.6" font-family="Times New Roman,serif" text-decoration="underline" font-size="18.00">Module Hierarchy</text>
<!-- blake256 -->
<g id="node1" class="node"><title>blake256</title>
<path fill="cornflowerblue" stroke="black" d="M555,-612C555,-612 472,-612 472,-612 466,-612 460,-606 460,-600 460,-600 460,-588 460,-588 460,-582 466,-576 472,-576 472,-576 555,-576 555,-576 561,-576 567,-582 567,-588 567,-588 567,-600 567,-600 567,-606 561,-612 555,-612"/>
<text text-anchor="middle" x="513.5" y="-590.3" font-family="Times New Roman,serif" font-size="14.00">crypto/blake256</text>
</g>
<!-- chainhash -->
<g id="node5" class="node"><title>chainhash</title>
<path fill="aquamarine" stroke="black" d="M562.5,-540C562.5,-540 464.5,-540 464.5,-540 458.5,-540 452.5,-534 452.5,-528 452.5,-528 452.5,-516 452.5,-516 452.5,-510 458.5,-504 464.5,-504 464.5,-504 562.5,-504 562.5,-504 568.5,-504 574.5,-510 574.5,-516 574.5,-516 574.5,-528 574.5,-528 574.5,-534 568.5,-540 562.5,-540"/>
<text text-anchor="middle" x="513.5" y="-518.3" font-family="Times New Roman,serif" font-size="14.00">chaincfg/chainhash</text>
</g>
<!-- blake256&#45;&gt;chainhash -->
<g id="edge1" class="edge"><title>blake256&#45;&gt;chainhash</title>
<path fill="none" stroke="cornflowerblue" d="M513.5,-565.831C513.5,-565.831 513.5,-540.413 513.5,-540.413"/>
<polygon fill="cornflowerblue" stroke="cornflowerblue" points="510,-565.831 513.5,-575.831 517,-565.831 510,-565.831"/>
</g>
<!-- ripemd160 -->
<g id="node2" class="node"><title>ripemd160</title>
<path fill="darkturquoise" stroke="black" d="M659.5,-468C659.5,-468 567.5,-468 567.5,-468 561.5,-468 555.5,-462 555.5,-456 555.5,-456 555.5,-444 555.5,-444 555.5,-438 561.5,-432 567.5,-432 567.5,-432 659.5,-432 659.5,-432 665.5,-432 671.5,-438 671.5,-444 671.5,-444 671.5,-456 671.5,-456 671.5,-462 665.5,-468 659.5,-468"/>
<text text-anchor="middle" x="613.5" y="-446.3" font-family="Times New Roman,serif" font-size="14.00">crypto/ripemd160</text>
</g>
<!-- dcrutil -->
<g id="node15" class="node"><title>dcrutil</title>
<path fill="burlywood" stroke="black" d="M591,-396C591,-396 546,-396 546,-396 540,-396 534,-390 534,-384 534,-384 534,-372 534,-372 534,-366 540,-360 546,-360 546,-360 591,-360 591,-360 597,-360 603,-366 603,-372 603,-372 603,-384 603,-384 603,-390 597,-396 591,-396"/>
<text text-anchor="middle" x="568.5" y="-374.3" font-family="Times New Roman,serif" font-size="14.00">dcrutil/v3</text>
</g>
<!-- ripemd160&#45;&gt;dcrutil -->
<g id="edge9" class="edge"><title>ripemd160&#45;&gt;dcrutil</title>
<path fill="none" stroke="darkturquoise" d="M579.25,-421.831C579.25,-421.831 579.25,-396.413 579.25,-396.413"/>
<polygon fill="darkturquoise" stroke="darkturquoise" points="575.75,-421.831 579.25,-431.831 582.75,-421.831 575.75,-421.831"/>
</g>
<!-- certgen -->
<g id="node3" class="node"><title>certgen</title>
<path fill="darkkhaki" stroke="black" d="M45,-108C45,-108 12,-108 12,-108 6,-108 0,-102 0,-96 0,-96 0,-84 0,-84 0,-78 6,-72 12,-72 12,-72 45,-72 45,-72 51,-72 57,-78 57,-84 57,-84 57,-96 57,-96 57,-102 51,-108 45,-108"/>
<text text-anchor="middle" x="28.5" y="-86.3" font-family="Times New Roman,serif" font-size="14.00">certgen</text>
</g>
<!-- dcrd -->
<g id="node27" class="node"><title>dcrd</title>
<path fill="chocolate" stroke="black" d="M394.5,-36C394.5,-36 364.5,-36 364.5,-36 358.5,-36 352.5,-30 352.5,-24 352.5,-24 352.5,-12 352.5,-12 352.5,-6 358.5,-0 364.5,-0 364.5,-0 394.5,-0 394.5,-0 400.5,-0 406.5,-6 406.5,-12 406.5,-12 406.5,-24 406.5,-24 406.5,-30 400.5,-36 394.5,-36"/>
<text text-anchor="middle" x="379.5" y="-14.3" font-family="Times New Roman,serif" font-size="14.00">dcrd</text>
</g>
<!-- certgen&#45;&gt;dcrd -->
<g id="edge27" class="edge"><title>certgen&#45;&gt;dcrd</title>
<path fill="none" stroke="darkkhaki" d="M28.5,-61.9902C28.5,-61.9902 28.5,-7 28.5,-7 28.5,-7 269.781,-7 352.25,-7"/>
<polygon fill="darkkhaki" stroke="darkkhaki" points="25.0001,-61.9902 28.5,-71.9902 32.0001,-61.9903 25.0001,-61.9902"/>
</g>
<!-- bech32 -->
<g id="node4" class="node"><title>bech32</title>
<path fill="#cdc0b0" stroke="black" d="M120,-108C120,-108 87,-108 87,-108 81,-108 75,-102 75,-96 75,-96 75,-84 75,-84 75,-78 81,-72 87,-72 87,-72 120,-72 120,-72 126,-72 132,-78 132,-84 132,-84 132,-96 132,-96 132,-102 126,-108 120,-108"/>
<text text-anchor="middle" x="103.5" y="-86.3" font-family="Times New Roman,serif" font-size="14.00">bech32</text>
</g>
<!-- bech32&#45;&gt;dcrd -->
<g id="edge28" class="edge"><title>bech32&#45;&gt;dcrd</title>
<path fill="none" stroke="#cdc0b0" d="M103.5,-61.9891C103.5,-61.9891 103.5,-14 103.5,-14 103.5,-14 282.65,-14 352.281,-14"/>
<polygon fill="#cdc0b0" stroke="#cdc0b0" points="100,-61.989 103.5,-71.9891 107,-61.9891 100,-61.989"/>
</g>
<!-- dcrjson -->
<g id="node6" class="node"><title>dcrjson</title>
<path fill="indianred" stroke="black" d="M825.5,-468C825.5,-468 773.5,-468 773.5,-468 767.5,-468 761.5,-462 761.5,-456 761.5,-456 761.5,-444 761.5,-444 761.5,-438 767.5,-432 773.5,-432 773.5,-432 825.5,-432 825.5,-432 831.5,-432 837.5,-438 837.5,-444 837.5,-444 837.5,-456 837.5,-456 837.5,-462 831.5,-468 825.5,-468"/>
<text text-anchor="middle" x="799.5" y="-446.3" font-family="Times New Roman,serif" font-size="14.00">dcrjson/v4</text>
</g>
<!-- chainhash&#45;&gt;dcrjson -->
<g id="edge3" class="edge"><title>chainhash&#45;&gt;dcrjson</title>
<path fill="none" stroke="aquamarine" d="M584.503,-522C584.503,-522 799.5,-522 799.5,-522 799.5,-522 799.5,-489.498 799.5,-468.169"/>
<polygon fill="aquamarine" stroke="aquamarine" points="584.503,-518.5 574.503,-522 584.503,-525.5 584.503,-518.5"/>
</g>
<!-- wire -->
<g id="node8" class="node"><title>wire</title>
<path fill="coral" stroke="black" d="M243.5,-468C243.5,-468 213.5,-468 213.5,-468 207.5,-468 201.5,-462 201.5,-456 201.5,-456 201.5,-444 201.5,-444 201.5,-438 207.5,-432 213.5,-432 213.5,-432 243.5,-432 243.5,-432 249.5,-432 255.5,-438 255.5,-444 255.5,-444 255.5,-456 255.5,-456 255.5,-462 249.5,-468 243.5,-468"/>
<text text-anchor="middle" x="228.5" y="-446.3" font-family="Times New Roman,serif" font-size="14.00">wire</text>
</g>
<!-- chainhash&#45;&gt;wire -->
<g id="edge4" class="edge"><title>chainhash&#45;&gt;wire</title>
<path fill="none" stroke="aquamarine" d="M442.36,-522C442.36,-522 228.5,-522 228.5,-522 228.5,-522 228.5,-489.498 228.5,-468.169"/>
<polygon fill="aquamarine" stroke="aquamarine" points="442.36,-525.5 452.36,-522 442.36,-518.5 442.36,-525.5"/>
</g>
<!-- types -->
<g id="node7" class="node"><title>types</title>
<path fill="tomato" stroke="black" d="M803.5,-252C803.5,-252 695.5,-252 695.5,-252 689.5,-252 683.5,-246 683.5,-240 683.5,-240 683.5,-228 683.5,-228 683.5,-222 689.5,-216 695.5,-216 695.5,-216 803.5,-216 803.5,-216 809.5,-216 815.5,-222 815.5,-228 815.5,-228 815.5,-240 815.5,-240 815.5,-246 809.5,-252 803.5,-252"/>
<text text-anchor="middle" x="749.5" y="-230.3" font-family="Times New Roman,serif" font-size="14.00">rpc/jsonrpc/types/v3</text>
</g>
<!-- dcrjson&#45;&gt;types -->
<g id="edge24" class="edge"><title>dcrjson&#45;&gt;types</title>
<path fill="none" stroke="tomato" d="M788.5,-421.955C788.5,-421.955 788.5,-252.145 788.5,-252.145"/>
<polygon fill="tomato" stroke="tomato" points="785,-421.955 788.5,-431.955 792,-421.956 785,-421.955"/>
</g>
<!-- rpcclient -->
<g id="node25" class="node"><title>rpcclient</title>
<path fill="mediumseagreen" stroke="black" d="M725.5,-108C725.5,-108 667.5,-108 667.5,-108 661.5,-108 655.5,-102 655.5,-96 655.5,-96 655.5,-84 655.5,-84 655.5,-78 661.5,-72 667.5,-72 667.5,-72 725.5,-72 725.5,-72 731.5,-72 737.5,-78 737.5,-84 737.5,-84 737.5,-96 737.5,-96 737.5,-102 731.5,-108 725.5,-108"/>
<text text-anchor="middle" x="696.5" y="-86.3" font-family="Times New Roman,serif" font-size="14.00">rpcclient/v6</text>
</g>
<!-- types&#45;&gt;rpcclient -->
<g id="edge25" class="edge"><title>types&#45;&gt;rpcclient</title>
<path fill="none" stroke="indianred" d="M710.5,-205.762C710.5,-205.762 710.5,-108.09 710.5,-108.09"/>
<polygon fill="indianred" stroke="indianred" points="707,-205.762 710.5,-215.762 714,-205.762 707,-205.762"/>
</g>
<!-- addrmgr -->
<g id="node9" class="node"><title>addrmgr</title>
<path fill="lightsalmon" stroke="black" d="M219,-108C219,-108 162,-108 162,-108 156,-108 150,-102 150,-96 150,-96 150,-84 150,-84 150,-78 156,-72 162,-72 162,-72 219,-72 219,-72 225,-72 231,-78 231,-84 231,-84 231,-96 231,-96 231,-102 225,-108 219,-108"/>
<text text-anchor="middle" x="190.5" y="-86.3" font-family="Times New Roman,serif" font-size="14.00">addrmgr/v2</text>
</g>
<!-- wire&#45;&gt;addrmgr -->
<g id="edge5" class="edge"><title>wire&#45;&gt;addrmgr</title>
<path fill="none" stroke="coral" d="M216.25,-421.653C216.25,-421.653 216.25,-108.31 216.25,-108.31"/>
<polygon fill="coral" stroke="coral" points="212.75,-421.653 216.25,-431.653 219.75,-421.653 212.75,-421.653"/>
</g>
<!-- chaincfg -->
<g id="node10" class="node"><title>chaincfg</title>
<path fill="cadetblue" stroke="black" d="M466,-396C466,-396 409,-396 409,-396 403,-396 397,-390 397,-384 397,-384 397,-372 397,-372 397,-366 403,-360 409,-360 409,-360 466,-360 466,-360 472,-360 478,-366 478,-372 478,-372 478,-384 478,-384 478,-390 472,-396 466,-396"/>
<text text-anchor="middle" x="437.5" y="-374.3" font-family="Times New Roman,serif" font-size="14.00">chaincfg/v3</text>
</g>
<!-- wire&#45;&gt;chaincfg -->
<g id="edge6" class="edge"><title>wire&#45;&gt;chaincfg</title>
<path fill="none" stroke="coral" d="M243,-421.831C243,-421.831 243,-378 243,-378 243,-378 339.693,-378 396.726,-378"/>
<polygon fill="coral" stroke="coral" points="239.5,-421.831 243,-431.831 246.5,-421.831 239.5,-421.831"/>
</g>
<!-- connmgr -->
<g id="node11" class="node"><title>connmgr</title>
<path fill="mistyrose" stroke="black" d="M320,-108C320,-108 261,-108 261,-108 255,-108 249,-102 249,-96 249,-96 249,-84 249,-84 249,-78 255,-72 261,-72 261,-72 320,-72 320,-72 326,-72 332,-78 332,-84 332,-84 332,-96 332,-96 332,-102 326,-108 320,-108"/>
<text text-anchor="middle" x="290.5" y="-86.3" font-family="Times New Roman,serif" font-size="14.00">connmgr/v3</text>
</g>
<!-- wire&#45;&gt;connmgr -->
<g id="edge7" class="edge"><title>wire&#45;&gt;connmgr</title>
<path fill="none" stroke="coral" d="M237,-421.653C237,-421.653 237,-90 237,-90 237,-90 241.967,-90 248.873,-90"/>
<polygon fill="coral" stroke="coral" points="233.5,-421.653 237,-431.653 240.5,-421.653 233.5,-421.653"/>
</g>
<!-- standalone -->
<g id="node20" class="node"><title>standalone</title>
<path fill="#8b1a1a" stroke="black" d="M402.5,-324C402.5,-324 268.5,-324 268.5,-324 262.5,-324 256.5,-318 256.5,-312 256.5,-312 256.5,-300 256.5,-300 256.5,-294 262.5,-288 268.5,-288 268.5,-288 402.5,-288 402.5,-288 408.5,-288 414.5,-294 414.5,-300 414.5,-300 414.5,-312 414.5,-312 414.5,-318 408.5,-324 402.5,-324"/>
<text text-anchor="middle" x="335.5" y="-302.3" font-family="Times New Roman,serif" font-size="14.00">blockchain/standalone/v2</text>
</g>
<!-- wire&#45;&gt;standalone -->
<g id="edge8" class="edge"><title>wire&#45;&gt;standalone</title>
<path fill="none" stroke="coral" d="M264.079,-450C264.079,-450 265,-450 265,-450 265,-450 265,-362.986 265,-324.238"/>
<polygon fill="coral" stroke="coral" points="265.79,-446.5 255.79,-450 265.789,-453.5 265.79,-446.5"/>
</g>
<!-- addrmgr&#45;&gt;dcrd -->
<g id="edge29" class="edge"><title>addrmgr&#45;&gt;dcrd</title>
<path fill="none" stroke="lightsalmon" d="M190.5,-61.8711C190.5,-61.8711 190.5,-21 190.5,-21 190.5,-21 300.161,-21 352.421,-21"/>
<polygon fill="lightsalmon" stroke="lightsalmon" points="187,-61.871 190.5,-71.8711 194,-61.8711 187,-61.871"/>
</g>
<!-- txscript -->
<g id="node18" class="node"><title>txscript</title>
<path fill="mediumspringgreen" stroke="black" d="M496.5,-324C496.5,-324 444.5,-324 444.5,-324 438.5,-324 432.5,-318 432.5,-312 432.5,-312 432.5,-300 432.5,-300 432.5,-294 438.5,-288 444.5,-288 444.5,-288 496.5,-288 496.5,-288 502.5,-288 508.5,-294 508.5,-300 508.5,-300 508.5,-312 508.5,-312 508.5,-318 502.5,-324 496.5,-324"/>
<text text-anchor="middle" x="470.5" y="-302.3" font-family="Times New Roman,serif" font-size="14.00">txscript/v3</text>
</g>
<!-- chaincfg&#45;&gt;txscript -->
<g id="edge2" class="edge"><title>chaincfg&#45;&gt;txscript</title>
<path fill="none" stroke="cadetblue" d="M455.25,-349.831C455.25,-349.831 455.25,-324.413 455.25,-324.413"/>
<polygon fill="cadetblue" stroke="cadetblue" points="451.75,-349.831 455.25,-359.831 458.75,-349.831 451.75,-349.831"/>
</g>
<!-- connmgr&#45;&gt;dcrd -->
<g id="edge31" class="edge"><title>connmgr&#45;&gt;dcrd</title>
<path fill="none" stroke="mistyrose" d="M290.5,-61.7333C290.5,-61.7333 290.5,-28 290.5,-28 290.5,-28 326.14,-28 352.313,-28"/>
<polygon fill="mistyrose" stroke="mistyrose" points="287,-61.7333 290.5,-71.7333 294,-61.7333 287,-61.7333"/>
</g>
<!-- dcrec -->
<g id="node12" class="node"><title>dcrec</title>
<path fill="mediumpurple" stroke="black" d="M731.5,-468C731.5,-468 701.5,-468 701.5,-468 695.5,-468 689.5,-462 689.5,-456 689.5,-456 689.5,-444 689.5,-444 689.5,-438 695.5,-432 701.5,-432 701.5,-432 731.5,-432 731.5,-432 737.5,-432 743.5,-438 743.5,-444 743.5,-444 743.5,-456 743.5,-456 743.5,-462 737.5,-468 731.5,-468"/>
<text text-anchor="middle" x="716.5" y="-446.3" font-family="Times New Roman,serif" font-size="14.00">dcrec</text>
</g>
<!-- dcrec&#45;&gt;dcrutil -->
<g id="edge10" class="edge"><title>dcrec&#45;&gt;dcrutil</title>
<path fill="none" stroke="mediumpurple" d="M716.5,-421.965C716.5,-421.965 716.5,-384 716.5,-384 716.5,-384 646.944,-384 603.199,-384"/>
<polygon fill="mediumpurple" stroke="mediumpurple" points="713,-421.965 716.5,-431.965 720,-421.965 713,-421.965"/>
</g>
<!-- edwards -->
<g id="node13" class="node"><title>edwards</title>
<path fill="lightseagreen" stroke="black" d="M377.5,-468C377.5,-468 285.5,-468 285.5,-468 279.5,-468 273.5,-462 273.5,-456 273.5,-456 273.5,-444 273.5,-444 273.5,-438 279.5,-432 285.5,-432 285.5,-432 377.5,-432 377.5,-432 383.5,-432 389.5,-438 389.5,-444 389.5,-444 389.5,-456 389.5,-456 389.5,-462 383.5,-468 377.5,-468"/>
<text text-anchor="middle" x="331.5" y="-446.3" font-family="Times New Roman,serif" font-size="14.00">dcrec/edwards/v2</text>
</g>
<!-- edwards&#45;&gt;dcrutil -->
<g id="edge11" class="edge"><title>edwards&#45;&gt;dcrutil</title>
<path fill="none" stroke="lightseagreen" d="M331.5,-421.578C331.5,-421.578 331.5,-414 331.5,-414 331.5,-414 546.25,-414 546.25,-414 546.25,-414 546.25,-405.279 546.25,-396.422"/>
<polygon fill="lightseagreen" stroke="lightseagreen" points="328,-421.578 331.5,-431.578 335,-421.578 328,-421.578"/>
</g>
<!-- secp256k1 -->
<g id="node14" class="node"><title>secp256k1</title>
<path fill="mediumvioletred" stroke="black" d="M525,-468C525,-468 420,-468 420,-468 414,-468 408,-462 408,-456 408,-456 408,-444 408,-444 408,-438 414,-432 420,-432 420,-432 525,-432 525,-432 531,-432 537,-438 537,-444 537,-444 537,-456 537,-456 537,-462 531,-468 525,-468"/>
<text text-anchor="middle" x="472.5" y="-446.3" font-family="Times New Roman,serif" font-size="14.00">dcrec/secp256k1/v4</text>
</g>
<!-- secp256k1&#45;&gt;dcrutil -->
<g id="edge12" class="edge"><title>secp256k1&#45;&gt;dcrutil</title>
<path fill="none" stroke="mediumvioletred" d="M530.5,-421.909C530.5,-421.909 530.5,-372 530.5,-372 530.5,-372 531.623,-372 533.482,-372"/>
<polygon fill="mediumvioletred" stroke="mediumvioletred" points="527,-421.909 530.5,-431.909 534,-421.909 527,-421.909"/>
</g>
<!-- database -->
<g id="node16" class="node"><title>database</title>
<path fill="dodgerblue" stroke="black" d="M598,-324C598,-324 539,-324 539,-324 533,-324 527,-318 527,-312 527,-312 527,-300 527,-300 527,-294 533,-288 539,-288 539,-288 598,-288 598,-288 604,-288 610,-294 610,-300 610,-300 610,-312 610,-312 610,-318 604,-324 598,-324"/>
<text text-anchor="middle" x="568.5" y="-302.3" font-family="Times New Roman,serif" font-size="14.00">database/v2</text>
</g>
<!-- dcrutil&#45;&gt;database -->
<g id="edge13" class="edge"><title>dcrutil&#45;&gt;database</title>
<path fill="none" stroke="burlywood" d="M568.5,-349.831C568.5,-349.831 568.5,-324.413 568.5,-324.413"/>
<polygon fill="burlywood" stroke="burlywood" points="565,-349.831 568.5,-359.831 572,-349.831 565,-349.831"/>
</g>
<!-- hdkeychain -->
<g id="node17" class="node"><title>hdkeychain</title>
<path fill="deepskyblue" stroke="black" d="M625,-108C625,-108 552,-108 552,-108 546,-108 540,-102 540,-96 540,-96 540,-84 540,-84 540,-78 546,-72 552,-72 552,-72 625,-72 625,-72 631,-72 637,-78 637,-84 637,-84 637,-96 637,-96 637,-102 631,-108 625,-108"/>
<text text-anchor="middle" x="588.5" y="-86.3" font-family="Times New Roman,serif" font-size="14.00">hdkeychain/v3</text>
</g>
<!-- dcrutil&#45;&gt;hdkeychain -->
<g id="edge14" class="edge"><title>dcrutil&#45;&gt;hdkeychain</title>
<path fill="none" stroke="burlywood" d="M613.02,-372C613.02,-372 623.5,-372 623.5,-372 623.5,-372 623.5,-170.31 623.5,-108.069"/>
<polygon fill="burlywood" stroke="burlywood" points="613.02,-368.5 603.02,-372 613.02,-375.5 613.02,-368.5"/>
</g>
<!-- dcrutil&#45;&gt;txscript -->
<g id="edge15" class="edge"><title>dcrutil&#45;&gt;txscript</title>
<path fill="none" stroke="burlywood" d="M523.958,-384C523.958,-384 493.25,-384 493.25,-384 493.25,-384 493.25,-347.133 493.25,-324.091"/>
<polygon fill="burlywood" stroke="burlywood" points="523.958,-387.5 533.958,-384 523.958,-380.5 523.958,-387.5"/>
</g>
<!-- stake -->
<g id="node19" class="node"><title>stake</title>
<path fill="bisque" stroke="black" d="M598,-252C598,-252 495,-252 495,-252 489,-252 483,-246 483,-240 483,-240 483,-228 483,-228 483,-222 489,-216 495,-216 495,-216 598,-216 598,-216 604,-216 610,-222 610,-228 610,-228 610,-240 610,-240 610,-246 604,-252 598,-252"/>
<text text-anchor="middle" x="546.5" y="-230.3" font-family="Times New Roman,serif" font-size="14.00">blockchain/stake/v3</text>
</g>
<!-- database&#45;&gt;stake -->
<g id="edge16" class="edge"><title>database&#45;&gt;stake</title>
<path fill="none" stroke="dodgerblue" d="M568.5,-277.831C568.5,-277.831 568.5,-252.413 568.5,-252.413"/>
<polygon fill="dodgerblue" stroke="dodgerblue" points="565,-277.831 568.5,-287.831 572,-277.831 565,-277.831"/>
</g>
<!-- hdkeychain&#45;&gt;dcrd -->
<g id="edge30" class="edge"><title>hdkeychain&#45;&gt;dcrd</title>
<path fill="none" stroke="deepskyblue" d="M588.5,-61.8711C588.5,-61.8711 588.5,-21 588.5,-21 588.5,-21 463.475,-21 406.823,-21"/>
<polygon fill="deepskyblue" stroke="deepskyblue" points="585,-61.871 588.5,-71.8711 592,-61.8711 585,-61.871"/>
</g>
<!-- txscript&#45;&gt;stake -->
<g id="edge17" class="edge"><title>txscript&#45;&gt;stake</title>
<path fill="none" stroke="mediumspringgreen" d="M495.75,-277.831C495.75,-277.831 495.75,-252.413 495.75,-252.413"/>
<polygon fill="mediumspringgreen" stroke="mediumspringgreen" points="492.25,-277.831 495.75,-287.831 499.25,-277.831 492.25,-277.831"/>
</g>
<!-- peer -->
<g id="node24" class="node"><title>peer</title>
<path fill="khaki" stroke="black" d="M396.5,-108C396.5,-108 362.5,-108 362.5,-108 356.5,-108 350.5,-102 350.5,-96 350.5,-96 350.5,-84 350.5,-84 350.5,-78 356.5,-72 362.5,-72 362.5,-72 396.5,-72 396.5,-72 402.5,-72 408.5,-78 408.5,-84 408.5,-84 408.5,-96 408.5,-96 408.5,-102 402.5,-108 396.5,-108"/>
<text text-anchor="middle" x="379.5" y="-86.3" font-family="Times New Roman,serif" font-size="14.00">peer/v2</text>
</g>
<!-- txscript&#45;&gt;peer -->
<g id="edge18" class="edge"><title>txscript&#45;&gt;peer</title>
<path fill="none" stroke="mediumspringgreen" d="M457.75,-277.578C457.75,-277.578 457.75,-270 457.75,-270 457.75,-270 398.5,-270 398.5,-270 398.5,-270 398.5,-154.011 398.5,-108.25"/>
<polygon fill="mediumspringgreen" stroke="mediumspringgreen" points="454.25,-277.578 457.75,-287.578 461.25,-277.578 454.25,-277.578"/>
</g>
<!-- gcs -->
<g id="node21" class="node"><title>gcs</title>
<path fill="gold" stroke="black" d="M561.5,-180C561.5,-180 531.5,-180 531.5,-180 525.5,-180 519.5,-174 519.5,-168 519.5,-168 519.5,-156 519.5,-156 519.5,-150 525.5,-144 531.5,-144 531.5,-144 561.5,-144 561.5,-144 567.5,-144 573.5,-150 573.5,-156 573.5,-156 573.5,-168 573.5,-168 573.5,-174 567.5,-180 561.5,-180"/>
<text text-anchor="middle" x="546.5" y="-158.3" font-family="Times New Roman,serif" font-size="14.00">gcs</text>
</g>
<!-- stake&#45;&gt;gcs -->
<g id="edge19" class="edge"><title>stake&#45;&gt;gcs</title>
<path fill="none" stroke="bisque" d="M546.5,-205.831C546.5,-205.831 546.5,-180.413 546.5,-180.413"/>
<polygon fill="bisque" stroke="bisque" points="543,-205.831 546.5,-215.831 550,-205.831 543,-205.831"/>
</g>
<!-- blockchain -->
<g id="node22" class="node"><title>blockchain</title>
<path fill="orchid" stroke="black" d="M510,-108C510,-108 439,-108 439,-108 433,-108 427,-102 427,-96 427,-96 427,-84 427,-84 427,-78 433,-72 439,-72 439,-72 510,-72 510,-72 516,-72 522,-78 522,-84 522,-84 522,-96 522,-96 522,-102 516,-108 510,-108"/>
<text text-anchor="middle" x="474.5" y="-86.3" font-family="Times New Roman,serif" font-size="14.00">blockchain/v3</text>
</g>
<!-- standalone&#45;&gt;blockchain -->
<g id="edge20" class="edge"><title>standalone&#45;&gt;blockchain</title>
<path fill="none" stroke="#8b1a1a" d="M420.137,-306C420.137,-306 420.75,-306 420.75,-306 420.75,-306 420.75,-90 420.75,-90 420.75,-90 423.142,-90 426.916,-90"/>
<polygon fill="#8b1a1a" stroke="#8b1a1a" points="424.619,-302.5 414.619,-306 424.619,-309.5 424.619,-302.5"/>
</g>
<!-- gcs&#45;&gt;blockchain -->
<g id="edge21" class="edge"><title>gcs&#45;&gt;blockchain</title>
<path fill="none" stroke="gold" d="M531,-133.831C531,-133.831 531,-90 531,-90 531,-90 527.469,-90 522.172,-90"/>
<polygon fill="gold" stroke="gold" points="527.5,-133.831 531,-143.831 534.5,-133.831 527.5,-133.831"/>
</g>
<!-- gcs&#45;&gt;rpcclient -->
<g id="edge22" class="edge"><title>gcs&#45;&gt;rpcclient</title>
<path fill="none" stroke="gold" d="M583.636,-162C583.636,-162 663.5,-162 663.5,-162 663.5,-162 663.5,-129.498 663.5,-108.169"/>
<polygon fill="gold" stroke="gold" points="583.636,-158.5 573.636,-162 583.636,-165.5 583.636,-158.5"/>
</g>
<!-- blockchain&#45;&gt;dcrd -->
<g id="edge26" class="edge"><title>blockchain&#45;&gt;dcrd</title>
<path fill="none" stroke="orchid" d="M474.5,-61.7333C474.5,-61.7333 474.5,-28 474.5,-28 474.5,-28 434.796,-28 406.723,-28"/>
<polygon fill="orchid" stroke="orchid" points="471,-61.7333 474.5,-71.7333 478,-61.7333 471,-61.7333"/>
</g>
<!-- lru -->
<g id="node23" class="node"><title>lru</title>
<path fill="#3a5fcd" stroke="black" d="M376.5,-180C376.5,-180 346.5,-180 346.5,-180 340.5,-180 334.5,-174 334.5,-168 334.5,-168 334.5,-156 334.5,-156 334.5,-150 340.5,-144 346.5,-144 346.5,-144 376.5,-144 376.5,-144 382.5,-144 388.5,-150 388.5,-156 388.5,-156 388.5,-168 388.5,-168 388.5,-174 382.5,-180 376.5,-180"/>
<text text-anchor="middle" x="361.5" y="-158.3" font-family="Times New Roman,serif" font-size="14.00">lru</text>
</g>
<!-- lru&#45;&gt;peer -->
<g id="edge23" class="edge"><title>lru&#45;&gt;peer</title>
<path fill="none" stroke="#3a5fcd" d="M369.5,-133.831C369.5,-133.831 369.5,-108.413 369.5,-108.413"/>
<polygon fill="#3a5fcd" stroke="#3a5fcd" points="366,-133.831 369.5,-143.831 373,-133.831 366,-133.831"/>
</g>
<!-- peer&#45;&gt;dcrd -->
<g id="edge33" class="edge"><title>peer&#45;&gt;dcrd</title>
<path fill="none" stroke="khaki" d="M379.5,-61.8314C379.5,-61.8314 379.5,-36.4133 379.5,-36.4133"/>
<polygon fill="khaki" stroke="khaki" points="376,-61.8313 379.5,-71.8314 383,-61.8314 376,-61.8313"/>
</g>
<!-- rpcclient&#45;&gt;dcrd -->
<g id="edge32" class="edge"><title>rpcclient&#45;&gt;dcrd</title>
<path fill="none" stroke="mediumseagreen" d="M696.5,-61.9891C696.5,-61.9891 696.5,-14 696.5,-14 696.5,-14 483.187,-14 406.527,-14"/>
<polygon fill="mediumseagreen" stroke="mediumseagreen" points="693,-61.989 696.5,-71.9891 700,-61.9891 693,-61.989"/>
</g>
<!-- apbf -->
<g id="node26" class="node"><title>apbf</title>
<path fill="goldenrod" stroke="black" d="M841,-108C841,-108 768,-108 768,-108 762,-108 756,-102 756,-96 756,-96 756,-84 756,-84 756,-78 762,-72 768,-72 768,-72 841,-72 841,-72 847,-72 853,-78 853,-84 853,-84 853,-96 853,-96 853,-102 847,-108 841,-108"/>
<text text-anchor="middle" x="804.5" y="-86.3" font-family="Times New Roman,serif" font-size="14.00">container/apbf</text>
</g>
<!-- apbf&#45;&gt;dcrd -->
<g id="edge34" class="edge"><title>apbf&#45;&gt;dcrd</title>
<path fill="none" stroke="goldenrod" d="M804.5,-61.9902C804.5,-61.9902 804.5,-7 804.5,-7 804.5,-7 500.534,-7 406.732,-7"/>
<polygon fill="goldenrod" stroke="goldenrod" points="801,-61.9902 804.5,-71.9902 808,-61.9903 801,-61.9902"/>
</g>
</g>
</svg>
