<?xml version="1.0" encoding="UTF-8" standalone="no"?>
<!DOCTYPE svg PUBLIC "-//W3C//DTD SVG 1.1//EN"
 "http://www.w3.org/Graphics/SVG/1.1/DTD/svg11.dtd">
<!-- Generated by graphviz version 8.0.5 (20230430.1635)
 -->
<!-- Pages: 1 -->
<svg width="1214pt" height="720pt"
 viewBox="0.00 0.00 1213.65 720.25" xmlns="http://www.w3.org/2000/svg" xmlns:xlink="http://www.w3.org/1999/xlink">
<g id="graph0" class="graph" transform="scale(1 1) rotate(0) translate(4 716.25)">
<polygon fill="white" stroke="none" points="-4,4 -4,-716.25 1209.65,-716.25 1209.65,4 -4,4"/>
<text text-anchor="start" x="536.83" y="-692.15" font-family="Times New Roman,serif" text-decoration="underline" font-size="18.00">Module Hierarchy</text>
<!-- blake256 -->
<g id="node1" class="node">
<title>blake256</title>
<path fill="cornflowerblue" stroke="black" d="M502.02,-684C502.02,-684 421.62,-684 421.62,-684 415.62,-684 409.62,-678 409.62,-672 409.62,-672 409.62,-660 409.62,-660 409.62,-654 415.62,-648 421.62,-648 421.62,-648 502.02,-648 502.02,-648 508.02,-648 514.02,-654 514.02,-660 514.02,-660 514.02,-672 514.02,-672 514.02,-678 508.02,-684 502.02,-684"/>
<text text-anchor="middle" x="461.82" y="-660.58" font-family="Times New Roman,serif" font-size="14.00">crypto/blake256</text>
</g>
<!-- chainhash -->
<g id="node6" class="node">
<title>chainhash</title>
<path fill="aquamarine" stroke="black" d="M680.9,-684C680.9,-684 584.75,-684 584.75,-684 578.75,-684 572.75,-678 572.75,-672 572.75,-672 572.75,-660 572.75,-660 572.75,-654 578.75,-648 584.75,-648 584.75,-648 680.9,-648 680.9,-648 686.9,-648 692.9,-654 692.9,-660 692.9,-660 692.9,-672 692.9,-672 692.9,-678 686.9,-684 680.9,-684"/>
<text text-anchor="middle" x="632.83" y="-660.58" font-family="Times New Roman,serif" font-size="14.00">chaincfg/chainhash</text>
</g>
<!-- blake256&#45;&gt;chainhash -->
<g id="edge1" class="edge">
<title>blake256&#45;&gt;chainhash</title>
<path fill="none" stroke="cornflowerblue" d="M525.06,-666C525.06,-666 572.52,-666 572.52,-666"/>
<polygon fill="cornflowerblue" stroke="cornflowerblue" points="525.06,-662.5 515.06,-666 525.06,-669.5 525.06,-662.5"/>
</g>
<!-- secp256k1 -->
<g id="node13" class="node">
<title>secp256k1</title>
<path fill="mediumvioletred" stroke="black" d="M388.27,-540C388.27,-540 285.38,-540 285.38,-540 279.38,-540 273.38,-534 273.38,-528 273.38,-528 273.38,-516 273.38,-516 273.38,-510 279.38,-504 285.38,-504 285.38,-504 388.27,-504 388.27,-504 394.27,-504 400.27,-510 400.27,-516 400.27,-516 400.27,-528 400.27,-528 400.27,-534 394.27,-540 388.27,-540"/>
<text text-anchor="middle" x="336.82" y="-516.58" font-family="Times New Roman,serif" font-size="14.00">dcrec/secp256k1/v4</text>
</g>
<!-- blake256&#45;&gt;secp256k1 -->
<g id="edge2" class="edge">
<title>blake256&#45;&gt;secp256k1</title>
<path fill="none" stroke="cornflowerblue" d="M414.19,-636.76C414.19,-636.76 414.19,-522 414.19,-522 414.19,-522 408.73,-522 400.71,-522"/>
<polygon fill="cornflowerblue" stroke="cornflowerblue" points="410.69,-636.76 414.19,-646.76 417.69,-636.76 410.69,-636.76"/>
</g>
<!-- ripemd160 -->
<g id="node2" class="node">
<title>ripemd160</title>
<path fill="darkturquoise" stroke="black" d="M520.9,-540C520.9,-540 430.75,-540 430.75,-540 424.75,-540 418.75,-534 418.75,-528 418.75,-528 418.75,-516 418.75,-516 418.75,-510 424.75,-504 430.75,-504 430.75,-504 520.9,-504 520.9,-504 526.9,-504 532.9,-510 532.9,-516 532.9,-516 532.9,-528 532.9,-528 532.9,-534 526.9,-540 520.9,-540"/>
<text text-anchor="middle" x="475.82" y="-516.58" font-family="Times New Roman,serif" font-size="14.00">crypto/ripemd160</text>
</g>
<!-- txscript -->
<g id="node17" class="node">
<title>txscript</title>
<path fill="mediumspringgreen" stroke="black" d="M443.65,-468C443.65,-468 394,-468 394,-468 388,-468 382,-462 382,-456 382,-456 382,-444 382,-444 382,-438 388,-432 394,-432 394,-432 443.65,-432 443.65,-432 449.65,-432 455.65,-438 455.65,-444 455.65,-444 455.65,-456 455.65,-456 455.65,-462 449.65,-468 443.65,-468"/>
<text text-anchor="middle" x="418.82" y="-444.57" font-family="Times New Roman,serif" font-size="14.00">txscript/v4</text>
</g>
<!-- ripemd160&#45;&gt;txscript -->
<g id="edge10" class="edge">
<title>ripemd160&#45;&gt;txscript</title>
<path fill="none" stroke="darkturquoise" d="M431.05,-492.83C431.05,-492.83 431.05,-468.41 431.05,-468.41"/>
<polygon fill="darkturquoise" stroke="darkturquoise" points="427.55,-492.83 431.05,-502.83 434.55,-492.83 427.55,-492.83"/>
</g>
<!-- rand -->
<g id="node3" class="node">
<title>rand</title>
<path fill="lavender" stroke="black" d="M67.65,-108C67.65,-108 12,-108 12,-108 6,-108 0,-102 0,-96 0,-96 0,-84 0,-84 0,-78 6,-72 12,-72 12,-72 67.65,-72 67.65,-72 73.65,-72 79.65,-78 79.65,-84 79.65,-84 79.65,-96 79.65,-96 79.65,-102 73.65,-108 67.65,-108"/>
<text text-anchor="middle" x="39.83" y="-84.58" font-family="Times New Roman,serif" font-size="14.00">crypto/rand</text>
</g>
<!-- dcrd -->
<g id="node29" class="node">
<title>dcrd</title>
<path fill="chocolate" stroke="black" d="M542.83,-36C542.83,-36 512.83,-36 512.83,-36 506.83,-36 500.83,-30 500.83,-24 500.83,-24 500.83,-12 500.83,-12 500.83,-6 506.83,0 512.83,0 512.83,0 542.83,0 542.83,0 548.83,0 554.83,-6 554.83,-12 554.83,-12 554.83,-24 554.83,-24 554.83,-30 548.83,-36 542.83,-36"/>
<text text-anchor="middle" x="527.83" y="-12.57" font-family="Times New Roman,serif" font-size="14.00">dcrd</text>
</g>
<!-- rand&#45;&gt;dcrd -->
<g id="edge25" class="edge">
<title>rand&#45;&gt;dcrd</title>
<path fill="none" stroke="lavender" d="M39.83,-60.56C39.83,-60.56 39.83,-5 39.83,-5 39.83,-5 397.77,-5 500.54,-5"/>
<polygon fill="lavender" stroke="lavender" points="36.33,-60.56 39.83,-70.56 43.33,-60.56 36.33,-60.56"/>
</g>
<!-- certgen -->
<g id="node4" class="node">
<title>certgen</title>
<path fill="darkkhaki" stroke="black" d="M140.28,-108C140.28,-108 109.38,-108 109.38,-108 103.38,-108 97.38,-102 97.38,-96 97.38,-96 97.38,-84 97.38,-84 97.38,-78 103.38,-72 109.38,-72 109.38,-72 140.28,-72 140.28,-72 146.28,-72 152.28,-78 152.28,-84 152.28,-84 152.28,-96 152.28,-96 152.28,-102 146.28,-108 140.28,-108"/>
<text text-anchor="middle" x="124.83" y="-84.58" font-family="Times New Roman,serif" font-size="14.00">certgen</text>
</g>
<!-- certgen&#45;&gt;dcrd -->
<g id="edge28" class="edge">
<title>certgen&#45;&gt;dcrd</title>
<path fill="none" stroke="darkkhaki" d="M124.83,-60.52C124.83,-60.52 124.83,-12 124.83,-12 124.83,-12 409.74,-12 500.44,-12"/>
<polygon fill="darkkhaki" stroke="darkkhaki" points="121.33,-60.52 124.83,-70.52 128.33,-60.52 121.33,-60.52"/>
</g>
<!-- bech32 -->
<g id="node5" class="node">
<title>bech32</title>
<path fill="#cdc0b0" stroke="black" d="M213.27,-108C213.27,-108 182.38,-108 182.38,-108 176.38,-108 170.38,-102 170.38,-96 170.38,-96 170.38,-84 170.38,-84 170.38,-78 176.38,-72 182.38,-72 182.38,-72 213.27,-72 213.27,-72 219.27,-72 225.27,-78 225.27,-84 225.27,-84 225.27,-96 225.27,-96 225.27,-102 219.27,-108 213.27,-108"/>
<text text-anchor="middle" x="197.82" y="-84.58" font-family="Times New Roman,serif" font-size="14.00">bech32</text>
</g>
<!-- bech32&#45;&gt;dcrd -->
<g id="edge29" class="edge">
<title>bech32&#45;&gt;dcrd</title>
<path fill="none" stroke="#cdc0b0" d="M197.82,-60.83C197.82,-60.83 197.82,-18 197.82,-18 197.82,-18 421.48,-18 500.54,-18"/>
<polygon fill="#cdc0b0" stroke="#cdc0b0" points="194.33,-60.83 197.82,-70.83 201.33,-60.83 194.33,-60.83"/>
</g>
<!-- dcrjson -->
<g id="node7" class="node">
<title>dcrjson</title>
<path fill="indianred" stroke="black" d="M657.65,-612C657.65,-612 608,-612 608,-612 602,-612 596,-606 596,-600 596,-600 596,-588 596,-588 596,-582 602,-576 608,-576 608,-576 657.65,-576 657.65,-576 663.65,-576 669.65,-582 669.65,-588 669.65,-588 669.65,-600 669.65,-600 669.65,-606 663.65,-612 657.65,-612"/>
<text text-anchor="middle" x="632.83" y="-588.58" font-family="Times New Roman,serif" font-size="14.00">dcrjson/v4</text>
</g>
<!-- chainhash&#45;&gt;dcrjson -->
<g id="edge4" class="edge">
<title>chainhash&#45;&gt;dcrjson</title>
<path fill="none" stroke="aquamarine" d="M632.83,-636.83C632.83,-636.83 632.83,-612.41 632.83,-612.41"/>
<polygon fill="aquamarine" stroke="aquamarine" points="629.33,-636.83 632.83,-646.83 636.33,-636.83 629.33,-636.83"/>
</g>
<!-- wire -->
<g id="node9" class="node">
<title>wire</title>
<path fill="coral" stroke="black" d="M781.83,-612C781.83,-612 751.83,-612 751.83,-612 745.83,-612 739.83,-606 739.83,-600 739.83,-600 739.83,-588 739.83,-588 739.83,-582 745.83,-576 751.83,-576 751.83,-576 781.83,-576 781.83,-576 787.83,-576 793.83,-582 793.83,-588 793.83,-588 793.83,-600 793.83,-600 793.83,-606 787.83,-612 781.83,-612"/>
<text text-anchor="middle" x="766.83" y="-588.58" font-family="Times New Roman,serif" font-size="14.00">wire</text>
</g>
<!-- chainhash&#45;&gt;wire -->
<g id="edge5" class="edge">
<title>chainhash&#45;&gt;wire</title>
<path fill="none" stroke="aquamarine" d="M681.28,-636.62C681.28,-636.62 681.28,-600 681.28,-600 681.28,-600 714.69,-600 739.76,-600"/>
<polygon fill="aquamarine" stroke="aquamarine" points="677.78,-636.62 681.28,-646.62 684.78,-636.62 677.78,-636.62"/>
</g>
<!-- types -->
<g id="node8" class="node">
<title>types</title>
<path fill="tomato" stroke="black" d="M685.78,-468C685.78,-468 579.88,-468 579.88,-468 573.88,-468 567.88,-462 567.88,-456 567.88,-456 567.88,-444 567.88,-444 567.88,-438 573.88,-432 579.88,-432 579.88,-432 685.78,-432 685.78,-432 691.78,-432 697.78,-438 697.78,-444 697.78,-444 697.78,-456 697.78,-456 697.78,-462 691.78,-468 685.78,-468"/>
<text text-anchor="middle" x="632.83" y="-444.57" font-family="Times New Roman,serif" font-size="14.00">rpc/jsonrpc/types/v4</text>
</g>
<!-- dcrjson&#45;&gt;types -->
<g id="edge23" class="edge">
<title>dcrjson&#45;&gt;types</title>
<path fill="none" stroke="indianred" d="M632.6,-564.76C632.6,-564.76 632.6,-468.09 632.6,-468.09"/>
<polygon fill="indianred" stroke="indianred" points="629.1,-564.76 632.6,-574.76 636.1,-564.76 629.1,-564.76"/>
</g>
<!-- rpcclient -->
<g id="node23" class="node">
<title>rpcclient</title>
<path fill="mediumseagreen" stroke="black" d="M607.65,-108C607.65,-108 552,-108 552,-108 546,-108 540,-102 540,-96 540,-96 540,-84 540,-84 540,-78 546,-72 552,-72 552,-72 607.65,-72 607.65,-72 613.65,-72 619.65,-78 619.65,-84 619.65,-84 619.65,-96 619.65,-96 619.65,-102 613.65,-108 607.65,-108"/>
<text text-anchor="middle" x="579.83" y="-84.58" font-family="Times New Roman,serif" font-size="14.00">rpcclient/v8</text>
</g>
<!-- types&#45;&gt;rpcclient -->
<g id="edge24" class="edge">
<title>types&#45;&gt;rpcclient</title>
<path fill="none" stroke="tomato" d="M612.4,-420.65C612.4,-420.65 612.4,-108.31 612.4,-108.31"/>
<polygon fill="tomato" stroke="tomato" points="608.9,-420.65 612.4,-430.65 615.9,-420.65 608.9,-420.65"/>
</g>
<!-- chaincfg -->
<g id="node10" class="node">
<title>chaincfg</title>
<path fill="cadetblue" stroke="black" d="M727.28,-540C727.28,-540 672.38,-540 672.38,-540 666.38,-540 660.38,-534 660.38,-528 660.38,-528 660.38,-516 660.38,-516 660.38,-510 666.38,-504 672.38,-504 672.38,-504 727.28,-504 727.28,-504 733.28,-504 739.28,-510 739.28,-516 739.28,-516 739.28,-528 739.28,-528 739.28,-534 733.28,-540 727.28,-540"/>
<text text-anchor="middle" x="699.83" y="-516.58" font-family="Times New Roman,serif" font-size="14.00">chaincfg/v3</text>
</g>
<!-- wire&#45;&gt;chaincfg -->
<g id="edge7" class="edge">
<title>wire&#45;&gt;chaincfg</title>
<path fill="none" stroke="coral" d="M728.38,-588C728.38,-588 716.09,-588 716.09,-588 716.09,-588 716.09,-559.91 716.09,-540.38"/>
<polygon fill="coral" stroke="coral" points="728.38,-591.5 738.38,-588 728.38,-584.5 728.38,-591.5"/>
</g>
<!-- standalone -->
<g id="node20" class="node">
<title>standalone</title>
<path fill="#8b1a1a" stroke="black" d="M781.53,-108C781.53,-108 650.12,-108 650.12,-108 644.12,-108 638.12,-102 638.12,-96 638.12,-96 638.12,-84 638.12,-84 638.12,-78 644.12,-72 650.12,-72 650.12,-72 781.53,-72 781.53,-72 787.53,-72 793.53,-78 793.53,-84 793.53,-84 793.53,-96 793.53,-96 793.53,-102 787.53,-108 781.53,-108"/>
<text text-anchor="middle" x="715.83" y="-84.58" font-family="Times New Roman,serif" font-size="14.00">blockchain/standalone/v2</text>
</g>
<!-- wire&#45;&gt;standalone -->
<g id="edge9" class="edge">
<title>wire&#45;&gt;standalone</title>
<path fill="none" stroke="coral" d="M766.68,-564.76C766.68,-564.76 766.68,-108.48 766.68,-108.48"/>
<polygon fill="coral" stroke="coral" points="763.18,-564.76 766.68,-574.76 770.18,-564.76 763.18,-564.76"/>
</g>
<!-- addrmgr -->
<g id="node24" class="node">
<title>addrmgr</title>
<path fill="lightsalmon" stroke="black" d="M878.28,-108C878.28,-108 823.38,-108 823.38,-108 817.38,-108 811.38,-102 811.38,-96 811.38,-96 811.38,-84 811.38,-84 811.38,-78 817.38,-72 823.38,-72 823.38,-72 878.28,-72 878.28,-72 884.28,-72 890.28,-78 890.28,-84 890.28,-84 890.28,-96 890.28,-96 890.28,-102 884.28,-108 878.28,-108"/>
<text text-anchor="middle" x="850.83" y="-84.58" font-family="Times New Roman,serif" font-size="14.00">addrmgr/v2</text>
</g>
<!-- wire&#45;&gt;addrmgr -->
<g id="edge6" class="edge">
<title>wire&#45;&gt;addrmgr</title>
<path fill="none" stroke="coral" d="M804.87,-588C804.87,-588 850.83,-588 850.83,-588 850.83,-588 850.83,-198.16 850.83,-108.31"/>
<polygon fill="coral" stroke="coral" points="804.87,-584.5 794.87,-588 804.87,-591.5 804.87,-584.5"/>
</g>
<!-- connmgr -->
<g id="node25" class="node">
<title>connmgr</title>
<path fill="mistyrose" stroke="black" d="M977.4,-108C977.4,-108 920.25,-108 920.25,-108 914.25,-108 908.25,-102 908.25,-96 908.25,-96 908.25,-84 908.25,-84 908.25,-78 914.25,-72 920.25,-72 920.25,-72 977.4,-72 977.4,-72 983.4,-72 989.4,-78 989.4,-84 989.4,-84 989.4,-96 989.4,-96 989.4,-102 983.4,-108 977.4,-108"/>
<text text-anchor="middle" x="948.83" y="-84.58" font-family="Times New Roman,serif" font-size="14.00">connmgr/v3</text>
</g>
<!-- wire&#45;&gt;connmgr -->
<g id="edge8" class="edge">
<title>wire&#45;&gt;connmgr</title>
<path fill="none" stroke="coral" d="M805.07,-600C805.07,-600 948.83,-600 948.83,-600 948.83,-600 948.83,-199.88 948.83,-108.45"/>
<polygon fill="coral" stroke="coral" points="805.07,-596.5 795.07,-600 805.07,-603.5 805.07,-596.5"/>
</g>
<!-- chaincfg&#45;&gt;txscript -->
<g id="edge3" class="edge">
<title>chaincfg&#45;&gt;txscript</title>
<path fill="none" stroke="cadetblue" d="M679.08,-492.58C679.08,-492.58 679.08,-486 679.08,-486 679.08,-486 443.35,-486 443.35,-486 443.35,-486 443.35,-477.28 443.35,-468.42"/>
<polygon fill="cadetblue" stroke="cadetblue" points="675.58,-492.58 679.08,-502.58 682.58,-492.58 675.58,-492.58"/>
</g>
<!-- dcrec -->
<g id="node11" class="node">
<title>dcrec</title>
<path fill="mediumpurple" stroke="black" d="M592.83,-540C592.83,-540 562.83,-540 562.83,-540 556.83,-540 550.83,-534 550.83,-528 550.83,-528 550.83,-516 550.83,-516 550.83,-510 556.83,-504 562.83,-504 562.83,-504 592.83,-504 592.83,-504 598.83,-504 604.83,-510 604.83,-516 604.83,-516 604.83,-528 604.83,-528 604.83,-534 598.83,-540 592.83,-540"/>
<text text-anchor="middle" x="577.83" y="-516.58" font-family="Times New Roman,serif" font-size="14.00">dcrec</text>
</g>
<!-- dcrec&#45;&gt;txscript -->
<g id="edge11" class="edge">
<title>dcrec&#45;&gt;txscript</title>
<path fill="none" stroke="mediumpurple" d="M559.35,-492.83C559.35,-492.83 559.35,-450 559.35,-450 559.35,-450 497.75,-450 456.11,-450"/>
<polygon fill="mediumpurple" stroke="mediumpurple" points="555.85,-492.83 559.35,-502.83 562.85,-492.83 555.85,-492.83"/>
</g>
<!-- edwards -->
<g id="node12" class="node">
<title>edwards</title>
<path fill="lightseagreen" stroke="black" d="M242.9,-540C242.9,-540 152.75,-540 152.75,-540 146.75,-540 140.75,-534 140.75,-528 140.75,-528 140.75,-516 140.75,-516 140.75,-510 146.75,-504 152.75,-504 152.75,-504 242.9,-504 242.9,-504 248.9,-504 254.9,-510 254.9,-516 254.9,-516 254.9,-528 254.9,-528 254.9,-534 248.9,-540 242.9,-540"/>
<text text-anchor="middle" x="197.82" y="-516.58" font-family="Times New Roman,serif" font-size="14.00">dcrec/edwards/v2</text>
</g>
<!-- edwards&#45;&gt;txscript -->
<g id="edge12" class="edge">
<title>edwards&#45;&gt;txscript</title>
<path fill="none" stroke="lightseagreen" d="M242.01,-492.83C242.01,-492.83 242.01,-450 242.01,-450 242.01,-450 329.91,-450 381.76,-450"/>
<polygon fill="lightseagreen" stroke="lightseagreen" points="238.51,-492.83 242.01,-502.83 245.51,-492.83 238.51,-492.83"/>
</g>
<!-- secp256k1&#45;&gt;txscript -->
<g id="edge13" class="edge">
<title>secp256k1&#45;&gt;txscript</title>
<path fill="none" stroke="mediumvioletred" d="M391.14,-492.83C391.14,-492.83 391.14,-468.41 391.14,-468.41"/>
<polygon fill="mediumvioletred" stroke="mediumvioletred" points="387.64,-492.83 391.14,-502.83 394.64,-492.83 387.64,-492.83"/>
</g>
<!-- dcrutil -->
<g id="node14" class="node">
<title>dcrutil</title>
<path fill="burlywood" stroke="black" d="M474.27,-396C474.27,-396 431.38,-396 431.38,-396 425.38,-396 419.38,-390 419.38,-384 419.38,-384 419.38,-372 419.38,-372 419.38,-366 425.38,-360 431.38,-360 431.38,-360 474.27,-360 474.27,-360 480.27,-360 486.27,-366 486.27,-372 486.27,-372 486.27,-384 486.27,-384 486.27,-390 480.27,-396 474.27,-396"/>
<text text-anchor="middle" x="452.82" y="-372.57" font-family="Times New Roman,serif" font-size="14.00">dcrutil/v4</text>
</g>
<!-- database -->
<g id="node15" class="node">
<title>database</title>
<path fill="dodgerblue" stroke="black" d="M560.03,-324C560.03,-324 503.63,-324 503.63,-324 497.63,-324 491.63,-318 491.63,-312 491.63,-312 491.63,-300 491.63,-300 491.63,-294 497.63,-288 503.63,-288 503.63,-288 560.03,-288 560.03,-288 566.03,-288 572.03,-294 572.03,-300 572.03,-300 572.03,-312 572.03,-312 572.03,-318 566.03,-324 560.03,-324"/>
<text text-anchor="middle" x="531.83" y="-300.57" font-family="Times New Roman,serif" font-size="14.00">database/v3</text>
</g>
<!-- dcrutil&#45;&gt;database -->
<g id="edge18" class="edge">
<title>dcrutil&#45;&gt;database</title>
<path fill="none" stroke="burlywood" d="M497.71,-378C497.71,-378 512.26,-378 512.26,-378 512.26,-378 512.26,-345.5 512.26,-324.17"/>
<polygon fill="burlywood" stroke="burlywood" points="497.71,-374.5 487.71,-378 497.71,-381.5 497.71,-374.5"/>
</g>
<!-- blockchain -->
<g id="node26" class="node">
<title>blockchain</title>
<path fill="orchid" stroke="black" d="M510.02,-108C510.02,-108 441.62,-108 441.62,-108 435.62,-108 429.62,-102 429.62,-96 429.62,-96 429.62,-84 429.62,-84 429.62,-78 435.62,-72 441.62,-72 441.62,-72 510.02,-72 510.02,-72 516.02,-72 522.02,-78 522.02,-84 522.02,-84 522.02,-96 522.02,-96 522.02,-102 516.02,-108 510.02,-108"/>
<text text-anchor="middle" x="475.82" y="-84.58" font-family="Times New Roman,serif" font-size="14.00">blockchain/v5</text>
</g>
<!-- dcrutil&#45;&gt;blockchain -->
<g id="edge17" class="edge">
<title>dcrutil&#45;&gt;blockchain</title>
<path fill="none" stroke="burlywood" d="M455.06,-348.55C455.06,-348.55 455.06,-108.3 455.06,-108.3"/>
<polygon fill="burlywood" stroke="burlywood" points="451.56,-348.55 455.06,-358.55 458.56,-348.55 451.56,-348.55"/>
</g>
<!-- stake -->
<g id="node18" class="node">
<title>stake</title>
<path fill="bisque" stroke="black" d="M593.15,-252C593.15,-252 492.5,-252 492.5,-252 486.5,-252 480.5,-246 480.5,-240 480.5,-240 480.5,-228 480.5,-228 480.5,-222 486.5,-216 492.5,-216 492.5,-216 593.15,-216 593.15,-216 599.15,-216 605.15,-222 605.15,-228 605.15,-228 605.15,-240 605.15,-240 605.15,-246 599.15,-252 593.15,-252"/>
<text text-anchor="middle" x="542.83" y="-228.57" font-family="Times New Roman,serif" font-size="14.00">blockchain/stake/v5</text>
</g>
<!-- database&#45;&gt;stake -->
<g id="edge19" class="edge">
<title>database&#45;&gt;stake</title>
<path fill="none" stroke="dodgerblue" d="M531.83,-276.83C531.83,-276.83 531.83,-252.41 531.83,-252.41"/>
<polygon fill="dodgerblue" stroke="dodgerblue" points="528.33,-276.83 531.83,-286.83 535.33,-276.83 528.33,-276.83"/>
</g>
<!-- hdkeychain -->
<g id="node16" class="node">
<title>hdkeychain</title>
<path fill="deepskyblue" stroke="black" d="M399.15,-108C399.15,-108 328.5,-108 328.5,-108 322.5,-108 316.5,-102 316.5,-96 316.5,-96 316.5,-84 316.5,-84 316.5,-78 322.5,-72 328.5,-72 328.5,-72 399.15,-72 399.15,-72 405.15,-72 411.15,-78 411.15,-84 411.15,-84 411.15,-96 411.15,-96 411.15,-102 405.15,-108 399.15,-108"/>
<text text-anchor="middle" x="363.82" y="-84.58" font-family="Times New Roman,serif" font-size="14.00">hdkeychain/v3</text>
</g>
<!-- hdkeychain&#45;&gt;dcrd -->
<g id="edge31" class="edge">
<title>hdkeychain&#45;&gt;dcrd</title>
<path fill="none" stroke="deepskyblue" d="M363.82,-60.67C363.82,-60.67 363.82,-30 363.82,-30 363.82,-30 453.69,-30 500.38,-30"/>
<polygon fill="deepskyblue" stroke="deepskyblue" points="360.33,-60.67 363.82,-70.67 367.33,-60.67 360.33,-60.67"/>
</g>
<!-- txscript&#45;&gt;dcrutil -->
<g id="edge14" class="edge">
<title>txscript&#45;&gt;dcrutil</title>
<path fill="none" stroke="mediumspringgreen" d="M437.51,-420.83C437.51,-420.83 437.51,-396.41 437.51,-396.41"/>
<polygon fill="mediumspringgreen" stroke="mediumspringgreen" points="434.01,-420.83 437.51,-430.83 441.01,-420.83 434.01,-420.83"/>
</g>
<!-- txscript&#45;&gt;hdkeychain -->
<g id="edge15" class="edge">
<title>txscript&#45;&gt;hdkeychain</title>
<path fill="none" stroke="mediumspringgreen" d="M401.43,-420.65C401.43,-420.65 401.43,-108.31 401.43,-108.31"/>
<polygon fill="mediumspringgreen" stroke="mediumspringgreen" points="397.93,-420.65 401.43,-430.65 404.93,-420.65 397.93,-420.65"/>
</g>
<!-- peer -->
<g id="node22" class="node">
<title>peer</title>
<path fill="khaki" stroke="black" d="M286.65,-108C286.65,-108 255,-108 255,-108 249,-108 243,-102 243,-96 243,-96 243,-84 243,-84 243,-78 249,-72 255,-72 255,-72 286.65,-72 286.65,-72 292.65,-72 298.65,-78 298.65,-84 298.65,-84 298.65,-96 298.65,-96 298.65,-102 292.65,-108 286.65,-108"/>
<text text-anchor="middle" x="270.82" y="-84.58" font-family="Times New Roman,serif" font-size="14.00">peer/v3</text>
</g>
<!-- txscript&#45;&gt;peer -->
<g id="edge16" class="edge">
<title>txscript&#45;&gt;peer</title>
<path fill="none" stroke="mediumspringgreen" d="M391.72,-420.65C391.72,-420.65 391.72,-126 391.72,-126 391.72,-126 280.1,-126 280.1,-126 280.1,-126 280.1,-117.28 280.1,-108.42"/>
<polygon fill="mediumspringgreen" stroke="mediumspringgreen" points="388.22,-420.65 391.72,-430.65 395.22,-420.65 388.22,-420.65"/>
</g>
<!-- gcs -->
<g id="node19" class="node">
<title>gcs</title>
<path fill="gold" stroke="black" d="M575.83,-180C575.83,-180 545.83,-180 545.83,-180 539.83,-180 533.83,-174 533.83,-168 533.83,-168 533.83,-156 533.83,-156 533.83,-150 539.83,-144 545.83,-144 545.83,-144 575.83,-144 575.83,-144 581.83,-144 587.83,-150 587.83,-156 587.83,-156 587.83,-168 587.83,-168 587.83,-174 581.83,-180 575.83,-180"/>
<text text-anchor="middle" x="560.83" y="-156.57" font-family="Times New Roman,serif" font-size="14.00">gcs/v4</text>
</g>
<!-- stake&#45;&gt;gcs -->
<g id="edge20" class="edge">
<title>stake&#45;&gt;gcs</title>
<path fill="none" stroke="bisque" d="M560.83,-204.83C560.83,-204.83 560.83,-180.41 560.83,-180.41"/>
<polygon fill="bisque" stroke="bisque" points="557.33,-204.83 560.83,-214.83 564.33,-204.83 557.33,-204.83"/>
</g>
<!-- gcs&#45;&gt;rpcclient -->
<g id="edge21" class="edge">
<title>gcs&#45;&gt;rpcclient</title>
<path fill="none" stroke="gold" d="M563.91,-132.83C563.91,-132.83 563.91,-108.41 563.91,-108.41"/>
<polygon fill="gold" stroke="gold" points="560.41,-132.83 563.91,-142.83 567.41,-132.83 560.41,-132.83"/>
</g>
<!-- standalone&#45;&gt;dcrd -->
<g id="edge27" class="edge">
<title>standalone&#45;&gt;dcrd</title>
<path fill="none" stroke="firebrick" d="M715.83,-60.67C715.83,-60.67 715.83,-30 715.83,-30 715.83,-30 607.3,-30 555.16,-30"/>
<polygon fill="firebrick" stroke="firebrick" points="712.33,-60.67 715.83,-70.67 719.33,-60.67 712.33,-60.67"/>
</g>
<!-- lru -->
<g id="node21" class="node">
<title>lru</title>
<path fill="#3a5fcd" stroke="black" d="M300.52,-180C300.52,-180 241.12,-180 241.12,-180 235.12,-180 229.12,-174 229.12,-168 229.12,-168 229.12,-156 229.12,-156 229.12,-150 235.12,-144 241.12,-144 241.12,-144 300.52,-144 300.52,-144 306.52,-144 312.52,-150 312.52,-156 312.52,-156 312.52,-168 312.52,-168 312.52,-174 306.52,-180 300.52,-180"/>
<text text-anchor="middle" x="270.82" y="-156.57" font-family="Times New Roman,serif" font-size="14.00">container/lru</text>
</g>
<!-- lru&#45;&gt;peer -->
<g id="edge22" class="edge">
<title>lru&#45;&gt;peer</title>
<path fill="none" stroke="#3a5fcd" d="M261.55,-132.83C261.55,-132.83 261.55,-108.41 261.55,-108.41"/>
<polygon fill="#3a5fcd" stroke="#3a5fcd" points="258.05,-132.83 261.55,-142.83 265.05,-132.83 258.05,-132.83"/>
</g>
<!-- peer&#45;&gt;dcrd -->
<g id="edge34" class="edge">
<title>peer&#45;&gt;dcrd</title>
<path fill="none" stroke="khaki" d="M270.82,-60.62C270.82,-60.62 270.82,-24 270.82,-24 270.82,-24 434.82,-24 500.81,-24"/>
<polygon fill="khaki" stroke="khaki" points="267.33,-60.62 270.82,-70.62 274.33,-60.62 267.33,-60.62"/>
</g>
<!-- rpcclient&#45;&gt;dcrd -->
<g id="edge33" class="edge">
<title>rpcclient&#45;&gt;dcrd</title>
<path fill="none" stroke="mediumseagreen" d="M547.41,-60.83C547.41,-60.83 547.41,-36.41 547.41,-36.41"/>
<polygon fill="mediumseagreen" stroke="mediumseagreen" points="543.91,-60.83 547.41,-70.83 550.91,-60.83 543.91,-60.83"/>
</g>
<!-- addrmgr&#45;&gt;dcrd -->
<g id="edge30" class="edge">
<title>addrmgr&#45;&gt;dcrd</title>
<path fill="none" stroke="lightsalmon" d="M850.83,-60.62C850.83,-60.62 850.83,-24 850.83,-24 850.83,-24 632.96,-24 555.09,-24"/>
<polygon fill="lightsalmon" stroke="lightsalmon" points="847.33,-60.62 850.83,-70.62 854.33,-60.62 847.33,-60.62"/>
</g>
<!-- connmgr&#45;&gt;dcrd -->
<g id="edge32" class="edge">
<title>connmgr&#45;&gt;dcrd</title>
<path fill="none" stroke="mistyrose" d="M948.83,-60.83C948.83,-60.83 948.83,-18 948.83,-18 948.83,-18 648.41,-18 555.12,-18"/>
<polygon fill="mistyrose" stroke="mistyrose" points="945.33,-60.83 948.83,-70.83 952.33,-60.83 945.33,-60.83"/>
</g>
<!-- blockchain&#45;&gt;dcrd -->
<g id="edge26" class="edge">
<title>blockchain&#45;&gt;dcrd</title>
<path fill="none" stroke="orchid" d="M511.43,-60.83C511.43,-60.83 511.43,-36.41 511.43,-36.41"/>
<polygon fill="orchid" stroke="orchid" points="507.93,-60.83 511.43,-70.83 514.93,-60.83 507.93,-60.83"/>
</g>
<!-- apbf -->
<g id="node27" class="node">
<title>apbf</title>
<path fill="goldenrod" stroke="black" d="M1090.15,-108C1090.15,-108 1019.5,-108 1019.5,-108 1013.5,-108 1007.5,-102 1007.5,-96 1007.5,-96 1007.5,-84 1007.5,-84 1007.5,-78 1013.5,-72 1019.5,-72 1019.5,-72 1090.15,-72 1090.15,-72 1096.15,-72 1102.15,-78 1102.15,-84 1102.15,-84 1102.15,-96 1102.15,-96 1102.15,-102 1096.15,-108 1090.15,-108"/>
<text text-anchor="middle" x="1054.83" y="-84.58" font-family="Times New Roman,serif" font-size="14.00">container/apbf</text>
</g>
<!-- apbf&#45;&gt;dcrd -->
<g id="edge35" class="edge">
<title>apbf&#45;&gt;dcrd</title>
<path fill="none" stroke="goldenrod" d="M1054.83,-60.52C1054.83,-60.52 1054.83,-12 1054.83,-12 1054.83,-12 662.96,-12 555.05,-12"/>
<polygon fill="goldenrod" stroke="goldenrod" points="1051.33,-60.52 1054.83,-70.52 1058.33,-60.52 1051.33,-60.52"/>
</g>
<!-- uint256 -->
<g id="node28" class="node">
<title>uint256</title>
<path fill="lightgreen" stroke="black" d="M1193.65,-108C1193.65,-108 1132,-108 1132,-108 1126,-108 1120,-102 1120,-96 1120,-96 1120,-84 1120,-84 1120,-78 1126,-72 1132,-72 1132,-72 1193.65,-72 1193.65,-72 1199.65,-72 1205.65,-78 1205.65,-84 1205.65,-84 1205.65,-96 1205.65,-96 1205.65,-102 1199.65,-108 1193.65,-108"/>
<text text-anchor="middle" x="1162.83" y="-84.58" font-family="Times New Roman,serif" font-size="14.00">math/uint256</text>
</g>
<!-- uint256&#45;&gt;dcrd -->
<g id="edge36" class="edge">
<title>uint256&#45;&gt;dcrd</title>
<path fill="none" stroke="lightgreen" d="M1162.83,-60.56C1162.83,-60.56 1162.83,-5 1162.83,-5 1162.83,-5 676.65,-5 555.11,-5"/>
<polygon fill="lightgreen" stroke="lightgreen" points="1159.33,-60.56 1162.83,-70.56 1166.33,-60.56 1159.33,-60.56"/>
</g>
</g>
</svg>
