<?xml version="1.0" encoding="UTF-8" standalone="no"?>
<!DOCTYPE svg PUBLIC "-//W3C//DTD SVG 1.1//EN"
 "http://www.w3.org/Graphics/SVG/1.1/DTD/svg11.dtd">
<!-- Generated by graphviz version 2.38.0 (20140413.2041)
 -->
<!-- Title: %3 Pages: 1 -->
<svg width="666pt" height="576pt"
 viewBox="0.00 0.00 666.00 576.00" xmlns="http://www.w3.org/2000/svg" xmlns:xlink="http://www.w3.org/1999/xlink">
<g id="graph0" class="graph" transform="scale(1 1) rotate(0) translate(4 572)">
<title>%3</title>
<polygon fill="white" stroke="#000000" points="-4,4 -4,-572 662,-572 662,4 -4,4"/>
<text text-anchor="start" x="262.5" y="-550.6" font-family="Times New Roman,serif" text-decoration="underline" font-size="18.00">Module Hierarchy</text>
<!-- certgen -->
<g id="node1" class="node"><title>certgen</title>
<path fill="darkkhaki" stroke="black" d="M45,-108C45,-108 12,-108 12,-108 6,-108 0,-102 0,-96 0,-96 0,-84 0,-84 0,-78 6,-72 12,-72 12,-72 45,-72 45,-72 51,-72 57,-78 57,-84 57,-84 57,-96 57,-96 57,-102 51,-108 45,-108"/>
<text text-anchor="middle" x="28.5" y="-86.3" font-family="Times New Roman,serif" font-size="14.00">certgen</text>
</g>
<!-- dcrd -->
<g id="node23" class="node"><title>dcrd</title>
<path fill="chocolate" stroke="black" d="M303.5,-36C303.5,-36 273.5,-36 273.5,-36 267.5,-36 261.5,-30 261.5,-24 261.5,-24 261.5,-12 261.5,-12 261.5,-6 267.5,-0 273.5,-0 273.5,-0 303.5,-0 303.5,-0 309.5,-0 315.5,-6 315.5,-12 315.5,-12 315.5,-24 315.5,-24 315.5,-30 309.5,-36 303.5,-36"/>
<text text-anchor="middle" x="288.5" y="-14.3" font-family="Times New Roman,serif" font-size="14.00">dcrd</text>
</g>
<!-- certgen&#45;&gt;dcrd -->
<g id="edge26" class="edge"><title>certgen&#45;&gt;dcrd</title>
<path fill="none" stroke="darkkhaki" d="M28.5,-61.6198C28.5,-61.6198 28.5,-9 28.5,-9 28.5,-9 194.413,-9 261.167,-9"/>
<polygon fill="darkkhaki" stroke="darkkhaki" points="25.0001,-61.6198 28.5,-71.6198 32.0001,-61.6199 25.0001,-61.6198"/>
</g>
<!-- chainhash -->
<g id="node2" class="node"><title>chainhash</title>
<path fill="aquamarine" stroke="black" d="M483.5,-540C483.5,-540 385.5,-540 385.5,-540 379.5,-540 373.5,-534 373.5,-528 373.5,-528 373.5,-516 373.5,-516 373.5,-510 379.5,-504 385.5,-504 385.5,-504 483.5,-504 483.5,-504 489.5,-504 495.5,-510 495.5,-516 495.5,-516 495.5,-528 495.5,-528 495.5,-534 489.5,-540 483.5,-540"/>
<text text-anchor="middle" x="434.5" y="-518.3" font-family="Times New Roman,serif" font-size="14.00">chaincfg/chainhash</text>
</g>
<!-- dcrjson -->
<g id="node3" class="node"><title>dcrjson</title>
<path fill="indianred" stroke="black" d="M625.5,-324C625.5,-324 573.5,-324 573.5,-324 567.5,-324 561.5,-318 561.5,-312 561.5,-312 561.5,-300 561.5,-300 561.5,-294 567.5,-288 573.5,-288 573.5,-288 625.5,-288 625.5,-288 631.5,-288 637.5,-294 637.5,-300 637.5,-300 637.5,-312 637.5,-312 637.5,-318 631.5,-324 625.5,-324"/>
<text text-anchor="middle" x="599.5" y="-302.3" font-family="Times New Roman,serif" font-size="14.00">dcrjson/v3</text>
</g>
<!-- chainhash&#45;&gt;dcrjson -->
<g id="edge2" class="edge"><title>chainhash&#45;&gt;dcrjson</title>
<path fill="none" stroke="aquamarine" d="M505.874,-522C505.874,-522 604.5,-522 604.5,-522 604.5,-522 604.5,-375.958 604.5,-324.045"/>
<polygon fill="aquamarine" stroke="aquamarine" points="505.874,-518.5 495.874,-522 505.874,-525.5 505.874,-518.5"/>
</g>
<!-- wire -->
<g id="node5" class="node"><title>wire</title>
<path fill="coral" stroke="black" d="M205.5,-468C205.5,-468 175.5,-468 175.5,-468 169.5,-468 163.5,-462 163.5,-456 163.5,-456 163.5,-444 163.5,-444 163.5,-438 169.5,-432 175.5,-432 175.5,-432 205.5,-432 205.5,-432 211.5,-432 217.5,-438 217.5,-444 217.5,-444 217.5,-456 217.5,-456 217.5,-462 211.5,-468 205.5,-468"/>
<text text-anchor="middle" x="190.5" y="-446.3" font-family="Times New Roman,serif" font-size="14.00">wire</text>
</g>
<!-- chainhash&#45;&gt;wire -->
<g id="edge3" class="edge"><title>chainhash&#45;&gt;wire</title>
<path fill="none" stroke="aquamarine" d="M363.243,-522C363.243,-522 190.5,-522 190.5,-522 190.5,-522 190.5,-489.498 190.5,-468.169"/>
<polygon fill="aquamarine" stroke="aquamarine" points="363.243,-525.5 373.243,-522 363.243,-518.5 363.243,-525.5"/>
</g>
<!-- secp256k1 -->
<g id="node11" class="node"><title>secp256k1</title>
<path fill="mediumvioletred" stroke="black" d="M487,-468C487,-468 382,-468 382,-468 376,-468 370,-462 370,-456 370,-456 370,-444 370,-444 370,-438 376,-432 382,-432 382,-432 487,-432 487,-432 493,-432 499,-438 499,-444 499,-444 499,-456 499,-456 499,-462 493,-468 487,-468"/>
<text text-anchor="middle" x="434.5" y="-446.3" font-family="Times New Roman,serif" font-size="14.00">dcrec/secp256k1/v3</text>
</g>
<!-- chainhash&#45;&gt;secp256k1 -->
<g id="edge8" class="edge"><title>chainhash&#45;&gt;secp256k1</title>
<path fill="none" stroke="aquamarine" d="M434.5,-493.831C434.5,-493.831 434.5,-468.413 434.5,-468.413"/>
<polygon fill="aquamarine" stroke="aquamarine" points="431,-493.831 434.5,-503.831 438,-493.831 431,-493.831"/>
</g>
<!-- types -->
<g id="node4" class="node"><title>types</title>
<path fill="tomato" stroke="black" d="M646,-252C646,-252 555,-252 555,-252 549,-252 543,-246 543,-240 543,-240 543,-228 543,-228 543,-222 549,-216 555,-216 555,-216 646,-216 646,-216 652,-216 658,-222 658,-228 658,-228 658,-240 658,-240 658,-246 652,-252 646,-252"/>
<text text-anchor="middle" x="600.5" y="-230.3" font-family="Times New Roman,serif" font-size="14.00">rpc/jsonrpc/types</text>
</g>
<!-- dcrjson&#45;&gt;types -->
<g id="edge23" class="edge"><title>dcrjson&#45;&gt;types</title>
<path fill="none" stroke="tomato" d="M599.5,-277.831C599.5,-277.831 599.5,-252.413 599.5,-252.413"/>
<polygon fill="tomato" stroke="tomato" points="596,-277.831 599.5,-287.831 603,-277.831 596,-277.831"/>
</g>
<!-- rpcclient -->
<g id="node22" class="node"><title>rpcclient</title>
<path fill="mediumseagreen" stroke="black" d="M634.5,-108C634.5,-108 576.5,-108 576.5,-108 570.5,-108 564.5,-102 564.5,-96 564.5,-96 564.5,-84 564.5,-84 564.5,-78 570.5,-72 576.5,-72 576.5,-72 634.5,-72 634.5,-72 640.5,-72 646.5,-78 646.5,-84 646.5,-84 646.5,-96 646.5,-96 646.5,-102 640.5,-108 634.5,-108"/>
<text text-anchor="middle" x="605.5" y="-86.3" font-family="Times New Roman,serif" font-size="14.00">rpcclient/v6</text>
</g>
<!-- types&#45;&gt;rpcclient -->
<g id="edge24" class="edge"><title>types&#45;&gt;rpcclient</title>
<path fill="none" stroke="indianred" d="M619.167,-205.762C619.167,-205.762 619.167,-108.09 619.167,-108.09"/>
<polygon fill="indianred" stroke="indianred" points="615.667,-205.762 619.167,-215.762 622.667,-205.762 615.667,-205.762"/>
</g>
<!-- addrmgr -->
<g id="node6" class="node"><title>addrmgr</title>
<path fill="lightsalmon" stroke="black" d="M127.5,-108C127.5,-108 87.5,-108 87.5,-108 81.5,-108 75.5,-102 75.5,-96 75.5,-96 75.5,-84 75.5,-84 75.5,-78 81.5,-72 87.5,-72 87.5,-72 127.5,-72 127.5,-72 133.5,-72 139.5,-78 139.5,-84 139.5,-84 139.5,-96 139.5,-96 139.5,-102 133.5,-108 127.5,-108"/>
<text text-anchor="middle" x="107.5" y="-86.3" font-family="Times New Roman,serif" font-size="14.00">addrmgr</text>
</g>
<!-- wire&#45;&gt;addrmgr -->
<g id="edge4" class="edge"><title>wire&#45;&gt;addrmgr</title>
<path fill="none" stroke="coral" d="M153.408,-456C153.408,-456 96.8333,-456 96.8333,-456 96.8333,-456 96.8333,-182.001 96.8333,-108.15"/>
<polygon fill="coral" stroke="coral" points="153.408,-459.5 163.408,-456 153.408,-452.5 153.408,-459.5"/>
</g>
<!-- chaincfg -->
<g id="node7" class="node"><title>chaincfg</title>
<path fill="cadetblue" stroke="black" d="M324,-396C324,-396 267,-396 267,-396 261,-396 255,-390 255,-384 255,-384 255,-372 255,-372 255,-366 261,-360 267,-360 267,-360 324,-360 324,-360 330,-360 336,-366 336,-372 336,-372 336,-384 336,-384 336,-390 330,-396 324,-396"/>
<text text-anchor="middle" x="295.5" y="-374.3" font-family="Times New Roman,serif" font-size="14.00">chaincfg/v3</text>
</g>
<!-- wire&#45;&gt;chaincfg -->
<g id="edge5" class="edge"><title>wire&#45;&gt;chaincfg</title>
<path fill="none" stroke="coral" d="M199.5,-421.831C199.5,-421.831 199.5,-378 199.5,-378 199.5,-378 228.623,-378 254.787,-378"/>
<polygon fill="coral" stroke="coral" points="196,-421.831 199.5,-431.831 203,-421.831 196,-421.831"/>
</g>
<!-- connmgr -->
<g id="node8" class="node"><title>connmgr</title>
<path fill="mistyrose" stroke="black" d="M229,-108C229,-108 170,-108 170,-108 164,-108 158,-102 158,-96 158,-96 158,-84 158,-84 158,-78 164,-72 170,-72 170,-72 229,-72 229,-72 235,-72 241,-78 241,-84 241,-84 241,-96 241,-96 241,-102 235,-108 229,-108"/>
<text text-anchor="middle" x="199.5" y="-86.3" font-family="Times New Roman,serif" font-size="14.00">connmgr/v3</text>
</g>
<!-- wire&#45;&gt;connmgr -->
<g id="edge6" class="edge"><title>wire&#45;&gt;connmgr</title>
<path fill="none" stroke="coral" d="M153.154,-444C153.154,-444 118.167,-444 118.167,-444 118.167,-444 118.167,-198 118.167,-198 118.167,-198 199.5,-198 199.5,-198 199.5,-198 199.5,-139.134 199.5,-108.321"/>
<polygon fill="coral" stroke="coral" points="153.154,-447.5 163.154,-444 153.154,-440.5 153.154,-447.5"/>
</g>
<!-- standalone -->
<g id="node17" class="node"><title>standalone</title>
<path fill="#8b1a1a" stroke="black" d="M289.5,-252C289.5,-252 155.5,-252 155.5,-252 149.5,-252 143.5,-246 143.5,-240 143.5,-240 143.5,-228 143.5,-228 143.5,-222 149.5,-216 155.5,-216 155.5,-216 289.5,-216 289.5,-216 295.5,-216 301.5,-222 301.5,-228 301.5,-228 301.5,-240 301.5,-240 301.5,-246 295.5,-252 289.5,-252"/>
<text text-anchor="middle" x="222.5" y="-230.3" font-family="Times New Roman,serif" font-size="14.00">blockchain/standalone/v2</text>
</g>
<!-- wire&#45;&gt;standalone -->
<g id="edge7" class="edge"><title>wire&#45;&gt;standalone</title>
<path fill="none" stroke="coral" d="M181.5,-421.955C181.5,-421.955 181.5,-252.145 181.5,-252.145"/>
<polygon fill="coral" stroke="coral" points="178,-421.955 181.5,-431.955 185,-421.956 178,-421.955"/>
</g>
<!-- addrmgr&#45;&gt;dcrd -->
<g id="edge27" class="edge"><title>addrmgr&#45;&gt;dcrd</title>
<path fill="none" stroke="lightsalmon" d="M107.5,-61.8314C107.5,-61.8314 107.5,-18 107.5,-18 107.5,-18 210.91,-18 261.402,-18"/>
<polygon fill="lightsalmon" stroke="lightsalmon" points="104,-61.8313 107.5,-71.8314 111,-61.8314 104,-61.8313"/>
</g>
<!-- txscript -->
<g id="node15" class="node"><title>txscript</title>
<path fill="mediumspringgreen" stroke="black" d="M357.5,-324C357.5,-324 305.5,-324 305.5,-324 299.5,-324 293.5,-318 293.5,-312 293.5,-312 293.5,-300 293.5,-300 293.5,-294 299.5,-288 305.5,-288 305.5,-288 357.5,-288 357.5,-288 363.5,-288 369.5,-294 369.5,-300 369.5,-300 369.5,-312 369.5,-312 369.5,-318 363.5,-324 357.5,-324"/>
<text text-anchor="middle" x="331.5" y="-302.3" font-family="Times New Roman,serif" font-size="14.00">txscript/v3</text>
</g>
<!-- chaincfg&#45;&gt;txscript -->
<g id="edge1" class="edge"><title>chaincfg&#45;&gt;txscript</title>
<path fill="none" stroke="cadetblue" d="M314.75,-349.831C314.75,-349.831 314.75,-324.413 314.75,-324.413"/>
<polygon fill="cadetblue" stroke="cadetblue" points="311.25,-349.831 314.75,-359.831 318.25,-349.831 311.25,-349.831"/>
</g>
<!-- connmgr&#45;&gt;dcrd -->
<g id="edge29" class="edge"><title>connmgr&#45;&gt;dcrd</title>
<path fill="none" stroke="mistyrose" d="M199.5,-61.7778C199.5,-61.7778 199.5,-27 199.5,-27 199.5,-27 235.14,-27 261.313,-27"/>
<polygon fill="mistyrose" stroke="mistyrose" points="196,-61.7778 199.5,-71.7778 203,-61.7778 196,-61.7778"/>
</g>
<!-- dcrec -->
<g id="node9" class="node"><title>dcrec</title>
<path fill="mediumpurple" stroke="black" d="M559.5,-468C559.5,-468 529.5,-468 529.5,-468 523.5,-468 517.5,-462 517.5,-456 517.5,-456 517.5,-444 517.5,-444 517.5,-438 523.5,-432 529.5,-432 529.5,-432 559.5,-432 559.5,-432 565.5,-432 571.5,-438 571.5,-444 571.5,-444 571.5,-456 571.5,-456 571.5,-462 565.5,-468 559.5,-468"/>
<text text-anchor="middle" x="544.5" y="-446.3" font-family="Times New Roman,serif" font-size="14.00">dcrec</text>
</g>
<!-- dcrutil -->
<g id="node12" class="node"><title>dcrutil</title>
<path fill="burlywood" stroke="black" d="M457,-396C457,-396 412,-396 412,-396 406,-396 400,-390 400,-384 400,-384 400,-372 400,-372 400,-366 406,-360 412,-360 412,-360 457,-360 457,-360 463,-360 469,-366 469,-372 469,-372 469,-384 469,-384 469,-390 463,-396 457,-396"/>
<text text-anchor="middle" x="434.5" y="-374.3" font-family="Times New Roman,serif" font-size="14.00">dcrutil/v3</text>
</g>
<!-- dcrec&#45;&gt;dcrutil -->
<g id="edge9" class="edge"><title>dcrec&#45;&gt;dcrutil</title>
<path fill="none" stroke="mediumpurple" d="M530.25,-421.965C530.25,-421.965 530.25,-384 530.25,-384 530.25,-384 496.494,-384 469.068,-384"/>
<polygon fill="mediumpurple" stroke="mediumpurple" points="526.75,-421.965 530.25,-431.965 533.75,-421.965 526.75,-421.965"/>
</g>
<!-- edwards -->
<g id="node10" class="node"><title>edwards</title>
<path fill="lightseagreen" stroke="black" d="M339.5,-468C339.5,-468 247.5,-468 247.5,-468 241.5,-468 235.5,-462 235.5,-456 235.5,-456 235.5,-444 235.5,-444 235.5,-438 241.5,-432 247.5,-432 247.5,-432 339.5,-432 339.5,-432 345.5,-432 351.5,-438 351.5,-444 351.5,-444 351.5,-456 351.5,-456 351.5,-462 345.5,-468 339.5,-468"/>
<text text-anchor="middle" x="293.5" y="-446.3" font-family="Times New Roman,serif" font-size="14.00">dcrec/edwards/v2</text>
</g>
<!-- edwards&#45;&gt;dcrutil -->
<g id="edge10" class="edge"><title>edwards&#45;&gt;dcrutil</title>
<path fill="none" stroke="lightseagreen" d="M343.75,-421.965C343.75,-421.965 343.75,-384 343.75,-384 343.75,-384 374.287,-384 399.932,-384"/>
<polygon fill="lightseagreen" stroke="lightseagreen" points="340.25,-421.965 343.75,-431.965 347.25,-421.965 340.25,-421.965"/>
</g>
<!-- secp256k1&#45;&gt;dcrutil -->
<g id="edge11" class="edge"><title>secp256k1&#45;&gt;dcrutil</title>
<path fill="none" stroke="mediumvioletred" d="M434.5,-421.831C434.5,-421.831 434.5,-396.413 434.5,-396.413"/>
<polygon fill="mediumvioletred" stroke="mediumvioletred" points="431,-421.831 434.5,-431.831 438,-421.831 431,-421.831"/>
</g>
<!-- database -->
<g id="node13" class="node"><title>database</title>
<path fill="dodgerblue" stroke="black" d="M463,-324C463,-324 404,-324 404,-324 398,-324 392,-318 392,-312 392,-312 392,-300 392,-300 392,-294 398,-288 404,-288 404,-288 463,-288 463,-288 469,-288 475,-294 475,-300 475,-300 475,-312 475,-312 475,-318 469,-324 463,-324"/>
<text text-anchor="middle" x="433.5" y="-302.3" font-family="Times New Roman,serif" font-size="14.00">database/v2</text>
</g>
<!-- dcrutil&#45;&gt;database -->
<g id="edge12" class="edge"><title>dcrutil&#45;&gt;database</title>
<path fill="none" stroke="burlywood" d="M434.5,-349.831C434.5,-349.831 434.5,-324.413 434.5,-324.413"/>
<polygon fill="burlywood" stroke="burlywood" points="431,-349.831 434.5,-359.831 438,-349.831 431,-349.831"/>
</g>
<!-- hdkeychain -->
<g id="node14" class="node"><title>hdkeychain</title>
<path fill="deepskyblue" stroke="black" d="M534,-108C534,-108 461,-108 461,-108 455,-108 449,-102 449,-96 449,-96 449,-84 449,-84 449,-78 455,-72 461,-72 461,-72 534,-72 534,-72 540,-72 546,-78 546,-84 546,-84 546,-96 546,-96 546,-102 540,-108 534,-108"/>
<text text-anchor="middle" x="497.5" y="-86.3" font-family="Times New Roman,serif" font-size="14.00">hdkeychain/v3</text>
</g>
<!-- dcrutil&#45;&gt;hdkeychain -->
<g id="edge13" class="edge"><title>dcrutil&#45;&gt;hdkeychain</title>
<path fill="none" stroke="burlywood" d="M479.274,-372C479.274,-372 492,-372 492,-372 492,-372 492,-170.31 492,-108.069"/>
<polygon fill="burlywood" stroke="burlywood" points="479.275,-368.5 469.274,-372 479.274,-375.5 479.275,-368.5"/>
</g>
<!-- dcrutil&#45;&gt;txscript -->
<g id="edge14" class="edge"><title>dcrutil&#45;&gt;txscript</title>
<path fill="none" stroke="burlywood" d="M389.667,-372C389.667,-372 360.5,-372 360.5,-372 360.5,-372 360.5,-343.576 360.5,-324.035"/>
<polygon fill="burlywood" stroke="burlywood" points="389.667,-375.5 399.667,-372 389.667,-368.5 389.667,-375.5"/>
</g>
<!-- stake -->
<g id="node16" class="node"><title>stake</title>
<path fill="bisque" stroke="black" d="M473,-252C473,-252 370,-252 370,-252 364,-252 358,-246 358,-240 358,-240 358,-228 358,-228 358,-222 364,-216 370,-216 370,-216 473,-216 473,-216 479,-216 485,-222 485,-228 485,-228 485,-240 485,-240 485,-246 479,-252 473,-252"/>
<text text-anchor="middle" x="421.5" y="-230.3" font-family="Times New Roman,serif" font-size="14.00">blockchain/stake/v3</text>
</g>
<!-- database&#45;&gt;stake -->
<g id="edge15" class="edge"><title>database&#45;&gt;stake</title>
<path fill="none" stroke="dodgerblue" d="M433.5,-277.831C433.5,-277.831 433.5,-252.413 433.5,-252.413"/>
<polygon fill="dodgerblue" stroke="dodgerblue" points="430,-277.831 433.5,-287.831 437,-277.831 430,-277.831"/>
</g>
<!-- hdkeychain&#45;&gt;dcrd -->
<g id="edge28" class="edge"><title>hdkeychain&#45;&gt;dcrd</title>
<path fill="none" stroke="deepskyblue" d="M497.5,-61.8314C497.5,-61.8314 497.5,-18 497.5,-18 497.5,-18 372.475,-18 315.823,-18"/>
<polygon fill="deepskyblue" stroke="deepskyblue" points="494,-61.8313 497.5,-71.8314 501,-61.8314 494,-61.8313"/>
</g>
<!-- txscript&#45;&gt;stake -->
<g id="edge16" class="edge"><title>txscript&#45;&gt;stake</title>
<path fill="none" stroke="mediumspringgreen" d="M363.75,-277.831C363.75,-277.831 363.75,-252.413 363.75,-252.413"/>
<polygon fill="mediumspringgreen" stroke="mediumspringgreen" points="360.25,-277.831 363.75,-287.831 367.25,-277.831 360.25,-277.831"/>
</g>
<!-- peer -->
<g id="node21" class="node"><title>peer</title>
<path fill="khaki" stroke="black" d="M305.5,-108C305.5,-108 271.5,-108 271.5,-108 265.5,-108 259.5,-102 259.5,-96 259.5,-96 259.5,-84 259.5,-84 259.5,-78 265.5,-72 271.5,-72 271.5,-72 305.5,-72 305.5,-72 311.5,-72 317.5,-78 317.5,-84 317.5,-84 317.5,-96 317.5,-96 317.5,-102 311.5,-108 305.5,-108"/>
<text text-anchor="middle" x="288.5" y="-86.3" font-family="Times New Roman,serif" font-size="14.00">peer/v2</text>
</g>
<!-- txscript&#45;&gt;peer -->
<g id="edge17" class="edge"><title>txscript&#45;&gt;peer</title>
<path fill="none" stroke="mediumspringgreen" d="M306.5,-277.955C306.5,-277.955 306.5,-108.145 306.5,-108.145"/>
<polygon fill="mediumspringgreen" stroke="mediumspringgreen" points="303,-277.955 306.5,-287.955 310,-277.956 303,-277.955"/>
</g>
<!-- gcs -->
<g id="node18" class="node"><title>gcs</title>
<path fill="gold" stroke="black" d="M468.5,-180C468.5,-180 438.5,-180 438.5,-180 432.5,-180 426.5,-174 426.5,-168 426.5,-168 426.5,-156 426.5,-156 426.5,-150 432.5,-144 438.5,-144 438.5,-144 468.5,-144 468.5,-144 474.5,-144 480.5,-150 480.5,-156 480.5,-156 480.5,-168 480.5,-168 480.5,-174 474.5,-180 468.5,-180"/>
<text text-anchor="middle" x="453.5" y="-158.3" font-family="Times New Roman,serif" font-size="14.00">gcs</text>
</g>
<!-- stake&#45;&gt;gcs -->
<g id="edge18" class="edge"><title>stake&#45;&gt;gcs</title>
<path fill="none" stroke="bisque" d="M453.5,-205.831C453.5,-205.831 453.5,-180.413 453.5,-180.413"/>
<polygon fill="bisque" stroke="bisque" points="450,-205.831 453.5,-215.831 457,-205.831 450,-205.831"/>
</g>
<!-- blockchain -->
<g id="node19" class="node"><title>blockchain</title>
<path fill="orchid" stroke="black" d="M419,-108C419,-108 348,-108 348,-108 342,-108 336,-102 336,-96 336,-96 336,-84 336,-84 336,-78 342,-72 348,-72 348,-72 419,-72 419,-72 425,-72 431,-78 431,-84 431,-84 431,-96 431,-96 431,-102 425,-108 419,-108"/>
<text text-anchor="middle" x="383.5" y="-86.3" font-family="Times New Roman,serif" font-size="14.00">blockchain/v2</text>
</g>
<!-- standalone&#45;&gt;blockchain -->
<g id="edge19" class="edge"><title>standalone&#45;&gt;blockchain</title>
<path fill="none" stroke="#8b1a1a" d="M280.5,-205.679C280.5,-205.679 280.5,-126 280.5,-126 280.5,-126 353.25,-126 353.25,-126 353.25,-126 353.25,-117.279 353.25,-108.422"/>
<polygon fill="#8b1a1a" stroke="#8b1a1a" points="277,-205.679 280.5,-215.679 284,-205.679 277,-205.679"/>
</g>
<!-- gcs&#45;&gt;blockchain -->
<g id="edge20" class="edge"><title>gcs&#45;&gt;blockchain</title>
<path fill="none" stroke="gold" d="M440,-133.831C440,-133.831 440,-90 440,-90 440,-90 436.469,-90 431.172,-90"/>
<polygon fill="gold" stroke="gold" points="436.5,-133.831 440,-143.831 443.5,-133.831 436.5,-133.831"/>
</g>
<!-- gcs&#45;&gt;rpcclient -->
<g id="edge21" class="edge"><title>gcs&#45;&gt;rpcclient</title>
<path fill="none" stroke="gold" d="M490.5,-162C490.5,-162 591.833,-162 591.833,-162 591.833,-162 591.833,-129.498 591.833,-108.169"/>
<polygon fill="gold" stroke="gold" points="490.5,-158.5 480.5,-162 490.5,-165.5 490.5,-158.5"/>
</g>
<!-- blockchain&#45;&gt;dcrd -->
<g id="edge25" class="edge"><title>blockchain&#45;&gt;dcrd</title>
<path fill="none" stroke="orchid" d="M383.5,-61.7778C383.5,-61.7778 383.5,-27 383.5,-27 383.5,-27 343.796,-27 315.723,-27"/>
<polygon fill="orchid" stroke="orchid" points="380,-61.7778 383.5,-71.7778 387,-61.7778 380,-61.7778"/>
</g>
<!-- lru -->
<g id="node20" class="node"><title>lru</title>
<path fill="#3a5fcd" stroke="black" d="M358.5,-180C358.5,-180 328.5,-180 328.5,-180 322.5,-180 316.5,-174 316.5,-168 316.5,-168 316.5,-156 316.5,-156 316.5,-150 322.5,-144 328.5,-144 328.5,-144 358.5,-144 358.5,-144 364.5,-144 370.5,-150 370.5,-156 370.5,-156 370.5,-168 370.5,-168 370.5,-174 364.5,-180 358.5,-180"/>
<text text-anchor="middle" x="343.5" y="-158.3" font-family="Times New Roman,serif" font-size="14.00">lru</text>
</g>
<!-- lru&#45;&gt;peer -->
<g id="edge22" class="edge"><title>lru&#45;&gt;peer</title>
<path fill="none" stroke="#3a5fcd" d="M311.972,-162C311.972,-162 311.5,-162 311.5,-162 311.5,-162 311.5,-129.498 311.5,-108.169"/>
<polygon fill="#3a5fcd" stroke="#3a5fcd" points="306.222,-165.5 316.222,-162 306.222,-158.5 306.222,-165.5"/>
</g>
<!-- peer&#45;&gt;dcrd -->
<g id="edge31" class="edge"><title>peer&#45;&gt;dcrd</title>
<path fill="none" stroke="khaki" d="M288.5,-61.8314C288.5,-61.8314 288.5,-36.4133 288.5,-36.4133"/>
<polygon fill="khaki" stroke="khaki" points="285,-61.8313 288.5,-71.8314 292,-61.8314 285,-61.8313"/>
</g>
<!-- rpcclient&#45;&gt;dcrd -->
<g id="edge30" class="edge"><title>rpcclient&#45;&gt;dcrd</title>
<path fill="none" stroke="mediumseagreen" d="M605.5,-61.6198C605.5,-61.6198 605.5,-9 605.5,-9 605.5,-9 392.187,-9 315.527,-9"/>
<polygon fill="mediumseagreen" stroke="mediumseagreen" points="602,-61.6198 605.5,-71.6198 609,-61.6199 602,-61.6198"/>
</g>
</g>
</svg>
