<?xml version="1.0" encoding="UTF-8" standalone="no"?>
<!DOCTYPE svg PUBLIC "-//W3C//DTD SVG 1.1//EN"
 "http://www.w3.org/Graphics/SVG/1.1/DTD/svg11.dtd">
<!-- Generated by graphviz version 2.38.0 (20140413.2041)
 -->
<!-- Title: %3 Pages: 1 -->
<svg width="662pt" height="792pt"
 viewBox="0.00 0.00 661.50 792.00" xmlns="http://www.w3.org/2000/svg" xmlns:xlink="http://www.w3.org/1999/xlink">
<g id="graph0" class="graph" transform="scale(1 1) rotate(0) translate(4 788)">
<title>%3</title>
<polygon fill="white" stroke="#000000" points="-4,4 -4,-788 657.5,-788 657.5,4 -4,4"/>
<text text-anchor="start" x="260.25" y="-766.6" font-family="Times New Roman,serif" text-decoration="underline" font-size="18.00">Module Hierarchy</text>
<!-- certgen -->
<g id="node1" class="node"><title>certgen</title>
<path fill="darkkhaki" stroke="black" d="M45,-108C45,-108 12,-108 12,-108 6,-108 0,-102 0,-96 0,-96 0,-84 0,-84 0,-78 6,-72 12,-72 12,-72 45,-72 45,-72 51,-72 57,-78 57,-84 57,-84 57,-96 57,-96 57,-102 51,-108 45,-108"/>
<text text-anchor="middle" x="28.5" y="-86.3" font-family="Times New Roman,serif" font-size="14.00">certgen</text>
</g>
<!-- dcrd -->
<g id="node23" class="node"><title>dcrd</title>
<path fill="chocolate" stroke="black" d="M342.5,-36C342.5,-36 312.5,-36 312.5,-36 306.5,-36 300.5,-30 300.5,-24 300.5,-24 300.5,-12 300.5,-12 300.5,-6 306.5,-0 312.5,-0 312.5,-0 342.5,-0 342.5,-0 348.5,-0 354.5,-6 354.5,-12 354.5,-12 354.5,-24 354.5,-24 354.5,-30 348.5,-36 342.5,-36"/>
<text text-anchor="middle" x="327.5" y="-14.3" font-family="Times New Roman,serif" font-size="14.00">dcrd</text>
</g>
<!-- certgen&#45;&gt;dcrd -->
<g id="edge25" class="edge"><title>certgen&#45;&gt;dcrd</title>
<path fill="none" stroke="darkkhaki" d="M28.5,-61.6198C28.5,-61.6198 28.5,-9 28.5,-9 28.5,-9 226.837,-9 300.438,-9"/>
<polygon fill="darkkhaki" stroke="darkkhaki" points="25.0001,-61.6198 28.5,-71.6198 32.0001,-61.6199 25.0001,-61.6198"/>
</g>
<!-- chainhash -->
<g id="node2" class="node"><title>chainhash</title>
<path fill="aquamarine" stroke="black" d="M489.5,-756C489.5,-756 391.5,-756 391.5,-756 385.5,-756 379.5,-750 379.5,-744 379.5,-744 379.5,-732 379.5,-732 379.5,-726 385.5,-720 391.5,-720 391.5,-720 489.5,-720 489.5,-720 495.5,-720 501.5,-726 501.5,-732 501.5,-732 501.5,-744 501.5,-744 501.5,-750 495.5,-756 489.5,-756"/>
<text text-anchor="middle" x="440.5" y="-734.3" font-family="Times New Roman,serif" font-size="14.00">chaincfg/chainhash</text>
</g>
<!-- dcrjson -->
<g id="node3" class="node"><title>dcrjson</title>
<path fill="indianred" stroke="black" d="M552.5,-540C552.5,-540 500.5,-540 500.5,-540 494.5,-540 488.5,-534 488.5,-528 488.5,-528 488.5,-516 488.5,-516 488.5,-510 494.5,-504 500.5,-504 500.5,-504 552.5,-504 552.5,-504 558.5,-504 564.5,-510 564.5,-516 564.5,-516 564.5,-528 564.5,-528 564.5,-534 558.5,-540 552.5,-540"/>
<text text-anchor="middle" x="526.5" y="-518.3" font-family="Times New Roman,serif" font-size="14.00">dcrjson/v2</text>
</g>
<!-- chainhash&#45;&gt;dcrjson -->
<g id="edge1" class="edge"><title>chainhash&#45;&gt;dcrjson</title>
<path fill="none" stroke="aquamarine" d="M511.684,-738C511.684,-738 533,-738 533,-738 533,-738 533,-591.958 533,-540.045"/>
<polygon fill="aquamarine" stroke="aquamarine" points="511.684,-734.5 501.684,-738 511.684,-741.5 511.684,-734.5"/>
</g>
<!-- wire -->
<g id="node4" class="node"><title>wire</title>
<path fill="coral" stroke="black" d="M205.5,-684C205.5,-684 175.5,-684 175.5,-684 169.5,-684 163.5,-678 163.5,-672 163.5,-672 163.5,-660 163.5,-660 163.5,-654 169.5,-648 175.5,-648 175.5,-648 205.5,-648 205.5,-648 211.5,-648 217.5,-654 217.5,-660 217.5,-660 217.5,-672 217.5,-672 217.5,-678 211.5,-684 205.5,-684"/>
<text text-anchor="middle" x="190.5" y="-662.3" font-family="Times New Roman,serif" font-size="14.00">wire</text>
</g>
<!-- chainhash&#45;&gt;wire -->
<g id="edge2" class="edge"><title>chainhash&#45;&gt;wire</title>
<path fill="none" stroke="aquamarine" d="M369.343,-738C369.343,-738 190.5,-738 190.5,-738 190.5,-738 190.5,-705.498 190.5,-684.169"/>
<polygon fill="aquamarine" stroke="aquamarine" points="369.343,-741.5 379.343,-738 369.343,-734.5 369.343,-741.5"/>
</g>
<!-- secp256k1 -->
<g id="node10" class="node"><title>secp256k1</title>
<path fill="mediumvioletred" stroke="black" d="M484.5,-684C484.5,-684 396.5,-684 396.5,-684 390.5,-684 384.5,-678 384.5,-672 384.5,-672 384.5,-660 384.5,-660 384.5,-654 390.5,-648 396.5,-648 396.5,-648 484.5,-648 484.5,-648 490.5,-648 496.5,-654 496.5,-660 496.5,-660 496.5,-672 496.5,-672 496.5,-678 490.5,-684 484.5,-684"/>
<text text-anchor="middle" x="440.5" y="-662.3" font-family="Times New Roman,serif" font-size="14.00">dcrec/secp256k1</text>
</g>
<!-- chainhash&#45;&gt;secp256k1 -->
<g id="edge6" class="edge"><title>chainhash&#45;&gt;secp256k1</title>
<path fill="none" stroke="aquamarine" d="M440.5,-709.831C440.5,-709.831 440.5,-684.413 440.5,-684.413"/>
<polygon fill="aquamarine" stroke="aquamarine" points="437,-709.831 440.5,-719.831 444,-709.831 437,-709.831"/>
</g>
<!-- rpcclient -->
<g id="node21" class="node"><title>rpcclient</title>
<path fill="mediumseagreen" stroke="black" d="M569.5,-108C569.5,-108 511.5,-108 511.5,-108 505.5,-108 499.5,-102 499.5,-96 499.5,-96 499.5,-84 499.5,-84 499.5,-78 505.5,-72 511.5,-72 511.5,-72 569.5,-72 569.5,-72 575.5,-72 581.5,-78 581.5,-84 581.5,-84 581.5,-96 581.5,-96 581.5,-102 575.5,-108 569.5,-108"/>
<text text-anchor="middle" x="540.5" y="-86.3" font-family="Times New Roman,serif" font-size="14.00">rpcclient/v2</text>
</g>
<!-- dcrjson&#45;&gt;rpcclient -->
<g id="edge22" class="edge"><title>dcrjson&#45;&gt;rpcclient</title>
<path fill="none" stroke="indianred" d="M542.833,-493.987C542.833,-493.987 542.833,-108.089 542.833,-108.089"/>
<polygon fill="indianred" stroke="indianred" points="539.333,-493.987 542.833,-503.987 546.333,-493.988 539.333,-493.987"/>
</g>
<!-- addrmgr -->
<g id="node5" class="node"><title>addrmgr</title>
<path fill="lightsalmon" stroke="black" d="M127.5,-108C127.5,-108 87.5,-108 87.5,-108 81.5,-108 75.5,-102 75.5,-96 75.5,-96 75.5,-84 75.5,-84 75.5,-78 81.5,-72 87.5,-72 87.5,-72 127.5,-72 127.5,-72 133.5,-72 139.5,-78 139.5,-84 139.5,-84 139.5,-96 139.5,-96 139.5,-102 133.5,-108 127.5,-108"/>
<text text-anchor="middle" x="107.5" y="-86.3" font-family="Times New Roman,serif" font-size="14.00">addrmgr</text>
</g>
<!-- wire&#45;&gt;addrmgr -->
<g id="edge3" class="edge"><title>wire&#45;&gt;addrmgr</title>
<path fill="none" stroke="coral" d="M153.323,-666C153.323,-666 107.5,-666 107.5,-666 107.5,-666 107.5,-206.099 107.5,-108.19"/>
<polygon fill="coral" stroke="coral" points="153.323,-669.5 163.323,-666 153.323,-662.5 153.323,-669.5"/>
</g>
<!-- chaincfg -->
<g id="node6" class="node"><title>chaincfg</title>
<path fill="cadetblue" stroke="black" d="M210.5,-612C210.5,-612 170.5,-612 170.5,-612 164.5,-612 158.5,-606 158.5,-600 158.5,-600 158.5,-588 158.5,-588 158.5,-582 164.5,-576 170.5,-576 170.5,-576 210.5,-576 210.5,-576 216.5,-576 222.5,-582 222.5,-588 222.5,-588 222.5,-600 222.5,-600 222.5,-606 216.5,-612 210.5,-612"/>
<text text-anchor="middle" x="190.5" y="-590.3" font-family="Times New Roman,serif" font-size="14.00">chaincfg</text>
</g>
<!-- wire&#45;&gt;chaincfg -->
<g id="edge4" class="edge"><title>wire&#45;&gt;chaincfg</title>
<path fill="none" stroke="coral" d="M190.5,-637.831C190.5,-637.831 190.5,-612.413 190.5,-612.413"/>
<polygon fill="coral" stroke="coral" points="187,-637.831 190.5,-647.831 194,-637.831 187,-637.831"/>
</g>
<!-- addrmgr&#45;&gt;dcrd -->
<g id="edge26" class="edge"><title>addrmgr&#45;&gt;dcrd</title>
<path fill="none" stroke="lightsalmon" d="M107.5,-61.8314C107.5,-61.8314 107.5,-18 107.5,-18 107.5,-18 241.107,-18 300.082,-18"/>
<polygon fill="lightsalmon" stroke="lightsalmon" points="104,-61.8313 107.5,-71.8314 111,-61.8314 104,-61.8313"/>
</g>
<!-- connmgr -->
<g id="node7" class="node"><title>connmgr</title>
<path fill="mistyrose" stroke="black" d="M211.5,-108C211.5,-108 169.5,-108 169.5,-108 163.5,-108 157.5,-102 157.5,-96 157.5,-96 157.5,-84 157.5,-84 157.5,-78 163.5,-72 169.5,-72 169.5,-72 211.5,-72 211.5,-72 217.5,-72 223.5,-78 223.5,-84 223.5,-84 223.5,-96 223.5,-96 223.5,-102 217.5,-108 211.5,-108"/>
<text text-anchor="middle" x="190.5" y="-86.3" font-family="Times New Roman,serif" font-size="14.00">connmgr</text>
</g>
<!-- chaincfg&#45;&gt;connmgr -->
<g id="edge5" class="edge"><title>chaincfg&#45;&gt;connmgr</title>
<path fill="none" stroke="cadetblue" d="M179.833,-565.765C179.833,-565.765 179.833,-108.211 179.833,-108.211"/>
<polygon fill="cadetblue" stroke="cadetblue" points="176.333,-565.765 179.833,-575.765 183.333,-565.765 176.333,-565.765"/>
</g>
<!-- dcrutil -->
<g id="node11" class="node"><title>dcrutil</title>
<path fill="burlywood" stroke="black" d="M374.5,-540C374.5,-540 344.5,-540 344.5,-540 338.5,-540 332.5,-534 332.5,-528 332.5,-528 332.5,-516 332.5,-516 332.5,-510 338.5,-504 344.5,-504 344.5,-504 374.5,-504 374.5,-504 380.5,-504 386.5,-510 386.5,-516 386.5,-516 386.5,-528 386.5,-528 386.5,-534 380.5,-540 374.5,-540"/>
<text text-anchor="middle" x="359.5" y="-518.3" font-family="Times New Roman,serif" font-size="14.00">dcrutil</text>
</g>
<!-- chaincfg&#45;&gt;dcrutil -->
<g id="edge7" class="edge"><title>chaincfg&#45;&gt;dcrutil</title>
<path fill="none" stroke="cadetblue" d="M201.167,-565.831C201.167,-565.831 201.167,-522 201.167,-522 201.167,-522 287.012,-522 332.282,-522"/>
<polygon fill="cadetblue" stroke="cadetblue" points="197.667,-565.831 201.167,-575.831 204.667,-565.831 197.667,-565.831"/>
</g>
<!-- connmgr&#45;&gt;dcrd -->
<g id="edge28" class="edge"><title>connmgr&#45;&gt;dcrd</title>
<path fill="none" stroke="mistyrose" d="M190.5,-61.7778C190.5,-61.7778 190.5,-27 190.5,-27 190.5,-27 260.507,-27 300.433,-27"/>
<polygon fill="mistyrose" stroke="mistyrose" points="187,-61.7778 190.5,-71.7778 194,-61.7778 187,-61.7778"/>
</g>
<!-- dcrec -->
<g id="node8" class="node"><title>dcrec</title>
<path fill="mediumpurple" stroke="black" d="M282.5,-612C282.5,-612 252.5,-612 252.5,-612 246.5,-612 240.5,-606 240.5,-600 240.5,-600 240.5,-588 240.5,-588 240.5,-582 246.5,-576 252.5,-576 252.5,-576 282.5,-576 282.5,-576 288.5,-576 294.5,-582 294.5,-588 294.5,-588 294.5,-600 294.5,-600 294.5,-606 288.5,-612 282.5,-612"/>
<text text-anchor="middle" x="267.5" y="-590.3" font-family="Times New Roman,serif" font-size="14.00">dcrec</text>
</g>
<!-- dcrec&#45;&gt;dcrutil -->
<g id="edge8" class="edge"><title>dcrec&#45;&gt;dcrutil</title>
<path fill="none" stroke="mediumpurple" d="M268,-565.778C268,-565.778 268,-531 268,-531 268,-531 305.095,-531 332.047,-531"/>
<polygon fill="mediumpurple" stroke="mediumpurple" points="264.5,-565.778 268,-575.778 271.5,-565.778 264.5,-565.778"/>
</g>
<!-- edwards -->
<g id="node9" class="node"><title>edwards</title>
<path fill="lightseagreen" stroke="black" d="M400,-612C400,-612 325,-612 325,-612 319,-612 313,-606 313,-600 313,-600 313,-588 313,-588 313,-582 319,-576 325,-576 325,-576 400,-576 400,-576 406,-576 412,-582 412,-588 412,-588 412,-600 412,-600 412,-606 406,-612 400,-612"/>
<text text-anchor="middle" x="362.5" y="-590.3" font-family="Times New Roman,serif" font-size="14.00">dcrec/edwards</text>
</g>
<!-- edwards&#45;&gt;dcrutil -->
<g id="edge9" class="edge"><title>edwards&#45;&gt;dcrutil</title>
<path fill="none" stroke="lightseagreen" d="M359.5,-565.831C359.5,-565.831 359.5,-540.413 359.5,-540.413"/>
<polygon fill="lightseagreen" stroke="lightseagreen" points="356,-565.831 359.5,-575.831 363,-565.831 356,-565.831"/>
</g>
<!-- secp256k1&#45;&gt;dcrutil -->
<g id="edge10" class="edge"><title>secp256k1&#45;&gt;dcrutil</title>
<path fill="none" stroke="mediumvioletred" d="M431,-637.959C431,-637.959 431,-528 431,-528 431,-528 406.779,-528 386.531,-528"/>
<polygon fill="mediumvioletred" stroke="mediumvioletred" points="427.5,-637.959 431,-647.959 434.5,-637.959 427.5,-637.959"/>
</g>
<!-- database -->
<g id="node12" class="node"><title>database</title>
<path fill="dodgerblue" stroke="black" d="M380,-468C380,-468 339,-468 339,-468 333,-468 327,-462 327,-456 327,-456 327,-444 327,-444 327,-438 333,-432 339,-432 339,-432 380,-432 380,-432 386,-432 392,-438 392,-444 392,-444 392,-456 392,-456 392,-462 386,-468 380,-468"/>
<text text-anchor="middle" x="359.5" y="-446.3" font-family="Times New Roman,serif" font-size="14.00">database</text>
</g>
<!-- dcrutil&#45;&gt;database -->
<g id="edge11" class="edge"><title>dcrutil&#45;&gt;database</title>
<path fill="none" stroke="burlywood" d="M359.5,-493.831C359.5,-493.831 359.5,-468.413 359.5,-468.413"/>
<polygon fill="burlywood" stroke="burlywood" points="356,-493.831 359.5,-503.831 363,-493.831 356,-493.831"/>
</g>
<!-- hdkeychain -->
<g id="node13" class="node"><title>hdkeychain</title>
<path fill="deepskyblue" stroke="black" d="M309.5,-108C309.5,-108 253.5,-108 253.5,-108 247.5,-108 241.5,-102 241.5,-96 241.5,-96 241.5,-84 241.5,-84 241.5,-78 247.5,-72 253.5,-72 253.5,-72 309.5,-72 309.5,-72 315.5,-72 321.5,-78 321.5,-84 321.5,-84 321.5,-96 321.5,-96 321.5,-102 315.5,-108 309.5,-108"/>
<text text-anchor="middle" x="281.5" y="-86.3" font-family="Times New Roman,serif" font-size="14.00">hdkeychain</text>
</g>
<!-- dcrutil&#45;&gt;hdkeychain -->
<g id="edge12" class="edge"><title>dcrutil&#45;&gt;hdkeychain</title>
<path fill="none" stroke="burlywood" d="M322.027,-513C322.027,-513 317.25,-513 317.25,-513 317.25,-513 317.25,-189.141 317.25,-108.176"/>
<polygon fill="burlywood" stroke="burlywood" points="322.027,-516.5 332.027,-513 322.027,-509.5 322.027,-516.5"/>
</g>
<!-- txscript -->
<g id="node14" class="node"><title>txscript</title>
<path fill="mediumspringgreen" stroke="black" d="M457,-468C457,-468 422,-468 422,-468 416,-468 410,-462 410,-456 410,-456 410,-444 410,-444 410,-438 416,-432 422,-432 422,-432 457,-432 457,-432 463,-432 469,-438 469,-444 469,-444 469,-456 469,-456 469,-462 463,-468 457,-468"/>
<text text-anchor="middle" x="439.5" y="-446.3" font-family="Times New Roman,serif" font-size="14.00">txscript</text>
</g>
<!-- dcrutil&#45;&gt;txscript -->
<g id="edge13" class="edge"><title>dcrutil&#45;&gt;txscript</title>
<path fill="none" stroke="burlywood" d="M396.653,-516C396.653,-516 450,-516 450,-516 450,-516 450,-487.576 450,-468.035"/>
<polygon fill="burlywood" stroke="burlywood" points="396.653,-512.5 386.653,-516 396.653,-519.5 396.653,-512.5"/>
</g>
<!-- stake -->
<g id="node15" class="node"><title>stake</title>
<path fill="bisque" stroke="black" d="M482.5,-396C482.5,-396 396.5,-396 396.5,-396 390.5,-396 384.5,-390 384.5,-384 384.5,-384 384.5,-372 384.5,-372 384.5,-366 390.5,-360 396.5,-360 396.5,-360 482.5,-360 482.5,-360 488.5,-360 494.5,-366 494.5,-372 494.5,-372 494.5,-384 494.5,-384 494.5,-390 488.5,-396 482.5,-396"/>
<text text-anchor="middle" x="439.5" y="-374.3" font-family="Times New Roman,serif" font-size="14.00">blockchain/stake</text>
</g>
<!-- database&#45;&gt;stake -->
<g id="edge14" class="edge"><title>database&#45;&gt;stake</title>
<path fill="none" stroke="dodgerblue" d="M388.25,-421.831C388.25,-421.831 388.25,-396.413 388.25,-396.413"/>
<polygon fill="dodgerblue" stroke="dodgerblue" points="384.75,-421.831 388.25,-431.831 391.75,-421.831 384.75,-421.831"/>
</g>
<!-- hdkeychain&#45;&gt;dcrd -->
<g id="edge27" class="edge"><title>hdkeychain&#45;&gt;dcrd</title>
<path fill="none" stroke="deepskyblue" d="M311,-61.8314C311,-61.8314 311,-36.4133 311,-36.4133"/>
<polygon fill="deepskyblue" stroke="deepskyblue" points="307.5,-61.8313 311,-71.8314 314.5,-61.8314 307.5,-61.8313"/>
</g>
<!-- txscript&#45;&gt;stake -->
<g id="edge15" class="edge"><title>txscript&#45;&gt;stake</title>
<path fill="none" stroke="mediumspringgreen" d="M439.5,-421.831C439.5,-421.831 439.5,-396.413 439.5,-396.413"/>
<polygon fill="mediumspringgreen" stroke="mediumspringgreen" points="436,-421.831 439.5,-431.831 443,-421.831 436,-421.831"/>
</g>
<!-- gcs -->
<g id="node16" class="node"><title>gcs</title>
<path fill="gold" stroke="black" d="M455.5,-324C455.5,-324 425.5,-324 425.5,-324 419.5,-324 413.5,-318 413.5,-312 413.5,-312 413.5,-300 413.5,-300 413.5,-294 419.5,-288 425.5,-288 425.5,-288 455.5,-288 455.5,-288 461.5,-288 467.5,-294 467.5,-300 467.5,-300 467.5,-312 467.5,-312 467.5,-318 461.5,-324 455.5,-324"/>
<text text-anchor="middle" x="440.5" y="-302.3" font-family="Times New Roman,serif" font-size="14.00">gcs</text>
</g>
<!-- stake&#45;&gt;gcs -->
<g id="edge16" class="edge"><title>stake&#45;&gt;gcs</title>
<path fill="none" stroke="bisque" d="M440.5,-349.831C440.5,-349.831 440.5,-324.413 440.5,-324.413"/>
<polygon fill="bisque" stroke="bisque" points="437,-349.831 440.5,-359.831 444,-349.831 437,-349.831"/>
</g>
<!-- blockchain -->
<g id="node17" class="node"><title>blockchain</title>
<path fill="orchid" stroke="black" d="M473,-252C473,-252 420,-252 420,-252 414,-252 408,-246 408,-240 408,-240 408,-228 408,-228 408,-222 414,-216 420,-216 420,-216 473,-216 473,-216 479,-216 485,-222 485,-228 485,-228 485,-240 485,-240 485,-246 479,-252 473,-252"/>
<text text-anchor="middle" x="446.5" y="-230.3" font-family="Times New Roman,serif" font-size="14.00">blockchain</text>
</g>
<!-- gcs&#45;&gt;blockchain -->
<g id="edge17" class="edge"><title>gcs&#45;&gt;blockchain</title>
<path fill="none" stroke="gold" d="M440.5,-277.831C440.5,-277.831 440.5,-252.413 440.5,-252.413"/>
<polygon fill="gold" stroke="gold" points="437,-277.831 440.5,-287.831 444,-277.831 437,-277.831"/>
</g>
<!-- mining -->
<g id="node19" class="node"><title>mining</title>
<path fill="chartreuse" stroke="black" d="M396.5,-180C396.5,-180 366.5,-180 366.5,-180 360.5,-180 354.5,-174 354.5,-168 354.5,-168 354.5,-156 354.5,-156 354.5,-150 360.5,-144 366.5,-144 366.5,-144 396.5,-144 396.5,-144 402.5,-144 408.5,-150 408.5,-156 408.5,-156 408.5,-168 408.5,-168 408.5,-174 402.5,-180 396.5,-180"/>
<text text-anchor="middle" x="381.5" y="-158.3" font-family="Times New Roman,serif" font-size="14.00">mining</text>
</g>
<!-- blockchain&#45;&gt;mining -->
<g id="edge18" class="edge"><title>blockchain&#45;&gt;mining</title>
<path fill="none" stroke="orchid" d="M418.25,-205.831C418.25,-205.831 418.25,-162 418.25,-162 418.25,-162 414.103,-162 408.594,-162"/>
<polygon fill="orchid" stroke="orchid" points="414.75,-205.831 418.25,-215.831 421.75,-205.831 414.75,-205.831"/>
</g>
<!-- peer -->
<g id="node20" class="node"><title>peer</title>
<path fill="khaki" stroke="black" d="M469.5,-108C469.5,-108 439.5,-108 439.5,-108 433.5,-108 427.5,-102 427.5,-96 427.5,-96 427.5,-84 427.5,-84 427.5,-78 433.5,-72 439.5,-72 439.5,-72 469.5,-72 469.5,-72 475.5,-72 481.5,-78 481.5,-84 481.5,-84 481.5,-96 481.5,-96 481.5,-102 475.5,-108 469.5,-108"/>
<text text-anchor="middle" x="454.5" y="-86.3" font-family="Times New Roman,serif" font-size="14.00">peer</text>
</g>
<!-- blockchain&#45;&gt;peer -->
<g id="edge20" class="edge"><title>blockchain&#45;&gt;peer</title>
<path fill="none" stroke="orchid" d="M454.5,-205.762C454.5,-205.762 454.5,-108.09 454.5,-108.09"/>
<polygon fill="orchid" stroke="orchid" points="451,-205.762 454.5,-215.762 458,-205.762 451,-205.762"/>
</g>
<!-- blockchain&#45;&gt;rpcclient -->
<g id="edge21" class="edge"><title>blockchain&#45;&gt;rpcclient</title>
<path fill="none" stroke="orchid" d="M495.146,-234C495.146,-234 521.167,-234 521.167,-234 521.167,-234 521.167,-146.986 521.167,-108.238"/>
<polygon fill="orchid" stroke="orchid" points="495.146,-230.5 485.146,-234 495.146,-237.5 495.146,-230.5"/>
</g>
<!-- mempool -->
<g id="node18" class="node"><title>mempool</title>
<path fill="slategray" stroke="black" d="M397,-108C397,-108 352,-108 352,-108 346,-108 340,-102 340,-96 340,-96 340,-84 340,-84 340,-78 346,-72 352,-72 352,-72 397,-72 397,-72 403,-72 409,-78 409,-84 409,-84 409,-96 409,-96 409,-102 403,-108 397,-108"/>
<text text-anchor="middle" x="374.5" y="-86.3" font-family="Times New Roman,serif" font-size="14.00">mempool</text>
</g>
<!-- mempool&#45;&gt;dcrd -->
<g id="edge24" class="edge"><title>mempool&#45;&gt;dcrd</title>
<path fill="none" stroke="slategray" d="M347.25,-61.8314C347.25,-61.8314 347.25,-36.4133 347.25,-36.4133"/>
<polygon fill="slategray" stroke="slategray" points="343.75,-61.8313 347.25,-71.8314 350.75,-61.8314 343.75,-61.8313"/>
</g>
<!-- mining&#45;&gt;mempool -->
<g id="edge19" class="edge"><title>mining&#45;&gt;mempool</title>
<path fill="none" stroke="chartreuse" d="M381.5,-133.831C381.5,-133.831 381.5,-108.413 381.5,-108.413"/>
<polygon fill="chartreuse" stroke="chartreuse" points="378,-133.831 381.5,-143.831 385,-133.831 378,-133.831"/>
</g>
<!-- peer&#45;&gt;dcrd -->
<g id="edge30" class="edge"><title>peer&#45;&gt;dcrd</title>
<path fill="none" stroke="khaki" d="M454.5,-61.7778C454.5,-61.7778 454.5,-27 454.5,-27 454.5,-27 392.061,-27 354.745,-27"/>
<polygon fill="khaki" stroke="khaki" points="451,-61.7778 454.5,-71.7778 458,-61.7778 451,-61.7778"/>
</g>
<!-- rpcclient&#45;&gt;dcrd -->
<g id="edge29" class="edge"><title>rpcclient&#45;&gt;dcrd</title>
<path fill="none" stroke="mediumseagreen" d="M540.5,-61.8314C540.5,-61.8314 540.5,-18 540.5,-18 540.5,-18 412.438,-18 354.91,-18"/>
<polygon fill="mediumseagreen" stroke="mediumseagreen" points="537,-61.8313 540.5,-71.8314 544,-61.8314 537,-61.8313"/>
</g>
<!-- fees -->
<g id="node22" class="node"><title>fees</title>
<path fill="#bcee68" stroke="black" d="M641.5,-108C641.5,-108 611.5,-108 611.5,-108 605.5,-108 599.5,-102 599.5,-96 599.5,-96 599.5,-84 599.5,-84 599.5,-78 605.5,-72 611.5,-72 611.5,-72 641.5,-72 641.5,-72 647.5,-72 653.5,-78 653.5,-84 653.5,-84 653.5,-96 653.5,-96 653.5,-102 647.5,-108 641.5,-108"/>
<text text-anchor="middle" x="626.5" y="-86.3" font-family="Times New Roman,serif" font-size="14.00">fees</text>
</g>
<!-- fees&#45;&gt;dcrd -->
<g id="edge23" class="edge"><title>fees&#45;&gt;dcrd</title>
<path fill="none" stroke="#bcee68" d="M626.5,-61.6198C626.5,-61.6198 626.5,-9 626.5,-9 626.5,-9 428.163,-9 354.562,-9"/>
<polygon fill="#bcee68" stroke="#bcee68" points="623,-61.6198 626.5,-71.6198 630,-61.6199 623,-61.6198"/>
</g>
</g>
</svg>
