<?xml version="1.0" encoding="UTF-8" standalone="no"?>
<!DOCTYPE svg PUBLIC "-//W3C//DTD SVG 1.1//EN"
 "http://www.w3.org/Graphics/SVG/1.1/DTD/svg11.dtd">
<!-- Generated by graphviz version 2.38.0 (20140413.2041)
 -->
<!-- Title: %3 Pages: 1 -->
<svg width="621pt" height="720pt"
 viewBox="0.00 0.00 621.00 720.00" xmlns="http://www.w3.org/2000/svg" xmlns:xlink="http://www.w3.org/1999/xlink">
<g id="graph0" class="graph" transform="scale(1 1) rotate(0) translate(4 716)">
<title>%3</title>
<polygon fill="white" stroke="#000000" points="-4,4 -4,-716 617,-716 617,4 -4,4"/>
<text text-anchor="start" x="240" y="-694.6" font-family="Times New Roman,serif" text-decoration="underline" font-size="18.00">Module Hierarchy</text>
<!-- certgen -->
<g id="node1" class="node"><title>certgen</title>
<path fill="darkkhaki" stroke="black" d="M45,-108C45,-108 12,-108 12,-108 6,-108 0,-102 0,-96 0,-96 0,-84 0,-84 0,-78 6,-72 12,-72 12,-72 45,-72 45,-72 51,-72 57,-78 57,-84 57,-84 57,-96 57,-96 57,-102 51,-108 45,-108"/>
<text text-anchor="middle" x="28.5" y="-86.3" font-family="Times New Roman,serif" font-size="14.00">certgen</text>
</g>
<!-- dcrd -->
<g id="node23" class="node"><title>dcrd</title>
<path fill="chocolate" stroke="black" d="M268.5,-36C268.5,-36 238.5,-36 238.5,-36 232.5,-36 226.5,-30 226.5,-24 226.5,-24 226.5,-12 226.5,-12 226.5,-6 232.5,-0 238.5,-0 238.5,-0 268.5,-0 268.5,-0 274.5,-0 280.5,-6 280.5,-12 280.5,-12 280.5,-24 280.5,-24 280.5,-30 274.5,-36 268.5,-36"/>
<text text-anchor="middle" x="253.5" y="-14.3" font-family="Times New Roman,serif" font-size="14.00">dcrd</text>
</g>
<!-- certgen&#45;&gt;dcrd -->
<g id="edge24" class="edge"><title>certgen&#45;&gt;dcrd</title>
<path fill="none" stroke="darkkhaki" d="M28.5,-61.9092C28.5,-61.9092 28.5,-12 28.5,-12 28.5,-12 166.517,-12 226.36,-12"/>
<polygon fill="darkkhaki" stroke="darkkhaki" points="25.0001,-61.9091 28.5,-71.9092 32.0001,-61.9092 25.0001,-61.9091"/>
</g>
<!-- chainhash -->
<g id="node2" class="node"><title>chainhash</title>
<path fill="aquamarine" stroke="black" d="M483.5,-684C483.5,-684 385.5,-684 385.5,-684 379.5,-684 373.5,-678 373.5,-672 373.5,-672 373.5,-660 373.5,-660 373.5,-654 379.5,-648 385.5,-648 385.5,-648 483.5,-648 483.5,-648 489.5,-648 495.5,-654 495.5,-660 495.5,-660 495.5,-672 495.5,-672 495.5,-678 489.5,-684 483.5,-684"/>
<text text-anchor="middle" x="434.5" y="-662.3" font-family="Times New Roman,serif" font-size="14.00">chaincfg/chainhash</text>
</g>
<!-- dcrjson -->
<g id="node3" class="node"><title>dcrjson</title>
<path fill="indianred" stroke="black" d="M581.5,-612C581.5,-612 529.5,-612 529.5,-612 523.5,-612 517.5,-606 517.5,-600 517.5,-600 517.5,-588 517.5,-588 517.5,-582 523.5,-576 529.5,-576 529.5,-576 581.5,-576 581.5,-576 587.5,-576 593.5,-582 593.5,-588 593.5,-588 593.5,-600 593.5,-600 593.5,-606 587.5,-612 581.5,-612"/>
<text text-anchor="middle" x="555.5" y="-590.3" font-family="Times New Roman,serif" font-size="14.00">dcrjson/v3</text>
</g>
<!-- chainhash&#45;&gt;dcrjson -->
<g id="edge1" class="edge"><title>chainhash&#45;&gt;dcrjson</title>
<path fill="none" stroke="aquamarine" d="M505.709,-666C505.709,-666 555.5,-666 555.5,-666 555.5,-666 555.5,-633.498 555.5,-612.169"/>
<polygon fill="aquamarine" stroke="aquamarine" points="505.709,-662.5 495.709,-666 505.709,-669.5 505.709,-662.5"/>
</g>
<!-- wire -->
<g id="node5" class="node"><title>wire</title>
<path fill="coral" stroke="black" d="M216.5,-612C216.5,-612 186.5,-612 186.5,-612 180.5,-612 174.5,-606 174.5,-600 174.5,-600 174.5,-588 174.5,-588 174.5,-582 180.5,-576 186.5,-576 186.5,-576 216.5,-576 216.5,-576 222.5,-576 228.5,-582 228.5,-588 228.5,-588 228.5,-600 228.5,-600 228.5,-606 222.5,-612 216.5,-612"/>
<text text-anchor="middle" x="201.5" y="-590.3" font-family="Times New Roman,serif" font-size="14.00">wire</text>
</g>
<!-- chainhash&#45;&gt;wire -->
<g id="edge2" class="edge"><title>chainhash&#45;&gt;wire</title>
<path fill="none" stroke="aquamarine" d="M363.282,-666C363.282,-666 201.5,-666 201.5,-666 201.5,-666 201.5,-633.498 201.5,-612.169"/>
<polygon fill="aquamarine" stroke="aquamarine" points="363.282,-669.5 373.282,-666 363.282,-662.5 363.282,-669.5"/>
</g>
<!-- secp256k1 -->
<g id="node11" class="node"><title>secp256k1</title>
<path fill="mediumvioletred" stroke="black" d="M487,-612C487,-612 382,-612 382,-612 376,-612 370,-606 370,-600 370,-600 370,-588 370,-588 370,-582 376,-576 382,-576 382,-576 487,-576 487,-576 493,-576 499,-582 499,-588 499,-588 499,-600 499,-600 499,-606 493,-612 487,-612"/>
<text text-anchor="middle" x="434.5" y="-590.3" font-family="Times New Roman,serif" font-size="14.00">dcrec/secp256k1/v3</text>
</g>
<!-- chainhash&#45;&gt;secp256k1 -->
<g id="edge6" class="edge"><title>chainhash&#45;&gt;secp256k1</title>
<path fill="none" stroke="aquamarine" d="M434.5,-637.831C434.5,-637.831 434.5,-612.413 434.5,-612.413"/>
<polygon fill="aquamarine" stroke="aquamarine" points="431,-637.831 434.5,-647.831 438,-637.831 431,-637.831"/>
</g>
<!-- types -->
<g id="node4" class="node"><title>types</title>
<path fill="tomato" stroke="black" d="M601,-468C601,-468 510,-468 510,-468 504,-468 498,-462 498,-456 498,-456 498,-444 498,-444 498,-438 504,-432 510,-432 510,-432 601,-432 601,-432 607,-432 613,-438 613,-444 613,-444 613,-456 613,-456 613,-462 607,-468 601,-468"/>
<text text-anchor="middle" x="555.5" y="-446.3" font-family="Times New Roman,serif" font-size="14.00">rpc/jsonrpc/types</text>
</g>
<!-- dcrjson&#45;&gt;types -->
<g id="edge22" class="edge"><title>dcrjson&#45;&gt;types</title>
<path fill="none" stroke="tomato" d="M555.5,-565.762C555.5,-565.762 555.5,-468.09 555.5,-468.09"/>
<polygon fill="tomato" stroke="tomato" points="552,-565.762 555.5,-575.762 559,-565.762 552,-565.762"/>
</g>
<!-- rpcclient -->
<g id="node22" class="node"><title>rpcclient</title>
<path fill="mediumseagreen" stroke="black" d="M546.5,-108C546.5,-108 488.5,-108 488.5,-108 482.5,-108 476.5,-102 476.5,-96 476.5,-96 476.5,-84 476.5,-84 476.5,-78 482.5,-72 488.5,-72 488.5,-72 546.5,-72 546.5,-72 552.5,-72 558.5,-78 558.5,-84 558.5,-84 558.5,-96 558.5,-96 558.5,-102 552.5,-108 546.5,-108"/>
<text text-anchor="middle" x="517.5" y="-86.3" font-family="Times New Roman,serif" font-size="14.00">rpcclient/v4</text>
</g>
<!-- types&#45;&gt;rpcclient -->
<g id="edge23" class="edge"><title>types&#45;&gt;rpcclient</title>
<path fill="none" stroke="indianred" d="M539.75,-421.653C539.75,-421.653 539.75,-108.31 539.75,-108.31"/>
<polygon fill="indianred" stroke="indianred" points="536.25,-421.653 539.75,-431.653 543.25,-421.653 536.25,-421.653"/>
</g>
<!-- addrmgr -->
<g id="node6" class="node"><title>addrmgr</title>
<path fill="lightsalmon" stroke="black" d="M127.5,-108C127.5,-108 87.5,-108 87.5,-108 81.5,-108 75.5,-102 75.5,-96 75.5,-96 75.5,-84 75.5,-84 75.5,-78 81.5,-72 87.5,-72 87.5,-72 127.5,-72 127.5,-72 133.5,-72 139.5,-78 139.5,-84 139.5,-84 139.5,-96 139.5,-96 139.5,-102 133.5,-108 127.5,-108"/>
<text text-anchor="middle" x="107.5" y="-86.3" font-family="Times New Roman,serif" font-size="14.00">addrmgr</text>
</g>
<!-- wire&#45;&gt;addrmgr -->
<g id="edge3" class="edge"><title>wire&#45;&gt;addrmgr</title>
<path fill="none" stroke="coral" d="M164.311,-594C164.311,-594 107.5,-594 107.5,-594 107.5,-594 107.5,-198.592 107.5,-108.235"/>
<polygon fill="coral" stroke="coral" points="164.311,-597.5 174.311,-594 164.311,-590.5 164.311,-597.5"/>
</g>
<!-- chaincfg -->
<g id="node7" class="node"><title>chaincfg</title>
<path fill="cadetblue" stroke="black" d="M264,-540C264,-540 207,-540 207,-540 201,-540 195,-534 195,-528 195,-528 195,-516 195,-516 195,-510 201,-504 207,-504 207,-504 264,-504 264,-504 270,-504 276,-510 276,-516 276,-516 276,-528 276,-528 276,-534 270,-540 264,-540"/>
<text text-anchor="middle" x="235.5" y="-518.3" font-family="Times New Roman,serif" font-size="14.00">chaincfg/v2</text>
</g>
<!-- wire&#45;&gt;chaincfg -->
<g id="edge4" class="edge"><title>wire&#45;&gt;chaincfg</title>
<path fill="none" stroke="coral" d="M211.75,-565.831C211.75,-565.831 211.75,-540.413 211.75,-540.413"/>
<polygon fill="coral" stroke="coral" points="208.25,-565.831 211.75,-575.831 215.25,-565.831 208.25,-565.831"/>
</g>
<!-- connmgr -->
<g id="node8" class="node"><title>connmgr</title>
<path fill="mistyrose" stroke="black" d="M229,-108C229,-108 170,-108 170,-108 164,-108 158,-102 158,-96 158,-96 158,-84 158,-84 158,-78 164,-72 170,-72 170,-72 229,-72 229,-72 235,-72 241,-78 241,-84 241,-84 241,-96 241,-96 241,-102 235,-108 229,-108"/>
<text text-anchor="middle" x="199.5" y="-86.3" font-family="Times New Roman,serif" font-size="14.00">connmgr/v3</text>
</g>
<!-- wire&#45;&gt;connmgr -->
<g id="edge5" class="edge"><title>wire&#45;&gt;connmgr</title>
<path fill="none" stroke="coral" d="M184.75,-565.765C184.75,-565.765 184.75,-108.211 184.75,-108.211"/>
<polygon fill="coral" stroke="coral" points="181.25,-565.765 184.75,-575.765 188.25,-565.765 181.25,-565.765"/>
</g>
<!-- addrmgr&#45;&gt;dcrd -->
<g id="edge25" class="edge"><title>addrmgr&#45;&gt;dcrd</title>
<path fill="none" stroke="lightsalmon" d="M107.5,-61.9652C107.5,-61.9652 107.5,-24 107.5,-24 107.5,-24 184.159,-24 226.381,-24"/>
<polygon fill="lightsalmon" stroke="lightsalmon" points="104,-61.9652 107.5,-71.9652 111,-61.9652 104,-61.9652"/>
</g>
<!-- dcrutil -->
<g id="node12" class="node"><title>dcrutil</title>
<path fill="burlywood" stroke="black" d="M382,-468C382,-468 337,-468 337,-468 331,-468 325,-462 325,-456 325,-456 325,-444 325,-444 325,-438 331,-432 337,-432 337,-432 382,-432 382,-432 388,-432 394,-438 394,-444 394,-444 394,-456 394,-456 394,-462 388,-468 382,-468"/>
<text text-anchor="middle" x="359.5" y="-446.3" font-family="Times New Roman,serif" font-size="14.00">dcrutil/v2</text>
</g>
<!-- chaincfg&#45;&gt;dcrutil -->
<g id="edge7" class="edge"><title>chaincfg&#45;&gt;dcrutil</title>
<path fill="none" stroke="cadetblue" d="M267.5,-493.965C267.5,-493.965 267.5,-456 267.5,-456 267.5,-456 298.875,-456 324.981,-456"/>
<polygon fill="cadetblue" stroke="cadetblue" points="264,-493.965 267.5,-503.965 271,-493.965 264,-493.965"/>
</g>
<!-- connmgr&#45;&gt;dcrd -->
<g id="edge27" class="edge"><title>connmgr&#45;&gt;dcrd</title>
<path fill="none" stroke="mistyrose" d="M233.75,-61.8314C233.75,-61.8314 233.75,-36.4133 233.75,-36.4133"/>
<polygon fill="mistyrose" stroke="mistyrose" points="230.25,-61.8313 233.75,-71.8314 237.25,-61.8314 230.25,-61.8313"/>
</g>
<!-- dcrec -->
<g id="node9" class="node"><title>dcrec</title>
<path fill="mediumpurple" stroke="black" d="M336.5,-540C336.5,-540 306.5,-540 306.5,-540 300.5,-540 294.5,-534 294.5,-528 294.5,-528 294.5,-516 294.5,-516 294.5,-510 300.5,-504 306.5,-504 306.5,-504 336.5,-504 336.5,-504 342.5,-504 348.5,-510 348.5,-516 348.5,-516 348.5,-528 348.5,-528 348.5,-534 342.5,-540 336.5,-540"/>
<text text-anchor="middle" x="321.5" y="-518.3" font-family="Times New Roman,serif" font-size="14.00">dcrec</text>
</g>
<!-- dcrec&#45;&gt;dcrutil -->
<g id="edge8" class="edge"><title>dcrec&#45;&gt;dcrutil</title>
<path fill="none" stroke="mediumpurple" d="M336.75,-493.831C336.75,-493.831 336.75,-468.413 336.75,-468.413"/>
<polygon fill="mediumpurple" stroke="mediumpurple" points="333.25,-493.831 336.75,-503.831 340.25,-493.831 333.25,-493.831"/>
</g>
<!-- edwards -->
<g id="node10" class="node"><title>edwards</title>
<path fill="lightseagreen" stroke="black" d="M470.5,-540C470.5,-540 378.5,-540 378.5,-540 372.5,-540 366.5,-534 366.5,-528 366.5,-528 366.5,-516 366.5,-516 366.5,-510 372.5,-504 378.5,-504 378.5,-504 470.5,-504 470.5,-504 476.5,-504 482.5,-510 482.5,-516 482.5,-516 482.5,-528 482.5,-528 482.5,-534 476.5,-540 470.5,-540"/>
<text text-anchor="middle" x="424.5" y="-518.3" font-family="Times New Roman,serif" font-size="14.00">dcrec/edwards/v2</text>
</g>
<!-- edwards&#45;&gt;dcrutil -->
<g id="edge9" class="edge"><title>edwards&#45;&gt;dcrutil</title>
<path fill="none" stroke="lightseagreen" d="M380.25,-493.831C380.25,-493.831 380.25,-468.413 380.25,-468.413"/>
<polygon fill="lightseagreen" stroke="lightseagreen" points="376.75,-493.831 380.25,-503.831 383.75,-493.831 376.75,-493.831"/>
</g>
<!-- secp256k1&#45;&gt;dcrutil -->
<g id="edge10" class="edge"><title>secp256k1&#45;&gt;dcrutil</title>
<path fill="none" stroke="mediumvioletred" d="M359.871,-594C359.871,-594 357.5,-594 357.5,-594 357.5,-594 357.5,-506.986 357.5,-468.238"/>
<polygon fill="mediumvioletred" stroke="mediumvioletred" points="359.871,-597.5 369.871,-594 359.871,-590.5 359.871,-597.5"/>
</g>
<!-- database -->
<g id="node13" class="node"><title>database</title>
<path fill="dodgerblue" stroke="black" d="M389,-396C389,-396 330,-396 330,-396 324,-396 318,-390 318,-384 318,-384 318,-372 318,-372 318,-366 324,-360 330,-360 330,-360 389,-360 389,-360 395,-360 401,-366 401,-372 401,-372 401,-384 401,-384 401,-390 395,-396 389,-396"/>
<text text-anchor="middle" x="359.5" y="-374.3" font-family="Times New Roman,serif" font-size="14.00">database/v2</text>
</g>
<!-- dcrutil&#45;&gt;database -->
<g id="edge11" class="edge"><title>dcrutil&#45;&gt;database</title>
<path fill="none" stroke="burlywood" d="M359.5,-421.831C359.5,-421.831 359.5,-396.413 359.5,-396.413"/>
<polygon fill="burlywood" stroke="burlywood" points="356,-421.831 359.5,-431.831 363,-421.831 356,-421.831"/>
</g>
<!-- hdkeychain -->
<g id="node14" class="node"><title>hdkeychain</title>
<path fill="deepskyblue" stroke="black" d="M344,-108C344,-108 271,-108 271,-108 265,-108 259,-102 259,-96 259,-96 259,-84 259,-84 259,-78 265,-72 271,-72 271,-72 344,-72 344,-72 350,-72 356,-78 356,-84 356,-84 356,-96 356,-96 356,-102 350,-108 344,-108"/>
<text text-anchor="middle" x="307.5" y="-86.3" font-family="Times New Roman,serif" font-size="14.00">hdkeychain/v2</text>
</g>
<!-- dcrutil&#45;&gt;hdkeychain -->
<g id="edge12" class="edge"><title>dcrutil&#45;&gt;hdkeychain</title>
<path fill="none" stroke="burlywood" d="M314.889,-444C314.889,-444 300,-444 300,-444 300,-444 300,-180.18 300,-108.042"/>
<polygon fill="burlywood" stroke="burlywood" points="314.889,-447.5 324.889,-444 314.889,-440.5 314.889,-447.5"/>
</g>
<!-- txscript -->
<g id="node15" class="node"><title>txscript</title>
<path fill="mediumspringgreen" stroke="black" d="M483.5,-396C483.5,-396 431.5,-396 431.5,-396 425.5,-396 419.5,-390 419.5,-384 419.5,-384 419.5,-372 419.5,-372 419.5,-366 425.5,-360 431.5,-360 431.5,-360 483.5,-360 483.5,-360 489.5,-360 495.5,-366 495.5,-372 495.5,-372 495.5,-384 495.5,-384 495.5,-390 489.5,-396 483.5,-396"/>
<text text-anchor="middle" x="457.5" y="-374.3" font-family="Times New Roman,serif" font-size="14.00">txscript/v2</text>
</g>
<!-- dcrutil&#45;&gt;txscript -->
<g id="edge13" class="edge"><title>dcrutil&#45;&gt;txscript</title>
<path fill="none" stroke="burlywood" d="M404.092,-450C404.092,-450 451,-450 451,-450 451,-450 451,-417.498 451,-396.169"/>
<polygon fill="burlywood" stroke="burlywood" points="404.092,-446.5 394.092,-450 404.092,-453.5 404.092,-446.5"/>
</g>
<!-- stake -->
<g id="node16" class="node"><title>stake</title>
<path fill="bisque" stroke="black" d="M509,-324C509,-324 406,-324 406,-324 400,-324 394,-318 394,-312 394,-312 394,-300 394,-300 394,-294 400,-288 406,-288 406,-288 509,-288 509,-288 515,-288 521,-294 521,-300 521,-300 521,-312 521,-312 521,-318 515,-324 509,-324"/>
<text text-anchor="middle" x="457.5" y="-302.3" font-family="Times New Roman,serif" font-size="14.00">blockchain/stake/v2</text>
</g>
<!-- database&#45;&gt;stake -->
<g id="edge14" class="edge"><title>database&#45;&gt;stake</title>
<path fill="none" stroke="dodgerblue" d="M397.5,-349.831C397.5,-349.831 397.5,-324.413 397.5,-324.413"/>
<polygon fill="dodgerblue" stroke="dodgerblue" points="394,-349.831 397.5,-359.831 401,-349.831 394,-349.831"/>
</g>
<!-- hdkeychain&#45;&gt;dcrd -->
<g id="edge26" class="edge"><title>hdkeychain&#45;&gt;dcrd</title>
<path fill="none" stroke="deepskyblue" d="M269.75,-61.8314C269.75,-61.8314 269.75,-36.4133 269.75,-36.4133"/>
<polygon fill="deepskyblue" stroke="deepskyblue" points="266.25,-61.8313 269.75,-71.8314 273.25,-61.8314 266.25,-61.8313"/>
</g>
<!-- txscript&#45;&gt;stake -->
<g id="edge15" class="edge"><title>txscript&#45;&gt;stake</title>
<path fill="none" stroke="mediumspringgreen" d="M457.5,-349.831C457.5,-349.831 457.5,-324.413 457.5,-324.413"/>
<polygon fill="mediumspringgreen" stroke="mediumspringgreen" points="454,-349.831 457.5,-359.831 461,-349.831 454,-349.831"/>
</g>
<!-- gcs -->
<g id="node18" class="node"><title>gcs</title>
<path fill="gold" stroke="black" d="M505.5,-252C505.5,-252 475.5,-252 475.5,-252 469.5,-252 463.5,-246 463.5,-240 463.5,-240 463.5,-228 463.5,-228 463.5,-222 469.5,-216 475.5,-216 475.5,-216 505.5,-216 505.5,-216 511.5,-216 517.5,-222 517.5,-228 517.5,-228 517.5,-240 517.5,-240 517.5,-246 511.5,-252 505.5,-252"/>
<text text-anchor="middle" x="490.5" y="-230.3" font-family="Times New Roman,serif" font-size="14.00">gcs</text>
</g>
<!-- stake&#45;&gt;gcs -->
<g id="edge16" class="edge"><title>stake&#45;&gt;gcs</title>
<path fill="none" stroke="bisque" d="M490.5,-277.831C490.5,-277.831 490.5,-252.413 490.5,-252.413"/>
<polygon fill="bisque" stroke="bisque" points="487,-277.831 490.5,-287.831 494,-277.831 487,-277.831"/>
</g>
<!-- standalone -->
<g id="node17" class="node"><title>standalone</title>
<path fill="#8b1a1a" stroke="black" d="M433.5,-252C433.5,-252 317.5,-252 317.5,-252 311.5,-252 305.5,-246 305.5,-240 305.5,-240 305.5,-228 305.5,-228 305.5,-222 311.5,-216 317.5,-216 317.5,-216 433.5,-216 433.5,-216 439.5,-216 445.5,-222 445.5,-228 445.5,-228 445.5,-240 445.5,-240 445.5,-246 439.5,-252 433.5,-252"/>
<text text-anchor="middle" x="375.5" y="-230.3" font-family="Times New Roman,serif" font-size="14.00">blockchain/standalone</text>
</g>
<!-- blockchain -->
<g id="node19" class="node"><title>blockchain</title>
<path fill="orchid" stroke="black" d="M405,-180C405,-180 334,-180 334,-180 328,-180 322,-174 322,-168 322,-168 322,-156 322,-156 322,-150 328,-144 334,-144 334,-144 405,-144 405,-144 411,-144 417,-150 417,-156 417,-156 417,-168 417,-168 417,-174 411,-180 405,-180"/>
<text text-anchor="middle" x="369.5" y="-158.3" font-family="Times New Roman,serif" font-size="14.00">blockchain/v2</text>
</g>
<!-- standalone&#45;&gt;blockchain -->
<g id="edge17" class="edge"><title>standalone&#45;&gt;blockchain</title>
<path fill="none" stroke="#8b1a1a" d="M353.667,-205.831C353.667,-205.831 353.667,-180.413 353.667,-180.413"/>
<polygon fill="#8b1a1a" stroke="#8b1a1a" points="350.167,-205.831 353.667,-215.831 357.167,-205.831 350.167,-205.831"/>
</g>
<!-- gcs&#45;&gt;blockchain -->
<g id="edge18" class="edge"><title>gcs&#45;&gt;blockchain</title>
<path fill="none" stroke="gold" d="M476.5,-205.578C476.5,-205.578 476.5,-198 476.5,-198 476.5,-198 385.333,-198 385.333,-198 385.333,-198 385.333,-189.279 385.333,-180.422"/>
<polygon fill="gold" stroke="gold" points="473,-205.578 476.5,-215.578 480,-205.578 473,-205.578"/>
</g>
<!-- gcs&#45;&gt;rpcclient -->
<g id="edge19" class="edge"><title>gcs&#45;&gt;rpcclient</title>
<path fill="none" stroke="gold" d="M503.5,-205.762C503.5,-205.762 503.5,-108.09 503.5,-108.09"/>
<polygon fill="gold" stroke="gold" points="500,-205.762 503.5,-215.762 507,-205.762 500,-205.762"/>
</g>
<!-- peer -->
<g id="node21" class="node"><title>peer</title>
<path fill="khaki" stroke="black" d="M420.5,-108C420.5,-108 386.5,-108 386.5,-108 380.5,-108 374.5,-102 374.5,-96 374.5,-96 374.5,-84 374.5,-84 374.5,-78 380.5,-72 386.5,-72 386.5,-72 420.5,-72 420.5,-72 426.5,-72 432.5,-78 432.5,-84 432.5,-84 432.5,-96 432.5,-96 432.5,-102 426.5,-108 420.5,-108"/>
<text text-anchor="middle" x="403.5" y="-86.3" font-family="Times New Roman,serif" font-size="14.00">peer/v2</text>
</g>
<!-- blockchain&#45;&gt;peer -->
<g id="edge21" class="edge"><title>blockchain&#45;&gt;peer</title>
<path fill="none" stroke="orchid" d="M395.75,-133.831C395.75,-133.831 395.75,-108.413 395.75,-108.413"/>
<polygon fill="orchid" stroke="orchid" points="392.25,-133.831 395.75,-143.831 399.25,-133.831 392.25,-133.831"/>
</g>
<!-- lru -->
<g id="node20" class="node"><title>lru</title>
<path fill="#3a5fcd" stroke="black" d="M477.5,-180C477.5,-180 447.5,-180 447.5,-180 441.5,-180 435.5,-174 435.5,-168 435.5,-168 435.5,-156 435.5,-156 435.5,-150 441.5,-144 447.5,-144 447.5,-144 477.5,-144 477.5,-144 483.5,-144 489.5,-150 489.5,-156 489.5,-156 489.5,-168 489.5,-168 489.5,-174 483.5,-180 477.5,-180"/>
<text text-anchor="middle" x="462.5" y="-158.3" font-family="Times New Roman,serif" font-size="14.00">lru</text>
</g>
<!-- lru&#45;&gt;peer -->
<g id="edge20" class="edge"><title>lru&#45;&gt;peer</title>
<path fill="none" stroke="#3a5fcd" d="M425.822,-162C425.822,-162 424.75,-162 424.75,-162 424.75,-162 424.75,-129.498 424.75,-108.169"/>
<polygon fill="#3a5fcd" stroke="#3a5fcd" points="425.467,-165.5 435.467,-162 425.467,-158.5 425.467,-165.5"/>
</g>
<!-- peer&#45;&gt;dcrd -->
<g id="edge29" class="edge"><title>peer&#45;&gt;dcrd</title>
<path fill="none" stroke="khaki" d="M403.5,-61.9652C403.5,-61.9652 403.5,-24 403.5,-24 403.5,-24 323.89,-24 280.664,-24"/>
<polygon fill="khaki" stroke="khaki" points="400,-61.9652 403.5,-71.9652 407,-61.9652 400,-61.9652"/>
</g>
<!-- rpcclient&#45;&gt;dcrd -->
<g id="edge28" class="edge"><title>rpcclient&#45;&gt;dcrd</title>
<path fill="none" stroke="mediumseagreen" d="M517.5,-61.9092C517.5,-61.9092 517.5,-12 517.5,-12 517.5,-12 348.21,-12 280.758,-12"/>
<polygon fill="mediumseagreen" stroke="mediumseagreen" points="514,-61.9091 517.5,-71.9092 521,-61.9092 514,-61.9091"/>
</g>
</g>
</svg>
