<?xml version="1.0" encoding="UTF-8" standalone="no"?>
<!DOCTYPE svg PUBLIC "-//W3C//DTD SVG 1.1//EN"
 "http://www.w3.org/Graphics/SVG/1.1/DTD/svg11.dtd">
<!-- Generated by graphviz version 2.38.0 (20140413.2041)
 -->
<!-- Title: %3 Pages: 1 -->
<svg width="703pt" height="720pt"
 viewBox="0.00 0.00 702.50 720.00" xmlns="http://www.w3.org/2000/svg" xmlns:xlink="http://www.w3.org/1999/xlink">
<g id="graph0" class="graph" transform="scale(1 1) rotate(0) translate(4 716)">
<title>%3</title>
<polygon fill="white" stroke="#000000" points="-4,4 -4,-716 698.5,-716 698.5,4 -4,4"/>
<text text-anchor="start" x="280.75" y="-694.6" font-family="Times New Roman,serif" text-decoration="underline" font-size="18.00">Module Hierarchy</text>
<!-- certgen -->
<g id="node1" class="node"><title>certgen</title>
<path fill="darkkhaki" stroke="black" d="M45,-108C45,-108 12,-108 12,-108 6,-108 0,-102 0,-96 0,-96 0,-84 0,-84 0,-78 6,-72 12,-72 12,-72 45,-72 45,-72 51,-72 57,-78 57,-84 57,-84 57,-96 57,-96 57,-102 51,-108 45,-108"/>
<text text-anchor="middle" x="28.5" y="-86.3" font-family="Times New Roman,serif" font-size="14.00">certgen</text>
</g>
<!-- dcrd -->
<g id="node25" class="node"><title>dcrd</title>
<path fill="chocolate" stroke="black" d="M322.5,-36C322.5,-36 292.5,-36 292.5,-36 286.5,-36 280.5,-30 280.5,-24 280.5,-24 280.5,-12 280.5,-12 280.5,-6 286.5,-0 292.5,-0 292.5,-0 322.5,-0 322.5,-0 328.5,-0 334.5,-6 334.5,-12 334.5,-12 334.5,-24 334.5,-24 334.5,-30 328.5,-36 322.5,-36"/>
<text text-anchor="middle" x="307.5" y="-14.3" font-family="Times New Roman,serif" font-size="14.00">dcrd</text>
</g>
<!-- certgen&#45;&gt;dcrd -->
<g id="edge26" class="edge"><title>certgen&#45;&gt;dcrd</title>
<path fill="none" stroke="darkkhaki" d="M28.5,-61.6198C28.5,-61.6198 28.5,-9 28.5,-9 28.5,-9 210.477,-9 280.495,-9"/>
<polygon fill="darkkhaki" stroke="darkkhaki" points="25.0001,-61.6198 28.5,-71.6198 32.0001,-61.6199 25.0001,-61.6198"/>
</g>
<!-- chainhash -->
<g id="node2" class="node"><title>chainhash</title>
<path fill="aquamarine" stroke="black" d="M523.5,-684C523.5,-684 425.5,-684 425.5,-684 419.5,-684 413.5,-678 413.5,-672 413.5,-672 413.5,-660 413.5,-660 413.5,-654 419.5,-648 425.5,-648 425.5,-648 523.5,-648 523.5,-648 529.5,-648 535.5,-654 535.5,-660 535.5,-660 535.5,-672 535.5,-672 535.5,-678 529.5,-684 523.5,-684"/>
<text text-anchor="middle" x="474.5" y="-662.3" font-family="Times New Roman,serif" font-size="14.00">chaincfg/chainhash</text>
</g>
<!-- dcrjson -->
<g id="node3" class="node"><title>dcrjson</title>
<path fill="indianred" stroke="black" d="M626.5,-612C626.5,-612 574.5,-612 574.5,-612 568.5,-612 562.5,-606 562.5,-600 562.5,-600 562.5,-588 562.5,-588 562.5,-582 568.5,-576 574.5,-576 574.5,-576 626.5,-576 626.5,-576 632.5,-576 638.5,-582 638.5,-588 638.5,-588 638.5,-600 638.5,-600 638.5,-606 632.5,-612 626.5,-612"/>
<text text-anchor="middle" x="600.5" y="-590.3" font-family="Times New Roman,serif" font-size="14.00">dcrjson/v3</text>
</g>
<!-- chainhash&#45;&gt;dcrjson -->
<g id="edge1" class="edge"><title>chainhash&#45;&gt;dcrjson</title>
<path fill="none" stroke="aquamarine" d="M545.655,-666C545.655,-666 600.5,-666 600.5,-666 600.5,-666 600.5,-633.498 600.5,-612.169"/>
<polygon fill="aquamarine" stroke="aquamarine" points="545.655,-662.5 535.655,-666 545.654,-669.5 545.655,-662.5"/>
</g>
<!-- wire -->
<g id="node5" class="node"><title>wire</title>
<path fill="coral" stroke="black" d="M214.5,-612C214.5,-612 184.5,-612 184.5,-612 178.5,-612 172.5,-606 172.5,-600 172.5,-600 172.5,-588 172.5,-588 172.5,-582 178.5,-576 184.5,-576 184.5,-576 214.5,-576 214.5,-576 220.5,-576 226.5,-582 226.5,-588 226.5,-588 226.5,-600 226.5,-600 226.5,-606 220.5,-612 214.5,-612"/>
<text text-anchor="middle" x="199.5" y="-590.3" font-family="Times New Roman,serif" font-size="14.00">wire</text>
</g>
<!-- chainhash&#45;&gt;wire -->
<g id="edge2" class="edge"><title>chainhash&#45;&gt;wire</title>
<path fill="none" stroke="aquamarine" d="M403.469,-666C403.469,-666 199.5,-666 199.5,-666 199.5,-666 199.5,-633.498 199.5,-612.169"/>
<polygon fill="aquamarine" stroke="aquamarine" points="403.469,-669.5 413.469,-666 403.469,-662.5 403.469,-669.5"/>
</g>
<!-- secp256k1 -->
<g id="node11" class="node"><title>secp256k1</title>
<path fill="mediumvioletred" stroke="black" d="M527,-612C527,-612 422,-612 422,-612 416,-612 410,-606 410,-600 410,-600 410,-588 410,-588 410,-582 416,-576 422,-576 422,-576 527,-576 527,-576 533,-576 539,-582 539,-588 539,-588 539,-600 539,-600 539,-606 533,-612 527,-612"/>
<text text-anchor="middle" x="474.5" y="-590.3" font-family="Times New Roman,serif" font-size="14.00">dcrec/secp256k1/v2</text>
</g>
<!-- chainhash&#45;&gt;secp256k1 -->
<g id="edge6" class="edge"><title>chainhash&#45;&gt;secp256k1</title>
<path fill="none" stroke="aquamarine" d="M474.5,-637.831C474.5,-637.831 474.5,-612.413 474.5,-612.413"/>
<polygon fill="aquamarine" stroke="aquamarine" points="471,-637.831 474.5,-647.831 478,-637.831 471,-637.831"/>
</g>
<!-- types -->
<g id="node4" class="node"><title>types</title>
<path fill="tomato" stroke="black" d="M675,-468C675,-468 584,-468 584,-468 578,-468 572,-462 572,-456 572,-456 572,-444 572,-444 572,-438 578,-432 584,-432 584,-432 675,-432 675,-432 681,-432 687,-438 687,-444 687,-444 687,-456 687,-456 687,-462 681,-468 675,-468"/>
<text text-anchor="middle" x="629.5" y="-446.3" font-family="Times New Roman,serif" font-size="14.00">rpc/jsonrpc/types</text>
</g>
<!-- dcrjson&#45;&gt;types -->
<g id="edge23" class="edge"><title>dcrjson&#45;&gt;types</title>
<path fill="none" stroke="tomato" d="M605.25,-565.762C605.25,-565.762 605.25,-468.09 605.25,-468.09"/>
<polygon fill="tomato" stroke="tomato" points="601.75,-565.762 605.25,-575.762 608.75,-565.762 601.75,-565.762"/>
</g>
<!-- rpcclient -->
<g id="node23" class="node"><title>rpcclient</title>
<path fill="mediumseagreen" stroke="black" d="M682.5,-108C682.5,-108 624.5,-108 624.5,-108 618.5,-108 612.5,-102 612.5,-96 612.5,-96 612.5,-84 612.5,-84 612.5,-78 618.5,-72 624.5,-72 624.5,-72 682.5,-72 682.5,-72 688.5,-72 694.5,-78 694.5,-84 694.5,-84 694.5,-96 694.5,-96 694.5,-102 688.5,-108 682.5,-108"/>
<text text-anchor="middle" x="653.5" y="-86.3" font-family="Times New Roman,serif" font-size="14.00">rpcclient/v4</text>
</g>
<!-- types&#45;&gt;rpcclient -->
<g id="edge24" class="edge"><title>types&#45;&gt;rpcclient</title>
<path fill="none" stroke="indianred" d="M662.167,-421.653C662.167,-421.653 662.167,-108.31 662.167,-108.31"/>
<polygon fill="indianred" stroke="indianred" points="658.667,-421.653 662.167,-431.653 665.667,-421.653 658.667,-421.653"/>
</g>
<!-- addrmgr -->
<g id="node6" class="node"><title>addrmgr</title>
<path fill="lightsalmon" stroke="black" d="M127.5,-108C127.5,-108 87.5,-108 87.5,-108 81.5,-108 75.5,-102 75.5,-96 75.5,-96 75.5,-84 75.5,-84 75.5,-78 81.5,-72 87.5,-72 87.5,-72 127.5,-72 127.5,-72 133.5,-72 139.5,-78 139.5,-84 139.5,-84 139.5,-96 139.5,-96 139.5,-102 133.5,-108 127.5,-108"/>
<text text-anchor="middle" x="107.5" y="-86.3" font-family="Times New Roman,serif" font-size="14.00">addrmgr</text>
</g>
<!-- wire&#45;&gt;addrmgr -->
<g id="edge3" class="edge"><title>wire&#45;&gt;addrmgr</title>
<path fill="none" stroke="coral" d="M162.395,-594C162.395,-594 107.5,-594 107.5,-594 107.5,-594 107.5,-198.592 107.5,-108.235"/>
<polygon fill="coral" stroke="coral" points="162.395,-597.5 172.395,-594 162.395,-590.5 162.395,-597.5"/>
</g>
<!-- chaincfg -->
<g id="node7" class="node"><title>chaincfg</title>
<path fill="cadetblue" stroke="black" d="M228,-540C228,-540 171,-540 171,-540 165,-540 159,-534 159,-528 159,-528 159,-516 159,-516 159,-510 165,-504 171,-504 171,-504 228,-504 228,-504 234,-504 240,-510 240,-516 240,-516 240,-528 240,-528 240,-534 234,-540 228,-540"/>
<text text-anchor="middle" x="199.5" y="-518.3" font-family="Times New Roman,serif" font-size="14.00">chaincfg/v2</text>
</g>
<!-- wire&#45;&gt;chaincfg -->
<g id="edge4" class="edge"><title>wire&#45;&gt;chaincfg</title>
<path fill="none" stroke="coral" d="M199.5,-565.831C199.5,-565.831 199.5,-540.413 199.5,-540.413"/>
<polygon fill="coral" stroke="coral" points="196,-565.831 199.5,-575.831 203,-565.831 196,-565.831"/>
</g>
<!-- addrmgr&#45;&gt;dcrd -->
<g id="edge27" class="edge"><title>addrmgr&#45;&gt;dcrd</title>
<path fill="none" stroke="lightsalmon" d="M107.5,-61.8314C107.5,-61.8314 107.5,-18 107.5,-18 107.5,-18 225.335,-18 280.11,-18"/>
<polygon fill="lightsalmon" stroke="lightsalmon" points="104,-61.8313 107.5,-71.8314 111,-61.8314 104,-61.8313"/>
</g>
<!-- connmgr -->
<g id="node8" class="node"><title>connmgr</title>
<path fill="mistyrose" stroke="black" d="M229,-108C229,-108 170,-108 170,-108 164,-108 158,-102 158,-96 158,-96 158,-84 158,-84 158,-78 164,-72 170,-72 170,-72 229,-72 229,-72 235,-72 241,-78 241,-84 241,-84 241,-96 241,-96 241,-102 235,-108 229,-108"/>
<text text-anchor="middle" x="199.5" y="-86.3" font-family="Times New Roman,serif" font-size="14.00">connmgr/v2</text>
</g>
<!-- chaincfg&#45;&gt;connmgr -->
<g id="edge5" class="edge"><title>chaincfg&#45;&gt;connmgr</title>
<path fill="none" stroke="cadetblue" d="M186,-493.987C186,-493.987 186,-108.089 186,-108.089"/>
<polygon fill="cadetblue" stroke="cadetblue" points="182.5,-493.987 186,-503.987 189.5,-493.988 182.5,-493.987"/>
</g>
<!-- dcrutil -->
<g id="node12" class="node"><title>dcrutil</title>
<path fill="burlywood" stroke="black" d="M408,-468C408,-468 363,-468 363,-468 357,-468 351,-462 351,-456 351,-456 351,-444 351,-444 351,-438 357,-432 363,-432 363,-432 408,-432 408,-432 414,-432 420,-438 420,-444 420,-444 420,-456 420,-456 420,-462 414,-468 408,-468"/>
<text text-anchor="middle" x="385.5" y="-446.3" font-family="Times New Roman,serif" font-size="14.00">dcrutil/v2</text>
</g>
<!-- chaincfg&#45;&gt;dcrutil -->
<g id="edge7" class="edge"><title>chaincfg&#45;&gt;dcrutil</title>
<path fill="none" stroke="cadetblue" d="M213,-493.831C213,-493.831 213,-450 213,-450 213,-450 300.187,-450 350.592,-450"/>
<polygon fill="cadetblue" stroke="cadetblue" points="209.5,-493.831 213,-503.831 216.5,-493.831 209.5,-493.831"/>
</g>
<!-- connmgr&#45;&gt;dcrd -->
<g id="edge29" class="edge"><title>connmgr&#45;&gt;dcrd</title>
<path fill="none" stroke="mistyrose" d="M199.5,-61.7778C199.5,-61.7778 199.5,-27 199.5,-27 199.5,-27 248.253,-27 280.247,-27"/>
<polygon fill="mistyrose" stroke="mistyrose" points="196,-61.7778 199.5,-71.7778 203,-61.7778 196,-61.7778"/>
</g>
<!-- dcrec -->
<g id="node9" class="node"><title>dcrec</title>
<path fill="mediumpurple" stroke="black" d="M300.5,-540C300.5,-540 270.5,-540 270.5,-540 264.5,-540 258.5,-534 258.5,-528 258.5,-528 258.5,-516 258.5,-516 258.5,-510 264.5,-504 270.5,-504 270.5,-504 300.5,-504 300.5,-504 306.5,-504 312.5,-510 312.5,-516 312.5,-516 312.5,-528 312.5,-528 312.5,-534 306.5,-540 300.5,-540"/>
<text text-anchor="middle" x="285.5" y="-518.3" font-family="Times New Roman,serif" font-size="14.00">dcrec</text>
</g>
<!-- dcrec&#45;&gt;dcrutil -->
<g id="edge8" class="edge"><title>dcrec&#45;&gt;dcrutil</title>
<path fill="none" stroke="mediumpurple" d="M285.75,-493.778C285.75,-493.778 285.75,-459 285.75,-459 285.75,-459 322.082,-459 350.892,-459"/>
<polygon fill="mediumpurple" stroke="mediumpurple" points="282.25,-493.778 285.75,-503.778 289.25,-493.778 282.25,-493.778"/>
</g>
<!-- edwards -->
<g id="node10" class="node"><title>edwards</title>
<path fill="lightseagreen" stroke="black" d="M434.5,-540C434.5,-540 342.5,-540 342.5,-540 336.5,-540 330.5,-534 330.5,-528 330.5,-528 330.5,-516 330.5,-516 330.5,-510 336.5,-504 342.5,-504 342.5,-504 434.5,-504 434.5,-504 440.5,-504 446.5,-510 446.5,-516 446.5,-516 446.5,-528 446.5,-528 446.5,-534 440.5,-540 434.5,-540"/>
<text text-anchor="middle" x="388.5" y="-518.3" font-family="Times New Roman,serif" font-size="14.00">dcrec/edwards/v2</text>
</g>
<!-- edwards&#45;&gt;dcrutil -->
<g id="edge9" class="edge"><title>edwards&#45;&gt;dcrutil</title>
<path fill="none" stroke="lightseagreen" d="M385.5,-493.831C385.5,-493.831 385.5,-468.413 385.5,-468.413"/>
<polygon fill="lightseagreen" stroke="lightseagreen" points="382,-493.831 385.5,-503.831 389,-493.831 382,-493.831"/>
</g>
<!-- secp256k1&#45;&gt;dcrutil -->
<g id="edge10" class="edge"><title>secp256k1&#45;&gt;dcrutil</title>
<path fill="none" stroke="mediumvioletred" d="M471.5,-565.959C471.5,-565.959 471.5,-456 471.5,-456 471.5,-456 444.289,-456 420.479,-456"/>
<polygon fill="mediumvioletred" stroke="mediumvioletred" points="468,-565.959 471.5,-575.959 475,-565.959 468,-565.959"/>
</g>
<!-- database -->
<g id="node13" class="node"><title>database</title>
<path fill="dodgerblue" stroke="black" d="M415,-396C415,-396 356,-396 356,-396 350,-396 344,-390 344,-384 344,-384 344,-372 344,-372 344,-366 350,-360 356,-360 356,-360 415,-360 415,-360 421,-360 427,-366 427,-372 427,-372 427,-384 427,-384 427,-390 421,-396 415,-396"/>
<text text-anchor="middle" x="385.5" y="-374.3" font-family="Times New Roman,serif" font-size="14.00">database/v2</text>
</g>
<!-- dcrutil&#45;&gt;database -->
<g id="edge11" class="edge"><title>dcrutil&#45;&gt;database</title>
<path fill="none" stroke="burlywood" d="M385.5,-421.831C385.5,-421.831 385.5,-396.413 385.5,-396.413"/>
<polygon fill="burlywood" stroke="burlywood" points="382,-421.831 385.5,-431.831 389,-421.831 382,-421.831"/>
</g>
<!-- hdkeychain -->
<g id="node14" class="node"><title>hdkeychain</title>
<path fill="deepskyblue" stroke="black" d="M344,-108C344,-108 271,-108 271,-108 265,-108 259,-102 259,-96 259,-96 259,-84 259,-84 259,-78 265,-72 271,-72 271,-72 344,-72 344,-72 350,-72 356,-78 356,-84 356,-84 356,-96 356,-96 356,-102 350,-108 344,-108"/>
<text text-anchor="middle" x="307.5" y="-86.3" font-family="Times New Roman,serif" font-size="14.00">hdkeychain/v2</text>
</g>
<!-- dcrutil&#45;&gt;hdkeychain -->
<g id="edge12" class="edge"><title>dcrutil&#45;&gt;hdkeychain</title>
<path fill="none" stroke="burlywood" d="M340.947,-441C340.947,-441 337.25,-441 337.25,-441 337.25,-441 337.25,-180.598 337.25,-108.377"/>
<polygon fill="burlywood" stroke="burlywood" points="340.947,-444.5 350.947,-441 340.947,-437.5 340.947,-444.5"/>
</g>
<!-- txscript -->
<g id="node15" class="node"><title>txscript</title>
<path fill="mediumspringgreen" stroke="black" d="M509.5,-396C509.5,-396 457.5,-396 457.5,-396 451.5,-396 445.5,-390 445.5,-384 445.5,-384 445.5,-372 445.5,-372 445.5,-366 451.5,-360 457.5,-360 457.5,-360 509.5,-360 509.5,-360 515.5,-360 521.5,-366 521.5,-372 521.5,-372 521.5,-384 521.5,-384 521.5,-390 515.5,-396 509.5,-396"/>
<text text-anchor="middle" x="483.5" y="-374.3" font-family="Times New Roman,serif" font-size="14.00">txscript/v2</text>
</g>
<!-- dcrutil&#45;&gt;txscript -->
<g id="edge13" class="edge"><title>dcrutil&#45;&gt;txscript</title>
<path fill="none" stroke="burlywood" d="M430.013,-444C430.013,-444 496.5,-444 496.5,-444 496.5,-444 496.5,-415.576 496.5,-396.035"/>
<polygon fill="burlywood" stroke="burlywood" points="430.013,-440.5 420.013,-444 430.013,-447.5 430.013,-440.5"/>
</g>
<!-- stake -->
<g id="node16" class="node"><title>stake</title>
<path fill="bisque" stroke="black" d="M535,-324C535,-324 432,-324 432,-324 426,-324 420,-318 420,-312 420,-312 420,-300 420,-300 420,-294 426,-288 432,-288 432,-288 535,-288 535,-288 541,-288 547,-294 547,-300 547,-300 547,-312 547,-312 547,-318 541,-324 535,-324"/>
<text text-anchor="middle" x="483.5" y="-302.3" font-family="Times New Roman,serif" font-size="14.00">blockchain/stake/v2</text>
</g>
<!-- database&#45;&gt;stake -->
<g id="edge14" class="edge"><title>database&#45;&gt;stake</title>
<path fill="none" stroke="dodgerblue" d="M423.5,-349.831C423.5,-349.831 423.5,-324.413 423.5,-324.413"/>
<polygon fill="dodgerblue" stroke="dodgerblue" points="420,-349.831 423.5,-359.831 427,-349.831 420,-349.831"/>
</g>
<!-- hdkeychain&#45;&gt;dcrd -->
<g id="edge28" class="edge"><title>hdkeychain&#45;&gt;dcrd</title>
<path fill="none" stroke="deepskyblue" d="M307.5,-61.8314C307.5,-61.8314 307.5,-36.4133 307.5,-36.4133"/>
<polygon fill="deepskyblue" stroke="deepskyblue" points="304,-61.8313 307.5,-71.8314 311,-61.8314 304,-61.8313"/>
</g>
<!-- txscript&#45;&gt;stake -->
<g id="edge15" class="edge"><title>txscript&#45;&gt;stake</title>
<path fill="none" stroke="mediumspringgreen" d="M483.5,-349.831C483.5,-349.831 483.5,-324.413 483.5,-324.413"/>
<polygon fill="mediumspringgreen" stroke="mediumspringgreen" points="480,-349.831 483.5,-359.831 487,-349.831 480,-349.831"/>
</g>
<!-- gcs -->
<g id="node18" class="node"><title>gcs</title>
<path fill="gold" stroke="black" d="M570.5,-252C570.5,-252 540.5,-252 540.5,-252 534.5,-252 528.5,-246 528.5,-240 528.5,-240 528.5,-228 528.5,-228 528.5,-222 534.5,-216 540.5,-216 540.5,-216 570.5,-216 570.5,-216 576.5,-216 582.5,-222 582.5,-228 582.5,-228 582.5,-240 582.5,-240 582.5,-246 576.5,-252 570.5,-252"/>
<text text-anchor="middle" x="555.5" y="-230.3" font-family="Times New Roman,serif" font-size="14.00">gcs</text>
</g>
<!-- stake&#45;&gt;gcs -->
<g id="edge16" class="edge"><title>stake&#45;&gt;gcs</title>
<path fill="none" stroke="bisque" d="M537.75,-277.831C537.75,-277.831 537.75,-252.413 537.75,-252.413"/>
<polygon fill="bisque" stroke="bisque" points="534.25,-277.831 537.75,-287.831 541.25,-277.831 534.25,-277.831"/>
</g>
<!-- standalone -->
<g id="node17" class="node"><title>standalone</title>
<path fill="#8b1a1a" stroke="black" d="M498.5,-252C498.5,-252 382.5,-252 382.5,-252 376.5,-252 370.5,-246 370.5,-240 370.5,-240 370.5,-228 370.5,-228 370.5,-222 376.5,-216 382.5,-216 382.5,-216 498.5,-216 498.5,-216 504.5,-216 510.5,-222 510.5,-228 510.5,-228 510.5,-240 510.5,-240 510.5,-246 504.5,-252 498.5,-252"/>
<text text-anchor="middle" x="440.5" y="-230.3" font-family="Times New Roman,serif" font-size="14.00">blockchain/standalone</text>
</g>
<!-- blockchain -->
<g id="node19" class="node"><title>blockchain</title>
<path fill="orchid" stroke="black" d="M522,-180C522,-180 451,-180 451,-180 445,-180 439,-174 439,-168 439,-168 439,-156 439,-156 439,-150 445,-144 451,-144 451,-144 522,-144 522,-144 528,-144 534,-150 534,-156 534,-156 534,-168 534,-168 534,-174 528,-180 522,-180"/>
<text text-anchor="middle" x="486.5" y="-158.3" font-family="Times New Roman,serif" font-size="14.00">blockchain/v2</text>
</g>
<!-- standalone&#45;&gt;blockchain -->
<g id="edge17" class="edge"><title>standalone&#45;&gt;blockchain</title>
<path fill="none" stroke="#8b1a1a" d="M474.75,-205.831C474.75,-205.831 474.75,-180.413 474.75,-180.413"/>
<polygon fill="#8b1a1a" stroke="#8b1a1a" points="471.25,-205.831 474.75,-215.831 478.25,-205.831 471.25,-205.831"/>
</g>
<!-- gcs&#45;&gt;blockchain -->
<g id="edge18" class="edge"><title>gcs&#45;&gt;blockchain</title>
<path fill="none" stroke="gold" d="M520.371,-234C520.371,-234 519.5,-234 519.5,-234 519.5,-234 519.5,-201.498 519.5,-180.169"/>
<polygon fill="gold" stroke="gold" points="518.215,-237.5 528.215,-234 518.215,-230.5 518.215,-237.5"/>
</g>
<!-- gcs&#45;&gt;rpcclient -->
<g id="edge19" class="edge"><title>gcs&#45;&gt;rpcclient</title>
<path fill="none" stroke="gold" d="M592.749,-234C592.749,-234 637.333,-234 637.333,-234 637.333,-234 637.333,-146.986 637.333,-108.238"/>
<polygon fill="gold" stroke="gold" points="592.749,-230.5 582.749,-234 592.749,-237.5 592.749,-230.5"/>
</g>
<!-- mining -->
<g id="node20" class="node"><title>mining</title>
<path fill="chartreuse" stroke="black" d="M510,-108C510,-108 463,-108 463,-108 457,-108 451,-102 451,-96 451,-96 451,-84 451,-84 451,-78 457,-72 463,-72 463,-72 510,-72 510,-72 516,-72 522,-78 522,-84 522,-84 522,-96 522,-96 522,-102 516,-108 510,-108"/>
<text text-anchor="middle" x="486.5" y="-86.3" font-family="Times New Roman,serif" font-size="14.00">mining/v2</text>
</g>
<!-- blockchain&#45;&gt;mining -->
<g id="edge20" class="edge"><title>blockchain&#45;&gt;mining</title>
<path fill="none" stroke="orchid" d="M486.5,-133.831C486.5,-133.831 486.5,-108.413 486.5,-108.413"/>
<polygon fill="orchid" stroke="orchid" points="483,-133.831 486.5,-143.831 490,-133.831 483,-133.831"/>
</g>
<!-- peer -->
<g id="node22" class="node"><title>peer</title>
<path fill="khaki" stroke="black" d="M420.5,-108C420.5,-108 386.5,-108 386.5,-108 380.5,-108 374.5,-102 374.5,-96 374.5,-96 374.5,-84 374.5,-84 374.5,-78 380.5,-72 386.5,-72 386.5,-72 420.5,-72 420.5,-72 426.5,-72 432.5,-78 432.5,-84 432.5,-84 432.5,-96 432.5,-96 432.5,-102 426.5,-108 420.5,-108"/>
<text text-anchor="middle" x="403.5" y="-86.3" font-family="Times New Roman,serif" font-size="14.00">peer/v2</text>
</g>
<!-- blockchain&#45;&gt;peer -->
<g id="edge22" class="edge"><title>blockchain&#45;&gt;peer</title>
<path fill="none" stroke="orchid" d="M445,-133.831C445,-133.831 445,-90 445,-90 445,-90 439.64,-90 432.773,-90"/>
<polygon fill="orchid" stroke="orchid" points="441.5,-133.831 445,-143.831 448.5,-133.831 441.5,-133.831"/>
</g>
<!-- lru -->
<g id="node21" class="node"><title>lru</title>
<path fill="#3a5fcd" stroke="black" d="M408.5,-180C408.5,-180 378.5,-180 378.5,-180 372.5,-180 366.5,-174 366.5,-168 366.5,-168 366.5,-156 366.5,-156 366.5,-150 372.5,-144 378.5,-144 378.5,-144 408.5,-144 408.5,-144 414.5,-144 420.5,-150 420.5,-156 420.5,-156 420.5,-168 420.5,-168 420.5,-174 414.5,-180 408.5,-180"/>
<text text-anchor="middle" x="393.5" y="-158.3" font-family="Times New Roman,serif" font-size="14.00">lru</text>
</g>
<!-- lru&#45;&gt;peer -->
<g id="edge21" class="edge"><title>lru&#45;&gt;peer</title>
<path fill="none" stroke="#3a5fcd" d="M397.5,-133.831C397.5,-133.831 397.5,-108.413 397.5,-108.413"/>
<polygon fill="#3a5fcd" stroke="#3a5fcd" points="394,-133.831 397.5,-143.831 401,-133.831 394,-133.831"/>
</g>
<!-- peer&#45;&gt;dcrd -->
<g id="edge31" class="edge"><title>peer&#45;&gt;dcrd</title>
<path fill="none" stroke="khaki" d="M403.5,-61.7778C403.5,-61.7778 403.5,-27 403.5,-27 403.5,-27 363.135,-27 334.753,-27"/>
<polygon fill="khaki" stroke="khaki" points="400,-61.7778 403.5,-71.7778 407,-61.7778 400,-61.7778"/>
</g>
<!-- rpcclient&#45;&gt;dcrd -->
<g id="edge30" class="edge"><title>rpcclient&#45;&gt;dcrd</title>
<path fill="none" stroke="mediumseagreen" d="M653.5,-61.6198C653.5,-61.6198 653.5,-9 653.5,-9 653.5,-9 416.216,-9 334.65,-9"/>
<polygon fill="mediumseagreen" stroke="mediumseagreen" points="650,-61.6198 653.5,-71.6198 657,-61.6199 650,-61.6198"/>
</g>
<!-- fees -->
<g id="node24" class="node"><title>fees</title>
<path fill="#bcee68" stroke="black" d="M582.5,-108C582.5,-108 552.5,-108 552.5,-108 546.5,-108 540.5,-102 540.5,-96 540.5,-96 540.5,-84 540.5,-84 540.5,-78 546.5,-72 552.5,-72 552.5,-72 582.5,-72 582.5,-72 588.5,-72 594.5,-78 594.5,-84 594.5,-84 594.5,-96 594.5,-96 594.5,-102 588.5,-108 582.5,-108"/>
<text text-anchor="middle" x="567.5" y="-86.3" font-family="Times New Roman,serif" font-size="14.00">fees</text>
</g>
<!-- fees&#45;&gt;dcrd -->
<g id="edge25" class="edge"><title>fees&#45;&gt;dcrd</title>
<path fill="none" stroke="#bcee68" d="M567.5,-61.8314C567.5,-61.8314 567.5,-18 567.5,-18 567.5,-18 401.587,-18 334.833,-18"/>
<polygon fill="#bcee68" stroke="#bcee68" points="564,-61.8313 567.5,-71.8314 571,-61.8314 564,-61.8313"/>
</g>
</g>
</svg>
