<?xml version="1.0" encoding="UTF-8" standalone="no"?>
<!DOCTYPE svg PUBLIC "-//W3C//DTD SVG 1.1//EN"
 "http://www.w3.org/Graphics/SVG/1.1/DTD/svg11.dtd">
<!-- Generated by graphviz version 2.38.0 (20140413.2041)
 -->
<!-- Title: %3 Pages: 1 -->
<svg width="567pt" height="720pt"
 viewBox="0.00 0.00 567.00 720.00" xmlns="http://www.w3.org/2000/svg" xmlns:xlink="http://www.w3.org/1999/xlink">
<g id="graph0" class="graph" transform="scale(1 1) rotate(0) translate(4 716)">
<title>%3</title>
<polygon fill="white" stroke="#000000" points="-4,4 -4,-716 563,-716 563,4 -4,4"/>
<text text-anchor="start" x="213" y="-694.6" font-family="Times New Roman,serif" text-decoration="underline" font-size="18.00">Module Hierarchy</text>
<!-- certgen -->
<g id="node1" class="node"><title>certgen</title>
<path fill="darkkhaki" stroke="black" d="M45,-108C45,-108 12,-108 12,-108 6,-108 0,-102 0,-96 0,-96 0,-84 0,-84 0,-78 6,-72 12,-72 12,-72 45,-72 45,-72 51,-72 57,-78 57,-84 57,-84 57,-96 57,-96 57,-102 51,-108 45,-108"/>
<text text-anchor="middle" x="28.5" y="-86.3" font-family="Times New Roman,serif" font-size="14.00">certgen</text>
</g>
<!-- dcrd -->
<g id="node23" class="node"><title>dcrd</title>
<path fill="chocolate" stroke="black" d="M268.5,-36C268.5,-36 238.5,-36 238.5,-36 232.5,-36 226.5,-30 226.5,-24 226.5,-24 226.5,-12 226.5,-12 226.5,-6 232.5,-0 238.5,-0 238.5,-0 268.5,-0 268.5,-0 274.5,-0 280.5,-6 280.5,-12 280.5,-12 280.5,-24 280.5,-24 280.5,-30 274.5,-36 268.5,-36"/>
<text text-anchor="middle" x="253.5" y="-14.3" font-family="Times New Roman,serif" font-size="14.00">dcrd</text>
</g>
<!-- certgen&#45;&gt;dcrd -->
<g id="edge23" class="edge"><title>certgen&#45;&gt;dcrd</title>
<path fill="none" stroke="darkkhaki" d="M28.5,-61.9092C28.5,-61.9092 28.5,-12 28.5,-12 28.5,-12 166.517,-12 226.36,-12"/>
<polygon fill="darkkhaki" stroke="darkkhaki" points="25.0001,-61.9091 28.5,-71.9092 32.0001,-61.9092 25.0001,-61.9091"/>
</g>
<!-- chainhash -->
<g id="node2" class="node"><title>chainhash</title>
<path fill="aquamarine" stroke="black" d="M342.5,-684C342.5,-684 244.5,-684 244.5,-684 238.5,-684 232.5,-678 232.5,-672 232.5,-672 232.5,-660 232.5,-660 232.5,-654 238.5,-648 244.5,-648 244.5,-648 342.5,-648 342.5,-648 348.5,-648 354.5,-654 354.5,-660 354.5,-660 354.5,-672 354.5,-672 354.5,-678 348.5,-684 342.5,-684"/>
<text text-anchor="middle" x="293.5" y="-662.3" font-family="Times New Roman,serif" font-size="14.00">chaincfg/chainhash</text>
</g>
<!-- dcrjson -->
<g id="node3" class="node"><title>dcrjson</title>
<path fill="indianred" stroke="black" d="M319.5,-612C319.5,-612 267.5,-612 267.5,-612 261.5,-612 255.5,-606 255.5,-600 255.5,-600 255.5,-588 255.5,-588 255.5,-582 261.5,-576 267.5,-576 267.5,-576 319.5,-576 319.5,-576 325.5,-576 331.5,-582 331.5,-588 331.5,-588 331.5,-600 331.5,-600 331.5,-606 325.5,-612 319.5,-612"/>
<text text-anchor="middle" x="293.5" y="-590.3" font-family="Times New Roman,serif" font-size="14.00">dcrjson/v3</text>
</g>
<!-- chainhash&#45;&gt;dcrjson -->
<g id="edge1" class="edge"><title>chainhash&#45;&gt;dcrjson</title>
<path fill="none" stroke="aquamarine" d="M293.5,-637.831C293.5,-637.831 293.5,-612.413 293.5,-612.413"/>
<polygon fill="aquamarine" stroke="aquamarine" points="290,-637.831 293.5,-647.831 297,-637.831 290,-637.831"/>
</g>
<!-- wire -->
<g id="node5" class="node"><title>wire</title>
<path fill="coral" stroke="black" d="M189.5,-612C189.5,-612 159.5,-612 159.5,-612 153.5,-612 147.5,-606 147.5,-600 147.5,-600 147.5,-588 147.5,-588 147.5,-582 153.5,-576 159.5,-576 159.5,-576 189.5,-576 189.5,-576 195.5,-576 201.5,-582 201.5,-588 201.5,-588 201.5,-600 201.5,-600 201.5,-606 195.5,-612 189.5,-612"/>
<text text-anchor="middle" x="174.5" y="-590.3" font-family="Times New Roman,serif" font-size="14.00">wire</text>
</g>
<!-- chainhash&#45;&gt;wire -->
<g id="edge2" class="edge"><title>chainhash&#45;&gt;wire</title>
<path fill="none" stroke="aquamarine" d="M246.25,-637.831C246.25,-637.831 246.25,-594 246.25,-594 246.25,-594 221.944,-594 201.626,-594"/>
<polygon fill="aquamarine" stroke="aquamarine" points="242.75,-637.831 246.25,-647.831 249.75,-637.831 242.75,-637.831"/>
</g>
<!-- secp256k1 -->
<g id="node11" class="node"><title>secp256k1</title>
<path fill="mediumvioletred" stroke="black" d="M528,-612C528,-612 423,-612 423,-612 417,-612 411,-606 411,-600 411,-600 411,-588 411,-588 411,-582 417,-576 423,-576 423,-576 528,-576 528,-576 534,-576 540,-582 540,-588 540,-588 540,-600 540,-600 540,-606 534,-612 528,-612"/>
<text text-anchor="middle" x="475.5" y="-590.3" font-family="Times New Roman,serif" font-size="14.00">dcrec/secp256k1/v3</text>
</g>
<!-- chainhash&#45;&gt;secp256k1 -->
<g id="edge6" class="edge"><title>chainhash&#45;&gt;secp256k1</title>
<path fill="none" stroke="aquamarine" d="M343,-637.831C343,-637.831 343,-594 343,-594 343,-594 377.168,-594 410.803,-594"/>
<polygon fill="aquamarine" stroke="aquamarine" points="339.5,-637.831 343,-647.831 346.5,-637.831 339.5,-637.831"/>
</g>
<!-- types -->
<g id="node4" class="node"><title>types</title>
<path fill="tomato" stroke="black" d="M340,-468C340,-468 249,-468 249,-468 243,-468 237,-462 237,-456 237,-456 237,-444 237,-444 237,-438 243,-432 249,-432 249,-432 340,-432 340,-432 346,-432 352,-438 352,-444 352,-444 352,-456 352,-456 352,-462 346,-468 340,-468"/>
<text text-anchor="middle" x="294.5" y="-446.3" font-family="Times New Roman,serif" font-size="14.00">rpc/jsonrpc/types</text>
</g>
<!-- dcrjson&#45;&gt;types -->
<g id="edge21" class="edge"><title>dcrjson&#45;&gt;types</title>
<path fill="none" stroke="tomato" d="M288.5,-565.762C288.5,-565.762 288.5,-468.09 288.5,-468.09"/>
<polygon fill="tomato" stroke="tomato" points="285,-565.762 288.5,-575.762 292,-565.762 285,-565.762"/>
</g>
<!-- rpcclient -->
<g id="node22" class="node"><title>rpcclient</title>
<path fill="mediumseagreen" stroke="black" d="M328.5,-108C328.5,-108 270.5,-108 270.5,-108 264.5,-108 258.5,-102 258.5,-96 258.5,-96 258.5,-84 258.5,-84 258.5,-78 264.5,-72 270.5,-72 270.5,-72 328.5,-72 328.5,-72 334.5,-72 340.5,-78 340.5,-84 340.5,-84 340.5,-96 340.5,-96 340.5,-102 334.5,-108 328.5,-108"/>
<text text-anchor="middle" x="299.5" y="-86.3" font-family="Times New Roman,serif" font-size="14.00">rpcclient/v4</text>
</g>
<!-- types&#45;&gt;rpcclient -->
<g id="edge22" class="edge"><title>types&#45;&gt;rpcclient</title>
<path fill="none" stroke="indianred" d="M274.25,-421.653C274.25,-421.653 274.25,-108.31 274.25,-108.31"/>
<polygon fill="indianred" stroke="indianred" points="270.75,-421.653 274.25,-431.653 277.75,-421.653 270.75,-421.653"/>
</g>
<!-- addrmgr -->
<g id="node6" class="node"><title>addrmgr</title>
<path fill="lightsalmon" stroke="black" d="M228.5,-108C228.5,-108 188.5,-108 188.5,-108 182.5,-108 176.5,-102 176.5,-96 176.5,-96 176.5,-84 176.5,-84 176.5,-78 182.5,-72 188.5,-72 188.5,-72 228.5,-72 228.5,-72 234.5,-72 240.5,-78 240.5,-84 240.5,-84 240.5,-96 240.5,-96 240.5,-102 234.5,-108 228.5,-108"/>
<text text-anchor="middle" x="208.5" y="-86.3" font-family="Times New Roman,serif" font-size="14.00">addrmgr</text>
</g>
<!-- wire&#45;&gt;addrmgr -->
<g id="edge3" class="edge"><title>wire&#45;&gt;addrmgr</title>
<path fill="none" stroke="coral" d="M190.75,-565.765C190.75,-565.765 190.75,-108.211 190.75,-108.211"/>
<polygon fill="coral" stroke="coral" points="187.25,-565.765 190.75,-575.765 194.25,-565.765 187.25,-565.765"/>
</g>
<!-- chaincfg -->
<g id="node7" class="node"><title>chaincfg</title>
<path fill="cadetblue" stroke="black" d="M168,-540C168,-540 111,-540 111,-540 105,-540 99,-534 99,-528 99,-528 99,-516 99,-516 99,-510 105,-504 111,-504 111,-504 168,-504 168,-504 174,-504 180,-510 180,-516 180,-516 180,-528 180,-528 180,-534 174,-540 168,-540"/>
<text text-anchor="middle" x="139.5" y="-518.3" font-family="Times New Roman,serif" font-size="14.00">chaincfg/v3</text>
</g>
<!-- wire&#45;&gt;chaincfg -->
<g id="edge4" class="edge"><title>wire&#45;&gt;chaincfg</title>
<path fill="none" stroke="coral" d="M163.75,-565.831C163.75,-565.831 163.75,-540.413 163.75,-540.413"/>
<polygon fill="coral" stroke="coral" points="160.25,-565.831 163.75,-575.831 167.25,-565.831 160.25,-565.831"/>
</g>
<!-- connmgr -->
<g id="node8" class="node"><title>connmgr</title>
<path fill="mistyrose" stroke="black" d="M146,-108C146,-108 87,-108 87,-108 81,-108 75,-102 75,-96 75,-96 75,-84 75,-84 75,-78 81,-72 87,-72 87,-72 146,-72 146,-72 152,-72 158,-78 158,-84 158,-84 158,-96 158,-96 158,-102 152,-108 146,-108"/>
<text text-anchor="middle" x="116.5" y="-86.3" font-family="Times New Roman,serif" font-size="14.00">connmgr/v3</text>
</g>
<!-- wire&#45;&gt;connmgr -->
<g id="edge5" class="edge"><title>wire&#45;&gt;connmgr</title>
<path fill="none" stroke="coral" d="M137.294,-594C137.294,-594 87,-594 87,-594 87,-594 87,-198.592 87,-108.235"/>
<polygon fill="coral" stroke="coral" points="137.294,-597.5 147.294,-594 137.294,-590.5 137.294,-597.5"/>
</g>
<!-- addrmgr&#45;&gt;dcrd -->
<g id="edge24" class="edge"><title>addrmgr&#45;&gt;dcrd</title>
<path fill="none" stroke="lightsalmon" d="M233.5,-61.8314C233.5,-61.8314 233.5,-36.4133 233.5,-36.4133"/>
<polygon fill="lightsalmon" stroke="lightsalmon" points="230,-61.8313 233.5,-71.8314 237,-61.8314 230,-61.8313"/>
</g>
<!-- connmgr&#45;&gt;dcrd -->
<g id="edge26" class="edge"><title>connmgr&#45;&gt;dcrd</title>
<path fill="none" stroke="mistyrose" d="M116.5,-61.9652C116.5,-61.9652 116.5,-24 116.5,-24 116.5,-24 186.507,-24 226.433,-24"/>
<polygon fill="mistyrose" stroke="mistyrose" points="113,-61.9652 116.5,-71.9652 120,-61.9652 113,-61.9652"/>
</g>
<!-- dcrec -->
<g id="node9" class="node"><title>dcrec</title>
<path fill="mediumpurple" stroke="black" d="M363.5,-540C363.5,-540 333.5,-540 333.5,-540 327.5,-540 321.5,-534 321.5,-528 321.5,-528 321.5,-516 321.5,-516 321.5,-510 327.5,-504 333.5,-504 333.5,-504 363.5,-504 363.5,-504 369.5,-504 375.5,-510 375.5,-516 375.5,-516 375.5,-528 375.5,-528 375.5,-534 369.5,-540 363.5,-540"/>
<text text-anchor="middle" x="348.5" y="-518.3" font-family="Times New Roman,serif" font-size="14.00">dcrec</text>
</g>
<!-- dcrutil -->
<g id="node12" class="node"><title>dcrutil</title>
<path fill="burlywood" stroke="black" d="M474,-468C474,-468 429,-468 429,-468 423,-468 417,-462 417,-456 417,-456 417,-444 417,-444 417,-438 423,-432 429,-432 429,-432 474,-432 474,-432 480,-432 486,-438 486,-444 486,-444 486,-456 486,-456 486,-462 480,-468 474,-468"/>
<text text-anchor="middle" x="451.5" y="-446.3" font-family="Times New Roman,serif" font-size="14.00">dcrutil/v3</text>
</g>
<!-- dcrec&#45;&gt;dcrutil -->
<g id="edge7" class="edge"><title>dcrec&#45;&gt;dcrutil</title>
<path fill="none" stroke="mediumpurple" d="M363.75,-493.965C363.75,-493.965 363.75,-456 363.75,-456 363.75,-456 392.291,-456 416.819,-456"/>
<polygon fill="mediumpurple" stroke="mediumpurple" points="360.25,-493.965 363.75,-503.965 367.25,-493.965 360.25,-493.965"/>
</g>
<!-- edwards -->
<g id="node10" class="node"><title>edwards</title>
<path fill="lightseagreen" stroke="black" d="M497.5,-540C497.5,-540 405.5,-540 405.5,-540 399.5,-540 393.5,-534 393.5,-528 393.5,-528 393.5,-516 393.5,-516 393.5,-510 399.5,-504 405.5,-504 405.5,-504 497.5,-504 497.5,-504 503.5,-504 509.5,-510 509.5,-516 509.5,-516 509.5,-528 509.5,-528 509.5,-534 503.5,-540 497.5,-540"/>
<text text-anchor="middle" x="451.5" y="-518.3" font-family="Times New Roman,serif" font-size="14.00">dcrec/edwards/v2</text>
</g>
<!-- edwards&#45;&gt;dcrutil -->
<g id="edge8" class="edge"><title>edwards&#45;&gt;dcrutil</title>
<path fill="none" stroke="lightseagreen" d="M451.5,-493.831C451.5,-493.831 451.5,-468.413 451.5,-468.413"/>
<polygon fill="lightseagreen" stroke="lightseagreen" points="448,-493.831 451.5,-503.831 455,-493.831 448,-493.831"/>
</g>
<!-- secp256k1&#45;&gt;dcrutil -->
<g id="edge9" class="edge"><title>secp256k1&#45;&gt;dcrutil</title>
<path fill="none" stroke="mediumvioletred" d="M529.833,-565.959C529.833,-565.959 529.833,-456 529.833,-456 529.833,-456 507.071,-456 486.086,-456"/>
<polygon fill="mediumvioletred" stroke="mediumvioletred" points="526.333,-565.959 529.833,-575.959 533.333,-565.959 526.333,-565.959"/>
</g>
<!-- database -->
<g id="node13" class="node"><title>database</title>
<path fill="dodgerblue" stroke="black" d="M383,-396C383,-396 324,-396 324,-396 318,-396 312,-390 312,-384 312,-384 312,-372 312,-372 312,-366 318,-360 324,-360 324,-360 383,-360 383,-360 389,-360 395,-366 395,-372 395,-372 395,-384 395,-384 395,-390 389,-396 383,-396"/>
<text text-anchor="middle" x="353.5" y="-374.3" font-family="Times New Roman,serif" font-size="14.00">database/v2</text>
</g>
<!-- dcrutil&#45;&gt;database -->
<g id="edge10" class="edge"><title>dcrutil&#45;&gt;database</title>
<path fill="none" stroke="burlywood" d="M406.822,-444C406.822,-444 384.5,-444 384.5,-444 384.5,-444 384.5,-415.576 384.5,-396.035"/>
<polygon fill="burlywood" stroke="burlywood" points="406.823,-447.5 416.822,-444 406.822,-440.5 406.823,-447.5"/>
</g>
<!-- hdkeychain -->
<g id="node14" class="node"><title>hdkeychain</title>
<path fill="deepskyblue" stroke="black" d="M547,-108C547,-108 474,-108 474,-108 468,-108 462,-102 462,-96 462,-96 462,-84 462,-84 462,-78 468,-72 474,-72 474,-72 547,-72 547,-72 553,-72 559,-78 559,-84 559,-84 559,-96 559,-96 559,-102 553,-108 547,-108"/>
<text text-anchor="middle" x="510.5" y="-86.3" font-family="Times New Roman,serif" font-size="14.00">hdkeychain/v2</text>
</g>
<!-- dcrutil&#45;&gt;hdkeychain -->
<g id="edge11" class="edge"><title>dcrutil&#45;&gt;hdkeychain</title>
<path fill="none" stroke="burlywood" d="M496.382,-444C496.382,-444 519.667,-444 519.667,-444 519.667,-444 519.667,-180.18 519.667,-108.042"/>
<polygon fill="burlywood" stroke="burlywood" points="496.382,-440.5 486.382,-444 496.382,-447.5 496.382,-440.5"/>
</g>
<!-- txscript -->
<g id="node15" class="node"><title>txscript</title>
<path fill="mediumspringgreen" stroke="black" d="M477.5,-396C477.5,-396 425.5,-396 425.5,-396 419.5,-396 413.5,-390 413.5,-384 413.5,-384 413.5,-372 413.5,-372 413.5,-366 419.5,-360 425.5,-360 425.5,-360 477.5,-360 477.5,-360 483.5,-360 489.5,-366 489.5,-372 489.5,-372 489.5,-384 489.5,-384 489.5,-390 483.5,-396 477.5,-396"/>
<text text-anchor="middle" x="451.5" y="-374.3" font-family="Times New Roman,serif" font-size="14.00">txscript/v2</text>
</g>
<!-- dcrutil&#45;&gt;txscript -->
<g id="edge12" class="edge"><title>dcrutil&#45;&gt;txscript</title>
<path fill="none" stroke="burlywood" d="M451.5,-421.831C451.5,-421.831 451.5,-396.413 451.5,-396.413"/>
<polygon fill="burlywood" stroke="burlywood" points="448,-421.831 451.5,-431.831 455,-421.831 448,-421.831"/>
</g>
<!-- stake -->
<g id="node16" class="node"><title>stake</title>
<path fill="bisque" stroke="black" d="M405,-324C405,-324 302,-324 302,-324 296,-324 290,-318 290,-312 290,-312 290,-300 290,-300 290,-294 296,-288 302,-288 302,-288 405,-288 405,-288 411,-288 417,-294 417,-300 417,-300 417,-312 417,-312 417,-318 411,-324 405,-324"/>
<text text-anchor="middle" x="353.5" y="-302.3" font-family="Times New Roman,serif" font-size="14.00">blockchain/stake/v2</text>
</g>
<!-- database&#45;&gt;stake -->
<g id="edge13" class="edge"><title>database&#45;&gt;stake</title>
<path fill="none" stroke="dodgerblue" d="M353.5,-349.831C353.5,-349.831 353.5,-324.413 353.5,-324.413"/>
<polygon fill="dodgerblue" stroke="dodgerblue" points="350,-349.831 353.5,-359.831 357,-349.831 350,-349.831"/>
</g>
<!-- hdkeychain&#45;&gt;dcrd -->
<g id="edge25" class="edge"><title>hdkeychain&#45;&gt;dcrd</title>
<path fill="none" stroke="deepskyblue" d="M510.5,-61.9092C510.5,-61.9092 510.5,-12 510.5,-12 510.5,-12 346.502,-12 280.518,-12"/>
<polygon fill="deepskyblue" stroke="deepskyblue" points="507,-61.9091 510.5,-71.9092 514,-61.9092 507,-61.9091"/>
</g>
<!-- txscript&#45;&gt;stake -->
<g id="edge14" class="edge"><title>txscript&#45;&gt;stake</title>
<path fill="none" stroke="mediumspringgreen" d="M405.161,-378C405.161,-378 404.25,-378 404.25,-378 404.25,-378 404.25,-345.498 404.25,-324.169"/>
<polygon fill="mediumspringgreen" stroke="mediumspringgreen" points="403.36,-381.5 413.36,-378 403.36,-374.5 403.36,-381.5"/>
</g>
<!-- gcs -->
<g id="node18" class="node"><title>gcs</title>
<path fill="gold" stroke="black" d="M339.5,-252C339.5,-252 309.5,-252 309.5,-252 303.5,-252 297.5,-246 297.5,-240 297.5,-240 297.5,-228 297.5,-228 297.5,-222 303.5,-216 309.5,-216 309.5,-216 339.5,-216 339.5,-216 345.5,-216 351.5,-222 351.5,-228 351.5,-228 351.5,-240 351.5,-240 351.5,-246 345.5,-252 339.5,-252"/>
<text text-anchor="middle" x="324.5" y="-230.3" font-family="Times New Roman,serif" font-size="14.00">gcs</text>
</g>
<!-- stake&#45;&gt;gcs -->
<g id="edge15" class="edge"><title>stake&#45;&gt;gcs</title>
<path fill="none" stroke="bisque" d="M324.5,-277.831C324.5,-277.831 324.5,-252.413 324.5,-252.413"/>
<polygon fill="bisque" stroke="bisque" points="321,-277.831 324.5,-287.831 328,-277.831 321,-277.831"/>
</g>
<!-- standalone -->
<g id="node17" class="node"><title>standalone</title>
<path fill="#8b1a1a" stroke="black" d="M497.5,-252C497.5,-252 381.5,-252 381.5,-252 375.5,-252 369.5,-246 369.5,-240 369.5,-240 369.5,-228 369.5,-228 369.5,-222 375.5,-216 381.5,-216 381.5,-216 497.5,-216 497.5,-216 503.5,-216 509.5,-222 509.5,-228 509.5,-228 509.5,-240 509.5,-240 509.5,-246 503.5,-252 497.5,-252"/>
<text text-anchor="middle" x="439.5" y="-230.3" font-family="Times New Roman,serif" font-size="14.00">blockchain/standalone</text>
</g>
<!-- blockchain -->
<g id="node19" class="node"><title>blockchain</title>
<path fill="orchid" stroke="black" d="M483,-180C483,-180 412,-180 412,-180 406,-180 400,-174 400,-168 400,-168 400,-156 400,-156 400,-150 406,-144 412,-144 412,-144 483,-144 483,-144 489,-144 495,-150 495,-156 495,-156 495,-168 495,-168 495,-174 489,-180 483,-180"/>
<text text-anchor="middle" x="447.5" y="-158.3" font-family="Times New Roman,serif" font-size="14.00">blockchain/v2</text>
</g>
<!-- standalone&#45;&gt;blockchain -->
<g id="edge16" class="edge"><title>standalone&#45;&gt;blockchain</title>
<path fill="none" stroke="#8b1a1a" d="M463.333,-205.831C463.333,-205.831 463.333,-180.413 463.333,-180.413"/>
<polygon fill="#8b1a1a" stroke="#8b1a1a" points="459.833,-205.831 463.333,-215.831 466.833,-205.831 459.833,-205.831"/>
</g>
<!-- gcs&#45;&gt;blockchain -->
<g id="edge17" class="edge"><title>gcs&#45;&gt;blockchain</title>
<path fill="none" stroke="gold" d="M339.5,-205.578C339.5,-205.578 339.5,-198 339.5,-198 339.5,-198 431.667,-198 431.667,-198 431.667,-198 431.667,-189.279 431.667,-180.422"/>
<polygon fill="gold" stroke="gold" points="336,-205.578 339.5,-215.578 343,-205.578 336,-205.578"/>
</g>
<!-- gcs&#45;&gt;rpcclient -->
<g id="edge18" class="edge"><title>gcs&#45;&gt;rpcclient</title>
<path fill="none" stroke="gold" d="M312.5,-205.762C312.5,-205.762 312.5,-108.09 312.5,-108.09"/>
<polygon fill="gold" stroke="gold" points="309,-205.762 312.5,-215.762 316,-205.762 309,-205.762"/>
</g>
<!-- peer -->
<g id="node21" class="node"><title>peer</title>
<path fill="khaki" stroke="black" d="M404.5,-108C404.5,-108 370.5,-108 370.5,-108 364.5,-108 358.5,-102 358.5,-96 358.5,-96 358.5,-84 358.5,-84 358.5,-78 364.5,-72 370.5,-72 370.5,-72 404.5,-72 404.5,-72 410.5,-72 416.5,-78 416.5,-84 416.5,-84 416.5,-96 416.5,-96 416.5,-102 410.5,-108 404.5,-108"/>
<text text-anchor="middle" x="387.5" y="-86.3" font-family="Times New Roman,serif" font-size="14.00">peer/v2</text>
</g>
<!-- blockchain&#45;&gt;peer -->
<g id="edge20" class="edge"><title>blockchain&#45;&gt;peer</title>
<path fill="none" stroke="orchid" d="M408.25,-133.831C408.25,-133.831 408.25,-108.413 408.25,-108.413"/>
<polygon fill="orchid" stroke="orchid" points="404.75,-133.831 408.25,-143.831 411.75,-133.831 404.75,-133.831"/>
</g>
<!-- lru -->
<g id="node20" class="node"><title>lru</title>
<path fill="#3a5fcd" stroke="black" d="M369.5,-180C369.5,-180 339.5,-180 339.5,-180 333.5,-180 327.5,-174 327.5,-168 327.5,-168 327.5,-156 327.5,-156 327.5,-150 333.5,-144 339.5,-144 339.5,-144 369.5,-144 369.5,-144 375.5,-144 381.5,-150 381.5,-156 381.5,-156 381.5,-168 381.5,-168 381.5,-174 375.5,-180 369.5,-180"/>
<text text-anchor="middle" x="354.5" y="-158.3" font-family="Times New Roman,serif" font-size="14.00">lru</text>
</g>
<!-- lru&#45;&gt;peer -->
<g id="edge19" class="edge"><title>lru&#45;&gt;peer</title>
<path fill="none" stroke="#3a5fcd" d="M370,-133.831C370,-133.831 370,-108.413 370,-108.413"/>
<polygon fill="#3a5fcd" stroke="#3a5fcd" points="366.5,-133.831 370,-143.831 373.5,-133.831 366.5,-133.831"/>
</g>
<!-- peer&#45;&gt;dcrd -->
<g id="edge28" class="edge"><title>peer&#45;&gt;dcrd</title>
<path fill="none" stroke="khaki" d="M387.5,-61.9652C387.5,-61.9652 387.5,-24 387.5,-24 387.5,-24 319.772,-24 280.617,-24"/>
<polygon fill="khaki" stroke="khaki" points="384,-61.9652 387.5,-71.9652 391,-61.9652 384,-61.9652"/>
</g>
<!-- rpcclient&#45;&gt;dcrd -->
<g id="edge27" class="edge"><title>rpcclient&#45;&gt;dcrd</title>
<path fill="none" stroke="mediumseagreen" d="M269.5,-61.8314C269.5,-61.8314 269.5,-36.4133 269.5,-36.4133"/>
<polygon fill="mediumseagreen" stroke="mediumseagreen" points="266,-61.8313 269.5,-71.8314 273,-61.8314 266,-61.8313"/>
</g>
</g>
</svg>
